<svg width="24" height="24" viewBox="0 0 24 24" fill="none" xmlns="http://www.w3.org/2000/svg">
<path d="M10.8 7.19961C10.1635 7.19961 9.55306 7.45247 9.10297 7.90255C8.65288 8.35264 8.40002 8.96309 8.40002 9.59961C8.40002 10.2361 8.65288 10.8466 9.10297 11.2967C9.55306 11.7468 10.1635 11.9996 10.8 11.9996C11.4365 11.9996 12.047 11.7468 12.4971 11.2967C12.9472 10.8466 13.2 10.2361 13.2 9.59961C13.2 8.96309 12.9472 8.35264 12.4971 7.90255C12.047 7.45247 11.4365 7.19961 10.8 7.19961ZM9.60002 9.59961C9.60002 9.28135 9.72645 8.97613 9.9515 8.75108C10.1765 8.52604 10.4818 8.39961 10.8 8.39961C11.1183 8.39961 11.4235 8.52604 11.6486 8.75108C11.8736 8.97613 12 9.28135 12 9.59961C12 9.91787 11.8736 10.2231 11.6486 10.4481C11.4235 10.6732 11.1183 10.7996 10.8 10.7996C10.4818 10.7996 10.1765 10.6732 9.9515 10.4481C9.72645 10.2231 9.60002 9.91787 9.60002 9.59961ZM2.40002 5.39961C2.40002 4.92222 2.58967 4.46438 2.92723 4.12682C3.2648 3.78925 3.72263 3.59961 4.20002 3.59961H17.4C17.8774 3.59961 18.3353 3.78925 18.6728 4.12682C19.0104 4.46438 19.2 4.92222 19.2 5.39961V9.59961H18V8.39961H16.8C16.1635 8.39961 15.5531 8.14675 15.103 7.69667C14.6529 7.24658 14.4 6.63613 14.4 5.99961V4.79961H7.20002V5.99961C7.20002 6.63613 6.94717 7.24658 6.49708 7.69667C6.04699 8.14675 5.43654 8.39961 4.80002 8.39961H3.60002V10.7996H4.80002C5.43654 10.7996 6.04699 11.0525 6.49708 11.5026C6.94717 11.9526 7.20002 12.5631 7.20002 13.1996V14.3996H13.2V15.5996H4.20002C3.72263 15.5996 3.2648 15.41 2.92723 15.0724C2.58967 14.7348 2.40002 14.277 2.40002 13.7996V5.39961ZM4.20002 4.79961C4.04089 4.79961 3.88828 4.86282 3.77576 4.97535C3.66324 5.08787 3.60002 5.24048 3.60002 5.39961V7.19961H4.80002C5.11828 7.19961 5.42351 7.07318 5.64855 6.84814C5.8736 6.62309 6.00002 6.31787 6.00002 5.99961V4.79961H4.20002ZM17.4 4.79961H15.6V5.99961C15.6 6.31787 15.7265 6.62309 15.9515 6.84814C16.1765 7.07318 16.4818 7.19961 16.8 7.19961H18V5.39961C18 5.24048 17.9368 5.08787 17.8243 4.97535C17.7118 4.86282 17.5592 4.79961 17.4 4.79961ZM4.20002 14.3996H6.00002V13.1996C6.00002 12.8813 5.8736 12.5761 5.64855 12.3511C5.42351 12.126 5.11828 11.9996 4.80002 11.9996H3.60002V13.7996C3.60002 13.9587 3.66324 14.1114 3.77576 14.2239C3.88828 14.3364 4.04089 14.3996 4.20002 14.3996ZM20.4 9.59961V6.10161C20.7511 6.22574 21.0551 6.45571 21.27 6.75982C21.4849 7.06393 21.6002 7.42722 21.6 7.79961V9.59961H20.4ZM13.2 16.7996V17.9996H6.60002C6.22763 17.9998 5.86435 17.8845 5.56024 17.6696C5.25612 17.4547 5.02615 17.1507 4.90202 16.7996H13.2ZM16.2 10.7996C15.7226 10.7996 15.2648 10.9893 14.9272 11.3268C14.5897 11.6644 14.4 12.1222 14.4 12.5996V20.9996C14.4 21.477 14.5897 21.9348 14.9272 22.2724C15.2648 22.61 15.7226 22.7996 16.2 22.7996H21C21.4774 22.7996 21.9353 22.61 22.2728 22.2724C22.6104 21.9348 22.8 21.477 22.8 20.9996V12.5996C22.8 12.1222 22.6104 11.6644 22.2728 11.3268C21.9353 10.9893 21.4774 10.7996 21 10.7996H16.2ZM16.2 15.5996H17.4C17.5592 15.5996 17.7118 15.6628 17.8243 15.7753C17.9368 15.8879 18 16.0405 18 16.1996C18 16.3587 17.9368 16.5114 17.8243 16.6239C17.7118 16.7364 17.5592 16.7996 17.4 16.7996H16.2C16.0409 16.7996 15.8883 16.7364 15.7758 16.6239C15.6632 16.5114 15.6 16.3587 15.6 16.1996C15.6 16.0405 15.6632 15.8879 15.7758 15.7753C15.8883 15.6628 16.0409 15.5996 16.2 15.5996ZM19.8 15.5996H21C21.1592 15.5996 21.3118 15.6628 21.4243 15.7753C21.5368 15.8879 21.6 16.0405 21.6 16.1996C21.6 16.3587 21.5368 16.5114 21.4243 16.6239C21.3118 16.7364 21.1592 16.7996 21 16.7996H19.8C19.6409 16.7996 19.4883 16.7364 19.3758 16.6239C19.2632 16.5114 19.2 16.3587 19.2 16.1996C19.2 16.0405 19.2632 15.8879 19.3758 15.7753C19.4883 15.6628 19.6409 15.5996 19.8 15.5996ZM16.2 17.9996H17.4C17.5592 17.9996 17.7118 18.0628 17.8243 18.1753C17.9368 18.2879 18 18.4405 18 18.5996C18 18.7587 17.9368 18.9114 17.8243 19.0239C17.7118 19.1364 17.5592 19.1996 17.4 19.1996H16.2C16.0409 19.1996 15.8883 19.1364 15.7758 19.0239C15.6632 18.9114 15.6 18.7587 15.6 18.5996C15.6 18.4405 15.6632 18.2879 15.7758 18.1753C15.8883 18.0628 16.0409 17.9996 16.2 17.9996ZM19.8 17.9996H21C21.1592 17.9996 21.3118 18.0628 21.4243 18.1753C21.5368 18.2879 21.6 18.4405 21.6 18.5996C21.6 18.7587 21.5368 18.9114 21.4243 19.0239C21.3118 19.1364 21.1592 19.1996 21 19.1996H19.8C19.6409 19.1996 19.4883 19.1364 19.3758 19.0239C19.2632 18.9114 19.2 18.7587 19.2 18.5996C19.2 18.4405 19.2632 18.2879 19.3758 18.1753C19.4883 18.0628 19.6409 17.9996 19.8 17.9996ZM16.2 20.3996H17.4C17.5592 20.3996 17.7118 20.4628 17.8243 20.5753C17.9368 20.6879 18 20.8405 18 20.9996C18 21.1587 17.9368 21.3114 17.8243 21.4239C17.7118 21.5364 17.5592 21.5996 17.4 21.5996H16.2C16.0409 21.5996 15.8883 21.5364 15.7758 21.4239C15.6632 21.3114 15.6 21.1587 15.6 20.9996C15.6 20.8405 15.6632 20.6879 15.7758 20.5753C15.8883 20.4628 16.0409 20.3996 16.2 20.3996ZM19.8 20.3996H21C21.1592 20.3996 21.3118 20.4628 21.4243 20.5753C21.5368 20.6879 21.6 20.8405 21.6 20.9996C21.6 21.1587 21.5368 21.3114 21.4243 21.4239C21.3118 21.5364 21.1592 21.5996 21 21.5996H19.8C19.6409 21.5996 19.4883 21.5364 19.3758 21.4239C19.2632 21.3114 19.2 21.1587 19.2 20.9996C19.2 20.8405 19.2632 20.6879 19.3758 20.5753C19.4883 20.4628 19.6409 20.3996 19.8 20.3996ZM15.6 12.5996C15.6 12.4405 15.6632 12.2879 15.7758 12.1753C15.8883 12.0628 16.0409 11.9996 16.2 11.9996H21C21.1592 11.9996 21.3118 12.0628 21.4243 12.1753C21.5368 12.2879 21.6 12.4405 21.6 12.5996V13.7996C21.6 13.9587 21.5368 14.1114 21.4243 14.2239C21.3118 14.3364 21.1592 14.3996 21 14.3996H16.2C16.0409 14.3996 15.8883 14.3364 15.7758 14.2239C15.6632 14.1114 15.6 13.9587 15.6 13.7996V12.5996Z" fill="#003366"/>
</svg>
