<svg width="24" height="24" viewBox="0 0 24 24" fill="none" xmlns="http://www.w3.org/2000/svg">
<path d="M18.8 6.59961C18.8 5.80396 18.4839 5.0409 17.9213 4.47829C17.3587 3.91568 16.5956 3.59961 15.8 3.59961H5C4.20435 3.59961 3.44129 3.91568 2.87868 4.47829C2.31607 5.0409 2 5.80396 2 6.59961V17.3996C2 18.1953 2.31607 18.9583 2.87868 19.5209C3.44129 20.0835 4.20435 20.3996 5 20.3996H11.6V19.1996H8V15.5996H11.6V14.3996H8V9.59961H12.8V10.1996C13.148 9.93681 13.556 9.74961 14 9.65961V9.59961H18.8V6.59961ZM3.2 17.3996V15.5996H6.8V19.1996H5L4.8272 19.1912C4.38181 19.1483 3.96838 18.9409 3.66754 18.6097C3.3667 18.2785 3.20002 17.8471 3.2 17.3996ZM12.8 8.39961H8V4.79961H12.8V8.39961ZM14 4.79961H15.8L15.974 4.80801C16.4192 4.85125 16.8323 5.05868 17.1329 5.38988C17.4335 5.72109 17.6 6.15234 17.6 6.59961V8.39961H14V4.79961ZM3.2 8.39961V6.59961L3.2084 6.42681C3.25136 5.98142 3.45866 5.56799 3.7899 5.26715C4.12113 4.96631 4.55254 4.79963 5 4.79961H6.8V8.39961H3.2ZM6.8 9.59961V14.3996H3.2V9.59961H6.8ZM12.8 12.5996C12.8 12.1222 12.9896 11.6644 13.3272 11.3268C13.6648 10.9893 14.1226 10.7996 14.6 10.7996H19.4C19.8774 10.7996 20.3352 10.9893 20.6728 11.3268C21.0104 11.6644 21.2 12.1222 21.2 12.5996V20.9996C21.2 21.477 21.0104 21.9348 20.6728 22.2724C20.3352 22.61 19.8774 22.7996 19.4 22.7996H14.6C14.1226 22.7996 13.6648 22.61 13.3272 22.2724C12.9896 21.9348 12.8 21.477 12.8 20.9996V12.5996ZM15.8 15.5996H14.6C14.4409 15.5996 14.2883 15.6628 14.1757 15.7753C14.0632 15.8879 14 16.0405 14 16.1996C14 16.3587 14.0632 16.5114 14.1757 16.6239C14.2883 16.7364 14.4409 16.7996 14.6 16.7996H15.8C15.9591 16.7996 16.1117 16.7364 16.2243 16.6239C16.3368 16.5114 16.4 16.3587 16.4 16.1996C16.4 16.0405 16.3368 15.8879 16.2243 15.7753C16.1117 15.6628 15.9591 15.5996 15.8 15.5996ZM20 16.1996C20 16.0405 19.9368 15.8879 19.8243 15.7753C19.7117 15.6628 19.5591 15.5996 19.4 15.5996H18.2C18.0409 15.5996 17.8883 15.6628 17.7757 15.7753C17.6632 15.8879 17.6 16.0405 17.6 16.1996C17.6 16.3587 17.6632 16.5114 17.7757 16.6239C17.8883 16.7364 18.0409 16.7996 18.2 16.7996H19.4C19.5591 16.7996 19.7117 16.7364 19.8243 16.6239C19.9368 16.5114 20 16.3587 20 16.1996ZM15.8 17.9996H14.6C14.4409 17.9996 14.2883 18.0628 14.1757 18.1753C14.0632 18.2879 14 18.4405 14 18.5996C14 18.7587 14.0632 18.9114 14.1757 19.0239C14.2883 19.1364 14.4409 19.1996 14.6 19.1996H15.8C15.9591 19.1996 16.1117 19.1364 16.2243 19.0239C16.3368 18.9114 16.4 18.7587 16.4 18.5996C16.4 18.4405 16.3368 18.2879 16.2243 18.1753C16.1117 18.0628 15.9591 17.9996 15.8 17.9996ZM20 18.5996C20 18.4405 19.9368 18.2879 19.8243 18.1753C19.7117 18.0628 19.5591 17.9996 19.4 17.9996H18.2C18.0409 17.9996 17.8883 18.0628 17.7757 18.1753C17.6632 18.2879 17.6 18.4405 17.6 18.5996C17.6 18.7587 17.6632 18.9114 17.7757 19.0239C17.8883 19.1364 18.0409 19.1996 18.2 19.1996H19.4C19.5591 19.1996 19.7117 19.1364 19.8243 19.0239C19.9368 18.9114 20 18.7587 20 18.5996ZM15.8 20.3996H14.6C14.4409 20.3996 14.2883 20.4628 14.1757 20.5753C14.0632 20.6879 14 20.8405 14 20.9996C14 21.1587 14.0632 21.3114 14.1757 21.4239C14.2883 21.5364 14.4409 21.5996 14.6 21.5996H15.8C15.9591 21.5996 16.1117 21.5364 16.2243 21.4239C16.3368 21.3114 16.4 21.1587 16.4 20.9996C16.4 20.8405 16.3368 20.6879 16.2243 20.5753C16.1117 20.4628 15.9591 20.3996 15.8 20.3996ZM20 20.9996C20 20.8405 19.9368 20.6879 19.8243 20.5753C19.7117 20.4628 19.5591 20.3996 19.4 20.3996H18.2C18.0409 20.3996 17.8883 20.4628 17.7757 20.5753C17.6632 20.6879 17.6 20.8405 17.6 20.9996C17.6 21.1587 17.6632 21.3114 17.7757 21.4239C17.8883 21.5364 18.0409 21.5996 18.2 21.5996H19.4C19.5591 21.5996 19.7117 21.5364 19.8243 21.4239C19.9368 21.3114 20 21.1587 20 20.9996ZM14.6 11.9996C14.4409 11.9996 14.2883 12.0628 14.1757 12.1753C14.0632 12.2879 14 12.4405 14 12.5996V13.7996C14 13.9587 14.0632 14.1114 14.1757 14.2239C14.2883 14.3364 14.4409 14.3996 14.6 14.3996H19.4C19.5591 14.3996 19.7117 14.3364 19.8243 14.2239C19.9368 14.1114 20 13.9587 20 13.7996V12.5996C20 12.4405 19.9368 12.2879 19.8243 12.1753C19.7117 12.0628 19.5591 11.9996 19.4 11.9996H14.6Z" fill="white"/>
</svg>
