<svg width="20" height="20" viewBox="0 0 20 20" fill="none" xmlns="http://www.w3.org/2000/svg">
<path d="M2.5 9.10962H5.9375C6.17371 9.10962 6.40036 9.20334 6.56738 9.37036C6.73433 9.53737 6.82812 9.76409 6.82812 10.0002C6.82806 10.2364 6.73435 10.4632 6.56738 10.6301C6.40037 10.7971 6.17365 10.8909 5.9375 10.8909H2.76562V15.3596H17.2344V10.8909H14.0625C13.8263 10.8909 13.5996 10.7971 13.4326 10.6301C13.2656 10.4632 13.1719 10.2364 13.1719 10.0002C13.1719 9.76409 13.2657 9.53737 13.4326 9.37036C13.5996 9.20334 13.8263 9.10962 14.0625 9.10962H17.5C17.9018 9.10962 18.2871 9.26898 18.5713 9.55298C18.8555 9.83721 19.0156 10.2233 19.0156 10.6252V15.6252C19.0156 16.0271 18.8555 16.4124 18.5713 16.6965C18.2871 16.9807 17.9019 17.1409 17.5 17.1409H2.5C2.09809 17.1409 1.71293 16.9807 1.42871 16.6965C1.14453 16.4124 0.984438 16.0271 0.984375 15.6252V10.6252C0.984375 10.2233 1.14448 9.83721 1.42871 9.55298C1.71291 9.26898 2.09821 9.10962 2.5 9.10962ZM14.4531 11.9446C14.6863 11.8983 14.9278 11.923 15.1475 12.0139C15.3672 12.1049 15.5553 12.2586 15.6875 12.4563C15.8197 12.6542 15.8906 12.8873 15.8906 13.1252C15.8906 13.4442 15.7637 13.7503 15.5381 13.9758C15.3125 14.2014 15.0065 14.3284 14.6875 14.3284C14.4496 14.3284 14.2173 14.2573 14.0195 14.1252C13.8217 13.993 13.6672 13.805 13.5762 13.5852C13.4851 13.3654 13.4614 13.1232 13.5078 12.8899C13.5543 12.6567 13.6688 12.4428 13.8369 12.2747C14.0052 12.1064 14.2197 11.991 14.4531 11.9446ZM10.001 0.983643C10.1181 0.983668 10.2346 1.00708 10.3428 1.052C10.4508 1.09695 10.5492 1.16246 10.6318 1.24536L14.3818 4.99536C14.4647 5.07821 14.5304 5.17715 14.5752 5.2854C14.6199 5.39347 14.6425 5.50926 14.6426 5.62622C14.6426 5.74338 14.62 5.85977 14.5752 5.96802C14.5304 6.07615 14.4646 6.17428 14.3818 6.25708C14.299 6.33993 14.2 6.4056 14.0918 6.45044C13.9837 6.4952 13.868 6.51877 13.751 6.5188C13.6338 6.5188 13.5174 6.49528 13.4092 6.45044C13.301 6.4056 13.2029 6.33986 13.1201 6.25708L10.8906 4.02759V10.0002C10.8906 10.2364 10.7969 10.4632 10.6299 10.6301C10.4629 10.7971 10.2362 10.8909 10 10.8909C9.76385 10.8909 9.53713 10.7971 9.37012 10.6301C9.20315 10.4632 9.10944 10.2364 9.10938 10.0002V4.02759L9.0293 4.10767L6.87988 6.25513L6.85254 6.28247C6.68835 6.43312 6.47472 6.51875 6.25098 6.5188C6.01434 6.5188 5.78745 6.42441 5.62012 6.25708C5.45284 6.08976 5.3584 5.86282 5.3584 5.62622C5.35844 5.50921 5.382 5.39351 5.42676 5.2854C5.4716 5.17715 5.53726 5.07821 5.62012 4.99536L9.37012 1.24536C9.45278 1.16247 9.55107 1.09691 9.65918 1.052C9.76744 1.00705 9.88376 0.983643 10.001 0.983643Z" fill="#475569" stroke="#475569" stroke-width="0.09375"/>
</svg>
