<svg width="20" height="20" viewBox="0 0 20 20" fill="none" xmlns="http://www.w3.org/2000/svg">
<path d="M6.57036 15.939L5.42773 18.0006" stroke="black" stroke-linecap="round" stroke-linejoin="round"/>
<path d="M13.4297 15.939L14.5723 18.0006" stroke="black" stroke-linecap="round" stroke-linejoin="round"/>
<path d="M9.99974 16.8579C13.7869 16.8579 16.8569 13.7878 16.8569 10.0007C16.8569 6.21361 13.7869 3.14355 9.99974 3.14355C6.21264 3.14355 3.14258 6.21361 3.14258 10.0007C3.14258 13.7878 6.21264 16.8579 9.99974 16.8579Z" stroke="black" stroke-linecap="round" stroke-linejoin="round"/>
<path d="M3.37227 8.17254C2.84583 7.77797 2.44403 7.24026 2.21482 6.62359C1.98561 6.00692 1.93866 5.33732 2.07957 4.69469C2.22049 4.05206 2.54332 3.46355 3.00954 2.99937C3.47576 2.53519 4.06569 2.21495 4.70893 2.07686C5.35217 1.93878 6.02155 1.98867 6.63721 2.22059C7.25287 2.45251 7.78881 2.85667 8.18106 3.38483" stroke="black" stroke-linecap="round" stroke-linejoin="round"/>
<path d="M10 3.14334L10 2.00049" stroke="black" stroke-linecap="round" stroke-linejoin="round"/>
<path d="M10 6.57178V10.0003" stroke="black" stroke-linecap="round" stroke-linejoin="round"/>
<path d="M10 10.0005L12.4244 12.4249" stroke="black" stroke-linecap="round" stroke-linejoin="round"/>
<path d="M16.6272 8.17254C17.1536 7.77797 17.5554 7.24026 17.7846 6.62359C18.0138 6.00692 18.0608 5.33732 17.9199 4.69469C17.7789 4.05206 17.4561 3.46355 16.9899 2.99937C16.5237 2.53519 15.9337 2.21495 15.2905 2.07686C14.6473 1.93878 13.9779 1.98867 13.3622 2.22059C12.7466 2.45251 12.2106 2.85667 11.8184 3.38483" stroke="black" stroke-linecap="round" stroke-linejoin="round"/>
</svg>
