<svg width="16" height="12" viewBox="0 0 16 12" fill="none" xmlns="http://www.w3.org/2000/svg">
<path d="M4.6875 9.42188H14.6875C14.9237 9.42188 15.1504 9.51559 15.3174 9.68262C15.4844 9.84964 15.5781 10.0763 15.5781 10.3125C15.5781 10.5487 15.4844 10.7754 15.3174 10.9424C15.1504 11.1094 14.9237 11.2031 14.6875 11.2031H4.6875C4.45129 11.2031 4.22464 11.1094 4.05762 10.9424C3.89059 10.7754 3.79688 10.5487 3.79688 10.3125C3.79688 10.0763 3.89059 9.84964 4.05762 9.68262C4.22464 9.51559 4.45129 9.42188 4.6875 9.42188ZM0.9375 6.29688H14.6875C14.9237 6.29688 15.1504 6.39059 15.3174 6.55762C15.4844 6.72464 15.5781 6.95129 15.5781 7.1875C15.5781 7.42371 15.4844 7.65036 15.3174 7.81738C15.1504 7.98441 14.9237 8.07812 14.6875 8.07812H0.9375C0.701292 8.07812 0.474642 7.98441 0.307617 7.81738C0.140593 7.65036 0.046875 7.42371 0.046875 7.1875C0.046875 6.95129 0.140593 6.72464 0.307617 6.55762C0.474642 6.39059 0.701292 6.29688 0.9375 6.29688ZM4.6875 3.17188H14.6875C14.9237 3.17188 15.1504 3.26559 15.3174 3.43262C15.4844 3.59964 15.5781 3.82629 15.5781 4.0625C15.5781 4.29871 15.4844 4.52536 15.3174 4.69238C15.1504 4.85941 14.9237 4.95312 14.6875 4.95312H4.6875C4.45129 4.95312 4.22464 4.85941 4.05762 4.69238C3.89059 4.52536 3.79688 4.29871 3.79688 4.0625C3.79688 3.82629 3.89059 3.59964 4.05762 3.43262C4.22464 3.26559 4.45129 3.17188 4.6875 3.17188ZM0.9375 0.046875H14.6875C14.9237 0.046875 15.1504 0.140593 15.3174 0.307617C15.4844 0.474642 15.5781 0.701292 15.5781 0.9375C15.5781 1.17371 15.4844 1.40036 15.3174 1.56738C15.1504 1.73441 14.9237 1.82812 14.6875 1.82812H0.9375C0.701292 1.82812 0.474642 1.73441 0.307617 1.56738C0.140593 1.40036 0.046875 1.17371 0.046875 0.9375C0.046875 0.701292 0.140593 0.474642 0.307617 0.307617C0.474642 0.140593 0.701292 0.046875 0.9375 0.046875Z" fill="#475569" stroke="#475569" stroke-width="0.09375"/>
</svg>
