<svg width="20" height="20" viewBox="0 0 20 20" fill="none" xmlns="http://www.w3.org/2000/svg">
<path d="M6.875 13.4844H16.875C17.1112 13.4844 17.3379 13.5781 17.5049 13.7451C17.6719 13.9121 17.7656 14.1388 17.7656 14.375C17.7656 14.6112 17.6719 14.8379 17.5049 15.0049C17.3379 15.1719 17.1112 15.2656 16.875 15.2656H6.875C6.63879 15.2656 6.41214 15.1719 6.24512 15.0049C6.07809 14.8379 5.98438 14.6112 5.98438 14.375C5.98438 14.1388 6.07809 13.9121 6.24512 13.7451C6.41214 13.5781 6.63879 13.4844 6.875 13.4844ZM3.125 10.3594H16.875C17.1112 10.3594 17.3379 10.4531 17.5049 10.6201C17.6719 10.7871 17.7656 11.0138 17.7656 11.25C17.7656 11.4862 17.6719 11.7129 17.5049 11.8799C17.3379 12.0469 17.1112 12.1406 16.875 12.1406H3.125C2.88879 12.1406 2.66214 12.0469 2.49512 11.8799C2.32809 11.7129 2.23438 11.4862 2.23438 11.25C2.23438 11.0138 2.32809 10.7871 2.49512 10.6201C2.66214 10.4531 2.88879 10.3594 3.125 10.3594ZM6.875 7.23438H16.875C17.1112 7.23438 17.3379 7.32809 17.5049 7.49512C17.6719 7.66214 17.7656 7.88879 17.7656 8.125C17.7656 8.36121 17.6719 8.58786 17.5049 8.75488C17.3379 8.92191 17.1112 9.01562 16.875 9.01562H6.875C6.63879 9.01562 6.41214 8.92191 6.24512 8.75488C6.07809 8.58786 5.98438 8.36121 5.98438 8.125C5.98438 7.88879 6.07809 7.66214 6.24512 7.49512C6.41214 7.32809 6.63879 7.23438 6.875 7.23438ZM3.125 4.10938H16.875C17.1112 4.10938 17.3379 4.20309 17.5049 4.37012C17.6719 4.53714 17.7656 4.76379 17.7656 5C17.7656 5.23621 17.6719 5.46286 17.5049 5.62988C17.3379 5.79691 17.1112 5.89062 16.875 5.89062H3.125C2.88879 5.89062 2.66214 5.79691 2.49512 5.62988C2.32809 5.46286 2.23438 5.23621 2.23438 5C2.23438 4.76379 2.32809 4.53714 2.49512 4.37012C2.66214 4.20309 2.88879 4.10938 3.125 4.10938Z" fill="#475569" stroke="#475569" stroke-width="0.09375"/>
</svg>
