<svg width="20" height="20" viewBox="0 0 20 20" fill="none" xmlns="http://www.w3.org/2000/svg">
<path d="M5 13.4844H15C15.2362 13.4844 15.4629 13.5781 15.6299 13.7451C15.7969 13.9121 15.8906 14.1388 15.8906 14.375C15.8906 14.6112 15.7969 14.8379 15.6299 15.0049C15.4629 15.1719 15.2362 15.2656 15 15.2656H5C4.76379 15.2656 4.53714 15.1719 4.37012 15.0049C4.20309 14.8379 4.10938 14.6112 4.10938 14.375C4.10938 14.1388 4.20309 13.9121 4.37012 13.7451C4.53714 13.5781 4.76379 13.4844 5 13.4844ZM3.125 10.3594H16.875C17.1112 10.3594 17.3379 10.4531 17.5049 10.6201C17.6719 10.7871 17.7656 11.0138 17.7656 11.25C17.7656 11.4862 17.6719 11.7129 17.5049 11.8799C17.3379 12.0469 17.1112 12.1406 16.875 12.1406H3.125C2.88879 12.1406 2.66214 12.0469 2.49512 11.8799C2.32809 11.7129 2.23438 11.4862 2.23438 11.25C2.23438 11.0138 2.32809 10.7871 2.49512 10.6201C2.66214 10.4531 2.88879 10.3594 3.125 10.3594ZM5 7.23438H15C15.2362 7.23438 15.4629 7.32809 15.6299 7.49512C15.7969 7.66214 15.8906 7.88879 15.8906 8.125C15.8906 8.36121 15.7969 8.58786 15.6299 8.75488C15.4629 8.92191 15.2362 9.01562 15 9.01562H5C4.76379 9.01562 4.53714 8.92191 4.37012 8.75488C4.20309 8.58786 4.10938 8.36121 4.10938 8.125C4.10938 7.88879 4.20309 7.66214 4.37012 7.49512C4.53714 7.32809 4.76379 7.23438 5 7.23438ZM3.125 4.10938H16.875C17.1112 4.10938 17.3379 4.20309 17.5049 4.37012C17.6719 4.53714 17.7656 4.76379 17.7656 5C17.7656 5.23621 17.6719 5.46286 17.5049 5.62988C17.3379 5.79691 17.1112 5.89062 16.875 5.89062H3.125C2.88879 5.89062 2.66214 5.79691 2.49512 5.62988C2.32809 5.46286 2.23438 5.23621 2.23438 5C2.23438 4.76379 2.32809 4.53714 2.49512 4.37012C2.66214 4.20309 2.88879 4.10938 3.125 4.10938Z" fill="black" stroke="black" stroke-width="0.09375"/>
</svg>
