<svg width="16" height="12" viewBox="0 0 16 12" fill="none" xmlns="http://www.w3.org/2000/svg">
<path d="M2.8125 9.42188H12.8125C13.0487 9.42188 13.2754 9.51559 13.4424 9.68262C13.6094 9.84964 13.7031 10.0763 13.7031 10.3125C13.7031 10.5487 13.6094 10.7754 13.4424 10.9424C13.2754 11.1094 13.0487 11.2031 12.8125 11.2031H2.8125C2.57629 11.2031 2.34964 11.1094 2.18262 10.9424C2.01559 10.7754 1.92188 10.5487 1.92188 10.3125C1.92188 10.0763 2.01559 9.84964 2.18262 9.68262C2.34964 9.51559 2.57629 9.42188 2.8125 9.42188ZM0.9375 6.29688H14.6875C14.9237 6.29688 15.1504 6.39059 15.3174 6.55762C15.4844 6.72464 15.5781 6.95129 15.5781 7.1875C15.5781 7.42371 15.4844 7.65036 15.3174 7.81738C15.1504 7.98441 14.9237 8.07812 14.6875 8.07812H0.9375C0.701292 8.07812 0.474642 7.98441 0.307617 7.81738C0.140593 7.65036 0.046875 7.42371 0.046875 7.1875C0.046875 6.95129 0.140593 6.72464 0.307617 6.55762C0.474642 6.39059 0.701292 6.29688 0.9375 6.29688ZM2.8125 3.17188H12.8125C13.0487 3.17188 13.2754 3.26559 13.4424 3.43262C13.6094 3.59964 13.7031 3.82629 13.7031 4.0625C13.7031 4.29871 13.6094 4.52536 13.4424 4.69238C13.2754 4.85941 13.0487 4.95312 12.8125 4.95312H2.8125C2.57629 4.95312 2.34964 4.85941 2.18262 4.69238C2.01559 4.52536 1.92188 4.29871 1.92188 4.0625C1.92188 3.82629 2.01559 3.59964 2.18262 3.43262C2.34964 3.26559 2.57629 3.17188 2.8125 3.17188ZM0.9375 0.046875H14.6875C14.9237 0.046875 15.1504 0.140593 15.3174 0.307617C15.4844 0.474642 15.5781 0.701292 15.5781 0.9375C15.5781 1.17371 15.4844 1.40036 15.3174 1.56738C15.1504 1.73441 14.9237 1.82812 14.6875 1.82812H0.9375C0.701292 1.82812 0.474642 1.73441 0.307617 1.56738C0.140593 1.40036 0.046875 1.17371 0.046875 0.9375C0.046875 0.701292 0.140593 0.474642 0.307617 0.307617C0.474642 0.140593 0.701292 0.046875 0.9375 0.046875Z" fill="#475569" stroke="#475569" stroke-width="0.09375"/>
</svg>
