<svg width="24" height="24" viewBox="0 0 24 24" fill="none" xmlns="http://www.w3.org/2000/svg">
<g clip-path="url(#clip0_10431_18627)">
<path d="M12.471 0.384162C12.375 0.268712 12.2568 0.173651 12.1235 0.104584C11.9902 0.0355168 11.8444 -0.00615953 11.6947 -0.0179883C11.545 -0.029817 11.3944 -0.0115589 11.2519 0.03571C11.1094 0.0829789 10.9778 0.158302 10.8648 0.257239C10.7518 0.356176 10.6598 0.476725 10.5942 0.61178C10.5286 0.746835 10.4906 0.893663 10.4826 1.04361C10.4746 1.19355 10.4967 1.34358 10.5476 1.48485C10.5985 1.62612 10.6772 1.75577 10.779 1.86616L11.8095 3.04516C9.93005 3.22731 8.14393 3.95128 6.66808 5.12914C5.19223 6.30701 4.09016 7.88809 3.49573 9.68034C2.9013 11.4726 2.84008 13.3989 3.31951 15.2253C3.79895 17.0516 4.7984 18.6995 6.19648 19.9687C7.59457 21.2379 9.33111 22.0738 11.1952 22.3749C13.0593 22.676 14.9707 22.4294 16.6973 21.6649C18.4239 20.9005 19.8913 19.6511 20.9214 18.0686C21.9515 16.486 22.4999 14.6384 22.5 12.7502V12.3752C22.5 12.0768 22.3815 11.7906 22.1705 11.5797C21.9595 11.3687 21.6734 11.2502 21.375 11.2502C21.0766 11.2502 20.7905 11.3687 20.5795 11.5797C20.3685 11.7906 20.25 12.0768 20.25 12.3752V12.7502C20.2498 14.189 19.8358 15.5974 19.0573 16.8074C18.2788 18.0174 17.1687 18.9779 15.8594 19.5745C14.55 20.171 13.0967 20.3782 11.6728 20.1716C10.2489 19.9649 8.91451 19.3531 7.82876 18.409C6.743 17.4649 5.95173 16.2284 5.54931 14.847C5.1469 13.4656 5.15033 11.9976 5.55919 10.6181C5.96805 9.2386 6.76509 8.00582 7.85525 7.0668C8.9454 6.12778 10.2827 5.52216 11.7075 5.32216L10.7775 6.38416C10.6802 6.49546 10.6058 6.62483 10.5584 6.76489C10.5111 6.90495 10.4919 7.05296 10.5018 7.20047C10.5117 7.34797 10.5505 7.49209 10.6161 7.62458C10.6817 7.75707 10.7727 7.87535 10.884 7.97266C10.9953 8.06997 11.1247 8.14441 11.2647 8.19172C11.4048 8.23903 11.5528 8.25829 11.7003 8.2484C11.8478 8.23851 11.9919 8.19967 12.1244 8.13408C12.2569 8.0685 12.3752 7.97746 12.4725 7.86616L15.0975 4.86616C15.277 4.66106 15.376 4.39775 15.376 4.12516C15.376 3.85258 15.277 3.58926 15.0975 3.38416L12.471 0.384162ZM17.7075 9.36916C17.9081 9.58982 18.0128 9.88107 17.9988 10.1789C17.9847 10.4768 17.853 10.7569 17.6325 10.9577L13.5075 14.7077C13.2935 14.9021 13.0128 15.0067 12.7237 14.9998C12.4347 14.9928 12.1594 14.8747 11.955 14.6702L10.08 12.7952C9.88128 12.5819 9.7731 12.2998 9.77824 12.0084C9.78338 11.7169 9.90145 11.4388 10.1076 11.2327C10.3137 11.0266 10.5918 10.9085 10.8832 10.9034C11.1747 10.8983 11.4567 11.0064 11.67 11.2052L12.7875 12.3212L16.1175 9.29266C16.2268 9.19312 16.3546 9.11609 16.4937 9.06598C16.6328 9.01587 16.7804 8.99367 16.928 9.00063C17.0757 9.0076 17.2206 9.0436 17.3543 9.10658C17.488 9.16955 17.6081 9.25977 17.7075 9.36916Z" fill="black"/>
</g>
<defs>
<clipPath id="clip0_10431_18627">
<rect width="24" height="24" fill="white"/>
</clipPath>
</defs>
</svg>
