<svg width="20" height="20" viewBox="0 0 20 20" fill="none" xmlns="http://www.w3.org/2000/svg">
<path d="M17.4993 2.5H2.49935C2.03911 2.5 1.66602 2.8731 1.66602 3.33333V5.83333C1.66602 6.29357 2.03911 6.66667 2.49935 6.66667H17.4993C17.9596 6.66667 18.3327 6.29357 18.3327 5.83333V3.33333C18.3327 2.8731 17.9596 2.5 17.4993 2.5Z" stroke="black" stroke-width="1.33333" stroke-linecap="round" stroke-linejoin="round"/>
<path d="M3.33398 6.6665V15.8332C3.33398 16.2752 3.50958 16.6991 3.82214 17.0117C4.1347 17.3242 4.55862 17.4998 5.00065 17.4998H15.0007C15.4427 17.4998 15.8666 17.3242 16.1792 17.0117C16.4917 16.6991 16.6673 16.2752 16.6673 15.8332V6.6665" stroke="black" stroke-width="1.33333" stroke-linecap="round" stroke-linejoin="round"/>
<path d="M8.33398 10H11.6673" stroke="black" stroke-width="1.33333" stroke-linecap="round" stroke-linejoin="round"/>
</svg>
