<svg width="16" height="16" viewBox="0 0 16 16" fill="none" xmlns="http://www.w3.org/2000/svg">
<path d="M8.01343 1.8667C10.1501 1.8667 11.8933 3.60907 11.8933 5.75342V6.99365C11.8934 7.21602 11.9425 7.4761 12.0066 7.70557C12.0702 7.93336 12.1629 8.17946 12.2781 8.36963V8.37061L13.032 9.62451C13.2284 9.96326 13.2636 10.351 13.1316 10.7114C12.9984 11.0683 12.7201 11.3393 12.3484 11.4653C11.6547 11.6965 10.94 11.8709 10.2166 11.9937L10.2107 11.9946C10.1335 12.0087 10.0822 12.0177 10.0349 12.022L10.0164 12.0239L9.9978 12.0269C9.89353 12.0442 9.7869 12.0563 9.66479 12.0698L9.65308 12.0708C9.52169 12.0887 9.38153 12.1013 9.22729 12.1147C8.81739 12.1473 8.41746 12.1665 8.01343 12.1665C7.80799 12.1665 7.60265 12.1615 7.39819 12.1519L6.78784 12.1089L6.7771 12.1079C6.6106 12.0956 6.45041 12.077 6.28979 12.0522L6.28003 12.0513L5.99097 12.0122C5.94836 12.0049 5.90818 11.9988 5.87769 11.9946C5.83932 11.9894 5.81373 11.9853 5.78979 11.981L5.78003 11.98L5.24683 11.8823C4.71468 11.7739 4.18787 11.6328 3.67261 11.4595H3.67358C3.26943 11.3231 2.98479 11.0452 2.86206 10.7134V10.7114L2.82397 10.5874C2.75338 10.291 2.80416 9.94336 2.99487 9.62354L2.99585 9.62451L3.74878 8.37061L3.75171 8.36572C3.86182 8.17757 3.95244 7.93222 4.01538 7.70361C4.0782 7.47542 4.12667 7.21581 4.12671 6.99365V5.75342C4.12671 3.6096 5.86963 1.86677 8.01343 1.8667Z" stroke="white"/>
<path d="M8.00008 7.17338C7.72008 7.17338 7.49341 6.94672 7.49341 6.66672V4.60005C7.49341 4.32005 7.72008 4.09338 8.00008 4.09338C8.28008 4.09338 8.50674 4.32005 8.50674 4.60005V6.66672C8.50008 6.94672 8.27341 7.17338 8.00008 7.17338Z" fill="white"/>
<path d="M9.88654 13.34C9.60654 14.1134 8.86654 14.6667 7.99987 14.6667C7.47321 14.6667 6.95321 14.4534 6.58654 14.0734C6.37321 13.8734 6.21321 13.6067 6.11987 13.3334C6.20654 13.3467 6.29321 13.3534 6.38654 13.3667C6.53987 13.3867 6.69987 13.4067 6.85987 13.42C7.23987 13.4534 7.62654 13.4734 8.01321 13.4734C8.39321 13.4734 8.77321 13.4534 9.14654 13.42C9.28654 13.4067 9.42654 13.4 9.55987 13.38C9.66654 13.3667 9.77321 13.3534 9.88654 13.34Z" fill="white"/>
</svg>
