<svg width="24" height="24" viewBox="0 0 24 24" fill="none" xmlns="http://www.w3.org/2000/svg">
<path d="M12.5801 3.25C13.115 3.25 13.5599 3.25029 13.9248 3.28027C14.3048 3.31027 14.6611 3.37782 14.998 3.5498C15.5156 3.81348 15.9365 4.2344 16.2002 4.75195C16.3722 5.08894 16.4397 5.44521 16.4697 5.8252C16.4997 6.19015 16.5 6.63504 16.5 7.16992V10.25C16.5 10.4489 16.4209 10.6396 16.2803 10.7803C16.1396 10.9209 15.9489 11 15.75 11C15.5511 11 15.3604 10.9209 15.2197 10.7803C15.0791 10.6396 15 10.4489 15 10.25V7.2002C15 6.62834 14.9996 6.24323 14.9746 5.94727C14.9516 5.66027 14.9103 5.52262 14.8643 5.43262C14.7446 5.19734 14.5534 5.00579 14.3184 4.88574C14.2274 4.83974 14.0897 4.79839 13.8027 4.77539C13.5068 4.75141 13.1227 4.75 12.5498 4.75H6.9502C6.37834 4.75 5.99323 4.75041 5.69727 4.77539C5.41027 4.79839 5.27262 4.83974 5.18262 4.88574C4.94719 5.00562 4.75562 5.19719 4.63574 5.43262C4.58974 5.52262 4.54839 5.66027 4.52539 5.94727C4.50141 6.24323 4.5 6.62735 4.5 7.2002V16.7998C4.5 17.3717 4.50041 17.7568 4.52539 18.0518C4.54839 18.3398 4.58974 18.4774 4.63574 18.5674C4.74967 18.7901 4.92582 18.9728 5.14355 19.0928C5.15955 19.0968 5.19533 19.1036 5.25 19.1123C5.36659 19.1296 5.52513 19.1455 5.72559 19.1602C6.12351 19.1902 6.63581 19.2097 7.17969 19.2227C8.26469 19.2497 9.44 19.25 10 19.25C10.1989 19.25 10.3896 19.3291 10.5303 19.4697C10.6709 19.6104 10.75 19.8011 10.75 20C10.75 20.1989 10.6709 20.3896 10.5303 20.5303C10.3896 20.6709 10.1989 20.75 10 20.75H9.99805C9.43805 20.75 8.24758 20.7497 7.14258 20.7227C6.63335 20.7121 6.12441 20.6904 5.61621 20.6562C5.42061 20.6434 5.22538 20.6229 5.03125 20.5957C4.84817 20.5745 4.66911 20.5257 4.50098 20.4502C3.9841 20.1869 3.56355 19.7667 3.2998 19.25C3.12783 18.912 3.06027 18.5558 3.03027 18.1758C3.00029 17.8108 3 17.3659 3 16.8311V7.16992C3 6.63504 3.00029 6.19015 3.03027 5.8252C3.06027 5.44521 3.12782 5.08894 3.2998 4.75195C3.56348 4.2344 3.9844 3.81348 4.50195 3.5498C4.83894 3.37782 5.19521 3.31027 5.5752 3.28027C5.94015 3.25029 6.38504 3.25 6.91992 3.25H12.5801ZM18.3789 12.25C18.7739 12.25 19.1155 12.2504 19.3965 12.2734C19.6933 12.2975 19.9886 12.3512 20.2715 12.4951C20.6951 12.7111 21.0389 13.0549 21.2549 13.4785C21.3988 13.7614 21.4525 14.0567 21.4766 14.3535C21.4996 14.6335 21.5 14.9761 21.5 15.3711V17.6289C21.5 18.0239 21.4996 18.3655 21.4766 18.6465C21.461 18.9498 21.3859 19.2475 21.2549 19.5215C21.0394 19.9447 20.6955 20.289 20.2725 20.5049C19.9886 20.6488 19.6923 20.7025 19.3965 20.7266C19.1165 20.7496 18.7739 20.75 18.3789 20.75H14.1201C13.7251 20.75 13.3835 20.7496 13.1025 20.7266C12.7992 20.711 12.5015 20.6359 12.2275 20.5049C11.8043 20.2894 11.46 19.9455 11.2441 19.5225C11.113 19.2482 11.0379 18.9501 11.0225 18.6465C10.9995 18.3665 10.999 18.0239 10.999 17.6289V15.3701C10.999 14.9751 10.9995 14.6335 11.0225 14.3525C11.038 14.0492 11.1131 13.7515 11.2441 13.4775C11.4599 13.0541 11.8041 12.7099 12.2275 12.4941C12.5015 12.3631 12.7992 12.288 13.1025 12.2725C13.3825 12.2495 13.7251 12.249 14.1201 12.249L18.3789 12.25ZM12.5 17.5996C12.5 18.0316 12.4996 18.3124 12.5176 18.5244C12.5346 18.7279 12.563 18.8038 12.582 18.8398C12.6537 18.9809 12.7683 19.0959 12.9092 19.168C12.9472 19.188 13.0221 19.2154 13.2256 19.2324C13.4376 19.2494 13.7184 19.25 14.1504 19.25H18.3496C18.7816 19.25 19.0624 19.2504 19.2744 19.2324C19.4779 19.2154 19.5538 19.187 19.5898 19.168C19.7311 19.096 19.846 18.9811 19.918 18.8398C19.938 18.8028 19.9654 18.7279 19.9824 18.5244C19.9994 18.3124 20 18.0316 20 17.5996V16.5H12.5V17.5996ZM8.25 16.25C8.44891 16.25 8.63962 16.3291 8.78027 16.4697C8.92093 16.6104 9 16.8011 9 17C9 17.1989 8.92093 17.3896 8.78027 17.5303C8.63962 17.6709 8.44891 17.75 8.25 17.75H6.25C6.05109 17.75 5.86038 17.6709 5.71973 17.5303C5.57907 17.3896 5.5 17.1989 5.5 17C5.5 16.8011 5.57907 16.6104 5.71973 16.4697C5.86038 16.3291 6.05109 16.25 6.25 16.25H8.25ZM14.1494 13.749C13.7174 13.749 13.4366 13.7486 13.2246 13.7666C13.0211 13.7836 12.9452 13.8121 12.9082 13.8311C12.7675 13.9029 12.6529 14.0175 12.5811 14.1582C12.5611 14.1962 12.5336 14.2711 12.5166 14.4746L12.5146 14.499H19.9834L19.9814 14.4746C19.9645 14.2712 19.936 14.1952 19.917 14.1582C19.8449 14.0173 19.73 13.9027 19.5889 13.8311C19.5519 13.8111 19.477 13.7836 19.2734 13.7666C18.9657 13.7497 18.6567 13.7441 18.3486 13.749H14.1494ZM9.75 12.25C9.94891 12.25 10.1396 12.3291 10.2803 12.4697C10.4209 12.6104 10.5 12.8011 10.5 13C10.5 13.1989 10.4209 13.3896 10.2803 13.5303C10.1396 13.6709 9.94891 13.75 9.75 13.75H6.25C6.05109 13.75 5.86038 13.6709 5.71973 13.5303C5.57907 13.3896 5.5 13.1989 5.5 13C5.5 12.8011 5.57907 12.6104 5.71973 12.4697C5.86038 12.3291 6.05109 12.25 6.25 12.25H9.75ZM13.25 9.25C13.4489 9.25 13.6396 9.32907 13.7803 9.46973C13.9209 9.61038 14 9.80109 14 10C14 10.1989 13.9209 10.3896 13.7803 10.5303C13.6396 10.6709 13.4489 10.75 13.25 10.75H6.25C6.05109 10.75 5.86038 10.6709 5.71973 10.5303C5.57907 10.3896 5.5 10.1989 5.5 10C5.5 9.80109 5.57907 9.61038 5.71973 9.46973C5.86038 9.32907 6.05109 9.25 6.25 9.25H13.25ZM10.25 6.25C10.4489 6.25 10.6396 6.32907 10.7803 6.46973C10.9209 6.61038 11 6.80109 11 7C11 7.19891 10.9209 7.38962 10.7803 7.53027C10.6396 7.67093 10.4489 7.75 10.25 7.75H6.25C6.05109 7.75 5.86038 7.67093 5.71973 7.53027C5.57907 7.38962 5.5 7.19891 5.5 7C5.5 6.80109 5.57907 6.61038 5.71973 6.46973C5.86038 6.32907 6.05109 6.25 6.25 6.25H10.25Z" fill="white"/>
</svg>
