<svg width="20" height="20" viewBox="0 0 20 20" fill="none" xmlns="http://www.w3.org/2000/svg">
<path fill-rule="evenodd" clip-rule="evenodd" d="M3.33398 4.16797C3.33398 3.50493 3.59738 2.86904 4.06622 2.4002C4.53506 1.93136 5.17094 1.66797 5.83398 1.66797H14.1673C14.8304 1.66797 15.4662 1.93136 15.9351 2.4002C16.4039 2.86904 16.6673 3.50493 16.6673 4.16797V17.5013C16.6672 17.6583 16.6228 17.812 16.5392 17.9448C16.4555 18.0776 16.3361 18.1841 16.1946 18.2521C16.0531 18.32 15.8953 18.3465 15.7394 18.3287C15.5834 18.3109 15.4357 18.2494 15.3132 18.1513L13.7507 16.9013L12.1882 18.1513C12.0281 18.2795 11.8263 18.3442 11.6215 18.333C11.4167 18.3218 11.2233 18.2354 11.0782 18.0905L10.0007 17.013L8.92315 18.0905C8.77815 18.2356 8.58474 18.3221 8.37994 18.3334C8.17513 18.3448 7.97333 18.2803 7.81315 18.1521L6.25065 16.9013L4.68815 18.1513C4.56563 18.2494 4.41789 18.3109 4.26195 18.3287C4.10601 18.3465 3.94821 18.32 3.80671 18.2521C3.66521 18.1841 3.54577 18.0776 3.46214 17.9448C3.3785 17.812 3.33408 17.6583 3.33398 17.5013V4.16797ZM5.83398 3.33464C5.61297 3.33464 5.40101 3.42243 5.24473 3.57871C5.08845 3.73499 5.00065 3.94695 5.00065 4.16797V15.768L5.72982 15.1846C5.87762 15.0663 6.06131 15.0018 6.25065 15.0018C6.43999 15.0018 6.62368 15.0663 6.77148 15.1846L8.27148 16.3846L9.41148 15.2455C9.56776 15.0892 9.77968 15.0015 10.0007 15.0015C10.2216 15.0015 10.4335 15.0892 10.5898 15.2455L11.729 16.3846L13.2298 15.1846C13.3776 15.0663 13.5613 15.0018 13.7507 15.0018C13.94 15.0018 14.1237 15.0663 14.2715 15.1846L15.0007 15.768V4.16797C15.0007 3.94695 14.9129 3.73499 14.7566 3.57871C14.6003 3.42243 14.3883 3.33464 14.1673 3.33464H5.83398ZM6.66732 7.5013C6.66732 7.28029 6.75512 7.06833 6.9114 6.91205C7.06768 6.75577 7.27964 6.66797 7.50065 6.66797H12.5007C12.7217 6.66797 12.9336 6.75577 13.0899 6.91205C13.2462 7.06833 13.334 7.28029 13.334 7.5013C13.334 7.72232 13.2462 7.93428 13.0899 8.09056C12.9336 8.24684 12.7217 8.33464 12.5007 8.33464H7.50065C7.27964 8.33464 7.06768 8.24684 6.9114 8.09056C6.75512 7.93428 6.66732 7.72232 6.66732 7.5013ZM7.50065 10.0013C7.27964 10.0013 7.06768 10.0891 6.9114 10.2454C6.75512 10.4017 6.66732 10.6136 6.66732 10.8346C6.66732 11.0556 6.75512 11.2676 6.9114 11.4239C7.06768 11.5802 7.27964 11.668 7.50065 11.668H10.0007C10.2217 11.668 10.4336 11.5802 10.5899 11.4239C10.7462 11.2676 10.834 11.0556 10.834 10.8346C10.834 10.6136 10.7462 10.4017 10.5899 10.2454C10.4336 10.0891 10.2217 10.0013 10.0007 10.0013H7.50065Z" fill="black"/>
</svg>
