<svg width="20" height="20" viewBox="0 0 20 20" fill="none" xmlns="http://www.w3.org/2000/svg">
<path d="M17.4993 2.5H2.49935C2.03911 2.5 1.66602 2.8731 1.66602 3.33333V5.83333C1.66602 6.29357 2.03911 6.66667 2.49935 6.66667H17.4993C17.9596 6.66667 18.3327 6.29357 18.3327 5.83333V3.33333C18.3327 2.8731 17.9596 2.5 17.4993 2.5Z" stroke="#181818" stroke-width="1.33333" stroke-linecap="round" stroke-linejoin="round"/>
<path d="M3.33398 6.66675V15.8334C3.33398 16.2754 3.50958 16.6994 3.82214 17.0119C4.1347 17.3245 4.55862 17.5001 5.00065 17.5001H15.0007C15.4427 17.5001 15.8666 17.3245 16.1792 17.0119C16.4917 16.6994 16.6673 16.2754 16.6673 15.8334V6.66675" stroke="#181818" stroke-width="1.33333" stroke-linecap="round" stroke-linejoin="round"/>
<path d="M8.33398 10H11.6673" stroke="#181818" stroke-width="1.33333" stroke-linecap="round" stroke-linejoin="round"/>
</svg>
