<svg width="20" height="20" viewBox="0 0 20 20" fill="none" xmlns="http://www.w3.org/2000/svg">
<path d="M11.5645 0.669434C11.801 0.66948 12.028 0.763864 12.1953 0.931152C12.3625 1.09846 12.4561 1.32549 12.4561 1.56201C12.456 1.79853 12.3626 2.02562 12.1953 2.19287L8.79492 5.59229L8.76172 5.62451L15 11.8628L18.4307 8.43213C18.5134 8.3491 18.6124 8.28372 18.7207 8.23877C18.8288 8.19391 18.9445 8.17046 19.0615 8.17041C19.1787 8.17041 19.2951 8.19382 19.4033 8.23877C19.5115 8.28367 19.6097 8.34923 19.6924 8.43213H19.6934C19.7765 8.51487 19.8417 8.61388 19.8867 8.72217C19.9317 8.83045 19.9551 8.94671 19.9551 9.06396C19.955 9.18116 19.9317 9.29754 19.8867 9.40576C19.8417 9.51382 19.7763 9.61222 19.6934 9.69482H19.6924L16.0713 13.3149C15.931 13.4561 15.764 13.5688 15.5801 13.645C15.3963 13.7211 15.1989 13.7598 15 13.7593C14.83 13.7585 14.6615 13.7293 14.501 13.6733L14.4727 13.6636L14.4521 13.6851L12.9463 15.1899C12.6621 15.474 12.2769 15.6343 11.875 15.6343C11.4732 15.6342 11.0879 15.474 10.8037 15.1899L10.6582 15.0454L10.625 15.0122L10.5918 15.0454L8.12988 17.5044C8.04722 17.5871 7.94883 17.653 7.84082 17.6978C7.73282 17.7425 7.6169 17.7651 7.5 17.7651C7.40449 17.7652 7.30924 17.7498 7.21875 17.7192L1.59375 15.8442C1.44984 15.7963 1.32019 15.713 1.21777 15.6011C1.11528 15.489 1.04277 15.3523 1.00781 15.2046C0.97286 15.0568 0.97711 14.9024 1.01855 14.7563C1.06001 14.6103 1.1378 14.477 1.24512 14.3696L5.58008 10.0327L5.61328 10.0005L5.58008 9.96729L5.4375 9.82178L5.33691 9.71045C5.11591 9.44074 4.99316 9.10125 4.99316 8.74951C4.99328 8.34779 5.15347 7.96234 5.4375 7.67822L6.94336 6.17236L6.96387 6.15088L6.95508 6.12354C6.86113 5.85464 6.84396 5.56434 6.90723 5.28662C6.97052 5.00902 7.11143 4.75482 7.3125 4.55322L10.9336 0.931152C11.1009 0.763823 11.3278 0.669434 11.5645 0.669434ZM6.8418 11.2954L3.57715 14.5571L3.52344 14.6108L3.5957 14.6353L7.23242 15.8472L7.25977 15.856L7.28027 15.8354L9.33008 13.7827L9.36328 13.7495L9.33008 13.7173L6.875 11.2622L6.8418 11.2954ZM6.91992 8.71729L6.88672 8.74951L6.91992 8.78271L7.50488 9.37061L11.8418 13.7046L11.875 13.7378L13.1133 12.4995L13.0801 12.4673L8.125 7.51221L6.91992 8.71729Z" fill="black" stroke="black" stroke-width="0.09375"/>
</svg>
