<svg width="20" height="18" viewBox="0 0 20 18" fill="none" xmlns="http://www.w3.org/2000/svg">
<path d="M10.627 0.046875C10.8635 0.0469215 11.0905 0.141306 11.2578 0.308594C11.425 0.475899 11.5186 0.702932 11.5186 0.939453C11.5185 1.17597 11.4251 1.40306 11.2578 1.57031L7.85742 4.96973L7.82422 5.00195L14.0625 11.2402L17.4932 7.80957C17.5759 7.72654 17.6749 7.66116 17.7832 7.61621C17.8913 7.57135 18.007 7.54791 18.124 7.54785C18.2412 7.54785 18.3576 7.57126 18.4658 7.61621C18.574 7.66111 18.6722 7.72667 18.7549 7.80957H18.7559C18.839 7.89231 18.9042 7.99132 18.9492 8.09961C18.9942 8.20789 19.0176 8.32415 19.0176 8.44141C19.0175 8.5586 18.9942 8.67498 18.9492 8.7832C18.9042 8.89126 18.8388 8.98966 18.7559 9.07227H18.7549L15.1338 12.6924C14.9935 12.8336 14.8265 12.9462 14.6426 13.0225C14.4588 13.0985 14.2614 13.1373 14.0625 13.1367C13.8925 13.136 13.724 13.1067 13.5635 13.0508L13.5352 13.041L13.5146 13.0625L12.0088 14.5674C11.7246 14.8515 11.3394 15.0117 10.9375 15.0117C10.5357 15.0117 10.1504 14.8515 9.86621 14.5674L9.7207 14.4229L9.6875 14.3896L9.6543 14.4229L7.19238 16.8818C7.10972 16.9645 7.01133 17.0304 6.90332 17.0752C6.79532 17.1199 6.6794 17.1426 6.5625 17.1426C6.46699 17.1427 6.37174 17.1272 6.28125 17.0967L0.65625 15.2217C0.512342 15.1738 0.382688 15.0904 0.280273 14.9785C0.177781 14.8665 0.105267 14.7298 0.0703125 14.582C0.03536 14.4343 0.03961 14.2799 0.0810547 14.1338C0.122507 13.9877 0.200297 13.8544 0.307617 13.7471L4.64258 9.41016L4.67578 9.37793L4.64258 9.34473L4.5 9.19922L4.39941 9.08789C4.17841 8.81818 4.05566 8.47869 4.05566 8.12695C4.05578 7.72523 4.21597 7.33978 4.5 7.05566L6.00586 5.5498L6.02637 5.52832L6.01758 5.50098C5.92363 5.23208 5.90646 4.94178 5.96973 4.66406C6.03302 4.38646 6.17393 4.13226 6.375 3.93066L9.99609 0.308594C10.1634 0.141264 10.3903 0.046875 10.627 0.046875ZM5.9043 10.6729L2.63965 13.9346L2.58594 13.9883L2.6582 14.0127L6.29492 15.2246L6.32227 15.2334L6.34277 15.2129L8.39258 13.1602L8.42578 13.127L8.39258 13.0947L5.9375 10.6396L5.9043 10.6729ZM5.98242 8.09473L5.94922 8.12695L5.98242 8.16016L6.56738 8.74805L10.9043 13.082L10.9375 13.1152L12.1758 11.877L12.1426 11.8447L7.1875 6.88965L5.98242 8.09473Z" fill="#475569" stroke="#475569" stroke-width="0.09375"/>
</svg>
