<svg width="20" height="20" viewBox="0 0 20 20" fill="none" xmlns="http://www.w3.org/2000/svg">
<path d="M6.66732 18.3332C7.12756 18.3332 7.50065 17.9601 7.50065 17.4998C7.50065 17.0396 7.12756 16.6665 6.66732 16.6665C6.20708 16.6665 5.83398 17.0396 5.83398 17.4998C5.83398 17.9601 6.20708 18.3332 6.66732 18.3332Z" stroke="black" stroke-width="1.33333" stroke-linecap="round" stroke-linejoin="round"/>
<path d="M15.8333 18.3332C16.2936 18.3332 16.6667 17.9601 16.6667 17.4998C16.6667 17.0396 16.2936 16.6665 15.8333 16.6665C15.3731 16.6665 15 17.0396 15 17.4998C15 17.9601 15.3731 18.3332 15.8333 18.3332Z" stroke="black" stroke-width="1.33333" stroke-linecap="round" stroke-linejoin="round"/>
<path d="M1.70898 1.7085H3.37565L5.59232 12.0585C5.67363 12.4375 5.88454 12.7764 6.18874 13.0167C6.49294 13.257 6.87141 13.3838 7.25898 13.3752H15.409C15.7883 13.3746 16.1561 13.2446 16.4515 13.0067C16.747 12.7688 16.9524 12.4373 17.034 12.0668L18.409 5.87516H4.26732" stroke="black" stroke-width="1.33333" stroke-linecap="round" stroke-linejoin="round"/>
</svg>
