<svg width="727" height="279" viewBox="0 0 727 279" fill="none" xmlns="http://www.w3.org/2000/svg">
<path d="M77.3027 260.384H79.1203V268.953C79.1203 269.728 78.9669 270.391 78.66 270.941C78.3571 271.492 77.9302 271.913 77.3795 272.204C76.8287 272.491 76.1835 272.635 75.4438 272.635C74.7632 272.635 74.1515 272.511 73.6086 272.263C73.0696 272.015 72.6427 271.655 72.328 271.183C72.0172 270.707 71.8618 270.129 71.8618 269.448H73.6735C73.6735 269.783 73.7502 270.072 73.9036 270.316C74.061 270.56 74.2754 270.75 74.5469 270.888C74.8222 271.022 75.137 271.089 75.4911 271.089C75.8766 271.089 76.2031 271.008 76.4707 270.847C76.7421 270.682 76.9487 270.44 77.0903 270.121C77.2319 269.802 77.3027 269.413 77.3027 268.953V260.384ZM84.2706 272.67C83.6963 272.67 83.1769 272.564 82.7127 272.352C82.2485 272.135 81.8806 271.823 81.6092 271.413C81.3417 271.004 81.2079 270.503 81.2079 269.909C81.2079 269.397 81.3062 268.976 81.503 268.646C81.6997 268.315 81.9652 268.054 82.2996 267.861C82.634 267.668 83.0078 267.523 83.4209 267.424C83.834 267.326 84.2549 267.251 84.6837 267.2C85.2266 267.137 85.6673 267.086 86.0056 267.046C86.344 267.003 86.5898 266.934 86.7433 266.84C86.8967 266.746 86.9734 266.592 86.9734 266.38V266.338C86.9734 265.823 86.8279 265.424 86.5367 265.14C86.2495 264.857 85.8207 264.715 85.2503 264.715C84.6562 264.715 84.188 264.847 83.8458 265.111C83.5074 265.371 83.2733 265.66 83.1435 265.978L81.4853 265.601C81.682 265.05 81.9692 264.605 82.3468 264.267C82.7285 263.925 83.1671 263.677 83.6628 263.523C84.1585 263.366 84.6798 263.287 85.2266 263.287C85.5886 263.287 85.9722 263.331 86.3774 263.417C86.7865 263.5 87.1682 263.653 87.5222 263.878C87.8802 264.102 88.1733 264.422 88.4015 264.839C88.6297 265.252 88.7438 265.79 88.7438 266.45V272.47H87.0206V271.23H86.9498C86.8357 271.459 86.6646 271.683 86.4364 271.903C86.2082 272.124 85.9151 272.306 85.5571 272.452C85.1991 272.598 84.7703 272.67 84.2706 272.67ZM84.6542 271.254C85.1421 271.254 85.5591 271.158 85.9053 270.965C86.2554 270.772 86.521 270.52 86.702 270.21C86.8869 269.895 86.9793 269.558 86.9793 269.2V268.032C86.9164 268.095 86.7944 268.154 86.6134 268.209C86.4364 268.26 86.2338 268.305 86.0056 268.345C85.7774 268.38 85.5552 268.414 85.3388 268.445C85.1224 268.473 84.9414 268.496 84.7959 268.516C84.4536 268.559 84.1408 268.632 83.8576 268.734C83.5782 268.837 83.354 268.984 83.1848 269.177C83.0196 269.366 82.937 269.617 82.937 269.932C82.937 270.369 83.0983 270.699 83.4209 270.924C83.7435 271.144 84.1546 271.254 84.6542 271.254ZM92.8584 267.088V272.47H91.094V263.405H92.7876V264.881H92.8998C93.1083 264.401 93.4348 264.015 93.8794 263.724C94.3279 263.433 94.8924 263.287 95.573 263.287C96.1907 263.287 96.7316 263.417 97.1959 263.677C97.6601 263.933 98.0201 264.314 98.2758 264.822C98.5315 265.329 98.6594 265.957 98.6594 266.704V272.47H96.8949V266.917C96.8949 266.26 96.7238 265.746 96.3815 265.376C96.0392 265.003 95.5691 264.816 94.9711 264.816C94.5619 264.816 94.198 264.904 93.8794 265.081C93.5646 265.258 93.3148 265.518 93.1299 265.86C92.9489 266.199 92.8584 266.608 92.8584 267.088Z" fill="#595959"/>
<path d="M127.784 272.47V260.384H135.279V261.954H129.608V265.636H134.742V267.2H129.608V272.47H127.784ZM139.985 272.67C139.411 272.67 138.891 272.564 138.427 272.352C137.963 272.135 137.595 271.823 137.324 271.413C137.056 271.004 136.922 270.503 136.922 269.909C136.922 269.397 137.021 268.976 137.217 268.646C137.414 268.315 137.68 268.054 138.014 267.861C138.348 267.668 138.722 267.523 139.135 267.424C139.548 267.326 139.969 267.251 140.398 267.2C140.941 267.137 141.382 267.086 141.72 267.046C142.058 267.003 142.304 266.934 142.458 266.84C142.611 266.746 142.688 266.592 142.688 266.38V266.338C142.688 265.823 142.542 265.424 142.251 265.14C141.964 264.857 141.535 264.715 140.965 264.715C140.371 264.715 139.902 264.847 139.56 265.111C139.222 265.371 138.988 265.66 138.858 265.978L137.2 265.601C137.396 265.05 137.683 264.605 138.061 264.267C138.443 263.925 138.881 263.677 139.377 263.523C139.873 263.366 140.394 263.287 140.941 263.287C141.303 263.287 141.687 263.331 142.092 263.417C142.501 263.5 142.883 263.653 143.237 263.878C143.595 264.102 143.888 264.422 144.116 264.839C144.344 265.252 144.458 265.79 144.458 266.45V272.47H142.735V271.23H142.664C142.55 271.459 142.379 271.683 142.151 271.903C141.923 272.124 141.629 272.306 141.271 272.452C140.913 272.598 140.485 272.67 139.985 272.67ZM140.369 271.254C140.856 271.254 141.273 271.158 141.62 270.965C141.97 270.772 142.235 270.52 142.416 270.21C142.601 269.895 142.694 269.558 142.694 269.2V268.032C142.631 268.095 142.509 268.154 142.328 268.209C142.151 268.26 141.948 268.305 141.72 268.345C141.492 268.38 141.269 268.414 141.053 268.445C140.837 268.473 140.656 268.496 140.51 268.516C140.168 268.559 139.855 268.632 139.572 268.734C139.293 268.837 139.068 268.984 138.899 269.177C138.734 269.366 138.651 269.617 138.651 269.932C138.651 270.369 138.813 270.699 139.135 270.924C139.458 271.144 139.869 271.254 140.369 271.254ZM146.95 272.47V260.384H148.714V264.875H148.821C148.923 264.686 149.07 264.468 149.263 264.22C149.456 263.972 149.724 263.756 150.066 263.571C150.408 263.382 150.861 263.287 151.423 263.287C152.155 263.287 152.808 263.472 153.382 263.842C153.957 264.212 154.407 264.745 154.734 265.441C155.064 266.138 155.229 266.976 155.229 267.955C155.229 268.935 155.066 269.775 154.74 270.475C154.413 271.171 153.965 271.708 153.394 272.086C152.824 272.46 152.173 272.647 151.441 272.647C150.89 272.647 150.44 272.554 150.089 272.369C149.743 272.184 149.472 271.968 149.275 271.72C149.078 271.472 148.927 271.252 148.821 271.059H148.673V272.47H146.95ZM148.679 267.938C148.679 268.575 148.771 269.134 148.956 269.614C149.141 270.093 149.409 270.469 149.759 270.741C150.109 271.008 150.538 271.142 151.045 271.142C151.573 271.142 152.013 271.002 152.367 270.723C152.721 270.44 152.989 270.056 153.17 269.572C153.355 269.088 153.447 268.543 153.447 267.938C153.447 267.34 153.357 266.803 153.176 266.327C152.999 265.85 152.731 265.475 152.373 265.199C152.019 264.924 151.577 264.786 151.045 264.786C150.534 264.786 150.101 264.918 149.747 265.182C149.397 265.445 149.131 265.813 148.95 266.285C148.769 266.757 148.679 267.308 148.679 267.938Z" fill="#595959"/>
<path d="M183.873 260.384H186.086L189.934 269.779H190.076L193.923 260.384H196.136V272.47H194.401V263.724H194.289L190.725 272.452H189.285L185.721 263.718H185.608V272.47H183.873V260.384ZM201.284 272.67C200.709 272.67 200.19 272.564 199.726 272.352C199.261 272.135 198.894 271.823 198.622 271.413C198.355 271.004 198.221 270.503 198.221 269.909C198.221 269.397 198.319 268.976 198.516 268.646C198.713 268.315 198.978 268.054 199.313 267.861C199.647 267.668 200.021 267.523 200.434 267.424C200.847 267.326 201.268 267.251 201.697 267.2C202.24 267.137 202.68 267.086 203.019 267.046C203.357 267.003 203.603 266.934 203.756 266.84C203.91 266.746 203.986 266.592 203.986 266.38V266.338C203.986 265.823 203.841 265.424 203.55 265.14C203.263 264.857 202.834 264.715 202.263 264.715C201.669 264.715 201.201 264.847 200.859 265.111C200.52 265.371 200.286 265.66 200.156 265.978L198.498 265.601C198.695 265.05 198.982 264.605 199.36 264.267C199.741 263.925 200.18 263.677 200.676 263.523C201.171 263.366 201.693 263.287 202.24 263.287C202.602 263.287 202.985 263.331 203.39 263.417C203.8 263.5 204.181 263.653 204.535 263.878C204.893 264.102 205.186 264.422 205.414 264.839C205.643 265.252 205.757 265.79 205.757 266.45V272.47H204.034V271.23H203.963C203.849 271.459 203.678 271.683 203.449 271.903C203.221 272.124 202.928 272.306 202.57 272.452C202.212 272.598 201.783 272.67 201.284 272.67ZM201.667 271.254C202.155 271.254 202.572 271.158 202.918 270.965C203.268 270.772 203.534 270.52 203.715 270.21C203.9 269.895 203.992 269.558 203.992 269.2V268.032C203.929 268.095 203.807 268.154 203.626 268.209C203.449 268.26 203.247 268.305 203.019 268.345C202.79 268.38 202.568 268.414 202.352 268.445C202.135 268.473 201.954 268.496 201.809 268.516C201.467 268.559 201.154 268.632 200.871 268.734C200.591 268.837 200.367 268.984 200.198 269.177C200.033 269.366 199.95 269.617 199.95 269.932C199.95 270.369 200.111 270.699 200.434 270.924C200.756 271.144 201.168 271.254 201.667 271.254ZM208.107 272.47V263.405H209.812V264.845H209.907C210.072 264.357 210.363 263.974 210.78 263.695C211.201 263.411 211.677 263.27 212.208 263.27C212.318 263.27 212.448 263.274 212.598 263.281C212.751 263.289 212.871 263.299 212.958 263.311V264.999C212.887 264.979 212.761 264.957 212.58 264.934C212.399 264.906 212.218 264.893 212.037 264.893C211.62 264.893 211.248 264.981 210.922 265.158C210.599 265.331 210.344 265.573 210.155 265.884C209.966 266.191 209.871 266.541 209.871 266.934V272.47H208.107Z" fill="#595959"/>
<path d="M242.318 272.47H240.382L244.731 260.384H246.838L251.187 272.47H249.252L245.835 262.579H245.74L242.318 272.47ZM242.642 267.737H248.921V269.271H242.642V267.737ZM252.791 275.869V263.405H254.514V264.875H254.662C254.764 264.686 254.911 264.468 255.104 264.22C255.297 263.972 255.565 263.756 255.907 263.571C256.249 263.382 256.702 263.287 257.264 263.287C257.996 263.287 258.649 263.472 259.223 263.842C259.798 264.212 260.248 264.745 260.575 265.441C260.905 266.138 261.07 266.976 261.07 267.955C261.07 268.935 260.907 269.775 260.581 270.475C260.254 271.171 259.806 271.708 259.235 272.086C258.665 272.46 258.014 272.647 257.282 272.647C256.731 272.647 256.281 272.554 255.93 272.369C255.584 272.184 255.313 271.968 255.116 271.72C254.919 271.472 254.768 271.252 254.662 271.059H254.555V275.869H252.791ZM254.52 267.938C254.52 268.575 254.612 269.134 254.797 269.614C254.982 270.093 255.25 270.469 255.6 270.741C255.95 271.008 256.379 271.142 256.886 271.142C257.414 271.142 257.854 271.002 258.208 270.723C258.562 270.44 258.83 270.056 259.011 269.572C259.196 269.088 259.288 268.543 259.288 267.938C259.288 267.34 259.198 266.803 259.017 266.327C258.84 265.85 258.572 265.475 258.214 265.199C257.86 264.924 257.418 264.786 256.886 264.786C256.375 264.786 255.942 264.918 255.588 265.182C255.238 265.445 254.972 265.813 254.792 266.285C254.611 266.757 254.52 267.308 254.52 267.938ZM263.047 272.47V263.405H264.753V264.845H264.847C265.012 264.357 265.304 263.974 265.721 263.695C266.142 263.411 266.618 263.27 267.149 263.27C267.259 263.27 267.389 263.274 267.538 263.281C267.692 263.289 267.812 263.299 267.898 263.311V264.999C267.827 264.979 267.701 264.957 267.521 264.934C267.34 264.906 267.159 264.893 266.978 264.893C266.561 264.893 266.189 264.981 265.862 265.158C265.54 265.331 265.284 265.573 265.095 265.884C264.906 266.191 264.812 266.541 264.812 266.934V272.47H263.047Z" fill="#595959"/>
<path d="M296.382 260.384H298.595L302.443 269.779H302.584L306.432 260.384H308.645V272.47H306.91V263.724H306.798L303.233 272.452H301.794L298.229 263.718H298.117V272.47H296.382V260.384ZM313.792 272.67C313.218 272.67 312.699 272.564 312.234 272.352C311.77 272.135 311.402 271.823 311.131 271.413C310.863 271.004 310.73 270.503 310.73 269.909C310.73 269.397 310.828 268.976 311.025 268.646C311.221 268.315 311.487 268.054 311.821 267.861C312.156 267.668 312.529 267.523 312.943 267.424C313.356 267.326 313.777 267.251 314.205 267.2C314.748 267.137 315.189 267.086 315.527 267.046C315.866 267.003 316.112 266.934 316.265 266.84C316.418 266.746 316.495 266.592 316.495 266.38V266.338C316.495 265.823 316.35 265.424 316.058 265.14C315.771 264.857 315.342 264.715 314.772 264.715C314.178 264.715 313.71 264.847 313.367 265.111C313.029 265.371 312.795 265.66 312.665 265.978L311.007 265.601C311.204 265.05 311.491 264.605 311.869 264.267C312.25 263.925 312.689 263.677 313.184 263.523C313.68 263.366 314.201 263.287 314.748 263.287C315.11 263.287 315.494 263.331 315.899 263.417C316.308 263.5 316.69 263.653 317.044 263.878C317.402 264.102 317.695 264.422 317.923 264.839C318.151 265.252 318.265 265.79 318.265 266.45V272.47H316.542V271.23H316.471C316.357 271.459 316.186 271.683 315.958 271.903C315.73 272.124 315.437 272.306 315.079 272.452C314.721 272.598 314.292 272.67 313.792 272.67ZM314.176 271.254C314.664 271.254 315.081 271.158 315.427 270.965C315.777 270.772 316.043 270.52 316.224 270.21C316.409 269.895 316.501 269.558 316.501 269.2V268.032C316.438 268.095 316.316 268.154 316.135 268.209C315.958 268.26 315.755 268.305 315.527 268.345C315.299 268.38 315.077 268.414 314.86 268.445C314.644 268.473 314.463 268.496 314.318 268.516C313.975 268.559 313.662 268.632 313.379 268.734C313.1 268.837 312.876 268.984 312.706 269.177C312.541 269.366 312.459 269.617 312.459 269.932C312.459 270.369 312.62 270.699 312.943 270.924C313.265 271.144 313.676 271.254 314.176 271.254ZM321.406 275.869C321.143 275.869 320.903 275.847 320.686 275.804C320.47 275.765 320.309 275.721 320.203 275.674L320.627 274.228C320.95 274.315 321.237 274.352 321.489 274.34C321.741 274.329 321.963 274.234 322.156 274.057C322.353 273.88 322.526 273.591 322.675 273.19L322.894 272.588L319.577 263.405H321.465L323.761 270.44H323.855L326.151 263.405H328.045L324.31 273.679C324.137 274.152 323.916 274.551 323.649 274.877C323.381 275.208 323.063 275.456 322.693 275.621C322.323 275.786 321.894 275.869 321.406 275.869Z" fill="#595959"/>
<path d="M361.001 260.384H362.819V268.953C362.819 269.728 362.665 270.391 362.358 270.941C362.055 271.492 361.628 271.913 361.078 272.204C360.527 272.491 359.882 272.635 359.142 272.635C358.461 272.635 357.85 272.511 357.307 272.263C356.768 272.015 356.341 271.655 356.026 271.183C355.715 270.707 355.56 270.129 355.56 269.448H357.372C357.372 269.783 357.448 270.072 357.602 270.316C357.759 270.56 357.974 270.75 358.245 270.888C358.52 271.022 358.835 271.089 359.189 271.089C359.575 271.089 359.901 271.008 360.169 270.847C360.44 270.682 360.647 270.44 360.789 270.121C360.93 269.802 361.001 269.413 361.001 268.953V260.384ZM371.073 268.711V263.405H372.843V272.47H371.108V270.9H371.014C370.805 271.384 370.471 271.787 370.011 272.11C369.554 272.428 368.986 272.588 368.305 272.588C367.723 272.588 367.208 272.46 366.759 272.204C366.315 271.945 365.964 271.561 365.709 271.053C365.457 270.546 365.331 269.918 365.331 269.171V263.405H367.095V268.958C367.095 269.576 367.267 270.068 367.609 270.434C367.951 270.8 368.396 270.983 368.943 270.983C369.273 270.983 369.602 270.9 369.928 270.735C370.259 270.57 370.532 270.32 370.748 269.985C370.969 269.651 371.077 269.226 371.073 268.711ZM376.979 267.088V272.47H375.214V263.405H376.908V264.881H377.02C377.228 264.401 377.555 264.015 378 263.724C378.448 263.433 379.013 263.287 379.693 263.287C380.311 263.287 380.852 263.417 381.316 263.677C381.78 263.933 382.14 264.314 382.396 264.822C382.652 265.329 382.78 265.957 382.78 266.704V272.47H381.015V266.917C381.015 266.26 380.844 265.746 380.502 265.376C380.159 265.003 379.689 264.816 379.091 264.816C378.682 264.816 378.318 264.904 378 265.081C377.685 265.258 377.435 265.518 377.25 265.86C377.069 266.199 376.979 266.608 376.979 267.088Z" fill="#595959"/>
<path d="M416.579 260.384H418.397V268.953C418.397 269.728 418.244 270.391 417.937 270.941C417.634 271.492 417.207 271.913 416.656 272.204C416.105 272.491 415.46 272.635 414.72 272.635C414.04 272.635 413.428 272.511 412.885 272.263C412.346 272.015 411.919 271.655 411.605 271.183C411.294 270.707 411.138 270.129 411.138 269.448H412.95C412.95 269.783 413.027 270.072 413.18 270.316C413.338 270.56 413.552 270.75 413.823 270.888C414.099 271.022 414.414 271.089 414.768 271.089C415.153 271.089 415.48 271.008 415.747 270.847C416.019 270.682 416.225 270.44 416.367 270.121C416.509 269.802 416.579 269.413 416.579 268.953V260.384ZM426.651 268.711V263.405H428.422V272.47H426.687V270.9H426.592C426.384 271.384 426.049 271.787 425.589 272.11C425.133 272.428 424.564 272.588 423.884 272.588C423.301 272.588 422.786 272.46 422.338 272.204C421.893 271.945 421.543 271.561 421.287 271.053C421.035 270.546 420.909 269.918 420.909 269.171V263.405H422.674V268.958C422.674 269.576 422.845 270.068 423.187 270.434C423.53 270.8 423.974 270.983 424.521 270.983C424.851 270.983 425.18 270.9 425.506 270.735C425.837 270.57 426.11 270.32 426.327 269.985C426.547 269.651 426.655 269.226 426.651 268.711ZM432.557 260.384V272.47H430.793V260.384H432.557Z" fill="#595959"/>
<path d="M462.792 272.47H460.857L465.206 260.384H467.313L471.662 272.47H469.726L466.309 262.579H466.215L462.792 272.47ZM463.117 267.737H469.396V269.271H463.117V267.737ZM479.008 268.711V263.405H480.778V272.47H479.043V270.9H478.949C478.74 271.384 478.406 271.787 477.945 272.11C477.489 272.428 476.92 272.588 476.24 272.588C475.658 272.588 475.142 272.46 474.694 272.204C474.249 271.945 473.899 271.561 473.643 271.053C473.391 270.546 473.266 269.918 473.266 269.171V263.405H475.03V268.958C475.03 269.576 475.201 270.068 475.543 270.434C475.886 270.8 476.33 270.983 476.877 270.983C477.208 270.983 477.536 270.9 477.863 270.735C478.193 270.57 478.467 270.32 478.683 269.985C478.903 269.651 479.011 269.226 479.008 268.711ZM486.949 276.058C486.229 276.058 485.61 275.963 485.09 275.774C484.575 275.586 484.154 275.336 483.827 275.025C483.501 274.714 483.257 274.374 483.096 274.004L484.612 273.379C484.718 273.552 484.86 273.735 485.037 273.927C485.218 274.124 485.462 274.291 485.769 274.429C486.08 274.567 486.479 274.635 486.967 274.635C487.636 274.635 488.188 274.472 488.625 274.146C489.062 273.823 489.28 273.308 489.28 272.6V270.817H489.168C489.062 271.01 488.908 271.225 488.708 271.461C488.511 271.697 488.24 271.901 487.893 272.074C487.547 272.247 487.097 272.334 486.542 272.334C485.826 272.334 485.181 272.167 484.606 271.832C484.036 271.494 483.583 270.996 483.249 270.339C482.919 269.678 482.753 268.866 482.753 267.902C482.753 266.938 482.917 266.112 483.243 265.424C483.574 264.735 484.026 264.208 484.6 263.842C485.175 263.472 485.826 263.287 486.554 263.287C487.116 263.287 487.571 263.382 487.917 263.571C488.263 263.756 488.533 263.972 488.725 264.22C488.922 264.468 489.074 264.686 489.18 264.875H489.31V263.405H491.039V272.67C491.039 273.449 490.858 274.089 490.496 274.588C490.134 275.088 489.644 275.458 489.026 275.698C488.413 275.938 487.72 276.058 486.949 276.058ZM486.931 270.87C487.439 270.87 487.868 270.752 488.218 270.516C488.572 270.276 488.839 269.934 489.02 269.49C489.205 269.041 489.298 268.504 489.298 267.879C489.298 267.269 489.207 266.732 489.026 266.268C488.845 265.803 488.58 265.441 488.23 265.182C487.88 264.918 487.447 264.786 486.931 264.786C486.4 264.786 485.958 264.924 485.604 265.199C485.25 265.471 484.982 265.841 484.801 266.309C484.624 266.777 484.536 267.3 484.536 267.879C484.536 268.473 484.626 268.994 484.807 269.442C484.988 269.891 485.255 270.241 485.61 270.493C485.968 270.745 486.408 270.87 486.931 270.87Z" fill="#595959"/>
<path d="M526.581 263.559C526.518 263 526.258 262.567 525.802 262.261C525.345 261.95 524.771 261.794 524.078 261.794C523.583 261.794 523.154 261.873 522.792 262.03C522.43 262.184 522.149 262.396 521.948 262.668C521.751 262.935 521.653 263.24 521.653 263.582C521.653 263.87 521.72 264.117 521.854 264.326C521.991 264.535 522.17 264.71 522.391 264.851C522.615 264.989 522.855 265.105 523.111 265.199C523.366 265.29 523.612 265.365 523.848 265.424L525.029 265.73C525.414 265.825 525.809 265.953 526.215 266.114C526.62 266.275 526.996 266.488 527.342 266.751C527.688 267.015 527.967 267.342 528.18 267.731C528.396 268.121 528.504 268.587 528.504 269.13C528.504 269.814 528.327 270.422 527.973 270.953C527.623 271.484 527.114 271.903 526.445 272.21C525.78 272.517 524.975 272.67 524.031 272.67C523.126 272.67 522.343 272.527 521.683 272.24C521.022 271.952 520.504 271.545 520.13 271.018C519.757 270.487 519.55 269.857 519.511 269.13H521.34C521.376 269.566 521.517 269.93 521.765 270.221C522.017 270.509 522.338 270.723 522.727 270.865C523.12 271.002 523.551 271.071 524.019 271.071C524.535 271.071 524.993 270.99 525.394 270.829C525.8 270.664 526.118 270.436 526.35 270.145C526.583 269.85 526.699 269.505 526.699 269.112C526.699 268.754 526.596 268.461 526.392 268.233C526.191 268.004 525.918 267.816 525.571 267.666C525.229 267.517 524.842 267.385 524.409 267.271L522.981 266.881C522.013 266.618 521.246 266.23 520.679 265.719C520.117 265.207 519.835 264.531 519.835 263.689C519.835 262.992 520.024 262.384 520.402 261.865C520.78 261.346 521.291 260.943 521.936 260.655C522.581 260.364 523.309 260.219 524.12 260.219C524.938 260.219 525.66 260.362 526.285 260.65C526.915 260.937 527.411 261.332 527.773 261.836C528.135 262.335 528.323 262.91 528.339 263.559H526.581ZM534.448 272.653C533.555 272.653 532.786 272.462 532.141 272.08C531.5 271.695 531.004 271.154 530.654 270.457C530.308 269.757 530.135 268.937 530.135 267.997C530.135 267.068 530.308 266.25 530.654 265.542C531.004 264.834 531.492 264.281 532.117 263.883C532.747 263.486 533.483 263.287 534.324 263.287C534.836 263.287 535.332 263.372 535.812 263.541C536.292 263.71 536.722 263.976 537.104 264.338C537.486 264.7 537.787 265.17 538.007 265.748C538.227 266.323 538.337 267.021 538.337 267.843V268.469H531.132V267.147H536.608C536.608 266.683 536.514 266.271 536.325 265.913C536.136 265.551 535.871 265.266 535.528 265.058C535.19 264.849 534.793 264.745 534.336 264.745C533.841 264.745 533.408 264.867 533.038 265.111C532.672 265.351 532.389 265.666 532.188 266.055C531.992 266.441 531.893 266.86 531.893 267.312V268.345C531.893 268.951 531.999 269.466 532.212 269.891C532.428 270.316 532.729 270.64 533.115 270.865C533.5 271.085 533.951 271.195 534.466 271.195C534.801 271.195 535.105 271.148 535.381 271.053C535.656 270.955 535.894 270.81 536.095 270.617C536.295 270.424 536.449 270.186 536.555 269.903L538.225 270.204C538.091 270.695 537.851 271.126 537.505 271.496C537.163 271.862 536.732 272.147 536.213 272.352C535.697 272.552 535.109 272.653 534.448 272.653ZM540.295 275.869V263.405H542.018V264.875H542.166C542.268 264.686 542.416 264.468 542.608 264.22C542.801 263.972 543.069 263.756 543.411 263.571C543.753 263.382 544.206 263.287 544.768 263.287C545.5 263.287 546.153 263.472 546.727 263.842C547.302 264.212 547.752 264.745 548.079 265.441C548.409 266.138 548.575 266.976 548.575 267.955C548.575 268.935 548.411 269.775 548.085 270.475C547.758 271.171 547.31 271.708 546.739 272.086C546.169 272.46 545.518 272.647 544.786 272.647C544.235 272.647 543.785 272.554 543.435 272.369C543.088 272.184 542.817 271.968 542.62 271.72C542.423 271.472 542.272 271.252 542.166 271.059H542.06V275.869H540.295ZM542.024 267.938C542.024 268.575 542.117 269.134 542.301 269.614C542.486 270.093 542.754 270.469 543.104 270.741C543.454 271.008 543.883 271.142 544.391 271.142C544.918 271.142 545.358 271.002 545.712 270.723C546.066 270.44 546.334 270.056 546.515 269.572C546.7 269.088 546.792 268.543 546.792 267.938C546.792 267.34 546.702 266.803 546.521 266.327C546.344 265.85 546.076 265.475 545.718 265.199C545.364 264.924 544.922 264.786 544.391 264.786C543.879 264.786 543.446 264.918 543.092 265.182C542.742 265.445 542.477 265.813 542.296 266.285C542.115 266.757 542.024 267.308 542.024 267.938Z" fill="#595959"/>
<path d="M587.829 266.427C587.829 267.717 587.593 268.827 587.121 269.755C586.649 270.68 586.002 271.392 585.18 271.891C584.361 272.387 583.431 272.635 582.388 272.635C581.342 272.635 580.408 272.387 579.585 271.891C578.767 271.392 578.122 270.678 577.65 269.749C577.178 268.821 576.942 267.713 576.942 266.427C576.942 265.136 577.178 264.029 577.65 263.104C578.122 262.176 578.767 261.464 579.585 260.968C580.408 260.469 581.342 260.219 582.388 260.219C583.431 260.219 584.361 260.469 585.18 260.968C586.002 261.464 586.649 262.176 587.121 263.104C587.593 264.029 587.829 265.136 587.829 266.427ZM586.024 266.427C586.024 265.443 585.864 264.615 585.546 263.942C585.231 263.266 584.798 262.754 584.247 262.408C583.7 262.058 583.081 261.883 582.388 261.883C581.692 261.883 581.071 262.058 580.524 262.408C579.977 262.754 579.544 263.266 579.225 263.942C578.911 264.615 578.753 265.443 578.753 266.427C578.753 267.41 578.911 268.24 579.225 268.917C579.544 269.59 579.977 270.101 580.524 270.451C581.071 270.798 581.692 270.971 582.388 270.971C583.081 270.971 583.7 270.798 584.247 270.451C584.798 270.101 585.231 269.59 585.546 268.917C585.864 268.24 586.024 267.41 586.024 266.427ZM593.779 272.653C592.902 272.653 592.147 272.454 591.513 272.057C590.884 271.655 590.4 271.103 590.062 270.398C589.723 269.694 589.554 268.888 589.554 267.979C589.554 267.058 589.727 266.246 590.073 265.542C590.42 264.834 590.907 264.281 591.537 263.883C592.166 263.486 592.908 263.287 593.762 263.287C594.45 263.287 595.064 263.415 595.603 263.671C596.142 263.923 596.577 264.277 596.907 264.733C597.241 265.19 597.44 265.723 597.503 266.332H595.786C595.691 265.908 595.475 265.542 595.137 265.235C594.802 264.928 594.354 264.774 593.791 264.774C593.299 264.774 592.869 264.904 592.499 265.164C592.133 265.42 591.848 265.786 591.643 266.262C591.439 266.734 591.336 267.292 591.336 267.938C591.336 268.599 591.437 269.169 591.637 269.649C591.838 270.129 592.121 270.501 592.487 270.764C592.857 271.028 593.292 271.16 593.791 271.16C594.126 271.16 594.428 271.099 594.7 270.977C594.975 270.851 595.205 270.672 595.39 270.44C595.579 270.208 595.711 269.928 595.786 269.602H597.503C597.44 270.188 597.249 270.711 596.931 271.171C596.612 271.632 596.185 271.994 595.65 272.257C595.119 272.521 594.495 272.653 593.779 272.653ZM603.621 263.405V264.822H598.67V263.405H603.621ZM599.998 261.234H601.762V269.808C601.762 270.151 601.813 270.408 601.916 270.581C602.018 270.75 602.15 270.867 602.311 270.929C602.476 270.989 602.655 271.018 602.848 271.018C602.99 271.018 603.114 271.008 603.22 270.989C603.326 270.969 603.409 270.953 603.468 270.941L603.786 272.399C603.684 272.438 603.539 272.478 603.35 272.517C603.161 272.56 602.925 272.584 602.642 272.588C602.177 272.596 601.745 272.513 601.343 272.34C600.942 272.167 600.617 271.899 600.37 271.537C600.122 271.175 599.998 270.721 599.998 270.174V261.234Z" fill="#595959"/>
<path d="M642.193 260.384V272.47H640.517L634.374 263.606H634.262V272.47H632.439V260.384H634.126L640.275 269.259H640.388V260.384H642.193ZM648.53 272.653C647.68 272.653 646.938 272.458 646.305 272.068C645.672 271.679 645.18 271.134 644.83 270.434C644.48 269.734 644.305 268.915 644.305 267.979C644.305 267.039 644.48 266.216 644.83 265.512C645.18 264.808 645.672 264.261 646.305 263.872C646.938 263.482 647.68 263.287 648.53 263.287C649.38 263.287 650.121 263.482 650.755 263.872C651.388 264.261 651.88 264.808 652.23 265.512C652.58 266.216 652.755 267.039 652.755 267.979C652.755 268.915 652.58 269.734 652.23 270.434C651.88 271.134 651.388 271.679 650.755 272.068C650.121 272.458 649.38 272.653 648.53 272.653ZM648.536 271.171C649.086 271.171 649.543 271.026 649.905 270.735C650.267 270.444 650.534 270.056 650.707 269.572C650.884 269.088 650.973 268.555 650.973 267.973C650.973 267.395 650.884 266.864 650.707 266.38C650.534 265.892 650.267 265.5 649.905 265.205C649.543 264.91 649.086 264.763 648.536 264.763C647.981 264.763 647.521 264.91 647.155 265.205C646.793 265.5 646.523 265.892 646.346 266.38C646.173 266.864 646.087 267.395 646.087 267.973C646.087 268.555 646.173 269.088 646.346 269.572C646.523 270.056 646.793 270.444 647.155 270.735C647.521 271.026 647.981 271.171 648.536 271.171ZM662.171 263.405L658.884 272.47H656.995L653.702 263.405H655.597L657.892 270.381H657.987L660.276 263.405H662.171Z" fill="#595959"/>
<path d="M694.711 272.47H690.799V260.384H694.835C696.02 260.384 697.037 260.626 697.886 261.11C698.736 261.59 699.387 262.28 699.84 263.181C700.296 264.078 700.524 265.154 700.524 266.409C700.524 267.668 700.294 268.75 699.834 269.655C699.377 270.56 698.716 271.256 697.851 271.744C696.985 272.228 695.939 272.47 694.711 272.47ZM692.622 270.876H694.611C695.532 270.876 696.297 270.703 696.907 270.357C697.517 270.007 697.973 269.501 698.276 268.84C698.579 268.176 698.73 267.365 698.73 266.409C698.73 265.461 698.579 264.656 698.276 263.996C697.977 263.335 697.53 262.833 696.936 262.491C696.342 262.148 695.605 261.977 694.723 261.977H692.622V270.876ZM706.557 272.653C705.664 272.653 704.895 272.462 704.249 272.08C703.608 271.695 703.112 271.154 702.762 270.457C702.416 269.757 702.243 268.937 702.243 267.997C702.243 267.068 702.416 266.25 702.762 265.542C703.112 264.834 703.6 264.281 704.226 263.883C704.855 263.486 705.591 263.287 706.433 263.287C706.944 263.287 707.44 263.372 707.92 263.541C708.4 263.71 708.831 263.976 709.212 264.338C709.594 264.7 709.895 265.17 710.115 265.748C710.336 266.323 710.446 267.021 710.446 267.843V268.469H703.24V267.147H708.717C708.717 266.683 708.622 266.271 708.433 265.913C708.245 265.551 707.979 265.266 707.637 265.058C707.298 264.849 706.901 264.745 706.445 264.745C705.949 264.745 705.516 264.867 705.146 265.111C704.78 265.351 704.497 265.666 704.297 266.055C704.1 266.441 704.002 266.86 704.002 267.312V268.345C704.002 268.951 704.108 269.466 704.32 269.891C704.537 270.316 704.838 270.64 705.223 270.865C705.609 271.085 706.059 271.195 706.574 271.195C706.909 271.195 707.214 271.148 707.489 271.053C707.765 270.955 708.003 270.81 708.203 270.617C708.404 270.424 708.557 270.186 708.664 269.903L710.334 270.204C710.2 270.695 709.96 271.126 709.614 271.496C709.271 271.862 708.841 272.147 708.321 272.352C707.806 272.552 707.218 272.653 706.557 272.653ZM716.222 272.653C715.344 272.653 714.589 272.454 713.955 272.057C713.326 271.655 712.842 271.103 712.504 270.398C712.165 269.694 711.996 268.888 711.996 267.979C711.996 267.058 712.169 266.246 712.516 265.542C712.862 264.834 713.35 264.281 713.979 263.883C714.609 263.486 715.35 263.287 716.204 263.287C716.892 263.287 717.506 263.415 718.045 263.671C718.584 263.923 719.019 264.277 719.349 264.733C719.684 265.19 719.882 265.723 719.945 266.332H718.228C718.134 265.908 717.917 265.542 717.579 265.235C717.244 264.928 716.796 264.774 716.233 264.774C715.742 264.774 715.311 264.904 714.941 265.164C714.575 265.42 714.29 265.786 714.085 266.262C713.881 266.734 713.778 267.292 713.778 267.938C713.778 268.599 713.879 269.169 714.079 269.649C714.28 270.129 714.563 270.501 714.929 270.764C715.299 271.028 715.734 271.16 716.233 271.16C716.568 271.16 716.871 271.099 717.142 270.977C717.418 270.851 717.648 270.672 717.833 270.44C718.021 270.208 718.153 269.928 718.228 269.602H719.945C719.882 270.188 719.691 270.711 719.373 271.171C719.054 271.632 718.627 271.994 718.092 272.257C717.561 272.521 716.938 272.653 716.222 272.653Z" fill="#595959"/>
<path d="M25.3307 5.749C25.8697 5.75293 26.4008 5.85129 26.924 6.04406C27.4473 6.23683 27.9194 6.55157 28.3403 6.98826C28.7652 7.42495 29.1036 8.01508 29.3554 8.75864C29.6111 9.49826 29.7409 10.4189 29.7448 11.5204C29.7448 12.5787 29.6386 13.5209 29.4262 14.3471C29.2137 15.1694 28.9088 15.8637 28.5115 16.4303C28.1181 16.9968 27.6401 17.4276 27.0775 17.7226C26.5149 18.0177 25.8815 18.1652 25.1773 18.1652C24.4573 18.1652 23.818 18.0236 23.2594 17.7403C22.7007 17.4571 22.2463 17.0656 21.8962 16.566C21.546 16.0624 21.3277 15.4841 21.2411 14.831H23.041C23.159 15.3503 23.399 15.7713 23.761 16.0939C24.1268 16.4126 24.5989 16.5719 25.1773 16.5719C26.0625 16.5719 26.7529 16.1863 27.2486 15.4153C27.7443 14.6402 27.9941 13.5583 27.9981 12.1696H27.9036C27.6991 12.5079 27.4433 12.799 27.1365 13.0429C26.8336 13.2869 26.4932 13.4757 26.1156 13.6095C25.7379 13.7432 25.3346 13.8101 24.9058 13.8101C24.2095 13.8101 23.5761 13.639 23.0056 13.2967C22.4352 12.9544 21.9808 12.4843 21.6424 11.8863C21.3041 11.2883 21.1349 10.6057 21.1349 9.83857C21.1349 9.07534 21.308 8.38292 21.6542 7.76132C22.0044 7.13973 22.4922 6.64796 23.1177 6.28601C23.7472 5.92013 24.4849 5.74113 25.3307 5.749ZM25.3366 7.28332C24.8763 7.28332 24.4612 7.39741 24.0914 7.6256C23.7256 7.84984 23.4364 8.15474 23.224 8.54029C23.0115 8.92191 22.9053 9.3468 22.9053 9.81496C22.9053 10.2831 23.0076 10.708 23.2121 11.0896C23.4207 11.4673 23.7039 11.7683 24.0619 11.9925C24.4239 12.2128 24.837 12.323 25.3012 12.323C25.6474 12.323 25.97 12.2561 26.269 12.1224C26.568 11.9886 26.8296 11.8037 27.0539 11.5676C27.2781 11.3276 27.4532 11.0562 27.5791 10.7533C27.705 10.4503 27.7679 10.1317 27.7679 9.79726C27.7679 9.3527 27.6617 8.93961 27.4492 8.55799C27.2407 8.17638 26.9535 7.86951 26.5877 7.6374C26.2218 7.40135 25.8048 7.28332 25.3366 7.28332ZM36.0843 18.2006C35.1519 18.1967 34.3552 17.9508 33.6943 17.463C33.0333 16.9751 32.5278 16.265 32.1776 15.3326C31.8275 14.4002 31.6524 13.277 31.6524 11.963C31.6524 10.6529 31.8275 9.53367 32.1776 8.6052C32.5317 7.67674 33.0392 6.96859 33.7002 6.48075C34.365 5.99292 35.1597 5.749 36.0843 5.749C37.0088 5.749 37.8015 5.99488 38.4625 6.48665C39.1234 6.97449 39.6289 7.68264 39.9791 8.61111C40.3332 9.53564 40.5102 10.6529 40.5102 11.963C40.5102 13.281 40.3351 14.4061 39.985 15.3385C39.6348 16.267 39.1293 16.9771 38.4684 17.4689C37.8074 17.9567 37.0127 18.2006 36.0843 18.2006ZM36.0843 16.625C36.9026 16.625 37.5419 16.2257 38.0022 15.4271C38.4664 14.6284 38.6985 13.4737 38.6985 11.963C38.6985 10.9598 38.5923 10.112 38.3798 9.41958C38.1713 8.72323 37.8704 8.19605 37.477 7.83804C37.0875 7.4761 36.6232 7.29513 36.0843 7.29513C35.2699 7.29513 34.6306 7.69641 34.1664 8.49898C33.7021 9.30155 33.468 10.4562 33.4641 11.963C33.4641 12.9702 33.5684 13.8219 33.7769 14.5183C33.9893 15.2107 34.2903 15.7359 34.6798 16.0939C35.0692 16.448 35.5374 16.625 36.0843 16.625ZM48.9121 15.7339V15.0966C48.9121 14.6402 49.0065 14.2232 49.1954 13.8455C49.3881 13.4639 49.6675 13.159 50.0333 12.9308C50.4032 12.6987 50.8497 12.5826 51.3729 12.5826C51.908 12.5826 52.3565 12.6967 52.7184 12.9249C53.0804 13.1531 53.3538 13.458 53.5387 13.8396C53.7275 14.2212 53.822 14.6402 53.822 15.0966V15.7339C53.822 16.1903 53.7275 16.6093 53.5387 16.9909C53.3498 17.3686 53.0725 17.6735 52.7066 17.9056C52.3447 18.1338 51.9001 18.2479 51.3729 18.2479C50.8418 18.2479 50.3933 18.1338 50.0274 17.9056C49.6616 17.6735 49.3842 17.3686 49.1954 16.9909C49.0065 16.6093 48.9121 16.1903 48.9121 15.7339ZM50.2871 15.0966V15.7339C50.2871 16.0723 50.3677 16.3791 50.5291 16.6545C50.6904 16.9299 50.9716 17.0676 51.3729 17.0676C51.7703 17.0676 52.0476 16.9299 52.205 16.6545C52.3624 16.3791 52.4411 16.0723 52.4411 15.7339V15.0966C52.4411 14.7582 52.3643 14.4514 52.2109 14.176C52.0614 13.9006 51.7821 13.7629 51.3729 13.7629C50.9795 13.7629 50.7002 13.9006 50.535 14.176C50.3697 14.4514 50.2871 14.7582 50.2871 15.0966ZM42.8338 8.81765V8.18031C42.8338 7.72395 42.9282 7.30496 43.1171 6.92335C43.3099 6.54173 43.5892 6.23683 43.9551 6.00865C44.3249 5.78047 44.7714 5.66638 45.2946 5.66638C45.8297 5.66638 46.2782 5.78047 46.6401 6.00865C47.0021 6.23683 47.2755 6.54173 47.4604 6.92335C47.6453 7.30496 47.7378 7.72395 47.7378 8.18031V8.81765C47.7378 9.27401 47.6433 9.693 47.4545 10.0746C47.2696 10.4523 46.9942 10.7572 46.6283 10.9893C46.2664 11.2175 45.8218 11.3316 45.2946 11.3316C44.7596 11.3316 44.3091 11.2175 43.9433 10.9893C43.5813 10.7572 43.3059 10.4523 43.1171 10.0746C42.9282 9.693 42.8338 9.27401 42.8338 8.81765ZM44.2147 8.18031V8.81765C44.2147 9.15599 44.2934 9.46285 44.4508 9.73825C44.6121 10.0136 44.8934 10.1513 45.2946 10.1513C45.6881 10.1513 45.9634 10.0136 46.1208 9.73825C46.2821 9.46285 46.3628 9.15599 46.3628 8.81765V8.18031C46.3628 7.84198 46.286 7.53511 46.1326 7.25972C45.9792 6.98433 45.6999 6.84663 45.2946 6.84663C44.9012 6.84663 44.6219 6.98433 44.4567 7.25972C44.2954 7.53511 44.2147 7.84198 44.2147 8.18031ZM43.3944 18L51.7034 5.91423H53.1138L44.8048 18H43.3944Z" fill="#595959"/>
<line x1="71.3501" y1="10.8759" x2="726.117" y2="10.8759" stroke="#F4F4F4" stroke-width="1.16326"/>
<path d="M25.4605 51.4011C24.6147 51.4011 23.8672 51.2555 23.218 50.9644C22.5728 50.6733 22.0673 50.272 21.7014 49.7605C21.3355 49.2491 21.1546 48.6668 21.1585 48.0138C21.1546 47.5023 21.2588 47.0322 21.4713 46.6034C21.6877 46.1706 21.9808 45.8106 22.3506 45.5234C22.7204 45.2323 23.1335 45.0474 23.5898 44.9687V44.8979C22.9879 44.7523 22.506 44.4297 22.144 43.9301C21.7821 43.4304 21.6031 42.8561 21.607 42.2069C21.6031 41.5893 21.7663 41.0385 22.0968 40.5546C22.4312 40.0667 22.8895 39.6832 23.4718 39.4038C24.0541 39.1245 24.717 38.9848 25.4605 38.9848C26.1962 38.9848 26.8532 39.1265 27.4315 39.4097C28.0138 39.6891 28.4721 40.0726 28.8065 40.5605C29.1409 41.0444 29.3101 41.5932 29.314 42.2069C29.3101 42.8561 29.1252 43.4304 28.7593 43.9301C28.3934 44.4297 27.9174 44.7523 27.3312 44.8979V44.9687C27.7837 45.0474 28.1908 45.2323 28.5528 45.5234C28.9187 45.8106 29.2098 46.1706 29.4262 46.6034C29.6465 47.0322 29.7586 47.5023 29.7625 48.0138C29.7586 48.6668 29.5737 49.2491 29.2078 49.7605C28.8419 50.272 28.3344 50.6733 27.6853 50.9644C27.0401 51.2555 26.2985 51.4011 25.4605 51.4011ZM25.4605 49.9081C25.9602 49.9081 26.3929 49.8254 26.7588 49.6602C27.1247 49.491 27.4079 49.257 27.6086 48.958C27.8092 48.655 27.9115 48.3009 27.9154 47.8957C27.9115 47.4748 27.8014 47.103 27.585 46.7804C27.3725 46.4578 27.0834 46.204 26.7175 46.0191C26.3516 45.8342 25.9326 45.7418 25.4605 45.7418C24.9845 45.7418 24.5616 45.8342 24.1918 46.0191C23.8219 46.204 23.5308 46.4578 23.3184 46.7804C23.1059 47.103 23.0017 47.4748 23.0056 47.8957C23.0017 48.3009 23.0981 48.655 23.2948 48.958C23.4954 49.257 23.7806 49.491 24.1504 49.6602C24.5203 49.8254 24.957 49.9081 25.4605 49.9081ZM25.4605 44.2842C25.8618 44.2842 26.2179 44.2035 26.5287 44.0422C26.8395 43.8809 27.0834 43.6567 27.2604 43.3695C27.4414 43.0823 27.5338 42.7459 27.5378 42.3604C27.5338 41.9827 27.4433 41.6522 27.2663 41.3689C27.0932 41.0857 26.8513 40.8673 26.5405 40.7139C26.2297 40.5565 25.8697 40.4779 25.4605 40.4779C25.0435 40.4779 24.6776 40.5565 24.3629 40.7139C24.0521 40.8673 23.8101 41.0857 23.637 41.3689C23.4639 41.6522 23.3793 41.9827 23.3833 42.3604C23.3793 42.7459 23.4659 43.0823 23.6429 43.3695C23.82 43.6567 24.0639 43.8809 24.3747 44.0422C24.6894 44.2035 25.0514 44.2842 25.4605 44.2842ZM36.0843 51.4365C35.1519 51.4325 34.3552 51.1867 33.6942 50.6988C33.0333 50.211 32.5278 49.5009 32.1776 48.5685C31.8275 47.6361 31.6524 46.5129 31.6524 45.1989C31.6524 43.8888 31.8275 42.7695 32.1776 41.841C32.5317 40.9126 33.0392 40.2044 33.7001 39.7166C34.365 39.2288 35.1597 38.9848 36.0843 38.9848C37.0088 38.9848 37.8015 39.2307 38.4625 39.7225C39.1234 40.2103 39.6289 40.9185 39.9791 41.8469C40.3332 42.7715 40.5102 43.8888 40.5102 45.1989C40.5102 46.5168 40.3351 47.642 39.985 48.5744C39.6348 49.5028 39.1293 50.213 38.4684 50.7047C37.8074 51.1926 37.0127 51.4365 36.0843 51.4365ZM36.0843 49.8608C36.9026 49.8608 37.5419 49.4615 38.0022 48.6629C38.4664 47.8643 38.6985 46.7096 38.6985 45.1989C38.6985 44.1956 38.5923 43.3478 38.3798 42.6554C38.1713 41.9591 37.8704 41.4319 37.477 41.0739C37.0875 40.7119 36.6232 40.531 36.0843 40.531C35.2699 40.531 34.6306 40.9323 34.1663 41.7348C33.7021 42.5374 33.468 43.6921 33.4641 45.1989C33.4641 46.206 33.5684 47.0578 33.7769 47.7541C33.9893 48.4465 34.2903 48.9717 34.6798 49.3297C35.0692 49.6838 35.5374 49.8608 36.0843 49.8608ZM48.9121 48.9698V48.3324C48.9121 47.8761 49.0065 47.459 49.1954 47.0814C49.3881 46.6997 49.6675 46.3948 50.0333 46.1667C50.4032 45.9345 50.8497 45.8185 51.3729 45.8185C51.908 45.8185 52.3565 45.9326 52.7184 46.1608C53.0804 46.3889 53.3538 46.6938 53.5387 47.0755C53.7275 47.4571 53.8219 47.8761 53.8219 48.3324V48.9698C53.8219 49.4261 53.7275 49.8451 53.5387 50.2267C53.3498 50.6044 53.0725 50.9093 52.7066 51.1414C52.3447 51.3696 51.9001 51.4837 51.3729 51.4837C50.8418 51.4837 50.3933 51.3696 50.0274 51.1414C49.6616 50.9093 49.3842 50.6044 49.1954 50.2267C49.0065 49.8451 48.9121 49.4261 48.9121 48.9698ZM50.2871 48.3324V48.9698C50.2871 49.3081 50.3677 49.615 50.529 49.8904C50.6903 50.1657 50.9716 50.3034 51.3729 50.3034C51.7703 50.3034 52.0476 50.1657 52.205 49.8904C52.3624 49.615 52.4411 49.3081 52.4411 48.9698V48.3324C52.4411 47.9941 52.3643 47.6872 52.2109 47.4118C52.0614 47.1364 51.7821 46.9987 51.3729 46.9987C50.9795 46.9987 50.7002 47.1364 50.5349 47.4118C50.3697 47.6872 50.2871 47.9941 50.2871 48.3324ZM42.8338 42.0535V41.4162C42.8338 40.9598 42.9282 40.5408 43.1171 40.1592C43.3098 39.7776 43.5892 39.4727 43.9551 39.2445C44.3249 39.0163 44.7714 38.9022 45.2946 38.9022C45.8297 38.9022 46.2782 39.0163 46.6401 39.2445C47.0021 39.4727 47.2755 39.7776 47.4604 40.1592C47.6453 40.5408 47.7378 40.9598 47.7378 41.4162V42.0535C47.7378 42.5099 47.6433 42.9288 47.4545 43.3105C47.2696 43.6881 46.9942 43.993 46.6283 44.2252C46.2664 44.4533 45.8218 44.5674 45.2946 44.5674C44.7596 44.5674 44.3091 44.4533 43.9432 44.2252C43.5813 43.993 43.3059 43.6881 43.1171 43.3105C42.9282 42.9288 42.8338 42.5099 42.8338 42.0535ZM44.2147 41.4162V42.0535C44.2147 42.3918 44.2934 42.6987 44.4508 42.9741C44.6121 43.2495 44.8933 43.3872 45.2946 43.3872C45.6881 43.3872 45.9634 43.2495 46.1208 42.9741C46.2821 42.6987 46.3628 42.3918 46.3628 42.0535V41.4162C46.3628 41.0778 46.286 40.771 46.1326 40.4956C45.9792 40.2202 45.6999 40.0825 45.2946 40.0825C44.9012 40.0825 44.6219 40.2202 44.4567 40.4956C44.2954 40.771 44.2147 41.0778 44.2147 41.4162ZM43.3944 51.2358L51.7034 39.1501H53.1138L44.8048 51.2358H43.3944Z" fill="#595959"/>
<line x1="71.3501" y1="43.8759" x2="726.117" y2="43.8759" stroke="#F4F4F4" stroke-width="1.16326"/>
<path d="M25.5608 84.6364C24.8212 84.6364 24.1563 84.4948 23.5662 84.2115C22.98 83.9243 22.5119 83.5309 22.1617 83.0313C21.8116 82.5316 21.6247 81.9612 21.6011 81.3199H23.3715C23.4148 81.8392 23.6449 82.2661 24.0619 82.6005C24.479 82.9349 24.9786 83.1021 25.5608 83.1021C26.0251 83.1021 26.4362 82.9959 26.7942 82.7834C27.1562 82.5671 27.4394 82.27 27.644 81.8923C27.8525 81.5147 27.9568 81.0839 27.9568 80.6C27.9568 80.1082 27.8505 79.6695 27.6381 79.284C27.4256 78.8984 27.1325 78.5955 26.7588 78.3752C26.389 78.1549 25.9641 78.0428 25.4841 78.0388C25.1183 78.0388 24.7504 78.1018 24.3806 78.2277C24.0108 78.3536 23.7118 78.5188 23.4836 78.7234L21.8136 78.4755L22.4922 72.3854H29.137V73.9493H24.0088L23.6252 77.3307H23.6961C23.9321 77.1025 24.2449 76.9117 24.6344 76.7583C25.0278 76.6048 25.4487 76.5281 25.8972 76.5281C26.6329 76.5281 27.2879 76.7032 27.8623 77.0533C28.4407 77.4035 28.8951 77.8815 29.2255 78.4873C29.5599 79.0892 29.7252 79.7817 29.7212 80.5646C29.7252 81.3475 29.5481 82.0458 29.1901 82.6595C28.836 83.2732 28.3443 83.7571 27.7148 84.1112C27.0893 84.4614 26.3713 84.6364 25.5608 84.6364ZM36.0843 84.6718C35.1519 84.6679 34.3552 84.422 33.6943 83.9342C33.0333 83.4463 32.5278 82.7362 32.1776 81.8038C31.8275 80.8714 31.6524 79.7482 31.6524 78.4342C31.6524 77.1241 31.8275 76.0049 32.1776 75.0764C32.5317 74.1479 33.0392 73.4398 33.7002 72.9519C34.365 72.4641 35.1597 72.2202 36.0843 72.2202C37.0088 72.2202 37.8015 72.4661 38.4625 72.9578C39.1234 73.4457 39.6289 74.1538 39.9791 75.0823C40.3332 76.0068 40.5102 77.1241 40.5102 78.4342C40.5102 79.7522 40.3351 80.8773 39.985 81.8097C39.6348 82.7382 39.1293 83.4483 38.4684 83.9401C37.8074 84.4279 37.0127 84.6718 36.0843 84.6718ZM36.0843 83.0962C36.9026 83.0962 37.5419 82.6969 38.0022 81.8982C38.4664 81.0996 38.6985 79.9449 38.6985 78.4342C38.6985 77.431 38.5923 76.5832 38.3798 75.8908C38.1713 75.1944 37.8704 74.6672 37.477 74.3092C37.0875 73.9473 36.6232 73.7663 36.0843 73.7663C35.2699 73.7663 34.6306 74.1676 34.1664 74.9702C33.7021 75.7727 33.468 76.9274 33.4641 78.4342C33.4641 79.4414 33.5684 80.2931 33.7769 80.9895C33.9893 81.6819 34.2903 82.2071 34.6798 82.5651C35.0692 82.9192 35.5374 83.0962 36.0843 83.0962ZM48.9121 82.2051V81.5678C48.9121 81.1114 49.0065 80.6944 49.1954 80.3167C49.3881 79.9351 49.6675 79.6302 50.0333 79.402C50.4032 79.1699 50.8497 79.0538 51.3729 79.0538C51.908 79.0538 52.3565 79.1679 52.7184 79.3961C53.0804 79.6243 53.3538 79.9292 53.5387 80.3108C53.7275 80.6924 53.822 81.1114 53.822 81.5678V82.2051C53.822 82.6615 53.7275 83.0805 53.5387 83.4621C53.3498 83.8398 53.0725 84.1447 52.7066 84.3768C52.3447 84.605 51.9001 84.719 51.3729 84.719C50.8418 84.719 50.3933 84.605 50.0274 84.3768C49.6616 84.1447 49.3842 83.8398 49.1954 83.4621C49.0065 83.0805 48.9121 82.6615 48.9121 82.2051ZM50.2871 81.5678V82.2051C50.2871 82.5434 50.3677 82.8503 50.5291 83.1257C50.6904 83.4011 50.9716 83.5388 51.3729 83.5388C51.7703 83.5388 52.0476 83.4011 52.205 83.1257C52.3624 82.8503 52.4411 82.5434 52.4411 82.2051V81.5678C52.4411 81.2294 52.3643 80.9226 52.2109 80.6472C52.0614 80.3718 51.7821 80.2341 51.3729 80.2341C50.9795 80.2341 50.7002 80.3718 50.535 80.6472C50.3697 80.9226 50.2871 81.2294 50.2871 81.5678ZM42.8338 75.2888V74.6515C42.8338 74.1951 42.9282 73.7762 43.1171 73.3945C43.3099 73.0129 43.5892 72.708 43.9551 72.4798C44.3249 72.2517 44.7714 72.1376 45.2946 72.1376C45.8297 72.1376 46.2782 72.2517 46.6401 72.4798C47.0021 72.708 47.2755 73.0129 47.4604 73.3945C47.6453 73.7762 47.7378 74.1951 47.7378 74.6515V75.2888C47.7378 75.7452 47.6433 76.1642 47.4545 76.5458C47.2696 76.9235 46.9942 77.2284 46.6283 77.4605C46.2664 77.6887 45.8218 77.8028 45.2946 77.8028C44.7596 77.8028 44.3091 77.6887 43.9433 77.4605C43.5813 77.2284 43.3059 76.9235 43.1171 76.5458C42.9282 76.1642 42.8338 75.7452 42.8338 75.2888ZM44.2147 74.6515V75.2888C44.2147 75.6272 44.2934 75.934 44.4508 76.2094C44.6121 76.4848 44.8934 76.6225 45.2946 76.6225C45.6881 76.6225 45.9634 76.4848 46.1208 76.2094C46.2821 75.934 46.3628 75.6272 46.3628 75.2888V74.6515C46.3628 74.3132 46.286 74.0063 46.1326 73.7309C45.9792 73.4555 45.6999 73.3178 45.2946 73.3178C44.9012 73.3178 44.6219 73.4555 44.4567 73.7309C44.2954 74.0063 44.2147 74.3132 44.2147 74.6515ZM43.3944 84.4712L51.7034 72.3854H53.1138L44.8048 84.4712H43.3944Z" fill="#595959"/>
<line x1="71.3501" y1="77.8759" x2="726.117" y2="77.8759" stroke="#F4F4F4" stroke-width="1.16326"/>
<path d="M20.7498 115.347V113.871L25.9725 105.621H27.135V107.793H26.3973L22.6619 113.706V113.8H29.8201V115.347H20.7498ZM26.48 117.707V114.898L26.4918 114.225V105.621H28.2208V117.707H26.48ZM36.0843 117.908C35.1519 117.904 34.3552 117.658 33.6942 117.17C33.0333 116.682 32.5278 115.972 32.1776 115.04C31.8275 114.107 31.6524 112.984 31.6524 111.67C31.6524 110.36 31.8275 109.241 32.1776 108.312C32.5317 107.384 33.0392 106.676 33.7001 106.188C34.365 105.7 35.1597 105.456 36.0843 105.456C37.0088 105.456 37.8015 105.702 38.4625 106.194C39.1234 106.682 39.6289 107.39 39.9791 108.318C40.3332 109.243 40.5102 110.36 40.5102 111.67C40.5102 112.988 40.3351 114.113 39.985 115.046C39.6348 115.974 39.1293 116.684 38.4684 117.176C37.8074 117.664 37.0127 117.908 36.0843 117.908ZM36.0843 116.332C36.9026 116.332 37.5419 115.933 38.0022 115.134C38.4664 114.335 38.6985 113.181 38.6985 111.67C38.6985 110.667 38.5923 109.819 38.3798 109.127C38.1713 108.43 37.8704 107.903 37.477 107.545C37.0875 107.183 36.6232 107.002 36.0843 107.002C35.2699 107.002 34.6306 107.403 34.1663 108.206C33.7021 109.009 33.468 110.163 33.4641 111.67C33.4641 112.677 33.5684 113.529 33.7769 114.225C33.9893 114.918 34.2903 115.443 34.6798 115.801C35.0692 116.155 35.5374 116.332 36.0843 116.332ZM48.9121 115.441V114.804C48.9121 114.347 49.0065 113.93 49.1954 113.553C49.3881 113.171 49.6675 112.866 50.0333 112.638C50.4032 112.406 50.8497 112.29 51.3729 112.29C51.908 112.29 52.3565 112.404 52.7184 112.632C53.0804 112.86 53.3538 113.165 53.5387 113.547C53.7275 113.928 53.822 114.347 53.822 114.804V115.441C53.822 115.897 53.7275 116.316 53.5387 116.698C53.3498 117.076 53.0725 117.38 52.7066 117.613C52.3447 117.841 51.9001 117.955 51.3729 117.955C50.8418 117.955 50.3933 117.841 50.0274 117.613C49.6616 117.38 49.3842 117.076 49.1954 116.698C49.0065 116.316 48.9121 115.897 48.9121 115.441ZM50.2871 114.804V115.441C50.2871 115.779 50.3677 116.086 50.5291 116.362C50.6904 116.637 50.9716 116.775 51.3729 116.775C51.7703 116.775 52.0476 116.637 52.205 116.362C52.3624 116.086 52.4411 115.779 52.4411 115.441V114.804C52.4411 114.465 52.3643 114.158 52.2109 113.883C52.0614 113.608 51.7821 113.47 51.3729 113.47C50.9795 113.47 50.7002 113.608 50.535 113.883C50.3697 114.158 50.2871 114.465 50.2871 114.804ZM42.8338 108.525V107.887C42.8338 107.431 42.9282 107.012 43.1171 106.63C43.3099 106.249 43.5892 105.944 43.9551 105.716C44.3249 105.488 44.7714 105.373 45.2946 105.373C45.8297 105.373 46.2782 105.488 46.6401 105.716C47.0021 105.944 47.2755 106.249 47.4604 106.63C47.6453 107.012 47.7378 107.431 47.7378 107.887V108.525C47.7378 108.981 47.6433 109.4 47.4545 109.782C47.2696 110.159 46.9942 110.464 46.6283 110.696C46.2664 110.925 45.8218 111.039 45.2946 111.039C44.7596 111.039 44.3091 110.925 43.9433 110.696C43.5813 110.464 43.3059 110.159 43.1171 109.782C42.9282 109.4 42.8338 108.981 42.8338 108.525ZM44.2147 107.887V108.525C44.2147 108.863 44.2934 109.17 44.4508 109.445C44.6121 109.721 44.8934 109.858 45.2946 109.858C45.6881 109.858 45.9634 109.721 46.1208 109.445C46.2821 109.17 46.3628 108.863 46.3628 108.525V107.887C46.3628 107.549 46.286 107.242 46.1326 106.967C45.9792 106.691 45.6999 106.554 45.2946 106.554C44.9012 106.554 44.6219 106.691 44.4567 106.967C44.2954 107.242 44.2147 107.549 44.2147 107.887ZM43.3944 117.707L51.7034 105.621H53.1138L44.8048 117.707H43.3944Z" fill="#595959"/>
<line x1="71.3501" y1="110.876" x2="726.117" y2="110.876" stroke="#F4F4F4" stroke-width="1.16326"/>
<path d="M26.3879 151.109C25.5775 151.109 24.8536 150.969 24.2163 150.69C23.5829 150.41 23.0813 150.023 22.7114 149.527C22.3456 149.027 22.1489 148.449 22.1213 147.792H23.9743C23.9979 148.15 24.1179 148.461 24.3343 148.724C24.5546 148.984 24.8418 149.185 25.1959 149.326C25.5499 149.468 25.9434 149.539 26.3761 149.539C26.8522 149.539 27.2731 149.456 27.639 149.291C28.0088 149.126 28.298 148.896 28.5065 148.601C28.715 148.302 28.8192 147.957 28.8192 147.568C28.8192 147.163 28.715 146.807 28.5065 146.5C28.3019 146.189 28.0009 145.945 27.6036 145.768C27.2102 145.591 26.7341 145.502 26.1755 145.502H25.1546V144.015H26.1755C26.624 144.015 27.0174 143.935 27.3557 143.773C27.698 143.612 27.9655 143.388 28.1583 143.101C28.3511 142.809 28.4475 142.469 28.4475 142.08C28.4475 141.706 28.3629 141.381 28.1937 141.106C28.0285 140.827 27.7924 140.608 27.4856 140.451C27.1826 140.294 26.8246 140.215 26.4115 140.215C26.0181 140.215 25.6503 140.288 25.308 140.433C24.9697 140.575 24.6943 140.779 24.4818 141.047C24.2694 141.311 24.1553 141.627 24.1395 141.997H22.3751C22.3947 141.344 22.5875 140.77 22.9534 140.274C23.3232 139.778 23.811 139.391 24.4169 139.111C25.0228 138.832 25.6955 138.692 26.4351 138.692C27.2102 138.692 27.879 138.844 28.4416 139.147C29.0081 139.446 29.4448 139.845 29.7516 140.345C30.0624 140.844 30.2159 141.391 30.2119 141.985C30.2159 142.662 30.027 143.236 29.6454 143.708C29.2677 144.181 28.7642 144.497 28.1347 144.659V144.753C28.9373 144.875 29.5589 145.194 29.9995 145.709C30.444 146.224 30.6644 146.864 30.6604 147.627C30.6644 148.292 30.4795 148.888 30.1057 149.415C29.7359 149.942 29.2304 150.357 28.5891 150.66C27.9478 150.959 27.2141 151.109 26.3879 151.109ZM37.0987 151.144C36.1663 151.14 35.3696 150.894 34.7087 150.406C34.0477 149.919 33.5422 149.208 33.1921 148.276C32.8419 147.344 32.6669 146.22 32.6669 144.906C32.6669 143.596 32.8419 142.477 33.1921 141.549C33.5461 140.62 34.0536 139.912 34.7146 139.424C35.3795 138.936 36.1742 138.692 37.0987 138.692C38.0232 138.692 38.816 138.938 39.4769 139.43C40.1378 139.918 40.6434 140.626 40.9935 141.554C41.3476 142.479 41.5246 143.596 41.5246 144.906C41.5246 146.224 41.3496 147.349 40.9994 148.282C40.6493 149.21 40.1437 149.92 39.4828 150.412C38.8219 150.9 38.0272 151.144 37.0987 151.144ZM37.0987 149.568C37.917 149.568 38.5563 149.169 39.0166 148.37C39.4808 147.572 39.7129 146.417 39.7129 144.906C39.7129 143.903 39.6067 143.055 39.3943 142.363C39.1858 141.667 38.8848 141.139 38.4914 140.781C38.1019 140.419 37.6377 140.238 37.0987 140.238C36.2843 140.238 35.645 140.64 35.1808 141.442C34.7166 142.245 34.4825 143.4 34.4785 144.906C34.4785 145.914 34.5828 146.765 34.7913 147.462C35.0037 148.154 35.3047 148.679 35.6942 149.037C36.0837 149.391 36.5518 149.568 37.0987 149.568ZM49.9265 148.677V148.04C49.9265 147.584 50.021 147.167 50.2098 146.789C50.4026 146.407 50.6819 146.102 51.0478 145.874C51.4176 145.642 51.8641 145.526 52.3874 145.526C52.9224 145.526 53.3709 145.64 53.7329 145.868C54.0948 146.096 54.3682 146.401 54.5531 146.783C54.742 147.165 54.8364 147.584 54.8364 148.04V148.677C54.8364 149.134 54.742 149.553 54.5531 149.934C54.3643 150.312 54.0869 150.617 53.7211 150.849C53.3591 151.077 52.9145 151.191 52.3874 151.191C51.8563 151.191 51.4078 151.077 51.0419 150.849C50.676 150.617 50.3986 150.312 50.2098 149.934C50.021 149.553 49.9265 149.134 49.9265 148.677ZM51.3015 148.04V148.677C51.3015 149.016 51.3822 149.322 51.5435 149.598C51.7048 149.873 51.9861 150.011 52.3874 150.011C52.7847 150.011 53.0621 149.873 53.2194 149.598C53.3768 149.322 53.4555 149.016 53.4555 148.677V148.04C53.4555 147.702 53.3788 147.395 53.2253 147.119C53.0758 146.844 52.7965 146.706 52.3874 146.706C51.994 146.706 51.7146 146.844 51.5494 147.119C51.3842 147.395 51.3015 147.702 51.3015 148.04ZM43.8483 141.761V141.124C43.8483 140.667 43.9427 140.248 44.1315 139.867C44.3243 139.485 44.6036 139.18 44.9695 138.952C45.3393 138.724 45.7858 138.61 46.3091 138.61C46.8441 138.61 47.2926 138.724 47.6546 138.952C48.0165 139.18 48.2899 139.485 48.4748 139.867C48.6597 140.248 48.7522 140.667 48.7522 141.124V141.761C48.7522 142.217 48.6578 142.636 48.4689 143.018C48.284 143.396 48.0086 143.701 47.6428 143.933C47.2808 144.161 46.8363 144.275 46.3091 144.275C45.774 144.275 45.3236 144.161 44.9577 143.933C44.5957 143.701 44.3204 143.396 44.1315 143.018C43.9427 142.636 43.8483 142.217 43.8483 141.761ZM45.2291 141.124V141.761C45.2291 142.099 45.3078 142.406 45.4652 142.682C45.6265 142.957 45.9078 143.095 46.3091 143.095C46.7025 143.095 46.9779 142.957 47.1353 142.682C47.2966 142.406 47.3772 142.099 47.3772 141.761V141.124C47.3772 140.785 47.3005 140.478 47.1471 140.203C46.9936 139.928 46.7143 139.79 46.3091 139.79C45.9157 139.79 45.6363 139.928 45.4711 140.203C45.3098 140.478 45.2291 140.785 45.2291 141.124ZM44.4089 150.943L52.7178 138.858H54.1282L45.8193 150.943H44.4089Z" fill="#595959"/>
<line x1="71.3501" y1="143.876" x2="726.117" y2="143.876" stroke="#F4F4F4" stroke-width="1.16326"/>
<path d="M20.1518 184.179V182.857L24.2414 178.62C24.678 178.16 25.038 177.757 25.3213 177.41C25.6085 177.06 25.8229 176.728 25.9645 176.413C26.1062 176.098 26.177 175.764 26.177 175.41C26.177 175.009 26.0825 174.662 25.8937 174.371C25.7049 174.076 25.4472 173.85 25.1206 173.693C24.7941 173.531 24.4263 173.451 24.0171 173.451C23.5843 173.451 23.2067 173.539 22.8841 173.716C22.5615 173.893 22.3136 174.143 22.1405 174.466C21.9674 174.788 21.8809 175.166 21.8809 175.599H20.14C20.14 174.863 20.3092 174.22 20.6475 173.669C20.9858 173.118 21.4501 172.691 22.0402 172.388C22.6303 172.082 23.3011 171.928 24.0525 171.928C24.8118 171.928 25.4806 172.08 26.0589 172.383C26.6412 172.682 27.0956 173.091 27.4221 173.61C27.7487 174.125 27.9119 174.708 27.9119 175.357C27.9119 175.805 27.8273 176.244 27.6582 176.673C27.4929 177.102 27.2038 177.58 26.7907 178.107C26.3776 178.63 25.8032 179.265 25.0675 180.013L22.6657 182.527V182.615H28.1067V184.179H20.1518ZM34.5508 184.38C33.6184 184.376 32.8218 184.13 32.1608 183.642C31.4999 183.154 30.9944 182.444 30.6442 181.512C30.2941 180.579 30.119 179.456 30.119 178.142C30.119 176.832 30.2941 175.713 30.6442 174.784C30.9983 173.856 31.5058 173.148 32.1667 172.66C32.8316 172.172 33.6263 171.928 34.5508 171.928C35.4754 171.928 36.2681 172.174 36.929 172.666C37.59 173.154 38.0955 173.862 38.4457 174.79C38.7997 175.715 38.9768 176.832 38.9768 178.142C38.9768 179.46 38.8017 180.585 38.4516 181.518C38.1014 182.446 37.5959 183.156 36.9349 183.648C36.274 184.136 35.4793 184.38 34.5508 184.38ZM34.5508 182.804C35.3692 182.804 36.0085 182.405 36.4688 181.606C36.933 180.808 37.1651 179.653 37.1651 178.142C37.1651 177.139 37.0589 176.291 36.8464 175.599C36.6379 174.902 36.337 174.375 35.9435 174.017C35.5541 173.655 35.0898 173.474 34.5508 173.474C33.7365 173.474 33.0972 173.876 32.6329 174.678C32.1687 175.481 31.9346 176.635 31.9307 178.142C31.9307 179.149 32.0349 180.001 32.2435 180.697C32.4559 181.39 32.7569 181.915 33.1463 182.273C33.5358 182.627 34.004 182.804 34.5508 182.804ZM47.3787 181.913V181.276C47.3787 180.819 47.4731 180.402 47.662 180.025C47.8547 179.643 48.1341 179.338 48.4999 179.11C48.8697 178.878 49.3163 178.762 49.8395 178.762C50.3746 178.762 50.8231 178.876 51.185 179.104C51.5469 179.332 51.8204 179.637 52.0053 180.019C52.1941 180.4 52.2885 180.819 52.2885 181.276V181.913C52.2885 182.369 52.1941 182.788 52.0053 183.17C51.8164 183.548 51.5391 183.853 51.1732 184.085C50.8113 184.313 50.3667 184.427 49.8395 184.427C49.3084 184.427 48.8599 184.313 48.494 184.085C48.1282 183.853 47.8508 183.548 47.662 183.17C47.4731 182.788 47.3787 182.369 47.3787 181.913ZM48.7537 181.276V181.913C48.7537 182.251 48.8343 182.558 48.9956 182.834C49.1569 183.109 49.4382 183.247 49.8395 183.247C50.2369 183.247 50.5142 183.109 50.6716 182.834C50.829 182.558 50.9076 182.251 50.9076 181.913V181.276C50.9076 180.937 50.8309 180.631 50.6775 180.355C50.528 180.08 50.2487 179.942 49.8395 179.942C49.4461 179.942 49.1668 180.08 49.0015 180.355C48.8363 180.631 48.7537 180.937 48.7537 181.276ZM41.3004 174.997V174.36C41.3004 173.903 41.3948 173.484 41.5837 173.103C41.7764 172.721 42.0558 172.416 42.4216 172.188C42.7915 171.96 43.238 171.846 43.7612 171.846C44.2963 171.846 44.7448 171.96 45.1067 172.188C45.4687 172.416 45.7421 172.721 45.927 173.103C46.1119 173.484 46.2043 173.903 46.2043 174.36V174.997C46.2043 175.453 46.1099 175.872 45.9211 176.254C45.7362 176.631 45.4608 176.936 45.0949 177.169C44.733 177.397 44.2884 177.511 43.7612 177.511C43.2262 177.511 42.7757 177.397 42.4098 177.169C42.0479 176.936 41.7725 176.631 41.5837 176.254C41.3948 175.872 41.3004 175.453 41.3004 174.997ZM42.6813 174.36V174.997C42.6813 175.335 42.76 175.642 42.9173 175.917C43.0786 176.193 43.3599 176.331 43.7612 176.331C44.1546 176.331 44.43 176.193 44.5874 175.917C44.7487 175.642 44.8294 175.335 44.8294 174.997V174.36C44.8294 174.021 44.7526 173.714 44.5992 173.439C44.4458 173.164 44.1664 173.026 43.7612 173.026C43.3678 173.026 43.0885 173.164 42.9232 173.439C42.7619 173.714 42.6813 174.021 42.6813 174.36ZM41.861 184.179L50.17 172.093H51.5804L43.2714 184.179H41.861Z" fill="#595959"/>
<line x1="71.3501" y1="176.876" x2="726.117" y2="176.876" stroke="#F4F4F4" stroke-width="1.16326"/>
<path d="M26.555 205.329V217.415H24.7256V207.158H24.6548L21.7632 209.047V207.3L24.7787 205.329H26.555ZM34.0319 217.615C33.0995 217.611 32.3028 217.365 31.6419 216.878C30.9809 216.39 30.4754 215.68 30.1252 214.747C29.7751 213.815 29.6 212.692 29.6 211.378C29.6 210.067 29.7751 208.948 30.1252 208.02C30.4793 207.091 30.9868 206.383 31.6478 205.895C32.3126 205.407 33.1073 205.164 34.0319 205.164C34.9564 205.164 35.7491 205.409 36.4101 205.901C37.071 206.389 37.5766 207.097 37.9267 208.026C38.2808 208.95 38.4578 210.067 38.4578 211.378C38.4578 212.696 38.2827 213.821 37.9326 214.753C37.5825 215.682 37.0769 216.392 36.416 216.883C35.755 217.371 34.9603 217.615 34.0319 217.615ZM34.0319 216.04C34.8502 216.04 35.4895 215.64 35.9498 214.842C36.414 214.043 36.6461 212.888 36.6461 211.378C36.6461 210.374 36.5399 209.527 36.3275 208.834C36.1189 208.138 35.818 207.611 35.4246 207.253C35.0351 206.891 34.5709 206.71 34.0319 206.71C33.2175 206.71 32.5782 207.111 32.114 207.914C31.6497 208.716 31.4157 209.871 31.4117 211.378C31.4117 212.385 31.516 213.236 31.7245 213.933C31.9369 214.625 32.2379 215.15 32.6274 215.508C33.0169 215.863 33.485 216.04 34.0319 216.04ZM46.8597 215.148V214.511C46.8597 214.055 46.9541 213.638 47.143 213.26C47.3358 212.878 47.6151 212.574 47.981 212.345C48.3508 212.113 48.7973 211.997 49.3205 211.997C49.8556 211.997 50.3041 212.111 50.666 212.339C51.028 212.568 51.3014 212.873 51.4863 213.254C51.6751 213.636 51.7696 214.055 51.7696 214.511V215.148C51.7696 215.605 51.6751 216.024 51.4863 216.405C51.2975 216.783 51.0201 217.088 50.6542 217.32C50.2923 217.548 49.8477 217.662 49.3205 217.662C48.7894 217.662 48.3409 217.548 47.9751 217.32C47.6092 217.088 47.3318 216.783 47.143 216.405C46.9541 216.024 46.8597 215.605 46.8597 215.148ZM48.2347 214.511V215.148C48.2347 215.487 48.3154 215.794 48.4767 216.069C48.638 216.344 48.9193 216.482 49.3205 216.482C49.7179 216.482 49.9953 216.344 50.1526 216.069C50.31 215.794 50.3887 215.487 50.3887 215.148V214.511C50.3887 214.173 50.312 213.866 50.1585 213.591C50.009 213.315 49.7297 213.177 49.3205 213.177C48.9271 213.177 48.6478 213.315 48.4826 213.591C48.3173 213.866 48.2347 214.173 48.2347 214.511ZM40.7814 208.232V207.595C40.7814 207.139 40.8758 206.72 41.0647 206.338C41.2575 205.956 41.5368 205.651 41.9027 205.423C42.2725 205.195 42.719 205.081 43.2423 205.081C43.7773 205.081 44.2258 205.195 44.5877 205.423C44.9497 205.651 45.2231 205.956 45.408 206.338C45.5929 206.72 45.6854 207.139 45.6854 207.595V208.232C45.6854 208.689 45.591 209.108 45.4021 209.489C45.2172 209.867 44.9418 210.172 44.5759 210.404C44.214 210.632 43.7694 210.746 43.2423 210.746C42.7072 210.746 42.2567 210.632 41.8909 210.404C41.5289 210.172 41.2535 209.867 41.0647 209.489C40.8758 209.108 40.7814 208.689 40.7814 208.232ZM42.1623 207.595V208.232C42.1623 208.571 42.241 208.877 42.3984 209.153C42.5597 209.428 42.841 209.566 43.2423 209.566C43.6357 209.566 43.9111 209.428 44.0684 209.153C44.2297 208.877 44.3104 208.571 44.3104 208.232V207.595C44.3104 207.257 44.2337 206.95 44.0802 206.674C43.9268 206.399 43.6475 206.261 43.2423 206.261C42.8488 206.261 42.5695 206.399 42.4043 206.674C42.243 206.95 42.1623 207.257 42.1623 207.595ZM41.342 217.415L49.651 205.329H51.0614L42.7524 217.415H41.342Z" fill="#595959"/>
<line x1="71.3501" y1="209.876" x2="726.117" y2="209.876" stroke="#F4F4F4" stroke-width="1.16326"/>
<path d="M28.3947 250.852C27.4623 250.848 26.6656 250.602 26.0047 250.114C25.3437 249.626 24.8382 248.916 24.488 247.984C24.1379 247.051 23.9628 245.928 23.9628 244.614C23.9628 243.304 24.1379 242.185 24.488 241.256C24.8421 240.328 25.3496 239.619 26.0106 239.132C26.6754 238.644 27.4701 238.4 28.3947 238.4C29.3192 238.4 30.1119 238.646 30.7729 239.138C31.4338 239.625 31.9393 240.334 32.2895 241.262C32.6436 242.187 32.8206 243.304 32.8206 244.614C32.8206 245.932 32.6455 247.057 32.2954 247.989C31.9453 248.918 31.4397 249.628 30.7788 250.12C30.1178 250.608 29.3231 250.852 28.3947 250.852ZM28.3947 249.276C29.213 249.276 29.8523 248.877 30.3126 248.078C30.7768 247.279 31.0089 246.125 31.0089 244.614C31.0089 243.611 30.9027 242.763 30.6903 242.07C30.4817 241.374 30.1808 240.847 29.7874 240.489C29.3979 240.127 28.9336 239.946 28.3947 239.946C27.5803 239.946 26.941 240.347 26.4768 241.15C26.0125 241.952 25.7784 243.107 25.7745 244.614C25.7745 245.621 25.8788 246.473 26.0873 247.169C26.2997 247.862 26.6007 248.387 26.9902 248.745C27.3796 249.099 27.8478 249.276 28.3947 249.276ZM41.2225 248.385V247.747C41.2225 247.291 41.3169 246.874 41.5058 246.496C41.6985 246.115 41.9779 245.81 42.3438 245.582C42.7136 245.35 43.1601 245.234 43.6833 245.234C44.2184 245.234 44.6669 245.348 45.0288 245.576C45.3908 245.804 45.6642 246.109 45.8491 246.49C46.0379 246.872 46.1324 247.291 46.1324 247.747V248.385C46.1324 248.841 46.0379 249.26 45.8491 249.642C45.6603 250.019 45.3829 250.324 45.017 250.556C44.6551 250.785 44.2105 250.899 43.6833 250.899C43.1522 250.899 42.7037 250.785 42.3379 250.556C41.972 250.324 41.6946 250.019 41.5058 249.642C41.3169 249.26 41.2225 248.841 41.2225 248.385ZM42.5975 247.747V248.385C42.5975 248.723 42.6782 249.03 42.8395 249.305C43.0008 249.581 43.2821 249.718 43.6833 249.718C44.0807 249.718 44.358 249.581 44.5154 249.305C44.6728 249.03 44.7515 248.723 44.7515 248.385V247.747C44.7515 247.409 44.6747 247.102 44.5213 246.827C44.3718 246.551 44.0925 246.414 43.6833 246.414C43.2899 246.414 43.0106 246.551 42.8454 246.827C42.6801 247.102 42.5975 247.409 42.5975 247.747ZM35.1442 241.469V240.831C35.1442 240.375 35.2386 239.956 35.4275 239.574C35.6203 239.193 35.8996 238.888 36.2655 238.66C36.6353 238.431 37.0818 238.317 37.605 238.317C38.1401 238.317 38.5886 238.431 38.9505 238.66C39.3125 238.888 39.5859 239.193 39.7708 239.574C39.9557 239.956 40.0482 240.375 40.0482 240.831V241.469C40.0482 241.925 39.9537 242.344 39.7649 242.725C39.58 243.103 39.3046 243.408 38.9387 243.64C38.5768 243.868 38.1322 243.982 37.605 243.982C37.07 243.982 36.6195 243.868 36.2537 243.64C35.8917 243.408 35.6163 243.103 35.4275 242.725C35.2386 242.344 35.1442 241.925 35.1442 241.469ZM36.5251 240.831V241.469C36.5251 241.807 36.6038 242.114 36.7612 242.389C36.9225 242.665 37.2038 242.802 37.605 242.802C37.9985 242.802 38.2739 242.665 38.4312 242.389C38.5925 242.114 38.6732 241.807 38.6732 241.469V240.831C38.6732 240.493 38.5965 240.186 38.443 239.911C38.2896 239.635 38.0103 239.498 37.605 239.498C37.2116 239.498 36.9323 239.635 36.7671 239.911C36.6058 240.186 36.5251 240.493 36.5251 240.831ZM35.7048 250.651L44.0138 238.565H45.4242L37.1152 250.651H35.7048Z" fill="#595959"/>
<line x1="71.3501" y1="243.876" x2="726.117" y2="243.876" stroke="#F4F4F4" stroke-width="1.16326"/>
<rect x="71.0586" y="35.4697" width="33.0833" height="209" rx="5" fill="#003366"/>
<rect x="127.142" y="134.47" width="33.0833" height="110" rx="5" fill="#587C9F"/>
<rect x="183.225" y="11.4697" width="33.0833" height="233" rx="5" fill="#587C9F"/>
<rect x="239.309" y="61.4697" width="33.0833" height="183" rx="5" fill="#003366"/>
<rect x="295.392" y="111.47" width="33.0833" height="133" rx="5" fill="#587C9F"/>
<rect x="351.475" y="166.47" width="33.0833" height="78" rx="5" fill="#587C9F"/>
<rect x="407.559" y="20.4697" width="33.0833" height="224" rx="5" fill="#003366"/>
<rect x="463.642" y="11.4697" width="33.0833" height="233" rx="5" fill="#587C9F"/>
<rect x="519.725" y="61.4697" width="33.0833" height="183" rx="5" fill="#003366"/>
<rect x="575.809" y="111.47" width="33.0833" height="133" rx="5" fill="#587C9F"/>
<rect x="631.892" y="166.47" width="33.0833" height="78" rx="5" fill="#003366"/>
<rect x="687.975" y="20.4697" width="33.0833" height="224" rx="5" fill="#587C9F"/>
</svg>
