<svg width="20" height="20" viewBox="0 0 20 20" fill="none" xmlns="http://www.w3.org/2000/svg">
<path d="M9.99935 18.3346C5.39685 18.3346 1.66602 14.6038 1.66602 10.0013C1.66602 5.3988 5.39685 1.66797 9.99935 1.66797C14.6018 1.66797 18.3327 5.3988 18.3327 10.0013C18.3327 14.6038 14.6018 18.3346 9.99935 18.3346ZM9.99935 16.668C11.7675 16.668 13.4632 15.9656 14.7134 14.7153C15.9636 13.4651 16.666 11.7694 16.666 10.0013C16.666 8.23319 15.9636 6.5375 14.7134 5.28726C13.4632 4.03701 11.7675 3.33464 9.99935 3.33464C8.23124 3.33464 6.53555 4.03701 5.2853 5.28726C4.03506 6.5375 3.33268 8.23319 3.33268 10.0013C3.33268 11.7694 4.03506 13.4651 5.2853 14.7153C6.53555 15.9656 8.23124 16.668 9.99935 16.668ZM10.8327 10.0013H14.166V11.668H9.16602V5.83464H10.8327V10.0013Z" fill="black"/>
</svg>
