<svg width="24" height="24" viewBox="0 0 24 24" fill="none" xmlns="http://www.w3.org/2000/svg">
<g clip-path="url(#clip0_10436_49462)">
<path d="M19.5 20C19.5 20.1326 19.4473 20.2598 19.3536 20.3536C19.2598 20.4473 19.1326 20.5 19 20.5H13.732C13.5565 20.804 13.304 21.0565 13 21.232C12.6959 21.4076 12.3511 21.5 12 21.5H11.989C11.9738 21.6692 11.9427 21.8366 11.896 22H19C19.5304 22 20.0391 21.7893 20.4142 21.4142C20.7893 21.0391 21 20.5304 21 20V9.828C20.9999 9.29761 20.7891 8.78899 20.414 8.414L14.585 2.586L14.536 2.546L14.5 2.516C14.4313 2.4509 14.3582 2.39074 14.281 2.336C14.255 2.32012 14.2283 2.30544 14.201 2.292L14.153 2.268L14.103 2.239C14.049 2.208 13.994 2.176 13.937 2.152C13.7377 2.07285 13.5271 2.02626 13.313 2.014C13.293 2.01267 13.2733 2.01033 13.254 2.007L13.172 2H7C6.46957 2 5.96086 2.21071 5.58579 2.58579C5.21071 2.96086 5 3.46957 5 4V11.104C5.23867 11.0347 5.48867 11 5.75 11H6.5V4C6.5 3.86739 6.55268 3.74021 6.64645 3.64645C6.74021 3.55268 6.86739 3.5 7 3.5H13V8C13 8.53043 13.2107 9.03914 13.5858 9.41421C13.9609 9.78929 14.4696 10 15 10H19.5V20ZM14.5 4.621L18.378 8.5H15C14.8674 8.5 14.7402 8.44732 14.6464 8.35355C14.5527 8.25979 14.5 8.13261 14.5 8V4.621ZM4 13.75C4 12.784 4.784 12 5.75 12H9.25C10.216 12 11 12.784 11 13.75V14.5H11.5C11.8978 14.5 12.2794 14.658 12.5607 14.9393C12.842 15.2206 13 15.6022 13 16V19.5C13 19.7652 12.8946 20.0196 12.7071 20.2071C12.5196 20.3946 12.2652 20.5 12 20.5H11V21.25C11 21.7141 10.8156 22.1592 10.4874 22.4874C10.1592 22.8156 9.71413 23 9.25 23H5.75C5.28587 23 4.84075 22.8156 4.51256 22.4874C4.18437 22.1592 4 21.7141 4 21.25V20.5H3C2.73478 20.5 2.48043 20.3946 2.29289 20.2071C2.10536 20.0196 2 19.7652 2 19.5V16C2 15.6022 2.15804 15.2206 2.43934 14.9393C2.72064 14.658 3.10218 14.5 3.5 14.5H4V13.75ZM9.5 13.75C9.5 13.6837 9.47366 13.6201 9.42678 13.5732C9.37989 13.5263 9.3163 13.5 9.25 13.5H5.75C5.6837 13.5 5.62011 13.5263 5.57322 13.5732C5.52634 13.6201 5.5 13.6837 5.5 13.75V14.5H9.5V13.75ZM5.5 19.25V21.25C5.5 21.388 5.612 21.5 5.75 21.5H9.25C9.3163 21.5 9.37989 21.4737 9.42678 21.4268C9.47366 21.3799 9.5 21.3163 9.5 21.25V19.25C9.5 19.1837 9.47366 19.1201 9.42678 19.0732C9.37989 19.0263 9.3163 19 9.25 19H5.75C5.6837 19 5.62011 19.0263 5.57322 19.0732C5.52634 19.1201 5.5 19.1837 5.5 19.25Z" fill="#003366"/>
<path d="M9.5 0.700195C9.72177 0.700195 9.93715 0.784594 10.0977 0.938477C10.2584 1.09272 10.3515 1.3046 10.3516 1.52832V6.54688L10.8506 6.06836L10.9131 6.01367C10.9778 5.96269 11.0502 5.92114 11.127 5.89062C11.2291 5.85006 11.3383 5.82916 11.4482 5.8291C11.5583 5.82906 11.6682 5.85002 11.7705 5.89062C11.8727 5.93122 11.9664 5.99122 12.0459 6.06738C12.1255 6.14368 12.1895 6.23552 12.2334 6.33691C12.2772 6.43825 12.2998 6.54772 12.2998 6.6582C12.2998 6.76866 12.2771 6.87816 12.2334 6.97949C12.1896 7.08075 12.1254 7.1718 12.0459 7.24805L10.1943 9.02344C10.0081 9.20185 9.75807 9.29973 9.5 9.2998C9.24196 9.2998 8.99196 9.20176 8.80566 9.02344H8.80469L6.9541 7.24805C6.87463 7.1718 6.81037 7.08075 6.7666 6.97949C6.72287 6.87816 6.70021 6.76866 6.7002 6.6582C6.70024 6.54772 6.72283 6.43825 6.7666 6.33691C6.81045 6.23552 6.87446 6.14368 6.9541 6.06738C7.03362 5.99123 7.12727 5.93122 7.22949 5.89062C7.33185 5.85002 7.44168 5.82906 7.55176 5.8291C7.66166 5.82916 7.77087 5.85006 7.87305 5.89062C7.97539 5.93131 8.06985 5.99203 8.14941 6.06836L8.64844 6.54688V1.52832C8.64847 1.3046 8.74161 1.09272 8.90234 0.938477C9.06285 0.784594 9.27823 0.700195 9.5 0.700195Z" fill="#003366" stroke="white" stroke-width="0.6"/>
<path d="M19.7422 11.7803L23.2041 14.9941L23.4404 15.2139L23.2041 15.4346L19.7422 18.6484L19.2383 19.1162V16.7998H16.9766C16.6577 16.7999 16.4077 16.982 16.2012 17.3496C15.9911 17.7237 15.8567 18.2436 15.7764 18.793C15.6969 19.3369 15.6741 19.8848 15.6709 20.2988C15.6693 20.5051 15.672 20.6772 15.6758 20.7969C15.6777 20.8567 15.6801 20.9041 15.6816 20.9355C15.6824 20.9511 15.6832 20.9629 15.6836 20.9707V20.9814L15.752 22.083L15.1357 21.168L15.3848 21L15.1357 21.167H15.1348L15.1309 21.1592C15.1278 21.1545 15.1227 21.1481 15.1172 21.1396C15.1061 21.1226 15.0901 21.0981 15.0703 21.0664C15.0305 21.0026 14.9743 20.9098 14.9072 20.792C14.7732 20.5565 14.5951 20.2189 14.417 19.8096C14.0625 18.9947 13.7002 17.8746 13.7002 16.6924C13.7003 15.9137 13.9057 15.3158 14.2324 14.8643C14.5572 14.4153 14.9875 14.1305 15.4043 13.9502C15.8198 13.7705 16.2309 13.6906 16.5352 13.6553C16.688 13.6375 16.8163 13.6312 16.9072 13.6289C16.9525 13.6277 16.989 13.6277 17.0146 13.6279C17.0275 13.6281 17.0386 13.6277 17.0459 13.6279C17.0494 13.628 17.0525 13.6288 17.0547 13.6289H19.2383V11.3125L19.7422 11.7803Z" fill="#003366" stroke="white" stroke-width="0.6"/>
</g>
<defs>
<clipPath id="clip0_10436_49462">
<rect width="24" height="24" fill="white"/>
</clipPath>
</defs>
</svg>
