<svg width="24" height="24" viewBox="0 0 24 24" fill="none" xmlns="http://www.w3.org/2000/svg">
<path d="M7.17 3.25H12.83C13.365 3.25 13.81 3.25 14.175 3.28C14.555 3.31 14.911 3.378 15.248 3.55C15.7656 3.81367 16.1863 4.23445 16.45 4.752C16.622 5.089 16.69 5.445 16.72 5.825C16.75 6.19 16.75 6.635 16.75 7.17V10.25C16.75 10.4489 16.671 10.6397 16.5303 10.7803C16.3897 10.921 16.1989 11 16 11C15.8011 11 15.6103 10.921 15.4697 10.7803C15.329 10.6397 15.25 10.4489 15.25 10.25V7.2C15.25 6.628 15.25 6.243 15.225 5.947C15.202 5.66 15.16 5.523 15.114 5.433C14.9944 5.19757 14.8032 5.00608 14.568 4.886C14.477 4.84 14.34 4.798 14.053 4.775C13.757 4.751 13.373 4.75 12.8 4.75H7.2C6.628 4.75 6.243 4.75 5.947 4.775C5.66 4.798 5.523 4.84 5.433 4.886C5.19741 5.00591 5.00591 5.19741 4.886 5.433C4.84 5.523 4.798 5.66 4.775 5.947C4.751 6.243 4.75 6.627 4.75 7.2V16.8C4.75 17.372 4.75 17.757 4.775 18.052C4.798 18.34 4.84 18.477 4.886 18.567C5 18.79 5.176 18.973 5.394 19.093C5.41 19.097 5.44533 19.1033 5.5 19.112C5.61667 19.1293 5.77533 19.1453 5.976 19.16C6.374 19.19 6.886 19.21 7.43 19.223C8.515 19.25 9.69 19.25 10.25 19.25C10.4489 19.25 10.6397 19.329 10.7803 19.4697C10.921 19.6103 11 19.8011 11 20C11 20.1989 10.921 20.3897 10.7803 20.5303C10.6397 20.671 10.4489 20.75 10.25 20.75H10.248C9.688 20.75 8.498 20.75 7.393 20.723C6.88355 20.7125 6.37441 20.6901 5.866 20.656C5.67033 20.6432 5.4752 20.6232 5.281 20.596C5.0979 20.5748 4.91915 20.5255 4.751 20.45C4.23412 20.1867 3.81375 19.7667 3.55 19.25C3.378 18.912 3.31 18.556 3.28 18.176C3.25 17.811 3.25 17.366 3.25 16.831V7.17C3.25 6.635 3.25 6.19 3.28 5.825C3.31 5.445 3.378 5.089 3.55 4.752C3.81367 4.23445 4.23445 3.81367 4.752 3.55C5.089 3.378 5.445 3.31 5.825 3.28C6.19 3.25 6.635 3.25 7.17 3.25Z" fill="black"/>
<path d="M14.371 12.25H18.629C19.024 12.25 19.365 12.25 19.646 12.273C19.943 12.297 20.238 12.351 20.521 12.495C20.945 12.711 21.289 13.055 21.505 13.479C21.649 13.762 21.703 14.057 21.727 14.354C21.75 14.634 21.75 14.976 21.75 15.371V17.629C21.75 18.024 21.75 18.365 21.727 18.646C21.7115 18.9495 21.6361 19.2469 21.505 19.521C21.2895 19.9446 20.9454 20.289 20.522 20.505C20.238 20.649 19.942 20.703 19.646 20.727C19.366 20.75 19.024 20.75 18.629 20.75H14.37C13.975 20.75 13.634 20.75 13.353 20.727C13.0495 20.7115 12.7521 20.6361 12.478 20.505C12.0544 20.2895 11.71 19.9454 11.494 19.522C11.3628 19.2476 11.2873 18.9498 11.272 18.646C11.249 18.366 11.249 18.024 11.249 17.629V15.37C11.249 14.975 11.249 14.634 11.272 14.353C11.2875 14.0495 11.3629 13.7521 11.494 13.478C11.7098 13.0543 12.0543 12.7098 12.478 12.494C12.7521 12.3629 13.0495 12.2875 13.353 12.272C13.633 12.249 13.975 12.249 14.37 12.249M13.475 13.767C13.271 13.784 13.195 13.812 13.158 13.831C13.0173 13.9028 12.9028 14.0173 12.831 14.158C12.811 14.196 12.784 14.271 12.767 14.475L12.765 14.499H20.233L20.231 14.475C20.214 14.271 20.186 14.195 20.167 14.158C20.0949 14.0171 19.9801 13.9027 19.839 13.831C19.802 13.811 19.727 13.784 19.523 13.767C19.2153 13.7501 18.9071 13.744 18.599 13.749H14.399C13.967 13.749 13.687 13.749 13.475 13.767ZM20.25 16.5H12.75V17.6C12.75 18.032 12.75 18.312 12.768 18.524C12.785 18.728 12.813 18.804 12.832 18.84C12.9037 18.9811 13.0181 19.0959 13.159 19.168C13.197 19.188 13.272 19.215 13.476 19.232C13.688 19.249 13.968 19.25 14.4 19.25H18.6C19.032 19.25 19.312 19.25 19.524 19.232C19.728 19.215 19.804 19.187 19.84 19.168C19.9812 19.0961 20.0961 18.9812 20.168 18.84C20.188 18.803 20.215 18.728 20.232 18.524C20.249 18.312 20.25 18.032 20.25 17.6V16.5ZM6.5 6.25C6.30109 6.25 6.11032 6.32902 5.96967 6.46967C5.82902 6.61032 5.75 6.80109 5.75 7C5.75 7.19891 5.82902 7.38968 5.96967 7.53033C6.11032 7.67098 6.30109 7.75 6.5 7.75H10.5C10.6989 7.75 10.8897 7.67098 11.0303 7.53033C11.171 7.38968 11.25 7.19891 11.25 7C11.25 6.80109 11.171 6.61032 11.0303 6.46967C10.8897 6.32902 10.6989 6.25 10.5 6.25H6.5ZM5.75 10C5.75 9.80109 5.82902 9.61032 5.96967 9.46967C6.11032 9.32902 6.30109 9.25 6.5 9.25H13.5C13.6989 9.25 13.8897 9.32902 14.0303 9.46967C14.171 9.61032 14.25 9.80109 14.25 10C14.25 10.1989 14.171 10.3897 14.0303 10.5303C13.8897 10.671 13.6989 10.75 13.5 10.75H6.5C6.30109 10.75 6.11032 10.671 5.96967 10.5303C5.82902 10.3897 5.75 10.1989 5.75 10ZM6.5 12.25C6.30109 12.25 6.11032 12.329 5.96967 12.4697C5.82902 12.6103 5.75 12.8011 5.75 13C5.75 13.1989 5.82902 13.3897 5.96967 13.5303C6.11032 13.671 6.30109 13.75 6.5 13.75H10C10.1989 13.75 10.3897 13.671 10.5303 13.5303C10.671 13.3897 10.75 13.1989 10.75 13C10.75 12.8011 10.671 12.6103 10.5303 12.4697C10.3897 12.329 10.1989 12.25 10 12.25H6.5ZM5.75 17C5.75 16.8011 5.82902 16.6103 5.96967 16.4697C6.11032 16.329 6.30109 16.25 6.5 16.25H8.5C8.69891 16.25 8.88968 16.329 9.03033 16.4697C9.17098 16.6103 9.25 16.8011 9.25 17C9.25 17.1989 9.17098 17.3897 9.03033 17.5303C8.88968 17.671 8.69891 17.75 8.5 17.75H6.5C6.30109 17.75 6.11032 17.671 5.96967 17.5303C5.82902 17.3897 5.75 17.1989 5.75 17Z" fill="black"/>
</svg>
