<svg width="20" height="20" viewBox="0 0 20 20" fill="none" xmlns="http://www.w3.org/2000/svg">
<path d="M5.5 11.0625C4.57174 11.0625 3.6815 11.4543 3.02513 12.1517C2.36875 12.8491 2 13.795 2 14.7812C2 15.7675 2.36875 16.7134 3.02513 17.4108C3.6815 18.1082 4.57174 18.5 5.5 18.5H14.5C15.4283 18.5 16.3185 18.1082 16.9749 17.4108C17.6313 16.7134 18 15.7675 18 14.7812C18 13.795 17.6313 12.8491 16.9749 12.1517C16.3185 11.4543 15.4283 11.0625 14.5 11.0625H5.5ZM14.5 17.4375C13.837 17.4375 13.2011 17.1576 12.7322 16.6595C12.2634 16.1614 12 15.4857 12 14.7812C12 14.0768 12.2634 13.4011 12.7322 12.903C13.2011 12.4049 13.837 12.125 14.5 12.125C15.163 12.125 15.7989 12.4049 16.2678 12.903C16.7366 13.4011 17 14.0768 17 14.7812C17 15.4857 16.7366 16.1614 16.2678 16.6595C15.7989 17.1576 15.163 17.4375 14.5 17.4375ZM5.5 2.5625C4.83696 2.5625 4.20107 2.84235 3.73223 3.3405C3.26339 3.83864 3 4.51427 3 5.21875C3 5.92323 3.26339 6.59886 3.73223 7.097C4.20107 7.59515 4.83696 7.875 5.5 7.875C6.16304 7.875 6.79893 7.59515 7.26777 7.097C7.73661 6.59886 8 5.92323 8 5.21875C8 4.51427 7.73661 3.83864 7.26777 3.3405C6.79893 2.84235 6.16304 2.5625 5.5 2.5625ZM7.95 2.5625C8.28251 2.90879 8.54664 3.32209 8.72694 3.7782C8.90723 4.2343 9.00007 4.72405 9 5.21875C9.00007 5.71345 8.90723 6.2032 8.72694 6.6593C8.54664 7.11541 8.28251 7.52871 7.95 7.875H14.5C15.163 7.875 15.7989 7.59515 16.2678 7.097C16.7366 6.59886 17 5.92323 17 5.21875C17 4.51427 16.7366 3.83864 16.2678 3.3405C15.7989 2.84235 15.163 2.5625 14.5 2.5625H7.95ZM5.5 1.5H14.5C15.4283 1.5 16.3185 1.8918 16.9749 2.5892C17.6313 3.2866 18 4.23248 18 5.21875C18 6.20502 17.6313 7.1509 16.9749 7.8483C16.3185 8.5457 15.4283 8.9375 14.5 8.9375H5.5C4.57174 8.9375 3.6815 8.5457 3.02513 7.8483C2.36875 7.1509 2 6.20502 2 5.21875C2 4.23248 2.36875 3.2866 3.02513 2.5892C3.6815 1.8918 4.57174 1.5 5.5 1.5Z" fill="black"/>
</svg>
