<svg width="24" height="24" viewBox="0 0 24 24" fill="none" xmlns="http://www.w3.org/2000/svg">
<g clip-path="url(#clip0_10433_11525)">
<path d="M19.2429 1.04883C19.6646 1.04883 20.0697 1.21647 20.3679 1.51465C20.666 1.81282 20.8328 2.218 20.8328 2.63965V7.55664L22.6521 9.08008C22.7183 9.13211 22.7696 9.2016 22.7996 9.28027C22.8284 9.35594 22.8365 9.43769 22.824 9.51758C22.8243 9.52872 22.8248 9.53966 22.824 9.55078H22.825V22.4707C22.8249 22.5945 22.7771 22.7135 22.6912 22.8027C22.6052 22.892 22.4879 22.9446 22.364 22.9492H1.64038C1.51407 22.9483 1.39346 22.8972 1.30444 22.8076C1.21547 22.718 1.16487 22.597 1.16479 22.4707V9.55078H1.16675C1.1659 9.53964 1.16646 9.52874 1.16675 9.51758C1.1509 9.41693 1.16828 9.31401 1.21753 9.22461L1.22632 9.20801L1.23901 9.19531L1.32983 9.09668L1.34351 9.08301L3.16675 7.56055V2.63965C3.16675 2.21795 3.33439 1.81283 3.63257 1.51465C3.93069 1.21662 4.33505 1.04887 4.75659 1.04883H19.2429ZM13.8621 17.165L13.863 17.166C13.3425 17.6072 12.6821 17.8496 11.9998 17.8496C11.3178 17.8496 10.6578 17.6077 10.1375 17.167L9.42944 16.5791L2.95776 21.9912H21.0427L14.5671 16.5771L13.8621 17.165ZM2.13257 21.4512L8.70776 15.9619L3.35522 11.5029V11.502C3.34347 11.4936 3.33213 11.4849 3.32202 11.4746L2.13257 10.4727V21.4512ZM20.6736 11.4785C20.6647 11.4871 20.6553 11.4948 20.6453 11.502L15.3103 15.9609L21.8865 21.4512V10.4707L20.6736 11.4785ZM4.63257 2.0166C4.51068 2.04129 4.39758 2.10218 4.30835 2.19141C4.18952 2.31039 4.12235 2.47147 4.12183 2.63965V10.9014L10.7498 16.4443H10.7507C11.0998 16.74 11.5423 16.9023 11.9998 16.9023C12.4573 16.9023 12.9006 16.7401 13.2498 16.4443L19.8777 10.9014V2.63965L19.865 2.51562C19.8404 2.39363 19.7804 2.28072 19.6912 2.19141C19.6018 2.10209 19.489 2.04124 19.3669 2.0166L19.2429 2.00488H4.75757L4.63257 2.0166ZM2.39233 9.4502L3.16675 10.0986V8.79883L2.39233 9.4502ZM20.8328 10.0928L21.6052 9.44922L20.8328 8.80176V10.0928Z" fill="#003366" stroke="#003366" stroke-width="0.3"/>
<mask id="path-2-outside-1_10433_11525" maskUnits="userSpaceOnUse" x="4" y="2" width="16" height="7" fill="black">
<rect fill="white" x="4" y="2" width="16" height="7"/>
<path d="M6.90722 8L5 6.15027L5.4075 5.73074C6.30849 4.80736 7.34403 4.12149 8.51412 3.67315C9.68421 3.22481 10.8462 3.00042 12 3C13.1538 2.99958 14.3104 3.2265 15.4698 3.68078C16.6292 4.13505 17.6661 4.81837 18.5803 5.73074L19 6.15027L17.0934 8L14.8878 6.34923V4.14671C14.3992 3.9789 13.9121 3.85177 13.4266 3.76532C12.941 3.67887 12.4655 3.63565 12 3.63565C11.5345 3.63565 11.059 3.67887 10.5734 3.76532C10.0879 3.85177 9.60078 3.9789 9.11221 4.14671V6.34923L6.90722 8ZM8.47048 4.38571C7.98747 4.60988 7.52329 4.87198 7.07792 5.17201C6.63256 5.47203 6.24303 5.78625 5.90933 6.11467L6.97076 7.16603L8.47048 6.0314V4.38571ZM15.5295 4.3927V6.00661L17.0305 7.1654L18.1163 6.14582C17.724 5.78901 17.3176 5.46504 16.897 5.17391C16.4765 4.88279 16.0207 4.6226 15.5295 4.39334"/>
</mask>
<path d="M6.90722 8L5 6.15027L5.4075 5.73074C6.30849 4.80736 7.34403 4.12149 8.51412 3.67315C9.68421 3.22481 10.8462 3.00042 12 3C13.1538 2.99958 14.3104 3.2265 15.4698 3.68078C16.6292 4.13505 17.6661 4.81837 18.5803 5.73074L19 6.15027L17.0934 8L14.8878 6.34923V4.14671C14.3992 3.9789 13.9121 3.85177 13.4266 3.76532C12.941 3.67887 12.4655 3.63565 12 3.63565C11.5345 3.63565 11.059 3.67887 10.5734 3.76532C10.0879 3.85177 9.60078 3.9789 9.11221 4.14671V6.34923L6.90722 8ZM8.47048 4.38571C7.98747 4.60988 7.52329 4.87198 7.07792 5.17201C6.63256 5.47203 6.24303 5.78625 5.90933 6.11467L6.97076 7.16603L8.47048 6.0314V4.38571ZM15.5295 4.3927V6.00661L17.0305 7.1654L18.1163 6.14582C17.724 5.78901 17.3176 5.46504 16.897 5.17391C16.4765 4.88279 16.0207 4.6226 15.5295 4.39334" fill="#003366"/>
<path d="M6.90722 8L6.69836 8.21535L6.88211 8.39356L7.08702 8.24015L6.90722 8ZM5 6.15027L4.78481 5.94124L4.57562 6.1566L4.79114 6.36562L5 6.15027ZM5.4075 5.73074L5.19278 5.52123L5.1923 5.52172L5.4075 5.73074ZM18.5803 5.73074L18.7924 5.51857L18.7922 5.51839L18.5803 5.73074ZM19 6.15027L19.2089 6.36559L19.4275 6.15346L19.2121 5.93809L19 6.15027ZM17.0934 8L16.9137 8.24018L17.1186 8.39356L17.3023 8.21532L17.0934 8ZM14.8878 6.34923H14.5878V6.49941L14.708 6.58941L14.8878 6.34923ZM14.8878 4.14671H15.1878V3.93255L14.9852 3.86298L14.8878 4.14671ZM9.11221 4.14671L9.01476 3.86298L8.81221 3.93255V4.14671H9.11221ZM9.11221 6.34923L9.292 6.58938L9.41221 6.49939V6.34923H9.11221ZM8.47048 4.38571H8.77048V3.91574L8.34419 4.11359L8.47048 4.38571ZM5.90933 6.11467L5.6989 5.90085L5.48234 6.11398L5.69821 6.32781L5.90933 6.11467ZM6.97076 7.16603L6.75964 7.37917L6.94438 7.56217L7.15176 7.40528L6.97076 7.16603ZM8.47048 6.0314L8.65148 6.27065L8.77048 6.18062V6.0314H8.47048ZM15.5295 6.00661H15.2295V6.15401L15.3462 6.24408L15.5295 6.00661ZM17.0305 7.1654L16.8472 7.40286L17.0495 7.55907L17.2359 7.38409L17.0305 7.1654ZM18.1163 6.14582L18.3217 6.36452L18.5583 6.1423L18.3182 5.92388L18.1163 6.14582ZM6.90722 8L7.11609 7.78465L5.20886 5.93491L5 6.15027L4.79114 6.36562L6.69836 8.21535L6.90722 8ZM5 6.15027L5.21519 6.35929L5.62269 5.93976L5.4075 5.73074L5.1923 5.52172L4.78481 5.94124L5 6.15027ZM5.4075 5.73074L5.62222 5.94025C6.49386 5.04695 7.49306 4.38566 8.62146 3.95329L8.51412 3.67315L8.40678 3.39301C7.195 3.85733 6.12312 4.56777 5.19278 5.52123L5.4075 5.73074ZM8.51412 3.67315L8.62146 3.95329C9.76027 3.51693 10.886 3.30041 12.0001 3.3L12 3L11.9999 2.7C10.8064 2.70044 9.60814 2.93268 8.40678 3.39301L8.51412 3.67315ZM12 3L12.0001 3.3C13.1136 3.29959 14.2331 3.51841 15.3604 3.9601L15.4698 3.68078L15.5793 3.40145C14.3878 2.93459 13.1941 2.69956 11.9999 2.7L12 3ZM15.4698 3.68078L15.3604 3.9601C16.48 4.39877 17.4822 5.05875 18.3684 5.94309L18.5803 5.73074L18.7922 5.51839C17.8499 4.578 16.7785 3.87134 15.5793 3.40145L15.4698 3.68078ZM18.5803 5.73074L18.3682 5.94291L18.7879 6.36244L19 6.15027L19.2121 5.93809L18.7924 5.51857L18.5803 5.73074ZM19 6.15027L18.7911 5.93495L16.8845 7.78468L17.0934 8L17.3023 8.21532L19.2089 6.36559L19 6.15027ZM17.0934 8L17.2732 7.75982L15.0675 6.10905L14.8878 6.34923L14.708 6.58941L16.9137 8.24018L17.0934 8ZM14.8878 6.34923H15.1878V4.14671H14.8878H14.5878V6.34923H14.8878ZM14.8878 4.14671L14.9852 3.86298C14.4827 3.69038 13.9807 3.55925 13.4791 3.46996L13.4266 3.76532L13.374 4.06068C13.8436 4.14429 14.3157 4.26742 14.7903 4.43044L14.8878 4.14671ZM13.4266 3.76532L13.4791 3.46996C12.9772 3.38061 12.4841 3.33565 12 3.33565V3.63565V3.93565C12.4468 3.93565 12.9047 3.97714 13.374 4.06068L13.4266 3.76532ZM12 3.63565V3.33565C11.5159 3.33565 11.0228 3.38061 10.5208 3.46996L10.5734 3.76532L10.626 4.06068C11.0953 3.97714 11.5532 3.93565 12 3.93565V3.63565ZM10.5734 3.76532L10.5208 3.46996C10.0193 3.55925 9.51727 3.69038 9.01476 3.86298L9.11221 4.14671L9.20966 4.43044C9.68429 4.26742 10.1564 4.14429 10.626 4.06068L10.5734 3.76532ZM9.11221 4.14671H8.81221V6.34923H9.11221H9.41221V4.14671H9.11221ZM9.11221 6.34923L8.93242 6.10907L6.72743 7.75984L6.90722 8L7.08702 8.24015L9.292 6.58938L9.11221 6.34923ZM8.47048 4.38571L8.34419 4.11359C7.84669 4.34449 7.3687 4.6144 6.91031 4.9232L7.07792 5.17201L7.24554 5.42081C7.67787 5.12956 8.12825 4.87528 8.59678 4.65783L8.47048 4.38571ZM7.07792 5.17201L6.91031 4.9232C6.45181 5.23207 6.04752 5.55775 5.6989 5.90085L5.90933 6.11467L6.11977 6.32849C6.43855 6.01475 6.81331 5.71199 7.24554 5.42081L7.07792 5.17201ZM5.90933 6.11467L5.69821 6.32781L6.75964 7.37917L6.97076 7.16603L7.18187 6.95289L6.12045 5.90153L5.90933 6.11467ZM6.97076 7.16603L7.15176 7.40528L8.65148 6.27065L8.47048 6.0314L8.28948 5.79216L6.78975 6.92679L6.97076 7.16603ZM8.47048 6.0314H8.77048V4.38571H8.47048H8.17048V6.0314H8.47048ZM15.5295 4.3927H15.2295V6.00661H15.5295H15.8295V4.3927H15.5295ZM15.5295 6.00661L15.3462 6.24408L16.8472 7.40286L17.0305 7.1654L17.2139 6.92793L15.7128 5.76914L15.5295 6.00661ZM17.0305 7.1654L17.2359 7.38409L18.3217 6.36452L18.1163 6.14582L17.911 5.92712L16.8252 6.9467L17.0305 7.1654ZM18.1163 6.14582L18.3182 5.92388C17.9164 5.55848 17.4996 5.22619 17.0678 4.92725L16.897 5.17391L16.7263 5.42058C17.1355 5.70389 17.5316 6.01954 17.9145 6.36775L18.1163 6.14582ZM16.897 5.17391L17.0678 4.92725C16.6326 4.62596 16.1619 4.35747 15.6564 4.1215L15.5295 4.39334L15.4026 4.66518C15.8794 4.88772 16.3204 5.13962 16.7263 5.42058L16.897 5.17391Z" fill="#003366" mask="url(#path-2-outside-1_10433_11525)"/>
<path d="M11.6851 12.9726L11.5597 13.3915C9.94442 13.2463 9 12.127 9 11.0367V10.7404C9 10.5047 9.09219 10.2786 9.25628 10.1119C9.42038 9.94523 9.64294 9.85159 9.875 9.85159H12.5233C12.1954 10.0852 11.9279 10.3957 11.7432 10.7567C11.5586 11.1178 11.4624 11.5187 11.4628 11.9255C11.4628 12.2988 11.5422 12.6532 11.6851 12.9726ZM11.9167 6C12.3421 6 12.7501 6.17168 13.051 6.47727C13.3518 6.78287 13.5208 7.19734 13.5208 7.62952C13.5208 8.06169 13.3518 8.47617 13.051 8.78176C12.7501 9.08736 12.3421 9.25904 11.9167 9.25904C11.4912 9.25904 11.0832 9.08736 10.7823 8.78176C10.4815 8.47617 10.3125 8.06169 10.3125 7.62952C10.3125 7.19734 10.4815 6.78287 10.7823 6.47727C11.0832 6.17168 11.4912 6 11.9167 6ZM16 11.9255C16.0001 12.2866 15.9074 12.6414 15.7311 12.9549C15.5548 13.2683 15.301 13.5296 14.9947 13.7129C14.6885 13.8962 14.3405 13.9951 13.9851 13.9998C13.6297 14.0046 13.2793 13.915 12.9684 13.7399L12.1564 13.9906C12.1242 14.0005 12.09 14.0014 12.0573 13.9932C12.0247 13.9849 11.9949 13.9678 11.9711 13.9436C11.9473 13.9194 11.9304 13.8891 11.9223 13.856C11.9141 13.8228 11.915 13.788 11.9248 13.7553L12.1722 12.9311C12.0212 12.6542 11.9347 12.3459 11.9192 12.0298C11.9037 11.7137 11.9596 11.3981 12.0827 11.1074C12.2057 10.8166 12.3927 10.5583 12.6292 10.3522C12.8657 10.1462 13.1455 9.99788 13.4472 9.91863C13.7488 9.83939 14.0643 9.83133 14.3695 9.89507C14.6747 9.95881 14.9615 10.0927 15.2079 10.2864C15.4543 10.4801 15.6538 10.7285 15.7911 11.0126C15.9284 11.2967 15.9999 11.609 16 11.9255ZM13.375 11.0367C13.2976 11.0367 13.2235 11.0679 13.1688 11.1235C13.1141 11.179 13.0833 11.2544 13.0833 11.333C13.0833 11.4115 13.1141 11.4869 13.1688 11.5425C13.2235 11.598 13.2976 11.6292 13.375 11.6292H14.5417C14.619 11.6292 14.6932 11.598 14.7479 11.5425C14.8026 11.4869 14.8333 11.4115 14.8333 11.333C14.8333 11.2544 14.8026 11.179 14.7479 11.1235C14.6932 11.0679 14.619 11.0367 14.5417 11.0367H13.375ZM13.0833 12.5181C13.0833 12.5966 13.1141 12.672 13.1688 12.7276C13.2235 12.7831 13.2976 12.8143 13.375 12.8143H13.9583C14.0357 12.8143 14.1099 12.7831 14.1646 12.7276C14.2193 12.672 14.25 12.5966 14.25 12.5181C14.25 12.4395 14.2193 12.3641 14.1646 12.3086C14.1099 12.253 14.0357 12.2218 13.9583 12.2218H13.375C13.2976 12.2218 13.2235 12.253 13.1688 12.3086C13.1141 12.3641 13.0833 12.4395 13.0833 12.5181Z" fill="#003366"/>
</g>
<defs>
<clipPath id="clip0_10433_11525">
<rect width="24" height="24" fill="white"/>
</clipPath>
</defs>
</svg>
