<svg width="20" height="20" viewBox="0 0 20 20" fill="none" xmlns="http://www.w3.org/2000/svg">
<path d="M3.90567 5.17865L5.6665 15.8145C5.74705 16.3014 5.99783 16.7439 6.37417 17.0632C6.75052 17.3824 7.22798 17.5577 7.7215 17.5578H10.5115M16.0932 5.17865L14.3332 15.8145C14.2526 16.3014 14.0018 16.7439 13.6255 17.0632C13.2492 17.3824 12.7717 17.5577 12.2782 17.5578H9.48817M8.3515 9.26448V13.472M11.6482 9.26448V13.472M2.2915 5.17865H17.7082M12.314 5.17865V3.69531C12.314 3.36379 12.1823 3.04585 11.9479 2.81143C11.7135 2.57701 11.3955 2.44531 11.064 2.44531H8.93567C8.60415 2.44531 8.28621 2.57701 8.05179 2.81143C7.81737 3.04585 7.68567 3.36379 7.68567 3.69531V5.17865H12.314Z" stroke="#FF0000" stroke-width="1.5" stroke-linecap="round" stroke-linejoin="round"/>
</svg>
