<svg width="20" height="20" viewBox="0 0 20 20" fill="none" xmlns="http://www.w3.org/2000/svg">
<path d="M3.125 9.10938H16.875C17.1112 9.10938 17.3379 9.20309 17.5049 9.37012C17.6719 9.53714 17.7656 9.76379 17.7656 10C17.7656 10.2362 17.6719 10.4629 17.5049 10.6299C17.3379 10.7969 17.1112 10.8906 16.875 10.8906H14.418L14.4854 10.9678C15.0035 11.565 15.2812 12.3336 15.2656 13.124V13.125C15.2656 14.2362 14.6652 15.3066 13.6113 16.0596C12.6383 16.7563 11.3541 17.1406 10 17.1406C8.64595 17.1406 7.36172 16.7563 6.38867 16.0596C5.3348 15.3066 4.73438 14.2362 4.73438 13.125C4.73438 12.8888 4.82809 12.6621 4.99512 12.4951C5.16214 12.3281 5.38879 12.2344 5.625 12.2344C5.86121 12.2344 6.08786 12.3281 6.25488 12.4951C6.42191 12.6621 6.51562 12.8888 6.51562 13.125C6.51562 13.7401 6.92374 14.2998 7.55762 14.7031C8.19241 15.107 9.06059 15.3594 10 15.3594C10.9394 15.3594 11.8076 15.107 12.4424 14.7031C13.0763 14.2998 13.4844 13.7401 13.4844 13.125C13.4844 12.6119 13.2956 12.2042 12.8486 11.8496C12.4052 11.498 11.7076 11.1982 10.6895 10.8926L10.6758 10.9375L10.6895 10.8906H3.125C2.88879 10.8906 2.66214 10.7969 2.49512 10.6299C2.32809 10.4629 2.23438 10.2362 2.23438 10C2.23438 9.76379 2.32809 9.53714 2.49512 9.37012C2.66214 9.20309 2.88879 9.10938 3.125 9.10938ZM10 2.85938C11.9105 2.85938 13.516 3.63002 14.3672 4.92871L14.5273 5.19629C14.6268 5.40123 14.6439 5.63626 14.5752 5.85352C14.5062 6.07146 14.3565 6.25493 14.1562 6.36523C13.9559 6.47552 13.7202 6.5046 13.499 6.44629C13.278 6.38793 13.0876 6.24642 12.9678 6.05176C12.4786 5.16329 11.365 4.64062 10 4.64062C9.082 4.64062 8.27357 4.87657 7.69336 5.27344C7.11279 5.67061 6.75879 6.23102 6.75879 6.875C6.75879 7.11116 6.66501 7.33787 6.49805 7.50488C6.33107 7.67186 6.1043 7.76557 5.86816 7.76562C5.632 7.76562 5.4053 7.67185 5.23828 7.50488C5.07126 7.33786 4.97754 7.11121 4.97754 6.875C4.97754 4.59364 7.12504 2.85938 10 2.85938Z" fill="black" stroke="black" stroke-width="0.09375"/>
</svg>
