<svg width="24" height="24" viewBox="0 0 24 24" fill="none" xmlns="http://www.w3.org/2000/svg">
<path d="M7.01396 16.0029H11.014M7.01396 11.0049H15.014M10.014 21.9999H11.014M7.50996 21.9999C6.33996 21.9749 5.53996 21.8999 4.76396 21.6749C3.71396 21.3999 2.94896 20.4749 2.72396 19.1759C2.43896 17.9519 2.53896 14.9289 2.51396 11.3299C2.51596 8.53892 2.38896 5.85792 2.83896 4.33392C3.11396 3.83392 3.33896 2.00992 7.06396 2.03392C7.68896 2.00992 14.314 1.95992 15.364 2.05992C18.864 2.13492 19.214 3.93392 19.414 5.63292C19.541 6.88292 19.514 8.88092 19.514 11.0049M7.01396 2.00992C7.31396 3.63392 7.28896 4.68392 8.38896 4.93292C8.86396 5.00792 9.94896 5.00592 11.114 5.00792C12.154 5.00992 13.214 5.01992 13.689 4.90792C14.864 4.63392 14.739 3.18392 15.039 2.00992M18.279 14.3789C16.904 15.7789 14.256 18.2769 14.256 18.4519C14.043 18.7489 13.856 19.3519 13.732 20.2019C13.575 20.9889 13.387 21.6749 13.607 21.8749C13.827 22.0749 14.654 21.9069 15.53 21.7249C16.23 21.6499 16.88 21.3999 17.204 21.1509C17.679 20.7309 20.902 17.4769 21.276 17.0529C21.551 16.6779 21.576 15.9779 21.336 15.5529C21.202 15.2529 20.352 14.4529 20.077 14.2289C19.8004 14.0584 19.4765 13.9809 19.1528 14.0079C18.829 14.0349 18.5234 14.1649 18.279 14.3789Z" stroke="#003366" stroke-width="1.5" stroke-linecap="round" stroke-linejoin="round"/>
</svg>
