<svg width="24" height="24" viewBox="0 0 24 24" fill="none" xmlns="http://www.w3.org/2000/svg">
<path d="M10 18.3496C10.0002 17.4385 10.7393 16.7002 11.6504 16.7002C12.5614 16.7004 13.2996 17.4386 13.2998 18.3496C13.2998 19.2607 12.5615 19.9998 11.6504 20C10.7391 20 10 19.2609 10 18.3496ZM10 12.7012C10.0002 11.7901 10.7393 11.0518 11.6504 11.0518C12.5614 11.052 13.2996 11.7902 13.2998 12.7012C13.2998 13.6123 12.5615 14.3514 11.6504 14.3516C10.7391 14.3516 10 13.6124 10 12.7012ZM10 7.05273C10.0002 6.14164 10.7393 5.40332 11.6504 5.40332C12.5614 5.40353 13.2996 6.14177 13.2998 7.05273C13.2998 7.96387 12.5615 8.70291 11.6504 8.70312C10.7391 8.70312 10 7.964 10 7.05273Z" fill="#0A0A0A"/>
</svg>
