<svg width="20" height="20" viewBox="0 0 20 20" fill="none" xmlns="http://www.w3.org/2000/svg">
<path d="M3.4375 13.7969C3.75659 13.7969 4.06246 13.9238 4.28809 14.1494C4.51372 14.375 4.64062 14.6809 4.64062 15C4.64062 15.2379 4.56964 15.4701 4.4375 15.668C4.3053 15.8658 4.1173 16.0203 3.89746 16.1113C3.67779 16.2022 3.43631 16.226 3.20312 16.1797C2.96974 16.1333 2.75517 16.0188 2.58691 15.8506C2.41865 15.6823 2.30424 15.4678 2.25781 15.2344C2.21148 15.0012 2.23525 14.7597 2.32617 14.54C2.41723 14.3202 2.57168 14.1322 2.76953 14C2.96735 13.8679 3.1996 13.7969 3.4375 13.7969ZM6.875 14.1094H16.875C17.1112 14.1094 17.3379 14.2031 17.5049 14.3701C17.6719 14.5371 17.7656 14.7638 17.7656 15C17.7656 15.2362 17.6719 15.4629 17.5049 15.6299C17.3379 15.7969 17.1112 15.8906 16.875 15.8906H6.875C6.63879 15.8906 6.41214 15.7969 6.24512 15.6299C6.07809 15.4629 5.98438 15.2362 5.98438 15C5.98438 14.7638 6.07809 14.5371 6.24512 14.3701C6.41214 14.2031 6.63879 14.1094 6.875 14.1094ZM3.4375 8.79688C3.75659 8.79688 4.06246 8.92378 4.28809 9.14941C4.51372 9.37504 4.64062 9.68091 4.64062 10C4.64062 10.2379 4.56964 10.4701 4.4375 10.668C4.3053 10.8658 4.1173 11.0203 3.89746 11.1113C3.67779 11.2022 3.43631 11.226 3.20312 11.1797C2.96974 11.1333 2.75517 11.0188 2.58691 10.8506C2.41865 10.6823 2.30424 10.4678 2.25781 10.2344C2.21148 10.0012 2.23525 9.75971 2.32617 9.54004C2.41723 9.3202 2.57168 9.1322 2.76953 9C2.96735 8.86786 3.1996 8.79688 3.4375 8.79688ZM6.875 9.10938H16.875C17.1112 9.10938 17.3379 9.20309 17.5049 9.37012C17.6719 9.53714 17.7656 9.76379 17.7656 10C17.7656 10.2362 17.6719 10.4629 17.5049 10.6299C17.3379 10.7969 17.1112 10.8906 16.875 10.8906H6.875C6.63879 10.8906 6.41214 10.7969 6.24512 10.6299C6.07809 10.4629 5.98438 10.2362 5.98438 10C5.98438 9.76379 6.07809 9.53714 6.24512 9.37012C6.41214 9.20309 6.63879 9.10938 6.875 9.10938ZM3.4375 3.79688C3.75659 3.79688 4.06246 3.92378 4.28809 4.14941C4.51372 4.37504 4.64062 4.68091 4.64062 5C4.64062 5.2379 4.56964 5.47015 4.4375 5.66797C4.3053 5.86582 4.1173 6.02027 3.89746 6.11133C3.67779 6.20225 3.43631 6.22602 3.20312 6.17969C2.96974 6.13326 2.75517 6.01885 2.58691 5.85059C2.41865 5.68233 2.30424 5.46776 2.25781 5.23438C2.21148 5.00119 2.23525 4.75971 2.32617 4.54004C2.41723 4.3202 2.57168 4.1322 2.76953 4C2.96735 3.86786 3.1996 3.79688 3.4375 3.79688ZM6.875 4.10938H16.875C17.1112 4.10938 17.3379 4.20309 17.5049 4.37012C17.6719 4.53714 17.7656 4.76379 17.7656 5C17.7656 5.23621 17.6719 5.46286 17.5049 5.62988C17.3379 5.79691 17.1112 5.89062 16.875 5.89062H6.875C6.63879 5.89062 6.41214 5.79691 6.24512 5.62988C6.07809 5.46286 5.98438 5.23621 5.98438 5C5.98438 4.76379 6.07809 4.53714 6.24512 4.37012C6.41214 4.20309 6.63879 4.10938 6.875 4.10938Z" fill="black" stroke="black" stroke-width="0.09375"/>
</svg>
