<svg width="24" height="24" viewBox="0 0 24 24" fill="none" xmlns="http://www.w3.org/2000/svg">
<path d="M18 18V21H6V18H4.5V21C4.5 21.3978 4.65804 21.7794 4.93934 22.0607C5.22064 22.342 5.60218 22.5 6 22.5H18C18.3978 22.5 18.7794 22.342 19.0607 22.0607C19.342 21.7794 19.5 21.3978 19.5 21V18H18Z" fill="black"/>
<path d="M15.75 15.75L14.6895 14.6895L12.75 16.629V10.5H11.25V16.629L9.3105 14.6895L8.25 15.75L12 19.5L15.75 15.75ZM21 3V1.5H16.5V9H18V6H20.25V4.5H18V3H21ZM12.75 9H9.75V1.5H12.75C13.3466 1.5006 13.9185 1.73784 14.3403 2.15967C14.7622 2.5815 14.9994 3.15345 15 3.75V6.75C14.9994 7.34655 14.7622 7.9185 14.3403 8.34033C13.9185 8.76216 13.3466 8.9994 12.75 9ZM11.25 7.5H12.75C12.9489 7.5 13.1397 7.42098 13.2803 7.28033C13.421 7.13968 13.5 6.94891 13.5 6.75V3.75C13.5 3.55109 13.421 3.36032 13.2803 3.21967C13.1397 3.07902 12.9489 3 12.75 3H11.25V7.5ZM6.75 1.5H3V9H4.5V6.75H6.75C7.14764 6.7494 7.52883 6.59118 7.81 6.31C8.09118 6.02883 8.2494 5.64764 8.25 5.25V3C8.25 2.60218 8.09196 2.22064 7.81066 1.93934C7.52936 1.65804 7.14782 1.5 6.75 1.5ZM4.5 5.25V3H6.75L6.75075 5.25H4.5Z" fill="black"/>
</svg>
