<svg width="24" height="24" viewBox="0 0 24 24" fill="none" xmlns="http://www.w3.org/2000/svg">
<g clip-path="url(#clip0_10431_18692)">
<path d="M17.25 23.25C18.8413 23.25 20.3674 22.6179 21.4926 21.4926C22.6179 20.3674 23.25 18.8413 23.25 17.25C23.25 15.6587 22.6179 14.1326 21.4926 13.0074C20.3674 11.8821 18.8413 11.25 17.25 11.25C15.6587 11.25 14.1326 11.8821 13.0074 13.0074C11.8821 14.1326 11.25 15.6587 11.25 17.25C11.25 18.8413 11.8821 20.3674 13.0074 21.4926C14.1326 22.6179 15.6587 23.25 17.25 23.25Z" stroke="black" stroke-width="2" stroke-linecap="round" stroke-linejoin="round"/>
<path d="M19.9242 15.506L17.0192 19.379C16.9546 19.4648 16.8723 19.5358 16.7779 19.5872C16.6836 19.6386 16.5793 19.6691 16.4721 19.6768C16.365 19.6845 16.2574 19.6691 16.1567 19.6317C16.0559 19.5943 15.9644 19.5358 15.8882 19.46L14.3882 17.96M10.2262 4.557C10.2605 4.83153 10.2359 5.1102 10.1542 5.37452C10.0725 5.63883 9.93543 5.88272 9.75219 6.09C9.56115 6.29726 9.32923 6.46269 9.07106 6.57583C8.81289 6.68898 8.53407 6.74739 8.25219 6.74739C7.97032 6.74739 7.6915 6.68898 7.43333 6.57583C7.17516 6.46269 6.94324 6.29726 6.75219 6.09C6.56896 5.88272 6.43193 5.63883 6.3502 5.37452C6.26848 5.1102 6.24393 4.83153 6.27819 4.557L6.75019 0.75H9.75019L10.2262 4.557Z" stroke="black" stroke-width="2" stroke-linecap="round" stroke-linejoin="round"/>
<path d="M8.25 13.875C8.15054 13.875 8.05516 13.8355 7.98484 13.7652C7.91451 13.6948 7.875 13.5995 7.875 13.5C7.875 13.4005 7.91451 13.3052 7.98484 13.2348C8.05516 13.1645 8.15054 13.125 8.25 13.125M8.25 13.875C8.34946 13.875 8.44484 13.8355 8.51517 13.7652C8.58549 13.6948 8.625 13.5995 8.625 13.5C8.625 13.4005 8.58549 13.3052 8.51517 13.2348C8.44484 13.1645 8.34946 13.125 8.25 13.125M8.25 17.625C8.15054 17.625 8.05516 17.5855 7.98484 17.5152C7.91451 17.4448 7.875 17.3495 7.875 17.25C7.875 17.1505 7.91451 17.0552 7.98484 16.9848C8.05516 16.9145 8.15054 16.875 8.25 16.875M8.25 17.625C8.34946 17.625 8.44484 17.5855 8.51517 17.5152C8.58549 17.4448 8.625 17.3495 8.625 17.25C8.625 17.1505 8.58549 17.0552 8.51517 16.9848C8.44484 16.9145 8.34946 16.875 8.25 16.875M8.25 10.125C8.15054 10.125 8.05516 10.0855 7.98484 10.0152C7.91451 9.94484 7.875 9.84946 7.875 9.75C7.875 9.65054 7.91451 9.55516 7.98484 9.48483C8.05516 9.41451 8.15054 9.375 8.25 9.375M8.25 10.125C8.34946 10.125 8.44484 10.0855 8.51517 10.0152C8.58549 9.94484 8.625 9.84946 8.625 9.75C8.625 9.65054 8.58549 9.55516 8.51517 9.48483C8.44484 9.41451 8.34946 9.375 8.25 9.375" stroke="black" stroke-width="2"/>
<path d="M7.5 20.25H2.25C1.85218 20.25 1.47064 20.092 1.18934 19.8107C0.908035 19.5294 0.75 19.1478 0.75 18.75V2.25C0.75 1.85218 0.908035 1.47064 1.18934 1.18934C1.47064 0.908035 1.85218 0.75 2.25 0.75H12.879C13.2765 0.750085 13.6578 0.907982 13.939 1.189L16.811 4.061C17.092 4.3422 17.2499 4.72345 17.25 5.121V8.25" stroke="black" stroke-width="2" stroke-linecap="round" stroke-linejoin="round"/>
</g>
<defs>
<clipPath id="clip0_10431_18692">
<rect width="24" height="24" fill="white"/>
</clipPath>
</defs>
</svg>
