<svg width="24" height="24" viewBox="0 0 24 24" fill="none" xmlns="http://www.w3.org/2000/svg">
<g clip-path="url(#clip0_10431_18686)">
<path d="M21.26 12.8185H17.4431V10.91H21.26V12.8185ZM21.26 13.909H17.4431V15.8175H21.26V13.909ZM21.26 4.91211H17.4431V6.82053H21.26V4.91211ZM21.26 7.91108H17.4431V9.8195H21.26V7.91108ZM21.26 16.908H17.4431V18.8165H21.26V16.908ZM23.8964 20.6704C23.7873 21.2375 23.1057 21.251 22.6504 21.2702H14.1715V23.7238H12.4785L0 21.5428V2.46116L12.5521 0.277344H14.1715V2.45023H22.3587C22.8195 2.46931 23.3266 2.43659 23.7273 2.71194C24.0082 3.11544 23.9809 3.62802 24 4.09147L23.9891 18.2848C23.9755 19.0782 24.0627 19.8879 23.8964 20.6704ZM9.99745 16.3927C9.24502 14.866 8.47894 13.3501 7.72917 11.8234C8.47073 10.3375 9.20142 8.84623 9.92934 7.35491C9.31045 7.38491 8.69156 7.42306 8.07544 7.4667C7.61466 8.5872 7.07756 9.67775 6.7177 10.8365C6.38236 9.74319 5.93798 8.6908 5.53177 7.62481C4.93195 7.65753 4.33214 7.69297 3.73238 7.72841C4.36486 9.12434 5.03831 10.5011 5.65172 11.9052C4.92923 13.2683 4.25311 14.6506 3.55242 16.022C4.14947 16.0465 4.74656 16.071 5.34361 16.0792C5.76895 14.9941 6.29784 13.9499 6.66863 12.843C7.00125 14.0317 7.56558 15.1304 8.02908 16.2673C8.68612 16.3137 9.34041 16.3546 9.99745 16.3927ZM22.6997 3.74506H14.1715V4.91211H16.3526V6.82053H14.1715V7.91108H16.3526V9.8195H14.1715V10.91H16.3526V12.8185H14.1715V13.909H16.3526V15.8175H14.1715V16.908H16.3526V18.8165H14.1715V20.0773H22.6997V3.74506Z" fill="black"/>
</g>
<defs>
<clipPath id="clip0_10431_18686">
<rect width="24" height="24" fill="white"/>
</clipPath>
</defs>
</svg>
