<svg width="24" height="24" viewBox="0 0 24 24" fill="none" xmlns="http://www.w3.org/2000/svg">
<path fill-rule="evenodd" clip-rule="evenodd" d="M14.5354 3.80739C15.707 2.63582 17.6065 2.63582 18.7781 3.80739L20.1923 5.2216C21.3639 6.39318 21.3639 8.29267 20.1923 9.46424L9.79978 19.8568C9.66018 19.9964 9.48238 20.0915 9.28879 20.1302L3.98549 21.1909C3.28577 21.3308 2.66885 20.7139 2.80879 20.0142L3.86945 14.7109C3.90817 14.5173 4.00333 14.3395 4.14293 14.1999L14.5354 3.80739ZM17.3639 5.2216L18.7781 6.63582C19.1686 7.02634 19.1686 7.65951 18.7781 8.05003L17.3639 9.46425L14.5354 6.63582L15.9496 5.2216C16.3402 4.83108 16.9733 4.83108 17.3639 5.2216ZM13.1212 8.05003L5.77124 15.4L5.06413 18.9356L8.59966 18.2284L15.9496 10.8785L13.1212 8.05003Z" fill="white"/>
</svg>
