<svg width="60" height="60" viewBox="0 0 60 60" fill="none" xmlns="http://www.w3.org/2000/svg">
<path d="M30.0002 26.6335C34.3817 26.6335 37.9336 23.1264 37.9336 18.8001C37.9336 14.4739 34.3817 10.9668 30.0002 10.9668C25.6188 10.9668 22.0669 14.4739 22.0669 18.8001C22.0669 23.1264 25.6188 26.6335 30.0002 26.6335Z" fill="white"/>
<path d="M17.9669 19.5833H18.7669V18.8666C18.7717 16.7826 19.3597 14.7415 20.4642 12.9743C21.5687 11.2071 23.1457 9.78418 25.0169 8.8666C24.4629 7.59086 23.5738 6.48898 22.4439 5.67799C21.314 4.86699 19.9856 4.37716 18.5997 4.26053C17.2138 4.14389 15.8222 4.4048 14.5726 5.01555C13.3231 5.62629 12.2623 6.56407 11.503 7.72927C10.7436 8.89448 10.314 10.2436 10.2598 11.6333C10.2056 13.0231 10.5288 14.4016 11.1951 15.6224C11.8615 16.8432 12.846 17.8607 14.0442 18.5669C15.2423 19.2731 16.6094 19.6416 18.0002 19.6333L17.9669 19.5833ZM41.2669 18.7999V19.5166H42.0669C43.4391 19.5028 44.7823 19.1194 45.955 18.4066C47.1277 17.6938 48.0865 16.6781 48.7306 15.4663C49.3747 14.2545 49.6802 12.8915 49.615 11.5207C49.5497 10.1499 49.1161 8.82208 48.3598 7.67695C47.6035 6.53182 46.5525 5.61175 45.3174 5.01359C44.0823 4.41543 42.7088 4.16129 41.3414 4.27794C39.9741 4.39458 38.6635 4.87769 37.5475 5.67641C36.4316 6.47513 35.5516 7.55992 35.0002 8.8166C36.8719 9.73059 38.4507 11.1499 39.5581 12.9141C40.6655 14.6782 41.2574 16.717 41.2669 18.7999ZM37.1502 27.4166C40.4637 28.0736 43.6676 29.1958 46.6669 30.7499C47.0895 30.9818 47.4722 31.28 47.8002 31.6333H56.6669V25.9333C56.6685 25.7146 56.6103 25.4997 56.4987 25.3117C56.3871 25.1238 56.2262 24.9698 56.0335 24.8666C51.7138 22.6071 46.9085 21.4344 42.0335 21.4499H40.9335C40.3559 23.7978 39.0275 25.8928 37.1502 27.4166ZM10.8835 34.8666C10.8805 34.0272 11.1072 33.203 11.539 32.4832C11.9709 31.7635 12.5915 31.1756 13.3335 30.7833C16.3328 29.2291 19.5367 28.1069 22.8502 27.4499C20.982 25.9391 19.6544 23.863 19.0669 21.5333H17.9669C13.0919 21.5177 8.28661 22.6905 3.96686 24.9499C3.77414 25.0532 3.61329 25.2071 3.50167 25.3951C3.39005 25.5831 3.33191 25.798 3.33353 26.0166V36.6666H10.8835V34.8666ZM35.7669 44.4833H45.7002V46.8166H35.7669V44.4833Z" fill="white"/>
<path d="M54.6835 35.4336H43.2335V33.7669C43.2335 33.3249 43.0579 32.9009 42.7453 32.5884C42.4328 32.2758 42.0089 32.1002 41.5668 32.1002C41.1248 32.1002 40.7009 32.2758 40.3883 32.5884C40.0758 32.9009 39.9002 33.3249 39.9002 33.7669V35.4336H36.6668V30.7169C34.4743 30.2545 32.2408 30.0144 30.0002 30.0002C24.74 29.9804 19.5553 31.2508 14.9002 33.7002C14.6928 33.8078 14.5193 33.9706 14.3987 34.1706C14.2781 34.3706 14.2152 34.6 14.2168 34.8336V44.1836H26.0668V54.3336C26.0668 54.7756 26.2424 55.1995 26.555 55.5121C26.8675 55.8246 27.2915 56.0002 27.7335 56.0002H54.6835C55.1255 56.0002 55.5494 55.8246 55.862 55.5121C56.1746 55.1995 56.3502 54.7756 56.3502 54.3336V37.1002C56.3502 36.6582 56.1746 36.2343 55.862 35.9217C55.5494 35.6092 55.1255 35.4336 54.6835 35.4336ZM53.0168 52.7002H29.4002V38.7669H39.9002V40.2836C39.9002 40.7256 40.0758 41.1495 40.3883 41.4621C40.7009 41.7746 41.1248 41.9502 41.5668 41.9502C42.0089 41.9502 42.4328 41.7746 42.7453 41.4621C43.0579 41.1495 43.2335 40.7256 43.2335 40.2836V38.7669H53.0168V52.7002Z" fill="white"/>
</svg>
