<svg width="32" height="32" viewBox="0 0 32 32" fill="none" xmlns="http://www.w3.org/2000/svg">
<path d="M14 6H3.66019C2.19101 6 1 7.02724 1 8.5V13C1 11.5272 2.19101 10.3333 3.66019 10.3333L14 10L16 8L14 6Z" fill="url(#paint0_linear_12048_20994)"/>
<path d="M1 12.6667C1 11.1939 2.27919 10 3.85714 10H14L16 8H28.1429C29.7208 8 31 9.19391 31 10.6667V25.3334C31 26.8061 29.7208 28 28.1429 28H3.85714C2.27919 28 1 26.8061 1 25.3334L1 12.6667Z" fill="url(#paint1_linear_12048_20994)"/>
<defs>
<linearGradient id="paint0_linear_12048_20994" x1="8.5" y1="5" x2="8.5" y2="13" gradientUnits="userSpaceOnUse">
<stop stop-color="#E6A200"/>
<stop offset="1" stop-color="#C68600"/>
</linearGradient>
<linearGradient id="paint1_linear_12048_20994" x1="16" y1="7" x2="16" y2="28" gradientUnits="userSpaceOnUse">
<stop stop-color="#FFD766"/>
<stop offset="1" stop-color="#FEC52C"/>
</linearGradient>
</defs>
</svg>
