<svg width="20" height="20" viewBox="0 0 20 20" fill="none" xmlns="http://www.w3.org/2000/svg">
<path d="M11.666 7.49984C11.666 7.94187 11.4904 8.36579 11.1779 8.67835C10.8653 8.99091 10.4414 9.1665 9.99935 9.1665H4.99935L1.66602 12.4998V3.33317C1.66602 2.4165 2.41602 1.6665 3.33268 1.6665H9.99935C10.4414 1.6665 10.8653 1.8421 11.1779 2.15466C11.4904 2.46722 11.666 2.89114 11.666 3.33317V7.49984Z" stroke="black" stroke-width="1.33333" stroke-linecap="round" stroke-linejoin="round"/>
<path d="M15.0007 7.5H16.6673C17.1093 7.5 17.5333 7.6756 17.8458 7.98816C18.1584 8.30072 18.334 8.72464 18.334 9.16667V18.3333L15.0007 15H10.0007C9.55862 15 9.1347 14.8244 8.82214 14.5118C8.50958 14.1993 8.33398 13.7754 8.33398 13.3333V12.5" stroke="black" stroke-width="1.33333" stroke-linecap="round" stroke-linejoin="round"/>
</svg>
