<svg width="24" height="24" viewBox="0 0 24 24" fill="none" xmlns="http://www.w3.org/2000/svg">
<g clip-path="url(#clip0_10433_10206)">
<path d="M11.25 3C12.2446 3 13.1984 3.39509 13.9017 4.09835C14.6049 4.80161 15 5.75544 15 6.75C15 7.5345 14.7495 8.1345 14.3655 8.61C14.0945 8.93296 13.7794 9.21623 13.4295 9.4515L13.179 9.627C12.786 9.9 12.5025 10.1025 12.3 10.3515C12.0926 10.6032 11.9858 10.9227 12 11.2485V12.7485C12 12.9474 11.921 13.1382 11.7803 13.2788C11.6397 13.4195 11.4489 13.4985 11.25 13.4985C11.0511 13.4985 10.8603 13.4195 10.7197 13.2788C10.579 13.1382 10.5 12.9474 10.5 12.7485V11.2485C10.5 10.47 10.752 9.8745 11.1375 9.4035C11.415 9.0645 11.757 8.7975 12.0615 8.5785L12.321 8.397C12.711 8.1255 12.9945 7.9215 13.197 7.6695C13.4082 7.411 13.5162 7.08342 13.5 6.75C13.5 6.15326 13.2629 5.58097 12.841 5.15901C12.419 4.73705 11.8467 4.5 11.25 4.5C10.6533 4.5 10.081 4.73705 9.65901 5.15901C9.23705 5.58097 9 6.15326 9 6.75C9 6.94891 8.92098 7.13968 8.78033 7.28033C8.63968 7.42098 8.44891 7.5 8.25 7.5C8.05109 7.5 7.86032 7.42098 7.71967 7.28033C7.57902 7.13968 7.5 6.94891 7.5 6.75C7.5 5.75544 7.89509 4.80161 8.59835 4.09835C9.30161 3.39509 10.2554 3 11.25 3ZM11.25 15.15C11.5981 15.15 11.9319 15.2883 12.1781 15.5344C12.4242 15.7806 12.5625 16.1144 12.5625 16.4625C12.5625 16.8106 12.4242 17.1444 12.1781 17.3906C11.9319 17.6367 11.5981 17.775 11.25 17.775C10.9019 17.775 10.5681 17.6367 10.3219 17.3906C10.0758 17.1444 9.9375 16.8106 9.9375 16.4625C9.9375 16.1144 10.0758 15.7806 10.3219 15.5344C10.5681 15.2883 10.9019 15.15 11.25 15.15Z" fill="#003366"/>
<path fill-rule="evenodd" clip-rule="evenodd" d="M11.25 21.0005C13.02 21.0005 14.535 20.795 15.825 20.417C17.325 21.4655 19.32 22.547 21.9 23.822C23.274 24.506 24.585 22.955 23.715 21.692C22.6245 20.087 21.675 18.527 20.925 16.757C22.029 15.002 22.485 12.842 22.485 10.502C22.485 4.69695 19.665 0.00195312 11.235 0.00195312C2.80499 0.00195312 -0.0150146 4.71195 -0.0150146 10.502C-0.0150146 16.307 2.80499 21.002 11.235 21.002L11.25 21.0005ZM19.665 15.9605C19.5363 16.1643 19.4586 16.3961 19.4385 16.6363C19.4183 16.8765 19.4564 17.1181 19.5495 17.3405C20.3235 19.1855 21.3045 20.8055 22.3845 22.3955C19.9095 21.161 18.0645 20.1455 16.6845 19.1855C16.5007 19.0572 16.2905 18.9718 16.0693 18.9354C15.8482 18.8991 15.6217 18.9128 15.4065 18.9755C14.2695 19.307 12.9015 19.499 11.2515 19.499C7.30649 19.499 4.95149 18.407 3.55649 16.904C2.14499 15.374 1.49999 13.184 1.49999 10.499C1.49999 7.81395 2.15099 5.60895 3.55499 4.09395C4.94549 2.59395 7.30499 1.49895 11.25 1.49895C15.195 1.49895 17.55 2.59095 18.945 4.09395C20.355 5.62395 21 7.81395 21 10.499C21 12.659 20.574 14.519 19.668 15.959L19.665 15.9605Z" fill="#003366"/>
</g>
<defs>
<clipPath id="clip0_10433_10206">
<rect width="24" height="24" fill="white"/>
</clipPath>
</defs>
</svg>
