<svg width="24" height="24" viewBox="0 0 24 24" fill="none" xmlns="http://www.w3.org/2000/svg">
<g clip-path="url(#clip0_9922_10615)">
<path d="M10.7578 22.043C10.6797 22.3398 10.6211 22.6406 10.582 22.9453C10.543 23.25 10.5156 23.5625 10.5 23.8828C9.5 23.7656 8.54688 23.5312 7.64062 23.1797C6.73438 22.8281 5.89453 22.3789 5.12109 21.832C4.34766 21.2852 3.64453 20.6523 3.01172 19.9336C2.37891 19.2148 1.83984 18.4336 1.39453 17.5898C0.949219 16.7461 0.605469 15.8555 0.363281 14.918C0.121094 13.9805 0 13.0078 0 12C0 10.8984 0.140625 9.83594 0.421875 8.8125C0.703125 7.78906 1.10547 6.83203 1.62891 5.94141C2.15234 5.05078 2.77734 4.24219 3.50391 3.51562C4.23047 2.78906 5.04297 2.16406 5.94141 1.64062C6.83984 1.11719 7.79297 0.714844 8.80078 0.433594C9.80859 0.152344 10.875 0.0078125 12 0C13.1016 0 14.1602 0.140625 15.1758 0.421875C16.1914 0.703125 17.1484 1.10938 18.0469 1.64062C18.9453 2.17188 19.7539 2.79688 20.4727 3.51562C21.1914 4.23438 21.8203 5.04688 22.3594 5.95312C22.8984 6.85938 23.3008 7.8125 23.5664 8.8125C23.832 9.8125 23.9766 10.875 24 12H23.168C23.0586 11.8203 22.9453 11.6445 22.8281 11.4727C22.7109 11.3008 22.5742 11.1367 22.418 10.9805C22.3711 10.3008 22.25 9.64062 22.0547 9H7.69922C7.63672 9.5 7.58984 9.99609 7.55859 10.4883C7.52734 10.9805 7.50781 11.4844 7.5 12C7.5 12.5078 7.51562 13.0078 7.54688 13.5C7.57812 13.9922 7.62891 14.4922 7.69922 15H12C12 15.25 12.0195 15.5 12.0586 15.75C12.0977 16 12.1484 16.25 12.2109 16.5H7.95703C8.05078 16.9453 8.17578 17.4336 8.33203 17.9648C8.48828 18.4961 8.68359 19.0156 8.91797 19.5234C9.15234 20.0312 9.42188 20.5078 9.72656 20.9531C10.0312 21.3984 10.375 21.7617 10.7578 22.043ZM21.4805 7.5C21.1758 6.86719 20.8164 6.27344 20.4023 5.71875C19.9883 5.16406 19.5195 4.65625 18.9961 4.19531C18.4727 3.73438 17.918 3.32422 17.332 2.96484C16.7461 2.60547 16.1133 2.3125 15.4336 2.08594C15.7148 2.47656 15.9648 2.89062 16.1836 3.32812C16.4023 3.76562 16.6016 4.21484 16.7812 4.67578C16.9609 5.13672 17.1133 5.60547 17.2383 6.08203C17.3633 6.55859 17.4727 7.03125 17.5664 7.5H21.4805ZM12 1.5C11.6094 1.5 11.25 1.60547 10.9219 1.81641C10.5938 2.02734 10.2891 2.30469 10.0078 2.64844C9.72656 2.99219 9.47656 3.37891 9.25781 3.80859C9.03906 4.23828 8.83984 4.67969 8.66016 5.13281C8.48047 5.58594 8.33594 6.01562 8.22656 6.42188C8.11719 6.82812 8.02734 7.1875 7.95703 7.5H16.043C15.9805 7.19531 15.8906 6.83594 15.7734 6.42188C15.6562 6.00781 15.5117 5.57812 15.3398 5.13281C15.168 4.6875 14.9727 4.25 14.7539 3.82031C14.5352 3.39062 14.2852 3 14.0039 2.64844C13.7227 2.29688 13.4141 2.01953 13.0781 1.81641C12.7422 1.61328 12.3828 1.50781 12 1.5ZM8.57812 2.07422C7.91406 2.30078 7.28125 2.58984 6.67969 2.94141C6.07812 3.29297 5.51953 3.70312 5.00391 4.17188C4.48828 4.64062 4.01953 5.15234 3.59766 5.70703C3.17578 6.26172 2.81641 6.85938 2.51953 7.5H6.43359C6.51953 7.07031 6.625 6.61328 6.75 6.12891C6.875 5.64453 7.03125 5.16016 7.21875 4.67578C7.40625 4.19141 7.60938 3.72656 7.82812 3.28125C8.04688 2.83594 8.29688 2.43359 8.57812 2.07422ZM1.5 12C1.5 13.0391 1.64453 14.0391 1.93359 15H6.1875C6.125 14.5 6.07812 14.0039 6.04688 13.5117C6.01562 13.0195 6 12.5156 6 12C6 11.4922 6.01562 10.9922 6.04688 10.5C6.07812 10.0078 6.125 9.50781 6.1875 9H1.93359C1.64453 9.96094 1.5 10.9609 1.5 12ZM2.49609 16.5C2.80078 17.1328 3.16016 17.7266 3.57422 18.2812C3.98828 18.8359 4.45703 19.3477 4.98047 19.8164C5.50391 20.2852 6.06641 20.6914 6.66797 21.0352C7.26953 21.3789 7.90234 21.6719 8.56641 21.9141C8.28516 21.5234 8.03516 21.1094 7.81641 20.6719C7.59766 20.2344 7.39844 19.7852 7.21875 19.3242C7.03906 18.8633 6.88672 18.3945 6.76172 17.918C6.63672 17.4414 6.52344 16.9688 6.42188 16.5H2.49609ZM20.6484 18.6211C21.1562 18.8789 21.6172 19.1953 22.0312 19.5703C22.4453 19.9453 22.7969 20.3672 23.0859 20.8359C23.375 21.3047 23.6016 21.8047 23.7656 22.3359C23.9297 22.8672 24.0078 23.4219 24 24H22.5C22.5 23.3828 22.3828 22.8008 22.1484 22.2539C21.9141 21.707 21.5938 21.2305 21.1875 20.8242C20.7812 20.418 20.3008 20.0938 19.7461 19.8516C19.1914 19.6094 18.6094 19.4922 18 19.5C17.375 19.5 16.793 19.6172 16.2539 19.8516C15.7148 20.0859 15.2383 20.4062 14.8242 20.8125C14.4102 21.2188 14.0859 21.6992 13.8516 22.2539C13.6172 22.8086 13.5 23.3906 13.5 24H12C12 23.4297 12.0781 22.8789 12.2344 22.3477C12.3906 21.8164 12.6133 21.3125 12.9023 20.8359C13.1914 20.3594 13.543 19.9375 13.957 19.5703C14.3711 19.2031 14.832 18.8867 15.3398 18.6211C14.7539 18.1992 14.3008 17.6719 13.9805 17.0391C13.6602 16.4062 13.5 15.7266 13.5 15C13.5 14.3828 13.6172 13.8008 13.8516 13.2539C14.0859 12.707 14.4062 12.2305 14.8125 11.8242C15.2188 11.418 15.6953 11.0938 16.2422 10.8516C16.7891 10.6094 17.375 10.4922 18 10.5C18.6172 10.5 19.1992 10.6172 19.7461 10.8516C20.293 11.0859 20.7695 11.4062 21.1758 11.8125C21.582 12.2188 21.9062 12.6992 22.1484 13.2539C22.3906 13.8086 22.5078 14.3906 22.5 15C22.5 15.7188 22.3398 16.3945 22.0195 17.0273C21.6992 17.6602 21.2422 18.1914 20.6484 18.6211ZM18 18C18.4141 18 18.8008 17.9219 19.1602 17.7656C19.5195 17.6094 19.8398 17.3945 20.1211 17.1211C20.4023 16.8477 20.6172 16.5312 20.7656 16.1719C20.9141 15.8125 20.9922 15.4219 21 15C21 14.5859 20.9219 14.1992 20.7656 13.8398C20.6094 13.4805 20.3945 13.1602 20.1211 12.8789C19.8477 12.5977 19.5312 12.3828 19.1719 12.2344C18.8125 12.0859 18.4219 12.0078 18 12C17.5859 12 17.1992 12.0781 16.8398 12.2344C16.4805 12.3906 16.1602 12.6055 15.8789 12.8789C15.5977 13.1523 15.3828 13.4688 15.2344 13.8281C15.0859 14.1875 15.0078 14.5781 15 15C15 15.4141 15.0781 15.8008 15.2344 16.1602C15.3906 16.5195 15.6055 16.8398 15.8789 17.1211C16.1523 17.4023 16.4688 17.6172 16.8281 17.7656C17.1875 17.9141 17.5781 17.9922 18 18Z" fill="black"/>
</g>
<defs>
<clipPath id="clip0_9922_10615">
<rect width="24" height="24" fill="white"/>
</clipPath>
</defs>
</svg>
