<svg width="728" height="240" viewBox="0 0 728 240" fill="none" xmlns="http://www.w3.org/2000/svg">
<circle cx="555" cy="10" r="4" fill="#097C73"/>
<path d="M568.054 15V14.1051L571.415 10.4261C571.809 9.99526 572.134 9.62074 572.389 9.30256C572.644 8.98106 572.833 8.67945 572.956 8.39773C573.082 8.11269 573.145 7.81439 573.145 7.50284C573.145 7.14489 573.059 6.83499 572.886 6.57315C572.717 6.31132 572.485 6.10914 572.19 5.96662C571.895 5.8241 571.564 5.75284 571.196 5.75284C570.805 5.75284 570.464 5.83404 570.172 5.99645C569.884 6.15554 569.66 6.37926 569.501 6.66761C569.345 6.95597 569.267 7.29403 569.267 7.68182H568.094C568.094 7.08523 568.231 6.56155 568.506 6.1108C568.781 5.66004 569.156 5.30871 569.63 5.05682C570.107 4.80492 570.643 4.67898 571.236 4.67898C571.832 4.67898 572.361 4.80492 572.822 5.05682C573.282 5.30871 573.644 5.64844 573.906 6.07599C574.167 6.50355 574.298 6.97917 574.298 7.50284C574.298 7.87737 574.23 8.24361 574.094 8.60156C573.962 8.9562 573.73 9.35227 573.398 9.78977C573.07 10.224 572.615 10.7543 572.031 11.3807L569.744 13.8267V13.9062H574.477V15H568.054ZM579.852 15.1392C579.103 15.1392 578.464 14.9354 577.938 14.5277C577.411 14.1167 577.008 13.5218 576.729 12.7429C576.451 11.9607 576.312 11.0161 576.312 9.90909C576.312 8.80871 576.451 7.86908 576.729 7.0902C577.011 6.308 577.415 5.71141 577.942 5.30043C578.473 4.88613 579.109 4.67898 579.852 4.67898C580.594 4.67898 581.229 4.88613 581.756 5.30043C582.286 5.71141 582.69 6.308 582.969 7.0902C583.25 7.86908 583.391 8.80871 583.391 9.90909C583.391 11.0161 583.252 11.9607 582.974 12.7429C582.695 13.5218 582.293 14.1167 581.766 14.5277C581.239 14.9354 580.601 15.1392 579.852 15.1392ZM579.852 14.0455C580.594 14.0455 581.171 13.6875 581.582 12.9716C581.993 12.2557 582.198 11.2348 582.198 9.90909C582.198 9.02746 582.104 8.27675 581.915 7.65696C581.729 7.03717 581.461 6.56487 581.109 6.24006C580.761 5.91525 580.342 5.75284 579.852 5.75284C579.116 5.75284 578.541 6.11577 578.126 6.84162C577.712 7.56416 577.505 8.58665 577.505 9.90909C577.505 10.7907 577.598 11.5398 577.783 12.1562C577.969 12.7727 578.236 13.2417 578.584 13.5632C578.935 13.8847 579.358 14.0455 579.852 14.0455ZM585.281 15V14.1051L588.641 10.4261C589.036 9.99526 589.361 9.62074 589.616 9.30256C589.871 8.98106 590.06 8.67945 590.183 8.39773C590.308 8.11269 590.371 7.81439 590.371 7.50284C590.371 7.14489 590.285 6.83499 590.113 6.57315C589.944 6.31132 589.712 6.10914 589.417 5.96662C589.122 5.8241 588.79 5.75284 588.423 5.75284C588.031 5.75284 587.69 5.83404 587.398 5.99645C587.11 6.15554 586.886 6.37926 586.727 6.66761C586.571 6.95597 586.494 7.29403 586.494 7.68182H585.32C585.32 7.08523 585.458 6.56155 585.733 6.1108C586.008 5.66004 586.383 5.30871 586.857 5.05682C587.334 4.80492 587.869 4.67898 588.462 4.67898C589.059 4.67898 589.588 4.80492 590.048 5.05682C590.509 5.30871 590.87 5.64844 591.132 6.07599C591.394 6.50355 591.525 6.97917 591.525 7.50284C591.525 7.87737 591.457 8.24361 591.321 8.60156C591.188 8.9562 590.956 9.35227 590.625 9.78977C590.297 10.224 589.841 10.7543 589.258 11.3807L586.971 13.8267V13.9062H591.704V15H585.281ZM596.939 15.1392C596.356 15.1392 595.83 15.0232 595.363 14.7912C594.896 14.5592 594.521 14.241 594.239 13.8366C593.958 13.4323 593.804 12.9716 593.777 12.4545H594.97C595.017 12.9152 595.225 13.2964 595.597 13.598C595.971 13.8963 596.419 14.0455 596.939 14.0455C597.357 14.0455 597.728 13.9477 598.053 13.7521C598.381 13.5566 598.638 13.2881 598.823 12.9467C599.012 12.602 599.107 12.2126 599.107 11.7784C599.107 11.3343 599.009 10.9382 598.813 10.5902C598.621 10.2389 598.356 9.96212 598.018 9.75994C597.68 9.55776 597.294 9.45502 596.859 9.4517C596.548 9.44839 596.228 9.49645 595.9 9.59588C595.572 9.692 595.302 9.81629 595.089 9.96875L593.936 9.82955L594.553 4.81818H599.842V5.91193H595.587L595.229 8.91477H595.288C595.497 8.74905 595.759 8.61151 596.074 8.50213C596.389 8.39276 596.717 8.33807 597.058 8.33807C597.681 8.33807 598.237 8.48722 598.724 8.78551C599.214 9.08049 599.599 9.48485 599.877 9.99858C600.159 10.5123 600.3 11.099 600.3 11.7585C600.3 12.4081 600.154 12.9882 599.862 13.4986C599.574 14.0057 599.176 14.4067 598.669 14.7017C598.162 14.9934 597.585 15.1392 596.939 15.1392Z" fill="#535862"/>
<circle cx="618" cy="10" r="4" fill="#84BDB9"/>
<path d="M631.054 15V14.1051L634.415 10.4261C634.809 9.99526 635.134 9.62074 635.389 9.30256C635.644 8.98106 635.833 8.67945 635.956 8.39773C636.082 8.11269 636.145 7.81439 636.145 7.50284C636.145 7.14489 636.059 6.83499 635.886 6.57315C635.717 6.31132 635.485 6.10914 635.19 5.96662C634.895 5.8241 634.564 5.75284 634.196 5.75284C633.805 5.75284 633.464 5.83404 633.172 5.99645C632.884 6.15554 632.66 6.37926 632.501 6.66761C632.345 6.95597 632.267 7.29403 632.267 7.68182H631.094C631.094 7.08523 631.231 6.56155 631.506 6.1108C631.781 5.66004 632.156 5.30871 632.63 5.05682C633.107 4.80492 633.643 4.67898 634.236 4.67898C634.832 4.67898 635.361 4.80492 635.822 5.05682C636.282 5.30871 636.644 5.64844 636.906 6.07599C637.167 6.50355 637.298 6.97917 637.298 7.50284C637.298 7.87737 637.23 8.24361 637.094 8.60156C636.962 8.9562 636.73 9.35227 636.398 9.78977C636.07 10.224 635.615 10.7543 635.031 11.3807L632.744 13.8267V13.9062H637.477V15H631.054ZM642.852 15.1392C642.103 15.1392 641.464 14.9354 640.938 14.5277C640.411 14.1167 640.008 13.5218 639.729 12.7429C639.451 11.9607 639.312 11.0161 639.312 9.90909C639.312 8.80871 639.451 7.86908 639.729 7.0902C640.011 6.308 640.415 5.71141 640.942 5.30043C641.473 4.88613 642.109 4.67898 642.852 4.67898C643.594 4.67898 644.229 4.88613 644.756 5.30043C645.286 5.71141 645.69 6.308 645.969 7.0902C646.25 7.86908 646.391 8.80871 646.391 9.90909C646.391 11.0161 646.252 11.9607 645.974 12.7429C645.695 13.5218 645.293 14.1167 644.766 14.5277C644.239 14.9354 643.601 15.1392 642.852 15.1392ZM642.852 14.0455C643.594 14.0455 644.171 13.6875 644.582 12.9716C644.993 12.2557 645.198 11.2348 645.198 9.90909C645.198 9.02746 645.104 8.27675 644.915 7.65696C644.729 7.03717 644.461 6.56487 644.109 6.24006C643.761 5.91525 643.342 5.75284 642.852 5.75284C642.116 5.75284 641.541 6.11577 641.126 6.84162C640.712 7.56416 640.505 8.58665 640.505 9.90909C640.505 10.7907 640.598 11.5398 640.783 12.1562C640.969 12.7727 641.236 13.2417 641.584 13.5632C641.935 13.8847 642.358 14.0455 642.852 14.0455ZM648.281 15V14.1051L651.641 10.4261C652.036 9.99526 652.361 9.62074 652.616 9.30256C652.871 8.98106 653.06 8.67945 653.183 8.39773C653.308 8.11269 653.371 7.81439 653.371 7.50284C653.371 7.14489 653.285 6.83499 653.113 6.57315C652.944 6.31132 652.712 6.10914 652.417 5.96662C652.122 5.8241 651.79 5.75284 651.423 5.75284C651.031 5.75284 650.69 5.83404 650.398 5.99645C650.11 6.15554 649.886 6.37926 649.727 6.66761C649.571 6.95597 649.494 7.29403 649.494 7.68182H648.32C648.32 7.08523 648.458 6.56155 648.733 6.1108C649.008 5.66004 649.383 5.30871 649.857 5.05682C650.334 4.80492 650.869 4.67898 651.462 4.67898C652.059 4.67898 652.588 4.80492 653.048 5.05682C653.509 5.30871 653.87 5.64844 654.132 6.07599C654.394 6.50355 654.525 6.97917 654.525 7.50284C654.525 7.87737 654.457 8.24361 654.321 8.60156C654.188 8.9562 653.956 9.35227 653.625 9.78977C653.297 10.224 652.841 10.7543 652.258 11.3807L649.971 13.8267V13.9062H654.704V15H648.281ZM656.3 12.9119V11.8977L660.774 4.81818H661.51V6.3892H661.013L657.632 11.7386V11.8182H663.658V12.9119H656.3ZM661.092 15V12.6037V12.1314V4.81818H662.266V15H661.092Z" fill="#535862"/>
<circle cx="681" cy="10" r="4" fill="#B5D8D5"/>
<path d="M694.054 15V14.1051L697.415 10.4261C697.809 9.99526 698.134 9.62074 698.389 9.30256C698.644 8.98106 698.833 8.67945 698.956 8.39773C699.082 8.11269 699.145 7.81439 699.145 7.50284C699.145 7.14489 699.059 6.83499 698.886 6.57315C698.717 6.31132 698.485 6.10914 698.19 5.96662C697.895 5.8241 697.564 5.75284 697.196 5.75284C696.805 5.75284 696.464 5.83404 696.172 5.99645C695.884 6.15554 695.66 6.37926 695.501 6.66761C695.345 6.95597 695.267 7.29403 695.267 7.68182H694.094C694.094 7.08523 694.231 6.56155 694.506 6.1108C694.781 5.66004 695.156 5.30871 695.63 5.05682C696.107 4.80492 696.643 4.67898 697.236 4.67898C697.832 4.67898 698.361 4.80492 698.822 5.05682C699.282 5.30871 699.644 5.64844 699.906 6.07599C700.167 6.50355 700.298 6.97917 700.298 7.50284C700.298 7.87737 700.23 8.24361 700.094 8.60156C699.962 8.9562 699.73 9.35227 699.398 9.78977C699.07 10.224 698.615 10.7543 698.031 11.3807L695.744 13.8267V13.9062H700.477V15H694.054ZM705.852 15.1392C705.103 15.1392 704.464 14.9354 703.938 14.5277C703.411 14.1167 703.008 13.5218 702.729 12.7429C702.451 11.9607 702.312 11.0161 702.312 9.90909C702.312 8.80871 702.451 7.86908 702.729 7.0902C703.011 6.308 703.415 5.71141 703.942 5.30043C704.473 4.88613 705.109 4.67898 705.852 4.67898C706.594 4.67898 707.229 4.88613 707.756 5.30043C708.286 5.71141 708.69 6.308 708.969 7.0902C709.25 7.86908 709.391 8.80871 709.391 9.90909C709.391 11.0161 709.252 11.9607 708.974 12.7429C708.695 13.5218 708.293 14.1167 707.766 14.5277C707.239 14.9354 706.601 15.1392 705.852 15.1392ZM705.852 14.0455C706.594 14.0455 707.171 13.6875 707.582 12.9716C707.993 12.2557 708.198 11.2348 708.198 9.90909C708.198 9.02746 708.104 8.27675 707.915 7.65696C707.729 7.03717 707.461 6.56487 707.109 6.24006C706.761 5.91525 706.342 5.75284 705.852 5.75284C705.116 5.75284 704.541 6.11577 704.126 6.84162C703.712 7.56416 703.505 8.58665 703.505 9.90909C703.505 10.7907 703.598 11.5398 703.783 12.1562C703.969 12.7727 704.236 13.2417 704.584 13.5632C704.935 13.8847 705.358 14.0455 705.852 14.0455ZM711.281 15V14.1051L714.641 10.4261C715.036 9.99526 715.361 9.62074 715.616 9.30256C715.871 8.98106 716.06 8.67945 716.183 8.39773C716.308 8.11269 716.371 7.81439 716.371 7.50284C716.371 7.14489 716.285 6.83499 716.113 6.57315C715.944 6.31132 715.712 6.10914 715.417 5.96662C715.122 5.8241 714.79 5.75284 714.423 5.75284C714.031 5.75284 713.69 5.83404 713.398 5.99645C713.11 6.15554 712.886 6.37926 712.727 6.66761C712.571 6.95597 712.494 7.29403 712.494 7.68182H711.32C711.32 7.08523 711.458 6.56155 711.733 6.1108C712.008 5.66004 712.383 5.30871 712.857 5.05682C713.334 4.80492 713.869 4.67898 714.462 4.67898C715.059 4.67898 715.588 4.80492 716.048 5.05682C716.509 5.30871 716.87 5.64844 717.132 6.07599C717.394 6.50355 717.525 6.97917 717.525 7.50284C717.525 7.87737 717.457 8.24361 717.321 8.60156C717.188 8.9562 716.956 9.35227 716.625 9.78977C716.297 10.224 715.841 10.7543 715.258 11.3807L712.971 13.8267V13.9062H717.704V15H711.281ZM723.197 15.1392C722.541 15.1392 721.956 15.0265 721.442 14.8011C720.932 14.5758 720.526 14.2625 720.224 13.8615C719.926 13.4571 719.764 12.9882 719.737 12.4545H720.99C721.017 12.7827 721.129 13.0661 721.328 13.3047C721.527 13.54 721.787 13.7223 722.109 13.8516C722.43 13.9808 722.786 14.0455 723.178 14.0455C723.615 14.0455 724.003 13.9692 724.341 13.8168C724.679 13.6643 724.944 13.4522 725.136 13.1804C725.329 12.9086 725.425 12.5938 725.425 12.2358C725.425 11.8613 725.332 11.5315 725.146 11.2464C724.961 10.9581 724.689 10.7327 724.331 10.5703C723.973 10.4079 723.536 10.3267 723.018 10.3267H722.203V9.23295H723.018C723.423 9.23295 723.777 9.16004 724.082 9.0142C724.391 8.86837 724.631 8.66288 724.803 8.39773C724.979 8.13258 725.067 7.82102 725.067 7.46307C725.067 7.11837 724.991 6.81842 724.838 6.56321C724.686 6.308 724.47 6.10914 724.192 5.96662C723.917 5.8241 723.592 5.75284 723.217 5.75284C722.866 5.75284 722.535 5.81747 722.223 5.94673C721.915 6.07268 721.663 6.25663 721.467 6.49858C721.272 6.73722 721.166 7.02557 721.149 7.36364H719.956C719.976 6.83002 720.137 6.36269 720.438 5.96165C720.74 5.55729 721.134 5.24242 721.621 5.01705C722.112 4.79167 722.651 4.67898 723.237 4.67898C723.867 4.67898 724.407 4.80658 724.858 5.06179C725.309 5.31368 725.655 5.64678 725.897 6.06108C726.139 6.47538 726.26 6.92282 726.26 7.40341C726.26 7.9768 726.109 8.46567 725.808 8.87003C725.509 9.27438 725.103 9.55445 724.589 9.71023V9.78977C725.232 9.89583 725.735 10.1693 726.096 10.6101C726.457 11.0476 726.638 11.5895 726.638 12.2358C726.638 12.7893 726.487 13.2865 726.185 13.7273C725.887 14.1648 725.479 14.5095 724.962 14.7614C724.445 15.0133 723.857 15.1392 723.197 15.1392Z" fill="#535862"/>
<path d="M13.3505 26.2727V35H12.2937V27.3807H12.2425L10.1119 28.7955V27.7216L12.2937 26.2727H13.3505ZM16.8619 33.8068L16.7937 34.267C16.7454 34.5909 16.6715 34.9375 16.5721 35.3068C16.4755 35.6761 16.3746 36.0241 16.2695 36.3509C16.1644 36.6776 16.0778 36.9375 16.0096 37.1307H15.2425C15.2795 36.9489 15.3278 36.7088 15.3874 36.4105C15.4471 36.1122 15.5067 35.7784 15.5664 35.4091C15.6289 35.0426 15.68 34.6676 15.7198 34.2841L15.771 33.8068H16.8619ZM21.25 35.1193C20.608 35.1193 20.0611 34.9446 19.6094 34.5952C19.1577 34.2429 18.8125 33.733 18.5739 33.0653C18.3352 32.3949 18.2159 31.5852 18.2159 30.6364C18.2159 29.6932 18.3352 28.8878 18.5739 28.2202C18.8153 27.5497 19.1619 27.0384 19.6136 26.6861C20.0682 26.331 20.6136 26.1534 21.25 26.1534C21.8864 26.1534 22.4304 26.331 22.8821 26.6861C23.3366 27.0384 23.6832 27.5497 23.9219 28.2202C24.1634 28.8878 24.2841 29.6932 24.2841 30.6364C24.2841 31.5852 24.1648 32.3949 23.9261 33.0653C23.6875 33.733 23.3423 34.2429 22.8906 34.5952C22.4389 34.9446 21.892 35.1193 21.25 35.1193ZM21.25 34.1818C21.8864 34.1818 22.3807 33.875 22.733 33.2614C23.0852 32.6477 23.2614 31.7727 23.2614 30.6364C23.2614 29.8807 23.1804 29.2372 23.0185 28.706C22.8594 28.1747 22.6293 27.7699 22.3281 27.4915C22.0298 27.2131 21.6705 27.0739 21.25 27.0739C20.6193 27.0739 20.1264 27.3849 19.7713 28.0071C19.4162 28.6264 19.2386 29.5028 19.2386 30.6364C19.2386 31.392 19.3182 32.0341 19.4773 32.5625C19.6364 33.0909 19.8651 33.4929 20.1634 33.7685C20.4645 34.044 20.8267 34.1818 21.25 34.1818ZM28.75 35.1193C28.108 35.1193 27.5611 34.9446 27.1094 34.5952C26.6577 34.2429 26.3125 33.733 26.0739 33.0653C25.8352 32.3949 25.7159 31.5852 25.7159 30.6364C25.7159 29.6932 25.8352 28.8878 26.0739 28.2202C26.3153 27.5497 26.6619 27.0384 27.1136 26.6861C27.5682 26.331 28.1136 26.1534 28.75 26.1534C29.3864 26.1534 29.9304 26.331 30.3821 26.6861C30.8366 27.0384 31.1832 27.5497 31.4219 28.2202C31.6634 28.8878 31.7841 29.6932 31.7841 30.6364C31.7841 31.5852 31.6648 32.3949 31.4261 33.0653C31.1875 33.733 30.8423 34.2429 30.3906 34.5952C29.9389 34.9446 29.392 35.1193 28.75 35.1193ZM28.75 34.1818C29.3864 34.1818 29.8807 33.875 30.233 33.2614C30.5852 32.6477 30.7614 31.7727 30.7614 30.6364C30.7614 29.8807 30.6804 29.2372 30.5185 28.706C30.3594 28.1747 30.1293 27.7699 29.8281 27.4915C29.5298 27.2131 29.1705 27.0739 28.75 27.0739C28.1193 27.0739 27.6264 27.3849 27.2713 28.0071C26.9162 28.6264 26.7386 29.5028 26.7386 30.6364C26.7386 31.392 26.8182 32.0341 26.9773 32.5625C27.1364 33.0909 27.3651 33.4929 27.6634 33.7685C27.9645 34.044 28.3267 34.1818 28.75 34.1818ZM36.25 35.1193C35.608 35.1193 35.0611 34.9446 34.6094 34.5952C34.1577 34.2429 33.8125 33.733 33.5739 33.0653C33.3352 32.3949 33.2159 31.5852 33.2159 30.6364C33.2159 29.6932 33.3352 28.8878 33.5739 28.2202C33.8153 27.5497 34.1619 27.0384 34.6136 26.6861C35.0682 26.331 35.6136 26.1534 36.25 26.1534C36.8864 26.1534 37.4304 26.331 37.8821 26.6861C38.3366 27.0384 38.6832 27.5497 38.9219 28.2202C39.1634 28.8878 39.2841 29.6932 39.2841 30.6364C39.2841 31.5852 39.1648 32.3949 38.9261 33.0653C38.6875 33.733 38.3423 34.2429 37.8906 34.5952C37.4389 34.9446 36.892 35.1193 36.25 35.1193ZM36.25 34.1818C36.8864 34.1818 37.3807 33.875 37.733 33.2614C38.0852 32.6477 38.2614 31.7727 38.2614 30.6364C38.2614 29.8807 38.1804 29.2372 38.0185 28.706C37.8594 28.1747 37.6293 27.7699 37.3281 27.4915C37.0298 27.2131 36.6705 27.0739 36.25 27.0739C35.6193 27.0739 35.1264 27.3849 34.7713 28.0071C34.4162 28.6264 34.2386 29.5028 34.2386 30.6364C34.2386 31.392 34.3182 32.0341 34.4773 32.5625C34.6364 33.0909 34.8651 33.4929 35.1634 33.7685C35.4645 34.044 35.8267 34.1818 36.25 34.1818Z" fill="#535862"/>
<line x1="48.5" y1="31" x2="727.5" y2="31" stroke="#F5F5F5" stroke-linecap="round"/>
<path d="M21.3043 73.6193C20.7191 73.6193 20.2021 73.5156 19.7532 73.3082C19.3072 73.098 18.9592 72.8097 18.7092 72.4432C18.4592 72.0739 18.3356 71.6534 18.3384 71.1818C18.3356 70.8125 18.408 70.4716 18.5558 70.1591C18.7035 69.8437 18.9052 69.581 19.1609 69.3707C19.4194 69.1577 19.7077 69.0227 20.0259 68.9659V68.9148C19.6083 68.8068 19.2759 68.5724 19.0288 68.2116C18.7816 67.848 18.6594 67.4347 18.6623 66.9716C18.6594 66.5284 18.7717 66.1321 18.9989 65.7827C19.2262 65.4332 19.5387 65.1577 19.9364 64.956C20.337 64.7543 20.793 64.6534 21.3043 64.6534C21.81 64.6534 22.2617 64.7543 22.6594 64.956C23.0572 65.1577 23.3697 65.4332 23.5969 65.7827C23.8271 66.1321 23.9435 66.5284 23.9464 66.9716C23.9435 67.4347 23.8171 67.848 23.5671 68.2116C23.32 68.5724 22.9918 68.8068 22.5827 68.9148V68.9659C22.8981 69.0227 23.1822 69.1577 23.435 69.3707C23.6879 69.581 23.8896 69.8437 24.0401 70.1591C24.1907 70.4716 24.2674 70.8125 24.2702 71.1818C24.2674 71.6534 24.1396 72.0739 23.8867 72.4432C23.6367 72.8097 23.2887 73.098 22.8427 73.3082C22.3995 73.5156 21.8867 73.6193 21.3043 73.6193ZM21.3043 72.6818C21.6992 72.6818 22.0401 72.6179 22.3271 72.4901C22.614 72.3622 22.8356 72.1818 22.9918 71.9489C23.1481 71.7159 23.2276 71.4432 23.2305 71.1307C23.2276 70.8011 23.1424 70.5099 22.9748 70.2571C22.8072 70.0043 22.5785 69.8054 22.2887 69.6605C22.0018 69.5156 21.6737 69.4432 21.3043 69.4432C20.9322 69.4432 20.5998 69.5156 20.3072 69.6605C20.0174 69.8054 19.7887 70.0043 19.6211 70.2571C19.4563 70.5099 19.3754 70.8011 19.3782 71.1307C19.3754 71.4432 19.4506 71.7159 19.604 71.9489C19.7603 72.1818 19.9833 72.3622 20.2731 72.4901C20.5629 72.6179 20.9066 72.6818 21.3043 72.6818ZM21.3043 68.5398C21.6168 68.5398 21.8938 68.4773 22.1353 68.3523C22.3796 68.2273 22.5714 68.0526 22.7106 67.8281C22.8498 67.6037 22.9208 67.3409 22.9237 67.0398C22.9208 66.7443 22.8512 66.4872 22.7148 66.2685C22.5785 66.0469 22.3896 65.8764 22.1481 65.7571C21.9066 65.6349 21.6254 65.5739 21.3043 65.5739C20.9776 65.5739 20.6921 65.6349 20.4478 65.7571C20.2035 65.8764 20.0146 66.0469 19.881 66.2685C19.7475 66.4872 19.6822 66.7443 19.685 67.0398C19.6822 67.3409 19.7489 67.6037 19.8853 67.8281C20.0245 68.0526 20.2163 68.2273 20.4606 68.3523C20.7049 68.4773 20.9862 68.5398 21.3043 68.5398ZM28.75 73.6193C28.108 73.6193 27.5611 73.4446 27.1094 73.0952C26.6577 72.7429 26.3125 72.233 26.0739 71.5653C25.8352 70.8949 25.7159 70.0852 25.7159 69.1364C25.7159 68.1932 25.8352 67.3878 26.0739 66.7202C26.3153 66.0497 26.6619 65.5384 27.1136 65.1861C27.5682 64.831 28.1136 64.6534 28.75 64.6534C29.3864 64.6534 29.9304 64.831 30.3821 65.1861C30.8366 65.5384 31.1832 66.0497 31.4219 66.7202C31.6634 67.3878 31.7841 68.1932 31.7841 69.1364C31.7841 70.0852 31.6648 70.8949 31.4261 71.5653C31.1875 72.233 30.8423 72.7429 30.3906 73.0952C29.9389 73.4446 29.392 73.6193 28.75 73.6193ZM28.75 72.6818C29.3864 72.6818 29.8807 72.375 30.233 71.7614C30.5852 71.1477 30.7614 70.2727 30.7614 69.1364C30.7614 68.3807 30.6804 67.7372 30.5185 67.206C30.3594 66.6747 30.1293 66.2699 29.8281 65.9915C29.5298 65.7131 29.1705 65.5739 28.75 65.5739C28.1193 65.5739 27.6264 65.8849 27.2713 66.5071C26.9162 67.1264 26.7386 68.0028 26.7386 69.1364C26.7386 69.892 26.8182 70.5341 26.9773 71.0625C27.1364 71.5909 27.3651 71.9929 27.6634 72.2685C27.9645 72.544 28.3267 72.6818 28.75 72.6818ZM36.25 73.6193C35.608 73.6193 35.0611 73.4446 34.6094 73.0952C34.1577 72.7429 33.8125 72.233 33.5739 71.5653C33.3352 70.8949 33.2159 70.0852 33.2159 69.1364C33.2159 68.1932 33.3352 67.3878 33.5739 66.7202C33.8153 66.0497 34.1619 65.5384 34.6136 65.1861C35.0682 64.831 35.6136 64.6534 36.25 64.6534C36.8864 64.6534 37.4304 64.831 37.8821 65.1861C38.3366 65.5384 38.6832 66.0497 38.9219 66.7202C39.1634 67.3878 39.2841 68.1932 39.2841 69.1364C39.2841 70.0852 39.1648 70.8949 38.9261 71.5653C38.6875 72.233 38.3423 72.7429 37.8906 73.0952C37.4389 73.4446 36.892 73.6193 36.25 73.6193ZM36.25 72.6818C36.8864 72.6818 37.3807 72.375 37.733 71.7614C38.0852 71.1477 38.2614 70.2727 38.2614 69.1364C38.2614 68.3807 38.1804 67.7372 38.0185 67.206C37.8594 66.6747 37.6293 66.2699 37.3281 65.9915C37.0298 65.7131 36.6705 65.5739 36.25 65.5739C35.6193 65.5739 35.1264 65.8849 34.7713 66.5071C34.4162 67.1264 34.2386 68.0028 34.2386 69.1364C34.2386 69.892 34.3182 70.5341 34.4773 71.0625C34.6364 71.5909 34.8651 71.9929 35.1634 72.2685C35.4645 72.544 35.8267 72.6818 36.25 72.6818Z" fill="#535862"/>
<line x1="48.5" y1="69.5" x2="727.5" y2="69.5" stroke="#F5F5F5" stroke-linecap="round"/>
<path d="M21.3129 109.619C20.9549 109.614 20.5969 109.545 20.239 109.415C19.881 109.284 19.5543 109.064 19.2589 108.754C18.9634 108.442 18.7262 108.02 18.5472 107.489C18.3683 106.955 18.2788 106.284 18.2788 105.477C18.2788 104.705 18.3512 104.02 18.4961 103.423C18.641 102.824 18.8512 102.32 19.1268 101.911C19.4023 101.499 19.7347 101.186 20.1239 100.973C20.516 100.76 20.9577 100.653 21.4492 100.653C21.9379 100.653 22.3725 100.751 22.7532 100.947C23.1367 101.141 23.4492 101.411 23.6907 101.757C23.9322 102.104 24.0884 102.503 24.1594 102.955H23.1197C23.0231 102.562 22.8356 102.237 22.5572 101.979C22.2788 101.72 21.9094 101.591 21.4492 101.591C20.7731 101.591 20.2404 101.885 19.8512 102.473C19.4648 103.061 19.2702 103.886 19.2674 104.949H19.3356C19.4947 104.707 19.6836 104.501 19.9023 104.331C20.1239 104.158 20.3683 104.024 20.6353 103.93C20.9023 103.837 21.185 103.79 21.4833 103.79C21.9833 103.79 22.4407 103.915 22.8555 104.165C23.2702 104.412 23.6026 104.754 23.8526 105.192C24.1026 105.626 24.2276 106.125 24.2276 106.688C24.2276 107.227 24.1069 107.722 23.8654 108.17C23.6239 108.616 23.2844 108.972 22.8469 109.236C22.4123 109.497 21.9009 109.625 21.3129 109.619ZM21.3129 108.682C21.6708 108.682 21.9918 108.592 22.2759 108.413C22.5629 108.234 22.7887 107.994 22.9535 107.693C23.1211 107.392 23.2049 107.057 23.2049 106.688C23.2049 106.327 23.1239 105.999 22.962 105.703C22.8029 105.405 22.5827 105.168 22.3015 104.991C22.0231 104.815 21.7049 104.727 21.3469 104.727C21.0771 104.727 20.8256 104.781 20.5927 104.889C20.3597 104.994 20.1552 105.139 19.979 105.324C19.8058 105.509 19.6694 105.72 19.57 105.959C19.4705 106.195 19.4208 106.443 19.4208 106.705C19.4208 107.051 19.5018 107.375 19.6637 107.676C19.8285 107.977 20.0529 108.22 20.337 108.405C20.6239 108.589 20.9492 108.682 21.3129 108.682ZM28.75 109.619C28.108 109.619 27.5611 109.445 27.1094 109.095C26.6577 108.743 26.3125 108.233 26.0739 107.565C25.8352 106.895 25.7159 106.085 25.7159 105.136C25.7159 104.193 25.8352 103.388 26.0739 102.72C26.3153 102.05 26.6619 101.538 27.1136 101.186C27.5682 100.831 28.1136 100.653 28.75 100.653C29.3864 100.653 29.9304 100.831 30.3821 101.186C30.8366 101.538 31.1832 102.05 31.4219 102.72C31.6634 103.388 31.7841 104.193 31.7841 105.136C31.7841 106.085 31.6648 106.895 31.4261 107.565C31.1875 108.233 30.8423 108.743 30.3906 109.095C29.9389 109.445 29.392 109.619 28.75 109.619ZM28.75 108.682C29.3864 108.682 29.8807 108.375 30.233 107.761C30.5852 107.148 30.7614 106.273 30.7614 105.136C30.7614 104.381 30.6804 103.737 30.5185 103.206C30.3594 102.675 30.1293 102.27 29.8281 101.991C29.5298 101.713 29.1705 101.574 28.75 101.574C28.1193 101.574 27.6264 101.885 27.2713 102.507C26.9162 103.126 26.7386 104.003 26.7386 105.136C26.7386 105.892 26.8182 106.534 26.9773 107.062C27.1364 107.591 27.3651 107.993 27.6634 108.268C27.9645 108.544 28.3267 108.682 28.75 108.682ZM36.25 109.619C35.608 109.619 35.0611 109.445 34.6094 109.095C34.1577 108.743 33.8125 108.233 33.5739 107.565C33.3352 106.895 33.2159 106.085 33.2159 105.136C33.2159 104.193 33.3352 103.388 33.5739 102.72C33.8153 102.05 34.1619 101.538 34.6136 101.186C35.0682 100.831 35.6136 100.653 36.25 100.653C36.8864 100.653 37.4304 100.831 37.8821 101.186C38.3366 101.538 38.6832 102.05 38.9219 102.72C39.1634 103.388 39.2841 104.193 39.2841 105.136C39.2841 106.085 39.1648 106.895 38.9261 107.565C38.6875 108.233 38.3423 108.743 37.8906 109.095C37.4389 109.445 36.892 109.619 36.25 109.619ZM36.25 108.682C36.8864 108.682 37.3807 108.375 37.733 107.761C38.0852 107.148 38.2614 106.273 38.2614 105.136C38.2614 104.381 38.1804 103.737 38.0185 103.206C37.8594 102.675 37.6293 102.27 37.3281 101.991C37.0298 101.713 36.6705 101.574 36.25 101.574C35.6193 101.574 35.1264 101.885 34.7713 102.507C34.4162 103.126 34.2386 104.003 34.2386 105.136C34.2386 105.892 34.3182 106.534 34.4773 107.062C34.6364 107.591 34.8651 107.993 35.1634 108.268C35.4645 108.544 35.8267 108.682 36.25 108.682Z" fill="#535862"/>
<line x1="48.5" y1="105.5" x2="727.5" y2="105.5" stroke="#F5F5F5" stroke-linecap="round"/>
<path d="M17.9996 143.71V142.841L21.8349 136.773H22.4656V138.119H22.0394L19.1417 142.705V142.773H24.3065V143.71H17.9996ZM22.1076 145.5V143.446V143.041V136.773H23.1133V145.5H22.1076ZM28.75 145.619C28.108 145.619 27.5611 145.445 27.1094 145.095C26.6577 144.743 26.3125 144.233 26.0739 143.565C25.8352 142.895 25.7159 142.085 25.7159 141.136C25.7159 140.193 25.8352 139.388 26.0739 138.72C26.3153 138.05 26.6619 137.538 27.1136 137.186C27.5682 136.831 28.1136 136.653 28.75 136.653C29.3864 136.653 29.9304 136.831 30.3821 137.186C30.8366 137.538 31.1832 138.05 31.4219 138.72C31.6634 139.388 31.7841 140.193 31.7841 141.136C31.7841 142.085 31.6648 142.895 31.4261 143.565C31.1875 144.233 30.8423 144.743 30.3906 145.095C29.9389 145.445 29.392 145.619 28.75 145.619ZM28.75 144.682C29.3864 144.682 29.8807 144.375 30.233 143.761C30.5852 143.148 30.7614 142.273 30.7614 141.136C30.7614 140.381 30.6804 139.737 30.5185 139.206C30.3594 138.675 30.1293 138.27 29.8281 137.991C29.5298 137.713 29.1705 137.574 28.75 137.574C28.1193 137.574 27.6264 137.885 27.2713 138.507C26.9162 139.126 26.7386 140.003 26.7386 141.136C26.7386 141.892 26.8182 142.534 26.9773 143.062C27.1364 143.591 27.3651 143.993 27.6634 144.268C27.9645 144.544 28.3267 144.682 28.75 144.682ZM36.25 145.619C35.608 145.619 35.0611 145.445 34.6094 145.095C34.1577 144.743 33.8125 144.233 33.5739 143.565C33.3352 142.895 33.2159 142.085 33.2159 141.136C33.2159 140.193 33.3352 139.388 33.5739 138.72C33.8153 138.05 34.1619 137.538 34.6136 137.186C35.0682 136.831 35.6136 136.653 36.25 136.653C36.8864 136.653 37.4304 136.831 37.8821 137.186C38.3366 137.538 38.6832 138.05 38.9219 138.72C39.1634 139.388 39.2841 140.193 39.2841 141.136C39.2841 142.085 39.1648 142.895 38.9261 143.565C38.6875 144.233 38.3423 144.743 37.8906 145.095C37.4389 145.445 36.892 145.619 36.25 145.619ZM36.25 144.682C36.8864 144.682 37.3807 144.375 37.733 143.761C38.0852 143.148 38.2614 142.273 38.2614 141.136C38.2614 140.381 38.1804 139.737 38.0185 139.206C37.8594 138.675 37.6293 138.27 37.3281 137.991C37.0298 137.713 36.6705 137.574 36.25 137.574C35.6193 137.574 35.1264 137.885 34.7713 138.507C34.4162 139.126 34.2386 140.003 34.2386 141.136C34.2386 141.892 34.3182 142.534 34.4773 143.062C34.6364 143.591 34.8651 143.993 35.1634 144.268C35.4645 144.544 35.8267 144.682 36.25 144.682Z" fill="#535862"/>
<line x1="48.5" y1="141.5" x2="727.5" y2="141.5" stroke="#F5F5F5" stroke-linecap="round"/>
<path d="M18.6378 181.5V180.733L21.5185 177.58C21.8565 177.21 22.1349 176.889 22.3537 176.616C22.5724 176.341 22.7344 176.082 22.8395 175.841C22.9474 175.597 23.0014 175.341 23.0014 175.074C23.0014 174.767 22.9276 174.501 22.7798 174.277C22.6349 174.053 22.4361 173.879 22.1832 173.757C21.9304 173.635 21.6463 173.574 21.331 173.574C20.9957 173.574 20.7031 173.643 20.4531 173.783C20.206 173.919 20.0142 174.111 19.8778 174.358C19.7443 174.605 19.6776 174.895 19.6776 175.227H18.6719C18.6719 174.716 18.7898 174.267 19.0256 173.881C19.2614 173.494 19.5824 173.193 19.9886 172.977C20.3977 172.761 20.8565 172.653 21.3651 172.653C21.8764 172.653 22.3295 172.761 22.7244 172.977C23.1193 173.193 23.429 173.484 23.6534 173.851C23.8778 174.217 23.9901 174.625 23.9901 175.074C23.9901 175.395 23.9318 175.709 23.8153 176.016C23.7017 176.32 23.5028 176.659 23.2188 177.034C22.9375 177.406 22.5469 177.861 22.0469 178.398L20.0866 180.494V180.562H24.1435V181.5H18.6378ZM28.75 181.619C28.108 181.619 27.5611 181.445 27.1094 181.095C26.6577 180.743 26.3125 180.233 26.0739 179.565C25.8352 178.895 25.7159 178.085 25.7159 177.136C25.7159 176.193 25.8352 175.388 26.0739 174.72C26.3153 174.05 26.6619 173.538 27.1136 173.186C27.5682 172.831 28.1136 172.653 28.75 172.653C29.3864 172.653 29.9304 172.831 30.3821 173.186C30.8366 173.538 31.1832 174.05 31.4219 174.72C31.6634 175.388 31.7841 176.193 31.7841 177.136C31.7841 178.085 31.6648 178.895 31.4261 179.565C31.1875 180.233 30.8423 180.743 30.3906 181.095C29.9389 181.445 29.392 181.619 28.75 181.619ZM28.75 180.682C29.3864 180.682 29.8807 180.375 30.233 179.761C30.5852 179.148 30.7614 178.273 30.7614 177.136C30.7614 176.381 30.6804 175.737 30.5185 175.206C30.3594 174.675 30.1293 174.27 29.8281 173.991C29.5298 173.713 29.1705 173.574 28.75 173.574C28.1193 173.574 27.6264 173.885 27.2713 174.507C26.9162 175.126 26.7386 176.003 26.7386 177.136C26.7386 177.892 26.8182 178.534 26.9773 179.062C27.1364 179.591 27.3651 179.993 27.6634 180.268C27.9645 180.544 28.3267 180.682 28.75 180.682ZM36.25 181.619C35.608 181.619 35.0611 181.445 34.6094 181.095C34.1577 180.743 33.8125 180.233 33.5739 179.565C33.3352 178.895 33.2159 178.085 33.2159 177.136C33.2159 176.193 33.3352 175.388 33.5739 174.72C33.8153 174.05 34.1619 173.538 34.6136 173.186C35.0682 172.831 35.6136 172.653 36.25 172.653C36.8864 172.653 37.4304 172.831 37.8821 173.186C38.3366 173.538 38.6832 174.05 38.9219 174.72C39.1634 175.388 39.2841 176.193 39.2841 177.136C39.2841 178.085 39.1648 178.895 38.9261 179.565C38.6875 180.233 38.3423 180.743 37.8906 181.095C37.4389 181.445 36.892 181.619 36.25 181.619ZM36.25 180.682C36.8864 180.682 37.3807 180.375 37.733 179.761C38.0852 179.148 38.2614 178.273 38.2614 177.136C38.2614 176.381 38.1804 175.737 38.0185 175.206C37.8594 174.675 37.6293 174.27 37.3281 173.991C37.0298 173.713 36.6705 173.574 36.25 173.574C35.6193 173.574 35.1264 173.885 34.7713 174.507C34.4162 175.126 34.2386 176.003 34.2386 177.136C34.2386 177.892 34.3182 178.534 34.4773 179.062C34.6364 179.591 34.8651 179.993 35.1634 180.268C35.4645 180.544 35.8267 180.682 36.25 180.682Z" fill="#535862"/>
<line x1="48.5" y1="177.5" x2="727.5" y2="177.5" stroke="#F5F5F5" stroke-linecap="round"/>
<path d="M36.25 217.619C35.608 217.619 35.0611 217.445 34.6094 217.095C34.1577 216.743 33.8125 216.233 33.5739 215.565C33.3352 214.895 33.2159 214.085 33.2159 213.136C33.2159 212.193 33.3352 211.388 33.5739 210.72C33.8153 210.05 34.1619 209.538 34.6136 209.186C35.0682 208.831 35.6136 208.653 36.25 208.653C36.8864 208.653 37.4304 208.831 37.8821 209.186C38.3366 209.538 38.6832 210.05 38.9219 210.72C39.1634 211.388 39.2841 212.193 39.2841 213.136C39.2841 214.085 39.1648 214.895 38.9261 215.565C38.6875 216.233 38.3423 216.743 37.8906 217.095C37.4389 217.445 36.892 217.619 36.25 217.619ZM36.25 216.682C36.8864 216.682 37.3807 216.375 37.733 215.761C38.0852 215.148 38.2614 214.273 38.2614 213.136C38.2614 212.381 38.1804 211.737 38.0185 211.206C37.8594 210.675 37.6293 210.27 37.3281 209.991C37.0298 209.713 36.6705 209.574 36.25 209.574C35.6193 209.574 35.1264 209.885 34.7713 210.507C34.4162 211.126 34.2386 212.003 34.2386 213.136C34.2386 213.892 34.3182 214.534 34.4773 215.062C34.6364 215.591 34.8651 215.993 35.1634 216.268C35.4645 216.544 35.8267 216.682 36.25 216.682Z" fill="#535862"/>
<line x1="48.5" y1="213.5" x2="727.5" y2="213.5" stroke="#F5F5F5" stroke-linecap="round"/>
<path d="M68.7493 226.273H69.8061V232.511C69.8061 233.068 69.7038 233.541 69.4993 233.93C69.2947 234.32 69.0064 234.615 68.6342 234.817C68.2621 235.018 67.8232 235.119 67.3175 235.119C66.8402 235.119 66.4155 235.033 66.0433 234.859C65.6712 234.683 65.3786 234.433 65.1655 234.109C64.9524 233.786 64.8459 233.401 64.8459 232.955H65.8857C65.8857 233.202 65.9467 233.418 66.0689 233.602C66.1939 233.784 66.3643 233.926 66.5803 234.028C66.7962 234.131 67.0419 234.182 67.3175 234.182C67.6214 234.182 67.88 234.118 68.093 233.99C68.3061 233.862 68.468 233.675 68.5788 233.428C68.6925 233.178 68.7493 232.872 68.7493 232.511V226.273ZM73.7138 235.153C73.299 235.153 72.9226 235.075 72.5845 234.919C72.2464 234.76 71.978 234.531 71.7791 234.233C71.5803 233.932 71.4808 233.568 71.4808 233.142C71.4808 232.767 71.5547 232.463 71.7024 232.23C71.8501 231.994 72.0476 231.81 72.2947 231.676C72.5419 231.543 72.8146 231.443 73.1129 231.378C73.4141 231.31 73.7166 231.256 74.0206 231.216C74.4183 231.165 74.7408 231.126 74.9879 231.101C75.2379 231.072 75.4197 231.026 75.5334 230.96C75.6499 230.895 75.7081 230.781 75.7081 230.619V230.585C75.7081 230.165 75.593 229.838 75.3629 229.605C75.1357 229.372 74.7905 229.256 74.3274 229.256C73.8473 229.256 73.4709 229.361 73.1982 229.571C72.9254 229.781 72.7337 230.006 72.6229 230.244L71.6683 229.903C71.8388 229.506 72.0661 229.196 72.3501 228.974C72.6371 228.75 72.9496 228.594 73.2876 228.506C73.6286 228.415 73.9638 228.369 74.2933 228.369C74.5036 228.369 74.745 228.395 75.0178 228.446C75.2933 228.494 75.5589 228.595 75.8146 228.749C76.0732 228.902 76.2876 229.134 76.4581 229.443C76.6286 229.753 76.7138 230.168 76.7138 230.688V235H75.7081V234.114H75.657C75.5888 234.256 75.4751 234.408 75.3161 234.57C75.157 234.732 74.9453 234.869 74.6811 234.983C74.4169 235.097 74.0945 235.153 73.7138 235.153ZM73.8672 234.25C74.2649 234.25 74.6001 234.172 74.8729 234.016C75.1484 233.859 75.3558 233.658 75.495 233.411C75.6371 233.163 75.7081 232.903 75.7081 232.631V231.71C75.6655 231.761 75.5717 231.808 75.4268 231.851C75.2848 231.891 75.12 231.926 74.9325 231.957C74.7479 231.986 74.5675 232.011 74.3913 232.034C74.218 232.054 74.0774 232.071 73.9695 232.085C73.7081 232.119 73.4638 232.175 73.2365 232.251C73.0121 232.325 72.8303 232.437 72.6911 232.588C72.5547 232.736 72.4865 232.937 72.4865 233.193C72.4865 233.543 72.6158 233.807 72.8743 233.986C73.1357 234.162 73.4666 234.25 73.8672 234.25ZM79.555 231.062V235H78.5494V228.455H79.521V229.477H79.6062C79.7596 229.145 79.9925 228.878 80.305 228.676C80.6175 228.472 81.021 228.369 81.5153 228.369C81.9585 228.369 82.3462 228.46 82.6786 228.642C83.011 228.821 83.2695 229.094 83.4542 229.46C83.6388 229.824 83.7312 230.284 83.7312 230.841V235H82.7255V230.909C82.7255 230.395 82.592 229.994 82.3249 229.707C82.0579 229.418 81.6914 229.273 81.2255 229.273C80.9045 229.273 80.6175 229.342 80.3647 229.482C80.1147 229.621 79.9173 229.824 79.7724 230.091C79.6275 230.358 79.555 230.682 79.555 231.062Z" fill="#535862"/>
<path d="M120.784 235V226.273H126.017V227.21H121.841V230.159H125.625V231.097H121.841V235H120.784ZM129.955 235.136C129.324 235.136 128.78 234.997 128.322 234.719C127.868 234.438 127.517 234.045 127.27 233.543C127.026 233.037 126.903 232.449 126.903 231.778C126.903 231.108 127.026 230.517 127.27 230.006C127.517 229.491 127.861 229.091 128.301 228.804C128.744 228.514 129.261 228.369 129.852 228.369C130.193 228.369 130.53 228.426 130.862 228.54C131.195 228.653 131.497 228.838 131.77 229.094C132.043 229.347 132.26 229.682 132.422 230.099C132.584 230.517 132.665 231.031 132.665 231.642V232.068H127.619V231.199H131.642C131.642 230.83 131.568 230.5 131.42 230.21C131.276 229.92 131.068 229.692 130.798 229.524C130.531 229.357 130.216 229.273 129.852 229.273C129.452 229.273 129.105 229.372 128.813 229.571C128.523 229.767 128.3 230.023 128.143 230.338C127.987 230.653 127.909 230.991 127.909 231.352V231.932C127.909 232.426 127.994 232.845 128.165 233.189C128.338 233.53 128.578 233.79 128.885 233.969C129.192 234.145 129.548 234.233 129.955 234.233C130.219 234.233 130.457 234.196 130.67 234.122C130.886 234.045 131.072 233.932 131.229 233.781C131.385 233.628 131.506 233.437 131.591 233.21L132.563 233.483C132.46 233.812 132.288 234.102 132.047 234.352C131.805 234.599 131.507 234.793 131.152 234.932C130.797 235.068 130.398 235.136 129.955 235.136ZM134.331 235V226.273H135.337V229.494H135.422C135.496 229.381 135.598 229.236 135.729 229.06C135.862 228.881 136.053 228.722 136.3 228.582C136.55 228.44 136.888 228.369 137.314 228.369C137.865 228.369 138.351 228.507 138.771 228.783C139.192 229.058 139.52 229.449 139.756 229.955C139.991 230.46 140.109 231.057 140.109 231.744C140.109 232.438 139.991 233.038 139.756 233.547C139.52 234.053 139.193 234.445 138.776 234.723C138.358 234.999 137.876 235.136 137.331 235.136C136.911 235.136 136.574 235.067 136.321 234.928C136.068 234.786 135.874 234.625 135.737 234.446C135.601 234.264 135.496 234.114 135.422 233.994H135.303V235H134.331ZM135.32 231.727C135.32 232.222 135.392 232.658 135.537 233.036C135.682 233.411 135.893 233.705 136.172 233.918C136.45 234.128 136.791 234.233 137.195 234.233C137.615 234.233 137.966 234.122 138.247 233.901C138.531 233.676 138.744 233.375 138.886 232.997C139.031 232.616 139.104 232.193 139.104 231.727C139.104 231.267 139.033 230.852 138.891 230.483C138.751 230.111 138.54 229.817 138.256 229.601C137.974 229.382 137.621 229.273 137.195 229.273C136.786 229.273 136.442 229.376 136.163 229.584C135.885 229.788 135.675 230.075 135.533 230.445C135.391 230.811 135.32 231.239 135.32 231.727Z" fill="#535862"/>
<path d="M176.56 226.273H177.822L180.788 233.517H180.89L183.856 226.273H185.117V235H184.128V228.369H184.043L181.316 235H180.361L177.634 228.369H177.549V235H176.56V226.273ZM189.026 235.153C188.611 235.153 188.235 235.075 187.897 234.919C187.558 234.76 187.29 234.531 187.091 234.233C186.892 233.932 186.793 233.568 186.793 233.142C186.793 232.767 186.867 232.463 187.014 232.23C187.162 231.994 187.36 231.81 187.607 231.676C187.854 231.543 188.127 231.443 188.425 231.378C188.726 231.31 189.029 231.256 189.333 231.216C189.73 231.165 190.053 231.126 190.3 231.101C190.55 231.072 190.732 231.026 190.845 230.96C190.962 230.895 191.02 230.781 191.02 230.619V230.585C191.02 230.165 190.905 229.838 190.675 229.605C190.448 229.372 190.102 229.256 189.639 229.256C189.159 229.256 188.783 229.361 188.51 229.571C188.237 229.781 188.046 230.006 187.935 230.244L186.98 229.903C187.151 229.506 187.378 229.196 187.662 228.974C187.949 228.75 188.262 228.594 188.6 228.506C188.941 228.415 189.276 228.369 189.605 228.369C189.816 228.369 190.057 228.395 190.33 228.446C190.605 228.494 190.871 228.595 191.127 228.749C191.385 228.902 191.6 229.134 191.77 229.443C191.941 229.753 192.026 230.168 192.026 230.688V235H191.02V234.114H190.969C190.901 234.256 190.787 234.408 190.628 234.57C190.469 234.732 190.257 234.869 189.993 234.983C189.729 235.097 189.406 235.153 189.026 235.153ZM189.179 234.25C189.577 234.25 189.912 234.172 190.185 234.016C190.46 233.859 190.668 233.658 190.807 233.411C190.949 233.163 191.02 232.903 191.02 232.631V231.71C190.977 231.761 190.884 231.808 190.739 231.851C190.597 231.891 190.432 231.926 190.245 231.957C190.06 231.986 189.879 232.011 189.703 232.034C189.53 232.054 189.389 232.071 189.281 232.085C189.02 232.119 188.776 232.175 188.549 232.251C188.324 232.325 188.142 232.437 188.003 232.588C187.867 232.736 187.799 232.937 187.799 233.193C187.799 233.543 187.928 233.807 188.186 233.986C188.448 234.162 188.779 234.25 189.179 234.25ZM193.861 235V228.455H194.833V229.443H194.901C195.02 229.119 195.236 228.857 195.549 228.655C195.861 228.453 196.214 228.352 196.606 228.352C196.68 228.352 196.772 228.354 196.883 228.357C196.993 228.359 197.077 228.364 197.134 228.369V229.392C197.1 229.384 197.022 229.371 196.9 229.354C196.78 229.334 196.654 229.324 196.52 229.324C196.202 229.324 195.918 229.391 195.668 229.524C195.421 229.655 195.225 229.837 195.08 230.07C194.938 230.3 194.867 230.562 194.867 230.858V235H193.861Z" fill="#535862"/>
<path d="M233.653 235H232.545L235.75 226.273H236.841L240.045 235H238.937L236.329 227.653H236.261L233.653 235ZM234.062 231.591H238.528V232.528H234.062V231.591ZM241.268 237.455V228.455H242.24V229.494H242.359C242.433 229.381 242.535 229.236 242.666 229.06C242.8 228.881 242.99 228.722 243.237 228.582C243.487 228.44 243.825 228.369 244.251 228.369C244.802 228.369 245.288 228.507 245.709 228.783C246.129 229.058 246.457 229.449 246.693 229.955C246.929 230.46 247.047 231.057 247.047 231.744C247.047 232.438 246.929 233.038 246.693 233.547C246.457 234.053 246.131 234.445 245.713 234.723C245.295 234.999 244.814 235.136 244.268 235.136C243.848 235.136 243.511 235.067 243.258 234.928C243.006 234.786 242.811 234.625 242.675 234.446C242.538 234.264 242.433 234.114 242.359 233.994H242.274V237.455H241.268ZM242.257 231.727C242.257 232.222 242.329 232.658 242.474 233.036C242.619 233.411 242.831 233.705 243.109 233.918C243.388 234.128 243.729 234.233 244.132 234.233C244.552 234.233 244.903 234.122 245.185 233.901C245.469 233.676 245.682 233.375 245.824 232.997C245.969 232.616 246.041 232.193 246.041 231.727C246.041 231.267 245.97 230.852 245.828 230.483C245.689 230.111 245.477 229.817 245.193 229.601C244.912 229.382 244.558 229.273 244.132 229.273C243.723 229.273 243.379 229.376 243.101 229.584C242.822 229.788 242.612 230.075 242.47 230.445C242.328 230.811 242.257 231.239 242.257 231.727ZM248.581 235V228.455H249.552V229.443H249.621C249.74 229.119 249.956 228.857 250.268 228.655C250.581 228.453 250.933 228.352 251.325 228.352C251.399 228.352 251.491 228.354 251.602 228.357C251.713 228.359 251.797 228.364 251.854 228.369V229.392C251.819 229.384 251.741 229.371 251.619 229.354C251.5 229.334 251.373 229.324 251.24 229.324C250.922 229.324 250.638 229.391 250.388 229.524C250.141 229.655 249.944 229.837 249.8 230.07C249.658 230.3 249.587 230.562 249.587 230.858V235H248.581Z" fill="#535862"/>
<path d="M288.025 226.273H289.286L292.252 233.517H292.354L295.32 226.273H296.581V235H295.593V228.369H295.508L292.78 235H291.826L289.098 228.369H289.013V235H288.025V226.273ZM300.49 235.153C300.075 235.153 299.699 235.075 299.361 234.919C299.023 234.76 298.754 234.531 298.555 234.233C298.357 233.932 298.257 233.568 298.257 233.142C298.257 232.767 298.331 232.463 298.479 232.23C298.627 231.994 298.824 231.81 299.071 231.676C299.318 231.543 299.591 231.443 299.889 231.378C300.19 231.31 300.493 231.256 300.797 231.216C301.195 231.165 301.517 231.126 301.764 231.101C302.014 231.072 302.196 231.026 302.31 230.96C302.426 230.895 302.484 230.781 302.484 230.619V230.585C302.484 230.165 302.369 229.838 302.139 229.605C301.912 229.372 301.567 229.256 301.104 229.256C300.624 229.256 300.247 229.361 299.975 229.571C299.702 229.781 299.51 230.006 299.399 230.244L298.445 229.903C298.615 229.506 298.842 229.196 299.127 228.974C299.413 228.75 299.726 228.594 300.064 228.506C300.405 228.415 300.74 228.369 301.07 228.369C301.28 228.369 301.521 228.395 301.794 228.446C302.07 228.494 302.335 228.595 302.591 228.749C302.85 228.902 303.064 229.134 303.234 229.443C303.405 229.753 303.49 230.168 303.49 230.688V235H302.484V234.114H302.433C302.365 234.256 302.252 234.408 302.092 234.57C301.933 234.732 301.722 234.869 301.457 234.983C301.193 235.097 300.871 235.153 300.49 235.153ZM300.644 234.25C301.041 234.25 301.377 234.172 301.649 234.016C301.925 233.859 302.132 233.658 302.271 233.411C302.413 233.163 302.484 232.903 302.484 232.631V231.71C302.442 231.761 302.348 231.808 302.203 231.851C302.061 231.891 301.896 231.926 301.709 231.957C301.524 231.986 301.344 232.011 301.168 232.034C300.994 232.054 300.854 232.071 300.746 232.085C300.484 232.119 300.24 232.175 300.013 232.251C299.788 232.325 299.607 232.437 299.467 232.588C299.331 232.736 299.263 232.937 299.263 233.193C299.263 233.543 299.392 233.807 299.651 233.986C299.912 234.162 300.243 234.25 300.644 234.25ZM305.739 237.455C305.569 237.455 305.417 237.44 305.283 237.412C305.15 237.386 305.057 237.361 305.006 237.335L305.262 236.449C305.506 236.511 305.722 236.534 305.91 236.517C306.097 236.5 306.263 236.416 306.408 236.266C306.556 236.118 306.691 235.878 306.813 235.545L307 235.034L304.58 228.455H305.671L307.478 233.67H307.546L309.353 228.455H310.444L307.665 235.955C307.54 236.293 307.385 236.572 307.201 236.794C307.016 237.018 306.802 237.185 306.557 237.293C306.316 237.401 306.043 237.455 305.739 237.455Z" fill="#535862"/>
<path d="M350.28 226.273H351.337V232.511C351.337 233.068 351.235 233.541 351.03 233.93C350.826 234.32 350.537 234.615 350.165 234.817C349.793 235.018 349.354 235.119 348.848 235.119C348.371 235.119 347.946 235.033 347.574 234.859C347.202 234.683 346.909 234.433 346.696 234.109C346.483 233.786 346.377 233.401 346.377 232.955H347.416C347.416 233.202 347.477 233.418 347.6 233.602C347.725 233.784 347.895 233.926 348.111 234.028C348.327 234.131 348.573 234.182 348.848 234.182C349.152 234.182 349.411 234.118 349.624 233.99C349.837 233.862 349.999 233.675 350.11 233.428C350.223 233.178 350.28 232.872 350.28 232.511V226.273ZM357.443 232.324V228.455H358.449V235H357.443V233.892H357.375C357.222 234.224 356.983 234.507 356.659 234.74C356.335 234.97 355.926 235.085 355.432 235.085C355.023 235.085 354.659 234.996 354.341 234.817C354.023 234.635 353.773 234.362 353.591 233.999C353.409 233.632 353.318 233.17 353.318 232.614V228.455H354.324V232.545C354.324 233.023 354.458 233.403 354.725 233.688C354.995 233.972 355.338 234.114 355.756 234.114C356.006 234.114 356.26 234.05 356.519 233.922C356.78 233.794 356.999 233.598 357.175 233.334C357.354 233.07 357.443 232.733 357.443 232.324ZM361.297 231.062V235H360.291V228.455H361.263V229.477H361.348C361.501 229.145 361.734 228.878 362.047 228.676C362.359 228.472 362.763 228.369 363.257 228.369C363.7 228.369 364.088 228.46 364.42 228.642C364.753 228.821 365.011 229.094 365.196 229.46C365.381 229.824 365.473 230.284 365.473 230.841V235H364.467V230.909C364.467 230.395 364.334 229.994 364.067 229.707C363.8 229.418 363.433 229.273 362.967 229.273C362.646 229.273 362.359 229.342 362.106 229.482C361.856 229.621 361.659 229.824 361.514 230.091C361.369 230.358 361.297 230.682 361.297 231.062Z" fill="#535862"/>
<path d="M406.093 226.273H407.15V232.511C407.15 233.068 407.048 233.541 406.843 233.93C406.639 234.32 406.35 234.615 405.978 234.817C405.606 235.018 405.167 235.119 404.661 235.119C404.184 235.119 403.759 235.033 403.387 234.859C403.015 234.683 402.723 234.433 402.509 234.109C402.296 233.786 402.19 233.401 402.19 232.955H403.23C403.23 233.202 403.291 233.418 403.413 233.602C403.538 233.784 403.708 233.926 403.924 234.028C404.14 234.131 404.386 234.182 404.661 234.182C404.965 234.182 405.224 234.118 405.437 233.99C405.65 233.862 405.812 233.675 405.923 233.428C406.036 233.178 406.093 232.872 406.093 232.511V226.273ZM413.257 232.324V228.455H414.262V235H413.257V233.892H413.188C413.035 234.224 412.796 234.507 412.473 234.74C412.149 234.97 411.74 235.085 411.245 235.085C410.836 235.085 410.473 234.996 410.154 234.817C409.836 234.635 409.586 234.362 409.404 233.999C409.223 233.632 409.132 233.17 409.132 232.614V228.455H410.137V232.545C410.137 233.023 410.271 233.403 410.538 233.688C410.808 233.972 411.152 234.114 411.569 234.114C411.819 234.114 412.073 234.05 412.332 233.922C412.593 233.794 412.812 233.598 412.988 233.334C413.167 233.07 413.257 232.733 413.257 232.324ZM417.11 226.273V235H416.104V226.273H417.11Z" fill="#535862"/>
<path d="M454.808 235H453.7L456.905 226.273H457.996L461.2 235H460.092L457.484 227.653H457.416L454.808 235ZM455.217 231.591H459.683V232.528H455.217V231.591ZM466.548 232.324V228.455H467.554V235H466.548V233.892H466.48C466.327 234.224 466.088 234.507 465.764 234.74C465.44 234.97 465.031 235.085 464.537 235.085C464.128 235.085 463.764 234.996 463.446 234.817C463.128 234.635 462.878 234.362 462.696 233.999C462.514 233.632 462.423 233.17 462.423 232.614V228.455H463.429V232.545C463.429 233.023 463.563 233.403 463.83 233.688C464.1 233.972 464.443 234.114 464.861 234.114C465.111 234.114 465.365 234.05 465.624 233.922C465.885 233.794 466.104 233.598 466.28 233.334C466.459 233.07 466.548 232.733 466.548 232.324ZM472.038 237.591C471.552 237.591 471.135 237.528 470.785 237.403C470.436 237.281 470.145 237.119 469.912 236.918C469.682 236.719 469.498 236.506 469.362 236.278L470.163 235.716C470.254 235.835 470.369 235.972 470.508 236.125C470.647 236.281 470.838 236.416 471.079 236.53C471.324 236.646 471.643 236.705 472.038 236.705C472.566 236.705 473.003 236.577 473.346 236.321C473.69 236.065 473.862 235.665 473.862 235.119V233.79H473.777C473.703 233.909 473.598 234.057 473.461 234.233C473.328 234.406 473.135 234.561 472.882 234.697C472.632 234.831 472.294 234.898 471.868 234.898C471.339 234.898 470.865 234.773 470.444 234.523C470.027 234.273 469.696 233.909 469.451 233.432C469.21 232.955 469.089 232.375 469.089 231.693C469.089 231.023 469.207 230.439 469.443 229.942C469.679 229.442 470.007 229.055 470.427 228.783C470.848 228.507 471.334 228.369 471.885 228.369C472.311 228.369 472.649 228.44 472.899 228.582C473.152 228.722 473.345 228.881 473.478 229.06C473.615 229.236 473.72 229.381 473.794 229.494H473.896V228.455H474.868V235.188C474.868 235.75 474.74 236.207 474.484 236.56C474.231 236.915 473.89 237.175 473.461 237.339C473.035 237.507 472.561 237.591 472.038 237.591ZM472.004 233.994C472.407 233.994 472.748 233.902 473.027 233.717C473.305 233.533 473.517 233.267 473.662 232.92C473.807 232.574 473.879 232.159 473.879 231.676C473.879 231.205 473.808 230.788 473.666 230.428C473.524 230.067 473.314 229.784 473.035 229.58C472.757 229.375 472.413 229.273 472.004 229.273C471.578 229.273 471.223 229.381 470.939 229.597C470.657 229.812 470.446 230.102 470.304 230.466C470.165 230.83 470.095 231.233 470.095 231.676C470.095 232.131 470.166 232.533 470.308 232.882C470.453 233.229 470.666 233.501 470.947 233.7C471.231 233.896 471.584 233.994 472.004 233.994Z" fill="#535862"/>
<path d="M516.673 228.455C516.622 228.023 516.415 227.688 516.051 227.449C515.687 227.21 515.241 227.091 514.713 227.091C514.326 227.091 513.988 227.153 513.699 227.278C513.412 227.403 513.187 227.575 513.025 227.794C512.866 228.013 512.787 228.261 512.787 228.54C512.787 228.773 512.842 228.973 512.953 229.141C513.067 229.305 513.211 229.443 513.388 229.554C513.564 229.662 513.748 229.751 513.942 229.822C514.135 229.891 514.312 229.946 514.474 229.989L515.361 230.227C515.588 230.287 515.841 230.369 516.119 230.474C516.4 230.58 516.669 230.723 516.924 230.905C517.183 231.084 517.396 231.314 517.564 231.595C517.731 231.876 517.815 232.222 517.815 232.631C517.815 233.102 517.692 233.528 517.444 233.909C517.2 234.29 516.842 234.592 516.37 234.817C515.902 235.041 515.332 235.153 514.662 235.153C514.037 235.153 513.495 235.053 513.038 234.851C512.584 234.649 512.226 234.368 511.964 234.007C511.706 233.646 511.559 233.227 511.525 232.75H512.616C512.645 233.08 512.755 233.352 512.949 233.568C513.145 233.781 513.392 233.94 513.69 234.045C513.991 234.148 514.315 234.199 514.662 234.199C515.065 234.199 515.427 234.134 515.748 234.003C516.069 233.869 516.324 233.685 516.511 233.449C516.699 233.21 516.792 232.932 516.792 232.614C516.792 232.324 516.711 232.088 516.549 231.906C516.388 231.724 516.174 231.577 515.91 231.463C515.646 231.349 515.361 231.25 515.054 231.165L513.98 230.858C513.298 230.662 512.758 230.382 512.361 230.018C511.963 229.655 511.764 229.179 511.764 228.591C511.764 228.102 511.896 227.676 512.16 227.312C512.427 226.946 512.785 226.662 513.234 226.46C513.686 226.256 514.19 226.153 514.747 226.153C515.309 226.153 515.809 226.254 516.247 226.456C516.684 226.655 517.031 226.928 517.287 227.274C517.545 227.621 517.682 228.014 517.696 228.455H516.673ZM522.161 235.136C521.53 235.136 520.986 234.997 520.529 234.719C520.074 234.438 519.723 234.045 519.476 233.543C519.232 233.037 519.109 232.449 519.109 231.778C519.109 231.108 519.232 230.517 519.476 230.006C519.723 229.491 520.067 229.091 520.507 228.804C520.95 228.514 521.467 228.369 522.058 228.369C522.399 228.369 522.736 228.426 523.068 228.54C523.401 228.653 523.703 228.838 523.976 229.094C524.249 229.347 524.466 229.682 524.628 230.099C524.79 230.517 524.871 231.031 524.871 231.642V232.068H519.825V231.199H523.848C523.848 230.83 523.774 230.5 523.627 230.21C523.482 229.92 523.274 229.692 523.004 229.524C522.737 229.357 522.422 229.273 522.058 229.273C521.658 229.273 521.311 229.372 521.019 229.571C520.729 229.767 520.506 230.023 520.35 230.338C520.193 230.653 520.115 230.991 520.115 231.352V231.932C520.115 232.426 520.2 232.845 520.371 233.189C520.544 233.53 520.784 233.79 521.091 233.969C521.398 234.145 521.754 234.233 522.161 234.233C522.425 234.233 522.663 234.196 522.877 234.122C523.092 234.045 523.279 233.932 523.435 233.781C523.591 233.628 523.712 233.437 523.797 233.21L524.769 233.483C524.666 233.812 524.494 234.102 524.253 234.352C524.011 234.599 523.713 234.793 523.358 234.932C523.003 235.068 522.604 235.136 522.161 235.136ZM526.401 237.455V228.455H527.372V229.494H527.492C527.565 229.381 527.668 229.236 527.798 229.06C527.932 228.881 528.122 228.722 528.369 228.582C528.619 228.44 528.957 228.369 529.384 228.369C529.935 228.369 530.421 228.507 530.841 228.783C531.261 229.058 531.59 229.449 531.825 229.955C532.061 230.46 532.179 231.057 532.179 231.744C532.179 232.438 532.061 233.038 531.825 233.547C531.59 234.053 531.263 234.445 530.845 234.723C530.428 234.999 529.946 235.136 529.401 235.136C528.98 235.136 528.644 235.067 528.391 234.928C528.138 234.786 527.943 234.625 527.807 234.446C527.671 234.264 527.565 234.114 527.492 233.994H527.406V237.455H526.401ZM527.389 231.727C527.389 232.222 527.462 232.658 527.607 233.036C527.752 233.411 527.963 233.705 528.242 233.918C528.52 234.128 528.861 234.233 529.264 234.233C529.685 234.233 530.036 234.122 530.317 233.901C530.601 233.676 530.814 233.375 530.956 232.997C531.101 232.616 531.173 232.193 531.173 231.727C531.173 231.267 531.102 230.852 530.96 230.483C530.821 230.111 530.609 229.817 530.325 229.601C530.044 229.382 529.69 229.273 529.264 229.273C528.855 229.273 528.511 229.376 528.233 229.584C527.955 229.788 527.744 230.075 527.602 230.445C527.46 230.811 527.389 231.239 527.389 231.727Z" fill="#535862"/>
<path d="M576.364 230.636C576.364 231.557 576.198 232.352 575.866 233.023C575.533 233.693 575.077 234.21 574.498 234.574C573.918 234.938 573.256 235.119 572.512 235.119C571.768 235.119 571.106 234.938 570.526 234.574C569.947 234.21 569.491 233.693 569.158 233.023C568.826 232.352 568.66 231.557 568.66 230.636C568.66 229.716 568.826 228.92 569.158 228.25C569.491 227.58 569.947 227.062 570.526 226.699C571.106 226.335 571.768 226.153 572.512 226.153C573.256 226.153 573.918 226.335 574.498 226.699C575.077 227.062 575.533 227.58 575.866 228.25C576.198 228.92 576.364 229.716 576.364 230.636ZM575.342 230.636C575.342 229.881 575.215 229.243 574.962 228.723C574.712 228.203 574.373 227.81 573.944 227.543C573.518 227.276 573.04 227.142 572.512 227.142C571.984 227.142 571.505 227.276 571.076 227.543C570.65 227.81 570.31 228.203 570.057 228.723C569.807 229.243 569.682 229.881 569.682 230.636C569.682 231.392 569.807 232.03 570.057 232.55C570.31 233.07 570.65 233.463 571.076 233.73C571.505 233.997 571.984 234.131 572.512 234.131C573.04 234.131 573.518 233.997 573.944 233.73C574.373 233.463 574.712 233.07 574.962 232.55C575.215 232.03 575.342 231.392 575.342 230.636ZM580.664 235.136C580.05 235.136 579.522 234.991 579.079 234.702C578.636 234.412 578.295 234.013 578.056 233.504C577.817 232.996 577.698 232.415 577.698 231.761C577.698 231.097 577.82 230.51 578.065 230.001C578.312 229.49 578.655 229.091 579.096 228.804C579.539 228.514 580.056 228.369 580.647 228.369C581.107 228.369 581.522 228.455 581.891 228.625C582.261 228.795 582.563 229.034 582.799 229.341C583.035 229.648 583.181 230.006 583.238 230.415H582.232C582.155 230.116 581.985 229.852 581.721 229.622C581.459 229.389 581.107 229.273 580.664 229.273C580.272 229.273 579.928 229.375 579.633 229.58C579.34 229.781 579.111 230.067 578.947 230.436C578.785 230.803 578.704 231.233 578.704 231.727C578.704 232.233 578.783 232.673 578.942 233.048C579.104 233.423 579.332 233.714 579.624 233.922C579.92 234.129 580.266 234.233 580.664 234.233C580.925 234.233 581.163 234.188 581.376 234.097C581.589 234.006 581.769 233.875 581.917 233.705C582.065 233.534 582.17 233.33 582.232 233.091H583.238C583.181 233.477 583.04 233.825 582.816 234.135C582.594 234.442 582.3 234.686 581.934 234.868C581.57 235.047 581.147 235.136 580.664 235.136ZM587.555 228.455V229.307H584.163V228.455H587.555ZM585.151 226.886H586.157V233.125C586.157 233.409 586.198 233.622 586.28 233.764C586.366 233.903 586.474 233.997 586.604 234.045C586.738 234.091 586.879 234.114 587.026 234.114C587.137 234.114 587.228 234.108 587.299 234.097C587.37 234.082 587.427 234.071 587.469 234.062L587.674 234.966C587.606 234.991 587.511 235.017 587.388 235.043C587.266 235.071 587.111 235.085 586.924 235.085C586.64 235.085 586.361 235.024 586.089 234.902C585.819 234.78 585.594 234.594 585.415 234.344C585.239 234.094 585.151 233.778 585.151 233.398V226.886Z" fill="#535862"/>
<path d="M631.43 226.273V235H630.407L625.651 228.148H625.566V235H624.509V226.273H625.532L630.305 233.142H630.39V226.273H631.43ZM636.067 235.136C635.476 235.136 634.958 234.996 634.512 234.714C634.069 234.433 633.722 234.04 633.472 233.534C633.225 233.028 633.101 232.437 633.101 231.761C633.101 231.08 633.225 230.484 633.472 229.976C633.722 229.467 634.069 229.072 634.512 228.791C634.958 228.51 635.476 228.369 636.067 228.369C636.658 228.369 637.175 228.51 637.618 228.791C638.064 229.072 638.411 229.467 638.658 229.976C638.908 230.484 639.033 231.08 639.033 231.761C639.033 232.437 638.908 233.028 638.658 233.534C638.411 234.04 638.064 234.433 637.618 234.714C637.175 234.996 636.658 235.136 636.067 235.136ZM636.067 234.233C636.516 234.233 636.885 234.118 637.175 233.888C637.465 233.658 637.679 233.355 637.819 232.98C637.958 232.605 638.027 232.199 638.027 231.761C638.027 231.324 637.958 230.916 637.819 230.538C637.679 230.161 637.465 229.855 637.175 229.622C636.885 229.389 636.516 229.273 636.067 229.273C635.618 229.273 635.249 229.389 634.959 229.622C634.669 229.855 634.455 230.161 634.316 230.538C634.176 230.916 634.107 231.324 634.107 231.761C634.107 232.199 634.176 232.605 634.316 232.98C634.455 233.355 634.669 233.658 634.959 233.888C635.249 234.118 635.618 234.233 636.067 234.233ZM645.686 228.455L643.266 235H642.243L639.822 228.455H640.913L642.72 233.67H642.788L644.595 228.455H645.686Z" fill="#535862"/>
<path d="M685.094 235H682.401V226.273H685.213C686.06 226.273 686.784 226.447 687.386 226.797C687.989 227.143 688.45 227.642 688.771 228.293C689.092 228.94 689.253 229.716 689.253 230.619C689.253 231.528 689.091 232.311 688.767 232.967C688.443 233.621 687.972 234.124 687.352 234.476C686.733 234.825 685.98 235 685.094 235ZM683.457 234.062H685.026C685.747 234.062 686.345 233.923 686.82 233.645C687.294 233.366 687.648 232.97 687.881 232.456C688.114 231.942 688.23 231.33 688.23 230.619C688.23 229.915 688.115 229.308 687.885 228.8C687.655 228.288 687.311 227.896 686.854 227.624C686.396 227.348 685.827 227.21 685.145 227.21H683.457V234.062ZM693.634 235.136C693.003 235.136 692.459 234.997 692.001 234.719C691.547 234.438 691.196 234.045 690.949 233.543C690.705 233.037 690.582 232.449 690.582 231.778C690.582 231.108 690.705 230.517 690.949 230.006C691.196 229.491 691.54 229.091 691.98 228.804C692.423 228.514 692.94 228.369 693.531 228.369C693.872 228.369 694.209 228.426 694.541 228.54C694.874 228.653 695.176 228.838 695.449 229.094C695.722 229.347 695.939 229.682 696.101 230.099C696.263 230.517 696.344 231.031 696.344 231.642V232.068H691.298V231.199H695.321C695.321 230.83 695.247 230.5 695.099 230.21C694.955 229.92 694.747 229.692 694.477 229.524C694.21 229.357 693.895 229.273 693.531 229.273C693.131 229.273 692.784 229.372 692.491 229.571C692.202 229.767 691.979 230.023 691.822 230.338C691.666 230.653 691.588 230.991 691.588 231.352V231.932C691.588 232.426 691.673 232.845 691.844 233.189C692.017 233.53 692.257 233.79 692.564 233.969C692.871 234.145 693.227 234.233 693.634 234.233C693.898 234.233 694.136 234.196 694.349 234.122C694.565 234.045 694.751 233.932 694.908 233.781C695.064 233.628 695.185 233.437 695.27 233.21L696.241 233.483C696.139 233.812 695.967 234.102 695.726 234.352C695.484 234.599 695.186 234.793 694.831 234.932C694.476 235.068 694.077 235.136 693.634 235.136ZM700.533 235.136C699.919 235.136 699.391 234.991 698.947 234.702C698.504 234.412 698.163 234.013 697.925 233.504C697.686 232.996 697.567 232.415 697.567 231.761C697.567 231.097 697.689 230.51 697.933 230.001C698.18 229.49 698.524 229.091 698.964 228.804C699.408 228.514 699.925 228.369 700.516 228.369C700.976 228.369 701.391 228.455 701.76 228.625C702.129 228.795 702.432 229.034 702.668 229.341C702.903 229.648 703.05 230.006 703.107 230.415H702.101C702.024 230.116 701.854 229.852 701.589 229.622C701.328 229.389 700.976 229.273 700.533 229.273C700.141 229.273 699.797 229.375 699.501 229.58C699.209 229.781 698.98 230.067 698.815 230.436C698.653 230.803 698.572 231.233 698.572 231.727C698.572 232.233 698.652 232.673 698.811 233.048C698.973 233.423 699.2 233.714 699.493 233.922C699.788 234.129 700.135 234.233 700.533 234.233C700.794 234.233 701.031 234.188 701.244 234.097C701.457 234.006 701.638 233.875 701.786 233.705C701.933 233.534 702.038 233.33 702.101 233.091H703.107C703.05 233.477 702.909 233.825 702.685 234.135C702.463 234.442 702.169 234.686 701.803 234.868C701.439 235.047 701.016 235.136 700.533 235.136Z" fill="#535862"/>
<g clip-path="url(#clip0_11344_4402)">
<path d="M48 133.75L61.9954 124.049L76.2436 125.289L90.6404 132.962L104.516 118.091L118.882 130.05L132.99 119.591L147.128 116.042L161.291 108.003L175.429 115.702L189.577 106.989L203.722 103.756L217.852 94.2846L232.2 105.431L246.428 105.828L260.627 110.525L274.768 101.528L288.957 100.192L302.907 88.546L317.143 89.2425L331.368 95.0813L345.405 81.5959L359.553 78.4787L373.88 88.7635L388 77.9372L402.39 81.2259L416.503 76.6931L430.486 60.8501L444.803 70.7398L458.816 61.8765L473.041 62.1266L487.179 58.6727L501.605 67.6369L515.521 48.9305L529.912 61.9917L543.82 48.5649L558.083 50.4904L572.33 51.7215L586.522 56.2237L600.52 41.0307L614.653 31.7255L629.092 46.9102L643.09 37.3632L657.366 45.4785L671.378 30.8959L685.723 36.3922L699.882 40.8462L713.983 28.7172L728 20" stroke="#003366" stroke-width="2" stroke-linecap="round" stroke-linejoin="round"/>
<path d="M48 168.75L62.0915 162.735L76.3582 164.496L90.3019 143.306L104.645 157.052L118.702 140.925L133.047 154.754L147.216 152.201L161.322 138.21L175.532 146.063L189.666 141.912L203.68 123.877L217.862 130.486L232.215 136.051L246.266 119.648L260.644 134.93L274.829 133.093L288.954 128.577L302.965 118.95L317.226 120.474L331.52 114.842L345.714 122L359.619 107.666L373.927 111.272L388 95.8308L402.194 103.147L416.215 94.0729L430.482 87.2512L444.771 98.6257L458.935 95.8595L473.074 83.3676L487.234 89.0601L501.274 80.7747L515.408 68.0751L529.726 80.7292L543.912 78.921L558.114 77.8662L572.074 57.4437L586.336 67.6169L600.67 72.3865L614.721 55.9921L629.024 68.0056L643.076 60.2548L657.299 65.8525L671.449 56.7471L685.469 59.7579L699.637 49.1012L713.933 48.0883L728 41" stroke="#097C73" stroke-opacity="0.5" stroke-width="2" stroke-linecap="round" stroke-linejoin="round" stroke-dasharray="0.1 8"/>
<path d="M48 179.227L62.2847 173.977L76.6193 179.25L90.5752 168.735L104.979 177.011L118.942 166.343L133.077 163.339L147.449 175.27L161.296 155.412L175.6 158.721L189.6 150.679L204.125 168.33L218.018 150.217L232.419 160.804L246.598 155.779L260.604 147.965L274.798 147.147L289.066 155.195L303.16 144.583L317.107 134.538L331.561 147.12L345.655 138.96L359.715 133.15L373.872 130.935L388 127.564L401.93 116.8L416.283 125.182L430.398 117.384L444.69 119.841L458.771 114.393L472.903 110.856L487.224 120.442L501.195 104.829L515.446 105.746L529.669 111.696L543.889 105.378L557.872 96.2707L572.233 104.947L586.296 95.1987L600.459 92.8267L614.773 102.156L628.744 86.5732L643.144 96.6772L657.157 85.0823L671.245 79.8944L685.6 84.6903L699.863 92.1049L713.793 74.9823L728 74.25" stroke="#097C73" stroke-opacity="0.3" stroke-width="2" stroke-linecap="round" stroke-linejoin="round" stroke-dasharray="0.1 8"/>
</g>
<defs>
<clipPath id="clip0_11344_4402">
<rect width="680" height="168" fill="white" transform="translate(48 20)"/>
</clipPath>
</defs>
</svg>
