<svg width="20" height="20" viewBox="0 0 20 20" fill="none" xmlns="http://www.w3.org/2000/svg">
<path d="M14.9993 17.5002C14.9993 15.7321 14.297 14.0364 13.0467 12.7861C11.7965 11.5359 10.1008 10.8335 8.33268 10.8335C6.56457 10.8335 4.86888 11.5359 3.61864 12.7861C2.36839 14.0364 1.66602 15.7321 1.66602 17.5002" stroke="black" stroke-width="1.33333" stroke-linecap="round" stroke-linejoin="round"/>
<path d="M8.33268 10.8333C10.6339 10.8333 12.4993 8.96785 12.4993 6.66667C12.4993 4.36548 10.6339 2.5 8.33268 2.5C6.0315 2.5 4.16602 4.36548 4.16602 6.66667C4.16602 8.96785 6.0315 10.8333 8.33268 10.8333Z" stroke="black" stroke-width="1.33333" stroke-linecap="round" stroke-linejoin="round"/>
<path d="M18.3333 16.6668C18.3333 13.8585 16.6667 11.2502 15 10.0002C15.5478 9.58914 15.9859 9.0494 16.2755 8.42872C16.565 7.80804 16.6971 7.12555 16.66 6.44166C16.6229 5.75777 16.4178 5.09357 16.0629 4.50783C15.7079 3.92209 15.2141 3.43288 14.625 3.0835" stroke="black" stroke-width="1.33333" stroke-linecap="round" stroke-linejoin="round"/>
</svg>
