<svg width="24" height="24" viewBox="0 0 24 24" fill="none" xmlns="http://www.w3.org/2000/svg">
<path d="M6.56611 22.7177H17.4445C19.4331 22.7177 20.4578 21.6934 20.4578 19.6641V4.34572C20.4578 2.32672 19.4335 1.28186 17.445 1.28186H6.56611C4.56725 1.28186 3.54297 2.32672 3.54297 4.34572V19.6637C3.54297 21.6926 4.56725 22.7177 6.56611 22.7177ZM6.6364 21.1101C5.67211 21.1101 5.15997 20.5779 5.15997 19.6436V4.36629C5.15997 3.42172 5.67211 2.89972 6.64668 2.89972H17.3541C18.3287 2.89972 18.8408 3.42172 18.8408 4.36629V19.644C18.8408 20.5783 18.3287 21.1106 17.3644 21.1106L6.6364 21.1101ZM14.4917 11.4874C15.717 11.4874 16.5608 10.6534 16.5608 9.438C16.5608 8.26286 15.8374 7.48972 14.7728 7.48972C14.2405 7.48972 13.7983 7.66029 13.4871 8.04215H13.2861C13.3667 7.69072 13.5874 7.33886 13.9191 7.05772C14.2303 6.76629 14.6323 6.58543 15.084 6.48515C15.4555 6.40457 15.5661 6.28415 15.5661 6.063C15.5661 5.86243 15.4157 5.70172 15.1341 5.70172C14.4814 5.70172 13.6478 6.11315 13.1053 6.696C12.543 7.30886 12.2614 8.10215 12.2614 8.946C12.2614 10.5531 13.2561 11.4874 14.4917 11.4874ZM9.39854 11.4973C10.6243 11.4973 11.4677 10.6637 11.4677 9.44829C11.4677 8.27315 10.7443 7.49957 9.67968 7.49957C9.1474 7.49957 8.70554 7.67015 8.40383 8.052H8.19297C8.27354 7.69029 8.50454 7.329 8.85597 7.04743C9.18095 6.76952 9.57162 6.57935 9.99083 6.495C10.3628 6.41486 10.4833 6.294 10.4833 6.07329C10.4833 5.87229 10.3324 5.71157 10.0414 5.71157C9.38826 5.71157 8.57483 6.10329 8.01211 6.70586C7.44983 7.31872 7.16868 8.11243 7.16868 8.95586C7.16868 10.563 8.16297 11.4973 9.39854 11.4973ZM8.06268 14.8826H15.6865C15.7687 14.8839 15.8503 14.8687 15.9265 14.8378C16.0027 14.807 16.0719 14.7611 16.13 14.703C16.1881 14.6449 16.2339 14.5756 16.2647 14.4994C16.2955 14.4232 16.3106 14.3416 16.3093 14.2594C16.3093 13.9179 16.038 13.6466 15.6865 13.6466H8.06225C7.70097 13.6466 7.43954 13.9183 7.43954 14.2594C7.43954 14.6109 7.70097 14.8821 8.06225 14.8821M8.06225 18.3879H11.6781C12.0295 18.3879 12.291 18.1264 12.291 17.775C12.291 17.4236 12.0295 17.1519 11.6781 17.1519H8.06225C7.70054 17.1519 7.43911 17.4231 7.43911 17.7746C7.43911 18.126 7.70054 18.3874 8.06183 18.3874" fill="white"/>
</svg>
