<svg width="24" height="24" viewBox="0 0 24 24" fill="none" xmlns="http://www.w3.org/2000/svg">
<path d="M12 14L11.293 14.707L12 15.414L12.707 14.707L12 14ZM13 5C13 4.73478 12.8946 4.48043 12.7071 4.29289C12.5195 4.10536 12.2652 4 12 4C11.7348 4 11.4804 4.10536 11.2929 4.29289C11.1053 4.48043 11 4.73478 11 5H13ZM6.29297 9.707L11.293 14.707L12.707 13.293L7.70697 8.293L6.29297 9.707ZM12.707 14.707L17.707 9.707L16.293 8.293L11.293 13.293L12.707 14.707ZM13 14V5H11V14H13Z" fill="black"/>
<path d="M5 16V17C5 17.5304 5.21071 18.0391 5.58579 18.4142C5.96086 18.7893 6.46957 19 7 19H17C17.5304 19 18.0391 18.7893 18.4142 18.4142C18.7893 18.0391 19 17.5304 19 17V16" stroke="black" stroke-width="2"/>
</svg>
