<svg width="20" height="20" viewBox="0 0 20 20" fill="none" xmlns="http://www.w3.org/2000/svg">
<path d="M18.3327 10H13.3327L11.666 12.5H8.33268L6.66602 10H1.66602" stroke="white" stroke-width="1.33333" stroke-linecap="round" stroke-linejoin="round"/>
<path d="M4.54102 4.25825L1.66602 9.99992V14.9999C1.66602 15.4419 1.84161 15.8659 2.15417 16.1784C2.46673 16.491 2.89065 16.6666 3.33268 16.6666H16.666C17.108 16.6666 17.532 16.491 17.8445 16.1784C18.1571 15.8659 18.3327 15.4419 18.3327 14.9999V9.99992L15.4577 4.25825C15.3197 3.98057 15.107 3.74689 14.8435 3.58348C14.58 3.42008 14.2761 3.33342 13.966 3.33325H6.03268C5.72261 3.33342 5.41874 3.42008 5.15522 3.58348C4.8917 3.74689 4.679 3.98057 4.54102 4.25825Z" stroke="white" stroke-width="1.33333" stroke-linecap="round" stroke-linejoin="round"/>
</svg>
