<svg width="60" height="60" viewBox="0 0 60 60" fill="none" xmlns="http://www.w3.org/2000/svg">
<path d="M52.5 18.7124C52.5 15.9674 52.5 14.5974 51.81 13.4374C51.12 12.2774 49.8475 11.5224 47.305 9.99993L44.07 8.06493C40.0775 5.67493 38.08 4.47993 36.54 5.21993C35 5.95993 35 8.11243 35 12.4174V54.9999H52.5V18.7124Z" stroke="white" stroke-width="4.375" stroke-linejoin="round"/>
<path d="M55 55H5M35 22.5H25M35 37.5H25" stroke="white" stroke-width="4.375" stroke-linecap="round" stroke-linejoin="round"/>
<path d="M7.5 18.7124C7.5 15.9674 7.5 14.5974 8.19 13.4374C8.88 12.2774 10.1525 11.5224 12.695 9.99995L15.93 8.06495C19.925 5.67245 21.92 4.47494 23.46 5.21744C25 5.95995 25 8.11245 25 12.4174V55H7.5V18.7124Z" stroke="white" stroke-width="4.375" stroke-linejoin="round"/>
<path d="M16.2525 20H16.23M16.255 30H16.23M16.255 40H16.23M43.7525 20H43.73M43.755 30H43.73M43.755 40H43.73" stroke="white" stroke-width="5.83333" stroke-linecap="round" stroke-linejoin="round"/>
</svg>
