<svg width="60" height="60" viewBox="0 0 60 60" fill="none" xmlns="http://www.w3.org/2000/svg">
<path d="M50 30V14.3725C50.0002 14.1752 49.9614 13.9797 49.8859 13.7974C49.8104 13.6151 49.6996 13.4495 49.56 13.31L41.69 5.44C41.409 5.15862 41.0277 5.00035 40.63 5H11.5C11.1022 5 10.7206 5.15804 10.4393 5.43934C10.158 5.72064 10 6.10218 10 6.5V53.5C10 53.8978 10.158 54.2794 10.4393 54.5607C10.7206 54.842 11.1022 55 11.5 55H32.5M20 25H40M20 15H30M20 35H27.5" stroke="white" stroke-width="4.375" stroke-linecap="round" stroke-linejoin="round"/>
<path d="M40 5V13.5C40 13.8978 40.158 14.2794 40.4393 14.5607C40.7206 14.842 41.1022 15 41.5 15H50M49.98 37.8125L56.37 39.435C57.035 39.605 57.5025 40.21 57.4825 40.895C57.0525 55.29 48.75 57.5 48.75 57.5C48.75 57.5 40.4475 55.29 40.0175 40.895C40.0107 40.5617 40.1169 40.236 40.319 39.9709C40.521 39.7057 40.8069 39.5169 41.13 39.435L47.52 37.8125C48.3275 37.6075 49.1725 37.6075 49.98 37.8125Z" stroke="white" stroke-width="4.375" stroke-linecap="round" stroke-linejoin="round"/>
</svg>
