<svg width="20" height="20" viewBox="0 0 20 20" fill="none" xmlns="http://www.w3.org/2000/svg">
<g clip-path="url(#clip0_10405_46748)">
<path d="M1.66602 10.0013C1.66602 10.878 1.81602 11.7196 2.09268 12.5013M2.09268 12.5013H9.16602M2.09268 12.5013C2.6098 13.9639 3.56774 15.2302 4.83455 16.1257C6.10135 17.0212 7.61467 17.5018 9.16602 17.5013C7.87935 17.5013 6.81935 14.5846 6.68102 10.8346M10.8443 7.5013H17.9177M17.9177 7.5013C17.4006 6.03868 16.4426 4.7724 15.1758 3.87692C13.909 2.98145 12.3957 2.50083 10.8443 2.5013C12.1777 2.5013 13.2685 5.6363 13.3402 9.58464M17.9177 7.5013C18.1493 8.1588 18.2927 8.85797 18.3327 9.58464M1.66602 4.41547C1.66602 3.5013 1.66602 3.04297 1.82185 2.68797C1.98852 2.3113 2.27352 2.0088 2.62852 1.8338C2.96352 1.66797 3.39518 1.66797 4.25768 1.66797H4.99935C6.57102 1.66797 7.35602 1.66797 7.84435 2.18464C8.33268 2.7038 8.33268 3.53464 8.33268 5.2013V7.0838C8.33268 7.80963 8.33268 8.17297 8.11268 8.29797C7.89268 8.42297 7.60768 8.2213 7.03768 7.81797L6.95018 7.75714C6.53352 7.46214 6.32518 7.31547 6.08852 7.23964C5.85268 7.1638 5.60185 7.1638 5.10102 7.1638H4.25935C3.39518 7.1638 2.96352 7.1638 2.62852 6.99797C2.26753 6.81698 1.98191 6.51454 1.82185 6.1438C1.66602 5.7888 1.66602 5.3313 1.66602 4.41547ZM18.3327 14.4155C18.3327 13.5005 18.3327 13.043 18.1768 12.688C18.0168 12.3172 17.7312 12.0148 17.3702 11.8338C17.0352 11.668 16.6035 11.668 15.741 11.668H14.9993C13.4277 11.668 12.6427 11.668 12.1543 12.1846C11.666 12.7038 11.666 13.5346 11.666 15.2013V17.0838C11.666 17.8096 11.666 18.173 11.886 18.298C12.106 18.423 12.391 18.2213 12.961 17.818L13.0485 17.7571C13.4652 17.4621 13.6735 17.3155 13.9102 17.2396C14.146 17.1638 14.3968 17.1638 14.8977 17.1638H15.7393C16.6035 17.1638 17.0352 17.1638 17.3702 16.998C17.7252 16.823 18.011 16.5205 18.1768 16.1438C18.3327 15.7888 18.3327 15.3313 18.3327 14.4155Z" stroke="black" stroke-width="1.5" stroke-linecap="round" stroke-linejoin="round"/>
</g>
<defs>
<clipPath id="clip0_10405_46748">
<rect width="20" height="20" fill="white"/>
</clipPath>
</defs>
</svg>
