<svg width="19" height="19" viewBox="0 0 19 19" fill="none" xmlns="http://www.w3.org/2000/svg">
<path d="M0.75 9.08333C0.75 9.96 0.9 10.8017 1.17667 11.5833M1.17667 11.5833H8.25M1.17667 11.5833C1.69378 13.046 2.65173 14.3122 3.91853 15.2077C5.18534 16.1032 6.69865 16.5838 8.25 16.5833C6.96333 16.5833 5.90333 13.6667 5.765 9.91667M9.92833 6.58333H17.0017M17.0017 6.58333C16.4846 5.12071 15.5266 3.85443 14.2598 2.95895C12.993 2.06348 11.4797 1.58286 9.92833 1.58333C11.2617 1.58333 12.3525 4.71833 12.4242 8.66667M17.0017 6.58333C17.2333 7.24083 17.3767 7.94 17.4167 8.66667M0.75 3.4975C0.75 2.58333 0.75 2.125 0.905833 1.77C1.0725 1.39333 1.3575 1.09083 1.7125 0.915833C2.0475 0.75 2.47917 0.75 3.34167 0.75H4.08333C5.655 0.75 6.44 0.75 6.92833 1.26667C7.41667 1.78583 7.41667 2.61667 7.41667 4.28333V6.16583C7.41667 6.89167 7.41667 7.255 7.19667 7.38C6.97667 7.505 6.69167 7.30333 6.12167 6.9L6.03417 6.83917C5.6175 6.54417 5.40917 6.3975 5.1725 6.32167C4.93667 6.24583 4.68583 6.24583 4.185 6.24583H3.34333C2.47917 6.24583 2.0475 6.24583 1.7125 6.08C1.35152 5.89902 1.06589 5.59657 0.905833 5.22583C0.75 4.87083 0.75 4.41333 0.75 3.4975ZM17.4167 13.4975C17.4167 12.5825 17.4167 12.125 17.2608 11.77C17.1008 11.3993 16.8151 11.0968 16.4542 10.9158C16.1192 10.75 15.6875 10.75 14.825 10.75H14.0833C12.5117 10.75 11.7267 10.75 11.2383 11.2667C10.75 11.7858 10.75 12.6167 10.75 14.2833V16.1658C10.75 16.8917 10.75 17.255 10.97 17.38C11.19 17.505 11.475 17.3033 12.045 16.9L12.1325 16.8392C12.5492 16.5442 12.7575 16.3975 12.9942 16.3217C13.23 16.2458 13.4808 16.2458 13.9817 16.2458H14.8233C15.6875 16.2458 16.1192 16.2458 16.4542 16.08C16.8092 15.905 17.095 15.6025 17.2608 15.2258C17.4167 14.8708 17.4167 14.4133 17.4167 13.4975Z" stroke="black" stroke-width="1.5" stroke-linecap="round" stroke-linejoin="round"/>
</svg>
