<svg width="216" height="40" viewBox="0 0 216 40" fill="none" xmlns="http://www.w3.org/2000/svg">
<path d="M165.219 0C168.298 0 170.962 0.515323 173.209 1.5459C175.456 2.57649 177.188 4.02936 178.405 5.9043C179.634 7.7668 180.256 9.94567 180.269 12.4414H170.359C170.26 11.1999 169.795 10.2315 168.963 9.53613C168.143 8.84079 166.895 8.49316 165.219 8.49316C164.151 8.49318 163.276 8.62306 162.593 8.88379C161.922 9.13213 161.425 9.47362 161.103 9.9082C160.78 10.3428 160.612 10.8397 160.6 11.3984C160.575 11.8578 160.656 12.274 160.842 12.6465C161.04 13.0065 161.351 13.3358 161.773 13.6338C162.196 13.9193 162.736 14.1802 163.394 14.416C164.052 14.6519 164.834 14.8626 165.74 15.0488L168.869 15.7197C170.98 16.1667 172.787 16.7567 174.289 17.4893C175.792 18.2218 177.021 19.0848 177.978 20.0781C178.933 21.0589 179.635 22.1636 180.082 23.3926C180.541 24.6218 180.778 25.9633 180.79 27.416C180.778 29.9242 180.15 32.0478 178.908 33.7861C177.667 35.5242 175.891 36.8466 173.582 37.7529C171.285 38.6593 168.522 39.1123 165.294 39.1123C161.979 39.1123 159.085 38.6225 156.614 37.6416C154.156 36.6607 152.244 35.1515 150.878 33.1152C149.525 31.0665 148.842 28.4468 148.829 25.2559H158.663C158.725 26.4228 159.017 27.4037 159.538 28.1982C160.06 28.9929 160.793 29.5951 161.736 30.0049C162.692 30.4146 163.828 30.6191 165.145 30.6191C166.25 30.6191 167.175 30.4831 167.92 30.21C168.665 29.9368 169.229 29.5575 169.614 29.0732C169.999 28.589 170.199 28.0368 170.211 27.416C170.199 26.8324 170.005 26.3233 169.633 25.8887C169.273 25.4418 168.677 25.0439 167.845 24.6963C167.013 24.3363 165.889 24.0018 164.474 23.6914L160.675 22.8711C157.298 22.1385 154.634 20.9156 152.685 19.2021C150.748 17.4762 149.785 15.1235 149.797 12.1436C149.784 9.72228 150.431 7.60485 151.734 5.79199C153.051 3.96685 154.87 2.54549 157.191 1.52734C159.526 0.509191 162.202 2.52391e-05 165.219 0ZM107.519 38.8115H97.0293V26.748H107.519V38.8115ZM146.023 8.86523H130.014V15.4209H144.608V23.7656H130.014V30.3213H145.949V38.666H130.014V38.6689H121.372L113.569 27.0703L107.365 17.8486L106.856 17.0928L105.421 18.0889L99.8584 10.0654L108.335 4.18945L109.706 3.23828L115.269 11.2627L113.82 12.2666L113.789 12.2871L119.36 20.4902H119.658V0.524414H121.68V0.521484H146.023V8.86523ZM10.3555 30.3213H22.7451L32.5811 0.521484H46.7363L52.5107 18.0156L54.5469 24.124L54.8096 24.1338L61.5322 0.521484H70.6221L76.8047 24.0635H77.1035L83.3936 0.521484H93.8662L82.6162 38.666H72.708L66.2256 17.3584H65.9277L59.4463 38.666H48.1523L45.9482 31.3643H33.3701L31.166 38.666H0V0.521484H10.3555V30.3213ZM216 8.86523H204.526V38.666H194.32V8.86523H182.847V0.521484H216V8.86523ZM107.519 23.6016V25.6992H97.0293V23.6016H107.519ZM35.709 23.6162H43.6084L39.8076 11.0254H39.5098L35.709 23.6162ZM96.8203 11.2295C97.8275 10.5314 99.21 10.781 99.9082 11.7881L103.953 17.624C104.651 18.6312 104.401 20.0137 103.394 20.7119C102.386 21.41 101.004 21.1594 100.306 20.1523L96.2607 14.3174C95.5625 13.3102 95.8131 11.9277 96.8203 11.2295ZM111.753 0.739258C112.76 0.0410763 114.143 0.291746 114.841 1.29883L118.887 7.13379C119.585 8.14095 119.334 9.52345 118.327 10.2217C117.32 10.9199 115.938 10.6701 115.239 9.66309L111.194 3.82715C110.496 2.82008 110.746 1.43755 111.753 0.739258Z" fill="white"/>
</svg>
