<svg width="24" height="24" viewBox="0 0 24 24" fill="none" xmlns="http://www.w3.org/2000/svg">
<path d="M0.1416 13.2389C0.23915 13.985 0.604757 14.67 1.17022 15.1664C1.73569 15.6627 2.4624 15.9364 3.2148 15.9364C3.9672 15.9364 4.69391 15.6627 5.25938 15.1664C5.82484 14.67 6.19045 13.985 6.288 13.2389H0.1416ZM16.8874 19.4784C16.8875 19.5415 16.8753 19.604 16.8513 19.6623C16.8274 19.7207 16.7921 19.7737 16.7476 19.8184C16.7031 19.8631 16.6503 19.8986 16.592 19.9229C16.5338 19.9472 16.4714 19.9597 16.4083 19.9599H7.45344C7.1904 19.9599 6.97344 19.7439 6.97344 19.4784C6.97433 19.3517 7.02529 19.2305 7.11521 19.1412C7.20513 19.0519 7.32672 19.0018 7.45344 19.0018H16.4078C16.6728 19.0018 16.8874 19.2149 16.8874 19.4784ZM7.02576 20.2051H16.8355V21.5909H7.02576V20.2051ZM17.712 13.2389C17.8092 13.9853 18.1745 14.6709 18.74 15.1678C19.3054 15.6647 20.0322 15.9389 20.785 15.9394C21.5377 15.9396 22.2648 15.6656 22.8301 15.1685C23.3954 14.6715 23.7603 13.9855 23.8565 13.2389H17.712ZM23.6875 12.2746L21.1709 8.80802H22.5163C22.8437 8.80802 23.1072 8.5397 23.1072 8.20802C23.1072 7.87922 22.8432 7.61378 22.5163 7.61378H15.3893C15.1778 7.03094 14.8165 6.51411 14.3418 6.11536C13.867 5.71661 13.2956 5.45001 12.685 5.34242V3.47186C12.685 3.13922 12.4181 2.87378 12.0874 2.87378L12.0317 2.88002L11.976 2.87378C11.8975 2.87359 11.8197 2.88894 11.7471 2.91895C11.6745 2.94895 11.6086 2.99302 11.5532 3.04862C11.4977 3.10421 11.4538 3.17023 11.424 3.24287C11.3941 3.31551 11.379 3.39333 11.3794 3.47186V5.34146C10.7689 5.4492 10.1977 5.71587 9.72309 6.11462C9.2485 6.51336 8.88735 7.03011 8.676 7.61282H1.54752C1.22256 7.61282 0.9576 7.87826 0.9576 8.20706C0.9576 8.53922 1.22256 8.80706 1.54752 8.80706H2.83152L0.3144 12.2736H0V12.9139H6.43104V12.2736H6.1152L3.59904 8.80802H9.44016C9.44016 8.67266 9.45504 8.5397 9.4752 8.4125C9.49584 8.3525 9.50976 8.29154 9.50976 8.22866C9.61816 7.77273 9.84993 7.35542 10.1797 7.02244C10.5095 6.68946 10.9245 6.45364 11.3794 6.34082V12.9154H11.3544C11.303 15.3883 10.1266 17.545 8.38128 18.757H15.684C13.9382 17.545 12.7627 15.3883 12.7085 12.9154H12.6854V6.34082C13.1402 6.45372 13.5551 6.68957 13.8848 7.02254C14.2145 7.35552 14.4462 7.77279 14.5546 8.22866C14.5571 8.29138 14.5691 8.35266 14.5906 8.4125C14.6098 8.54018 14.6218 8.67266 14.6218 8.80802H20.4019L17.8848 12.2746H17.5709V12.9149H24V12.2746H23.6875ZM2.9592 12.2746H0.9504L2.9592 9.50738V12.2746ZM3.47328 12.2746V9.50738L5.48208 12.2746H3.47328ZM20.5286 12.2746H18.5189L20.5286 9.50738V12.2746ZM21.0403 12.2746V9.50738L23.0515 12.2746H21.0403ZM3.81168 6.77954C3.80728 6.93479 3.74251 7.0822 3.63114 7.19045C3.51978 7.2987 3.37059 7.35926 3.21528 7.35926C3.05997 7.35926 2.91078 7.2987 2.79942 7.19045C2.68805 7.0822 2.62328 6.93479 2.61888 6.77954C2.61888 6.45026 2.88672 6.18146 3.21648 6.18146C3.5448 6.18098 3.81168 6.45026 3.81168 6.77954ZM21.3816 6.74786C21.3816 7.07954 21.1147 7.34258 20.7854 7.34258C20.7071 7.34309 20.6295 7.32806 20.557 7.29837C20.4846 7.26868 20.4187 7.22492 20.3633 7.16961C20.3078 7.11431 20.2639 7.04855 20.234 6.97616C20.2042 6.90377 20.189 6.82617 20.1893 6.74786C20.1861 6.66756 20.1991 6.58743 20.2276 6.51229C20.2561 6.43715 20.2995 6.36855 20.3552 6.31059C20.4109 6.25264 20.4777 6.20653 20.5516 6.17503C20.6255 6.14353 20.7051 6.12729 20.7854 6.12729C20.8658 6.12729 20.9453 6.14353 21.0193 6.17503C21.0932 6.20653 21.16 6.25264 21.2157 6.31059C21.2714 6.36855 21.3148 6.43715 21.3433 6.51229C21.3718 6.58743 21.3848 6.66756 21.3816 6.74786Z" fill="white"/>
</svg>
