<svg width="28" height="28" viewBox="0 0 28 28" fill="none" xmlns="http://www.w3.org/2000/svg">
<path d="M19.8337 11.6667V9.33333C19.8337 6.11167 17.222 3.5 14.0003 3.5C10.7787 3.5 8.16699 6.11167 8.16699 9.33333V11.6667M14.0003 16.9167V19.25M10.267 24.5H17.7337C19.6938 24.5 20.6739 24.5 21.4226 24.1185C22.0812 23.783 22.6166 23.2475 22.9522 22.589C23.3337 21.8403 23.3337 20.8602 23.3337 18.9V17.2667C23.3337 15.3065 23.3337 14.3264 22.9522 13.5777C22.6166 12.9191 22.0812 12.3837 21.4226 12.0481C20.6739 11.6667 19.6938 11.6667 17.7337 11.6667H10.267C8.30681 11.6667 7.32672 11.6667 6.57803 12.0481C5.91946 12.3837 5.38403 12.9191 5.04847 13.5777C4.66699 14.3264 4.66699 15.3065 4.66699 17.2667V18.9C4.66699 20.8602 4.66699 21.8403 5.04847 22.589C5.38403 23.2475 5.91946 23.783 6.57803 24.1185C7.32672 24.5 8.30681 24.5 10.267 24.5Z" stroke="#414651" stroke-width="2" stroke-linecap="round" stroke-linejoin="round"/>
</svg>
