<svg width="24" height="24" viewBox="0 0 24 24" fill="none" xmlns="http://www.w3.org/2000/svg">
<g clip-path="url(#clip0_10029_32111)">
<path d="M20.0008 13.6V12C20.0008 11.5757 19.8322 11.1687 19.5322 10.8687C19.2321 10.5686 18.8251 10.4 18.4008 10.4H2.40078C1.97643 10.4 1.56947 10.5686 1.26941 10.8687C0.969352 11.1687 0.800781 11.5757 0.800781 12V21.6C0.800781 22.0244 0.969352 22.4314 1.26941 22.7314C1.56947 23.0315 1.97643 23.2 2.40078 23.2H18.4008C18.8251 23.2 19.2321 23.0315 19.5322 22.7314C19.8322 22.4314 20.0008 22.0244 20.0008 21.6V20M20.0008 13.6H13.6008C12.7521 13.6 11.9382 13.9372 11.338 14.5373C10.7379 15.1374 10.4008 15.9514 10.4008 16.8C10.4008 17.6487 10.7379 18.4627 11.338 19.0628C11.9382 19.6629 12.7521 20 13.6008 20H20.0008M20.0008 13.6C20.8495 13.6 21.6634 13.9372 22.2635 14.5373C22.8636 15.1374 23.2008 15.9514 23.2008 16.8C23.2008 17.6487 22.8636 18.4627 22.2635 19.0628C21.6634 19.6629 20.8495 20 20.0008 20M5.60078 10.4V5.60005C5.60078 4.32701 6.10649 3.10611 7.00667 2.20594C7.90684 1.30576 9.12774 0.800049 10.4008 0.800049C11.6738 0.800049 12.8947 1.30576 13.7949 2.20594C14.6951 3.10611 15.2008 4.32701 15.2008 5.60005V10.4M19.2008 16.8H20.8008M16.0008 16.8H17.6008M12.8008 16.8H14.4008" stroke="white" stroke-width="1.6"/>
</g>
<defs>
<clipPath id="clip0_10029_32111">
<rect width="24" height="24" fill="white"/>
</clipPath>
</defs>
</svg>
