<svg width="166" height="45" viewBox="0 0 166 45" fill="none" xmlns="http://www.w3.org/2000/svg">
<path d="M126.726 7.5C129.088 7.5 131.131 7.89506 132.854 8.68555C134.578 9.476 135.907 10.5903 136.84 12.0283C137.783 13.4569 138.259 15.1287 138.269 17.043H130.669C130.593 16.0906 130.235 15.3478 129.597 14.8145C128.968 14.2812 128.011 14.0137 126.726 14.0137C125.907 14.0137 125.235 14.1145 124.711 14.3145C124.197 14.5049 123.816 14.7664 123.568 15.0996C123.321 15.4329 123.192 15.8146 123.183 16.2432C123.164 16.5954 123.225 16.9146 123.368 17.2002C123.521 17.4763 123.759 17.7285 124.083 17.957C124.407 18.176 124.821 18.3758 125.325 18.5566C125.83 18.7376 126.431 18.9001 127.126 19.043L129.525 19.5566C131.144 19.8995 132.53 20.3522 133.683 20.9141C134.835 21.476 135.778 22.1385 136.512 22.9004C137.245 23.6526 137.783 24.4998 138.126 25.4424C138.478 26.3852 138.659 27.4141 138.669 28.5283C138.659 30.4521 138.178 32.0807 137.226 33.4141C136.273 34.7474 134.911 35.7618 133.14 36.457C131.378 37.1522 129.259 37.5 126.783 37.5C124.24 37.5 122.021 37.1234 120.126 36.3711C118.24 35.6187 116.773 34.4622 115.726 32.9004C114.687 31.3289 114.164 29.3187 114.154 26.8711H121.697C121.745 27.7663 121.968 28.5194 122.368 29.1289C122.768 29.7384 123.331 30.2004 124.055 30.5146C124.788 30.8288 125.66 30.9854 126.669 30.9854C127.516 30.9853 128.226 30.8813 128.797 30.6719C129.368 30.4624 129.801 30.1712 130.097 29.7998C130.392 29.4284 130.545 29.0045 130.555 28.5283C130.545 28.0808 130.397 27.6907 130.111 27.3574C129.835 27.0146 129.378 26.709 128.74 26.4424C128.102 26.1662 127.24 25.909 126.154 25.6709L123.24 25.043C120.65 24.4811 118.607 23.5428 117.111 22.2285C115.626 20.9048 114.887 19.1 114.896 16.8145C114.887 14.9573 115.383 13.3329 116.383 11.9424C117.392 10.5425 118.787 9.45181 120.568 8.6709C122.359 7.88995 124.411 7.50001 126.726 7.5ZM82.4697 37.2695H74.4238V28.0166H82.4697V37.2695ZM112.003 14.2998H99.7227V19.3281H110.918V25.7285H99.7227V30.7568H111.946V37.1572H99.7227V37.1592H93.0938L87.1094 28.2637L82.3516 21.1904L81.9609 20.6104L80.8594 21.375L76.5928 15.2207L83.0947 10.7139L84.1465 9.98438L88.4131 16.1387L87.3018 16.9092L87.2783 16.9248L91.5518 23.2168H91.7803V7.90234H93.3311V7.89941H112.003V14.2998ZM7.94336 30.7568H17.4453L24.9902 7.89941H35.8477L40.2197 21.1455L41.8389 26.0039L42.04 26.0107L47.1963 7.89941H54.168L58.9111 25.957H59.1396L63.9648 7.89941H71.9971L63.3682 37.1572H55.7676L50.7969 20.8145H50.5674L45.5967 37.1572H36.9336L35.2432 31.5576H25.5947L23.9043 37.1572H0V7.89941H7.94336V30.7568ZM165.676 14.2998H156.876V37.1572H149.047V14.2998H140.247V7.89941H165.676V14.2998ZM82.4697 25.6025V27.2119H74.4238V25.6025H82.4697ZM27.3887 25.6143H33.4492L30.5332 15.957H30.3047L27.3887 25.6143ZM74.2627 16.1133C75.0352 15.5777 76.0963 15.7695 76.6318 16.542L79.7344 21.0176C80.2699 21.7901 80.0781 22.8512 79.3057 23.3867C78.5331 23.9223 77.4721 23.7295 76.9365 22.957L73.834 18.4814C73.2985 17.709 73.4905 16.6489 74.2627 16.1133ZM85.7168 8.06738C86.4893 7.53188 87.5494 7.72371 88.085 8.49609L91.1885 12.9717C91.724 13.7442 91.5313 14.8053 90.7588 15.3408C89.9863 15.8761 88.9261 15.6835 88.3906 14.9111L85.2881 10.4355C84.7526 9.66307 84.9444 8.60296 85.7168 8.06738Z" fill="#003366"/>
</svg>
