<svg width="100" height="20" viewBox="0 0 100 20" fill="none" xmlns="http://www.w3.org/2000/svg">
<path d="M76.0352 0C77.4523 0 78.6786 0.236646 79.7129 0.710938C80.7469 1.18516 81.5436 1.85415 82.1035 2.7168C82.6692 3.57394 82.9552 4.57701 82.9609 5.72559H78.4014C78.3557 5.15415 78.1407 4.70868 77.7578 4.38867C77.3807 4.06873 76.8065 3.9082 76.0352 3.9082C75.5439 3.90822 75.1414 3.96894 74.8271 4.08887C74.5186 4.20315 74.2892 4.35958 74.1406 4.55957C73.9921 4.75945 73.915 4.98816 73.9092 5.24512C73.8978 5.45655 73.9358 5.64888 74.0215 5.82031C74.1129 5.98579 74.2552 6.13744 74.4492 6.27441C74.6435 6.40583 74.8925 6.52523 75.1953 6.63379C75.4982 6.74236 75.8582 6.84007 76.2754 6.92578L77.7148 7.23438C78.6863 7.44009 79.5185 7.71168 80.21 8.04883C80.9012 8.38593 81.4673 8.78317 81.9072 9.24023C82.347 9.69153 82.6693 10.2001 82.875 10.7656C83.0864 11.3313 83.1955 11.9486 83.2012 12.6172C83.1954 13.7715 82.9064 14.7488 82.335 15.5488C81.7635 16.3487 80.9465 16.9569 79.8838 17.374C78.8266 17.7912 77.5551 18 76.0693 18C74.5437 18 73.2123 17.7746 72.0752 17.3232C70.9439 16.8719 70.0641 16.1772 69.4355 15.2402C68.8127 14.2974 68.4979 13.0915 68.4922 11.623H73.0186C73.0472 12.1601 73.1809 12.6119 73.4209 12.9775C73.6609 13.3431 73.9984 13.6201 74.4326 13.8086C74.8726 13.9971 75.3953 14.0918 76.001 14.0918C76.5095 14.0918 76.9355 14.029 77.2783 13.9033C77.6212 13.7776 77.8814 13.6027 78.0586 13.3799C78.2356 13.1571 78.3263 12.9028 78.332 12.6172C78.3263 12.3486 78.2378 12.1141 78.0664 11.9141C77.9007 11.7085 77.6268 11.5252 77.2441 11.3652C76.8613 11.1995 76.3438 11.0452 75.6924 10.9023L73.9443 10.5254C72.39 10.1882 71.1637 9.62549 70.2666 8.83691C69.3753 8.04271 68.9329 6.96005 68.9385 5.58887C68.9328 4.47479 69.2293 3.5002 69.8291 2.66602C70.4348 1.82609 71.2724 1.17169 72.3408 0.703125C73.4151 0.234565 74.6466 1.72815e-05 76.0352 0ZM49.4814 17.8613H44.6543V12.3096H49.4814V17.8613ZM67.2012 4.08008H59.834V7.09668H66.5498V10.9375H59.834V13.9541H67.167V17.7939H59.834V17.7959H55.8564L52.2656 12.458L49.4111 8.21387L49.1768 7.86621L48.5156 8.3252L45.9561 4.63184L49.8564 1.92773L50.4873 1.49023L53.0479 5.18359L52.3809 5.64551L52.3672 5.6543L54.9307 9.42969H55.0684V0.241211H55.998V0.240234H67.2012V4.08008ZM4.76562 13.9541H10.4678L14.9941 0.240234H21.5088L24.0723 8.00781L25.1035 11.1025L25.2236 11.1064L28.3184 0.240234H32.501L35.3467 11.0742H35.4834L38.3789 0.240234H43.1982L38.0205 17.7939H33.4609L30.4775 7.98828H30.3408L27.3574 17.7939H22.1602L21.1465 14.4346H15.3564L14.3428 17.7939H0V0.240234H4.76562V13.9541ZM99.4053 4.08008H94.125V17.7939H89.4277V4.08008H84.1475V0.240234H99.4053V4.08008ZM49.4814 10.8613V11.8271H44.6543V10.8613H49.4814ZM16.4336 10.8682H20.0693L18.3203 5.07422H18.1826L16.4336 10.8682ZM44.5576 5.16797C45.021 4.84671 45.6571 4.96153 45.9785 5.4248L47.8398 8.11035C48.1612 8.57387 48.0465 9.2109 47.583 9.53223C47.1195 9.85347 46.4834 9.7378 46.1621 9.27441L44.2998 6.58887C43.9785 6.12536 44.0941 5.48928 44.5576 5.16797ZM51.4297 0.339844C51.8931 0.0186199 52.5292 0.134303 52.8506 0.597656L54.7129 3.2832C55.0342 3.74671 54.9186 4.38278 54.4551 4.7041C53.9916 5.02537 53.3556 4.91057 53.0342 4.44727L51.1729 1.76172C50.8515 1.2982 50.9662 0.661171 51.4297 0.339844Z" fill="#003366"/>
</svg>
