<svg width="16" height="16" viewBox="0 0 16 16" fill="none" xmlns="http://www.w3.org/2000/svg">
<g clip-path="url(#clip0_10390_48187)">
<path d="M3.33335 4.66602L2.52135 5.20802C1.93868 5.59602 1.64735 5.79002 1.48935 6.08602C1.33135 6.38268 1.33268 6.73068 1.33535 7.42602C1.33801 8.26468 1.34601 9.11802 1.36735 9.98202C1.41868 12.032 1.44401 13.0567 2.19801 13.81C2.95135 14.5633 3.99001 14.59 6.06735 14.642C7.35581 14.6742 8.64488 14.6742 9.93335 14.642C12.0107 14.59 13.0493 14.564 13.8027 13.81C14.556 13.0567 14.582 12.032 14.6333 9.98202C14.6547 9.11802 14.6627 8.26468 14.6653 7.42668C14.6673 6.73068 14.6687 6.38268 14.5107 6.08668C14.3533 5.79002 14.062 5.59602 13.4793 5.20802L12.6667 4.66602" stroke="white" stroke-linecap="round" stroke-linejoin="round"/>
<path d="M1.33325 6.66602L5.94192 9.43135C6.94458 10.0327 7.44592 10.3327 7.99992 10.3327C8.55392 10.3327 9.05525 10.0327 10.0579 9.43068L14.6666 6.66602" stroke="white" stroke-linecap="round" stroke-linejoin="round"/>
<path d="M3.33325 7.99967V3.99967C3.33325 2.74234 3.33325 2.11434 3.72392 1.72367C4.11459 1.33301 4.74259 1.33301 5.99992 1.33301H9.99992C11.2573 1.33301 11.8853 1.33301 12.2759 1.72367C12.6666 2.11434 12.6666 2.74234 12.6666 3.99967V7.99967M6.66659 6.66634H9.33325M6.66659 3.99967H9.33325" stroke="white" stroke-linecap="round" stroke-linejoin="round"/>
</g>
<defs>
<clipPath id="clip0_10390_48187">
<rect width="16" height="16" fill="white"/>
</clipPath>
</defs>
</svg>
