<svg width="150" height="150" viewBox="0 0 150 150" fill="none" xmlns="http://www.w3.org/2000/svg">
<path opacity="0.07" d="M150 75C150 116.421 116.421 150 75 150C33.5786 150 0 116.421 0 75C0 33.5786 33.5786 0 75 0C116.421 0 150 33.5786 150 75Z" fill="#FF383C"/>
<path opacity="0.1" d="M136.555 75C136.555 108.996 108.996 136.555 74.9999 136.555C41.0042 136.555 13.4453 108.996 13.4453 75C13.4453 41.0044 41.0042 13.4454 74.9999 13.4454C108.996 13.4454 136.555 41.0044 136.555 75Z" fill="#FF383C"/>
<path d="M126.978 75.0001C126.978 103.708 103.706 126.98 74.999 126.98C46.2915 126.98 23.0195 103.708 23.0195 75.0001C23.0195 46.2926 46.2915 23.0206 74.999 23.0206C103.706 23.0206 126.978 46.2926 126.978 75.0001Z" fill="#FF383C"/>
<path d="M75.373 52.3212C87.6992 52.3212 97.6922 62.3134 97.6924 74.6395C97.6924 86.9658 87.6993 96.9589 75.373 96.9589C63.0469 96.9587 53.0547 86.9657 53.0547 74.6395C53.0549 62.3135 63.047 52.3214 75.373 52.3212Z" stroke="white" stroke-width="3"/>
<g clip-path="url(#clip0_10029_32538)">
<path d="M61.9609 76.5861L68.2497 82.8748L69.8359 81.2773L63.5584 74.9998M86.5197 67.7773L74.6172 79.6911L69.9372 74.9998L68.3284 76.5861L74.6172 82.8748L88.1172 69.3748M81.7497 69.3748L80.1634 67.7773L73.0197 74.9211L74.6172 76.5073L81.7497 69.3748Z" fill="white"/>
</g>
<defs>
<clipPath id="clip0_10029_32538">
<rect width="27" height="27" fill="white" transform="translate(61.5 61.5)"/>
</clipPath>
</defs>
</svg>
