<svg width="16" height="16" viewBox="0 0 16 16" fill="none" xmlns="http://www.w3.org/2000/svg">
<g clip-path="url(#clip0_12061_14076)">
<path d="M1.33203 8L7.76018 11.2141C7.84764 11.2578 7.89137 11.2797 7.93723 11.2883C7.97785 11.2959 8.01954 11.2959 8.06016 11.2883C8.10603 11.2797 8.14976 11.2578 8.23721 11.2141L14.6654 8M1.33203 11.3333L7.76018 14.5474C7.84764 14.5911 7.89137 14.613 7.93723 14.6216C7.97785 14.6292 8.01954 14.6292 8.06016 14.6216C8.10603 14.613 8.14976 14.5911 8.23721 14.5474L14.6654 11.3333M1.33203 4.66667L7.76018 1.45259C7.84764 1.40887 7.89137 1.387 7.93723 1.3784C7.97785 1.37078 8.01954 1.37078 8.06016 1.3784C8.10603 1.387 8.14976 1.40887 8.23721 1.45259L14.6654 4.66667L8.23721 7.88075C8.14976 7.92447 8.10603 7.94634 8.06016 7.95494C8.01954 7.96256 7.97785 7.96256 7.93723 7.95494C7.89137 7.94634 7.84764 7.92447 7.76018 7.88075L1.33203 4.66667Z" stroke="#414651" stroke-width="1.33333" stroke-linecap="round" stroke-linejoin="round"/>
</g>
<defs>
<clipPath id="clip0_12061_14076">
<rect width="16" height="16" fill="white"/>
</clipPath>
</defs>
</svg>
