<svg width="24" height="24" viewBox="0 0 24 24" fill="none" xmlns="http://www.w3.org/2000/svg">
<path d="M22.2889 9.00018C22.2889 10.0602 22.0943 11.0632 21.7049 12.0092C21.3156 12.9552 20.7966 13.8015 20.1479 14.5482C20.0379 14.6662 19.9096 14.7365 19.7629 14.7592C19.6169 14.7825 19.4849 14.7352 19.3669 14.6172C19.2536 14.5038 19.2019 14.3738 19.2119 14.2272C19.2219 14.0805 19.2803 13.9465 19.3869 13.8252C19.9636 13.1665 20.4149 12.4262 20.7409 11.6042C21.0669 10.7822 21.2303 9.91418 21.2309 9.00018C21.2316 8.08618 21.0683 7.22018 20.7409 6.40218C20.4136 5.58418 19.9623 4.84551 19.3869 4.18618C19.2763 4.06485 19.2169 3.93085 19.2089 3.78418C19.2003 3.63818 19.2529 3.50618 19.3669 3.38818C19.4809 3.27018 19.6123 3.22185 19.7609 3.24318C19.9096 3.26451 20.0386 3.33418 20.1479 3.45218C20.7966 4.19951 21.3156 5.04618 21.7049 5.99218C22.0943 6.93685 22.2889 7.93951 22.2889 9.00018ZM17.5839 9.00018C17.5839 9.41818 17.5136 9.82151 17.3729 10.2102C17.2316 10.5995 17.0366 10.9512 16.7879 11.2652C16.6946 11.3872 16.5769 11.4522 16.4349 11.4602C16.2929 11.4682 16.1633 11.4135 16.0459 11.2962C15.9319 11.1822 15.8739 11.0545 15.8719 10.9132C15.8699 10.7712 15.9119 10.6355 15.9979 10.5062C16.1619 10.2842 16.2893 10.0458 16.3799 9.79118C16.4699 9.53585 16.5149 9.27218 16.5149 9.00018C16.5149 8.70285 16.4699 8.43285 16.3799 8.19018C16.2893 7.94818 16.1619 7.71451 15.9979 7.48918C15.9119 7.35918 15.8699 7.22451 15.8719 7.08518C15.8739 6.94585 15.9319 6.81885 16.0459 6.70418C16.1639 6.58618 16.2939 6.53151 16.4359 6.54018C16.5779 6.54885 16.6953 6.61385 16.7879 6.73518C17.0366 7.04851 17.2316 7.39351 17.3729 7.77018C17.5143 8.14685 17.5846 8.55685 17.5839 9.00018ZM8.71194 12.0002C7.8806 12.0002 7.1726 11.7078 6.58794 11.1232C6.00327 10.5385 5.71094 9.83085 5.71094 9.00018C5.71094 8.16951 6.00327 7.46185 6.58794 6.87718C7.1726 6.29251 7.8806 6.00018 8.71194 6.00018C9.54327 6.00018 10.2509 6.29251 10.8349 6.87718C11.4189 7.46185 11.7113 8.16951 11.7119 9.00018C11.7126 9.83085 11.4203 10.5385 10.8349 11.1232C10.2496 11.7078 9.5426 12.0002 8.71194 12.0002ZM1.71094 18.1922V17.5852C1.71094 17.1252 1.82694 16.7272 2.05894 16.3912C2.2916 16.0552 2.61927 15.7878 3.04194 15.5892C3.85327 15.1938 4.75394 14.8688 5.74394 14.6142C6.73394 14.3588 7.72294 14.2312 8.71094 14.2312C9.69894 14.2312 10.6883 14.3588 11.6789 14.6142C12.6683 14.8688 13.5689 15.1938 14.3809 15.5892C14.8036 15.7878 15.1309 16.0552 15.3629 16.3912C15.5949 16.7265 15.7109 17.1245 15.7109 17.5852V18.1922C15.7109 18.4855 15.6113 18.7322 15.4119 18.9322C15.2126 19.1322 14.9663 19.2318 14.6729 19.2312H2.74994C2.4566 19.2312 2.20994 19.1312 2.00994 18.9312C1.80994 18.7312 1.7106 18.4848 1.71194 18.1922" fill="black"/>
</svg>
