<svg width="20" height="20" viewBox="0 0 20 20" fill="none" xmlns="http://www.w3.org/2000/svg">
<path d="M4.03955 10.3818C4.60443 10.3041 5.17769 10.4483 5.63916 10.7832C5.87033 10.9505 6.06536 11.1627 6.2124 11.4072C6.35952 11.6519 6.45533 11.9242 6.49463 12.207C6.53478 12.4854 6.5193 12.769 6.44775 13.041C6.37623 13.3129 6.25044 13.5675 6.07861 13.79V13.791L4.9624 15.2842L4.90674 15.3584H5.62549C5.86154 15.3585 6.08747 15.4532 6.25439 15.6201C6.42131 15.787 6.51599 16.013 6.51611 16.249C6.51611 16.4852 6.42142 16.7119 6.25439 16.8789C6.08747 17.0458 5.86153 17.1395 5.62549 17.1396H3.12549C2.9603 17.1396 2.79826 17.0936 2.65771 17.0068C2.5172 16.92 2.4036 16.7961 2.32959 16.6484C2.25559 16.5007 2.22418 16.3354 2.23877 16.1709C2.25336 16.0064 2.31288 15.8491 2.41162 15.7168L4.65186 12.7197L4.66162 12.707C4.68947 12.6722 4.7112 12.6328 4.72314 12.5898C4.72918 12.5681 4.73238 12.5458 4.73389 12.5234L4.73193 12.4561L4.71436 12.3877C4.70626 12.3653 4.6957 12.3436 4.68311 12.3232C4.65808 12.2829 4.6245 12.2477 4.58545 12.2207C4.49919 12.1585 4.39219 12.1312 4.28662 12.1445C4.18055 12.158 4.08322 12.2115 4.01514 12.2939V12.2949C4.00433 12.3086 3.99454 12.3229 3.98584 12.3379L3.9624 12.3848C3.87947 12.6038 3.71342 12.7823 3.50049 12.8799C3.28764 12.9774 3.0447 12.9873 2.82471 12.9072C2.60461 12.8271 2.42503 12.6628 2.32471 12.4512C2.23694 12.2659 2.2161 12.0569 2.26416 11.8594L2.28857 11.7764C2.34521 11.6208 2.42028 11.4728 2.51123 11.335L2.60693 11.2002C2.96074 10.7528 3.47453 10.4597 4.03955 10.3818ZM9.06299 14.1084H16.8755C17.1115 14.1085 17.3375 14.2032 17.5044 14.3701C17.6713 14.537 17.766 14.763 17.7661 14.999C17.7661 15.2352 17.6714 15.4619 17.5044 15.6289C17.3375 15.7958 17.1115 15.8895 16.8755 15.8896H9.06299C8.82678 15.8896 8.60013 15.7959 8.43311 15.6289C8.26611 15.4619 8.17236 15.2352 8.17236 14.999C8.17249 14.763 8.26623 14.537 8.43311 14.3701C8.60013 14.2031 8.82678 14.1084 9.06299 14.1084ZM9.06299 9.1084H16.8755C17.1115 9.1085 17.3375 9.20321 17.5044 9.37012C17.6713 9.53703 17.766 9.76299 17.7661 9.99902C17.7661 10.2352 17.6714 10.4619 17.5044 10.6289C17.3375 10.7958 17.1115 10.8895 16.8755 10.8896H9.06299C8.82678 10.8896 8.60013 10.7959 8.43311 10.6289C8.26611 10.4619 8.17236 10.2352 8.17236 9.99902C8.17249 9.76301 8.26623 9.53702 8.43311 9.37012C8.60013 9.20309 8.82678 9.1084 9.06299 9.1084ZM4.41553 2.23535C4.56699 2.24223 4.71427 2.2875 4.84326 2.36719C4.97232 2.44696 5.07891 2.5589 5.15283 2.69141C5.20825 2.79081 5.24391 2.89952 5.2583 3.01172L5.26611 3.125V8.12402C5.26611 8.36023 5.17142 8.58688 5.00439 8.75391C4.83747 8.9208 4.61153 9.01455 4.37549 9.01465C4.13928 9.01465 3.91263 8.92093 3.74561 8.75391C3.57861 8.58689 3.48486 8.36021 3.48486 8.12402V4.56543L3.42334 4.58496C3.21155 4.65393 2.98156 4.64103 2.77881 4.54883C2.57605 4.45661 2.41484 4.29188 2.32764 4.08691C2.24062 3.88217 2.23317 3.6522 2.30713 3.44238C2.38109 3.23292 2.5303 3.05701 2.72607 2.95215L2.72705 2.95312L3.97705 2.32812C4.1128 2.26035 4.26396 2.22848 4.41553 2.23535ZM9.06299 4.1084H16.8755C17.1115 4.1085 17.3375 4.20321 17.5044 4.37012C17.6713 4.53703 17.766 4.76299 17.7661 4.99902C17.7661 5.23523 17.6714 5.46188 17.5044 5.62891C17.3375 5.7958 17.1115 5.88955 16.8755 5.88965H9.06299C8.82678 5.88965 8.60013 5.79593 8.43311 5.62891C8.26611 5.46189 8.17236 5.23521 8.17236 4.99902C8.17249 4.76301 8.26623 4.53702 8.43311 4.37012C8.60013 4.20309 8.82678 4.1084 9.06299 4.1084Z" fill="#475569" stroke="#475569" stroke-width="0.09375"/>
</svg>
