<svg width="20" height="20" viewBox="0 0 20 20" fill="none" xmlns="http://www.w3.org/2000/svg">
<path d="M4.03906 10.3826C4.60394 10.3049 5.1772 10.449 5.63867 10.7839C5.86985 10.9512 6.06487 11.1634 6.21191 11.408C6.35903 11.6527 6.45484 11.925 6.49414 12.2078C6.53429 12.4861 6.51881 12.7698 6.44727 13.0417C6.37574 13.3137 6.24995 13.5682 6.07812 13.7908V13.7917L4.96191 15.2849L4.90625 15.3591H5.625C5.86105 15.3592 6.08698 15.4539 6.25391 15.6208C6.42082 15.7878 6.5155 16.0137 6.51562 16.2498C6.51562 16.486 6.42093 16.7126 6.25391 16.8796C6.08698 17.0465 5.86104 17.1403 5.625 17.1404H3.125C2.95981 17.1403 2.79777 17.0944 2.65723 17.0076C2.51671 16.9208 2.40311 16.7968 2.3291 16.6492C2.2551 16.5015 2.2237 16.3362 2.23828 16.1716C2.25287 16.0072 2.31239 15.8499 2.41113 15.7175L4.65137 12.7205L4.66113 12.7078C4.68898 12.6729 4.71071 12.6335 4.72266 12.5906C4.72869 12.5689 4.73189 12.5465 4.7334 12.5242L4.73145 12.4568L4.71387 12.3884C4.70577 12.3661 4.69521 12.3443 4.68262 12.324C4.65759 12.2836 4.62402 12.2484 4.58496 12.2214C4.4987 12.1592 4.39171 12.1319 4.28613 12.1453C4.18007 12.1587 4.08274 12.2122 4.01465 12.2947V12.2957C4.00384 12.3093 3.99405 12.3236 3.98535 12.3386L3.96191 12.3855C3.87898 12.6046 3.71293 12.783 3.5 12.8806C3.28715 12.9781 3.04421 12.9881 2.82422 12.908C2.60412 12.8278 2.42454 12.6636 2.32422 12.4519C2.23646 12.2666 2.21561 12.0576 2.26367 11.8601L2.28809 11.7771C2.34472 11.6215 2.41979 11.4736 2.51074 11.3357L2.60645 11.2009C2.96025 10.7536 3.47404 10.4604 4.03906 10.3826ZM9.0625 14.1091H16.875C17.111 14.1092 17.337 14.2039 17.5039 14.3708C17.6708 14.5378 17.7655 14.7637 17.7656 14.9998C17.7656 15.236 17.6709 15.4626 17.5039 15.6296C17.337 15.7965 17.111 15.8903 16.875 15.8904H9.0625C8.82629 15.8904 8.59964 15.7967 8.43262 15.6296C8.26562 15.4626 8.17188 15.2359 8.17188 14.9998C8.172 14.7637 8.26574 14.5378 8.43262 14.3708C8.59964 14.2038 8.82629 14.1091 9.0625 14.1091ZM9.0625 9.10913H16.875C17.111 9.10923 17.337 9.20394 17.5039 9.37085C17.6708 9.53776 17.7655 9.76372 17.7656 9.99976C17.7656 10.236 17.6709 10.4626 17.5039 10.6296C17.337 10.7965 17.111 10.8903 16.875 10.8904H9.0625C8.82629 10.8904 8.59964 10.7967 8.43262 10.6296C8.26562 10.4626 8.17188 10.2359 8.17188 9.99976C8.172 9.76375 8.26574 9.53776 8.43262 9.37085C8.59964 9.20383 8.82629 9.10913 9.0625 9.10913ZM4.41504 2.23608C4.56651 2.24297 4.71378 2.28823 4.84277 2.36792C4.97184 2.44769 5.07843 2.55964 5.15234 2.69214C5.20776 2.79154 5.24342 2.90025 5.25781 3.01245L5.26562 3.12573V8.12476C5.26562 8.36096 5.17093 8.58761 5.00391 8.75464C4.83698 8.92154 4.61104 9.01528 4.375 9.01538C4.13879 9.01538 3.91214 8.92166 3.74512 8.75464C3.57812 8.58762 3.48438 8.36094 3.48438 8.12476V4.56616L3.42285 4.58569C3.21107 4.65467 2.98107 4.64176 2.77832 4.54956C2.57556 4.45734 2.41435 4.29261 2.32715 4.08765C2.24013 3.8829 2.23268 3.65293 2.30664 3.44312C2.3806 3.23366 2.52981 3.05774 2.72559 2.95288L2.72656 2.95386L3.97656 2.32886C4.11231 2.26109 4.26347 2.22921 4.41504 2.23608ZM9.0625 4.10913H16.875C17.111 4.10923 17.337 4.20394 17.5039 4.37085C17.6708 4.53776 17.7655 4.76372 17.7656 4.99976C17.7656 5.23596 17.6709 5.46261 17.5039 5.62964C17.337 5.79654 17.111 5.89028 16.875 5.89038H9.0625C8.82629 5.89038 8.59964 5.79666 8.43262 5.62964C8.26562 5.46262 8.17188 5.23594 8.17188 4.99976C8.172 4.76375 8.26574 4.53776 8.43262 4.37085C8.59964 4.20383 8.82629 4.10913 9.0625 4.10913Z" fill="black" stroke="black" stroke-width="0.09375"/>
</svg>
