<svg width="24" height="24" viewBox="0 0 24 24" fill="none" xmlns="http://www.w3.org/2000/svg">
<path d="M3 18H21V6H3V18ZM1 5C1 4.73478 1.10536 4.48043 1.29289 4.29289C1.48043 4.10536 1.73478 4 2 4H22C22.2652 4 22.5196 4.10536 22.7071 4.29289C22.8946 4.48043 23 4.73478 23 5V19C23 19.2652 22.8946 19.5196 22.7071 19.7071C22.5196 19.8946 22.2652 20 22 20H2C1.73478 20 1.48043 19.8946 1.29289 19.7071C1.10536 19.5196 1 19.2652 1 19V5ZM9 10C9 9.73478 8.89464 9.48043 8.70711 9.29289C8.51957 9.10536 8.26522 9 8 9C7.73478 9 7.48043 9.10536 7.29289 9.29289C7.10536 9.48043 7 9.73478 7 10C7 10.2652 7.10536 10.5196 7.29289 10.7071C7.48043 10.8946 7.73478 11 8 11C8.26522 11 8.51957 10.8946 8.70711 10.7071C8.89464 10.5196 9 10.2652 9 10ZM11 10C11 10.7956 10.6839 11.5587 10.1213 12.1213C9.55871 12.6839 8.79565 13 8 13C7.20435 13 6.44129 12.6839 5.87868 12.1213C5.31607 11.5587 5 10.7956 5 10C5 9.20435 5.31607 8.44129 5.87868 7.87868C6.44129 7.31607 7.20435 7 8 7C8.79565 7 9.55871 7.31607 10.1213 7.87868C10.6839 8.44129 11 9.20435 11 10ZM8.002 16C7.035 16 6.162 16.39 5.527 17.025L4.113 15.611C5.14441 14.5795 6.54333 14 8.002 14C9.46053 13.9998 10.8594 14.5789 11.891 15.61L10.477 17.025C10.152 16.7 9.76611 16.4422 9.34144 16.2663C8.91678 16.0905 8.46164 16 8.002 16ZM17.792 8.793L16 10.586L14.207 8.793L12.793 10.207L14.586 12L12.793 13.793L14.207 15.207L16 13.414L17.793 15.207L19.207 13.793L17.414 12L19.207 10.207L17.792 8.793Z" fill="white"/>
</svg>
