<svg width="24" height="24" viewBox="0 0 24 24" fill="none" xmlns="http://www.w3.org/2000/svg">
<g clip-path="url(#clip0_10349_35652)">
<path d="M12 17.357C12.7577 17.357 13.4844 17.056 14.0202 16.5202M12 17.357C11.2423 17.357 10.5156 17.056 9.9798 16.5202M12 17.357V19.5M14.0202 16.5202C14.556 15.9844 14.857 15.2577 14.857 14.5M14.0202 16.5202L15.536 18.036M14.857 14.5C14.857 13.7423 14.556 13.0156 14.0202 12.4798M14.857 14.5H17M14.0202 12.4798C13.4844 11.944 12.7577 11.643 12 11.643M14.0202 12.4798L15.536 10.964M12 11.643C11.2423 11.643 10.5156 11.944 9.9798 12.4798M12 11.643V9.5M9.9798 12.4798C9.444 13.0156 9.143 13.7423 9.143 14.5M9.9798 12.4798L8.464 10.964M9.143 14.5C9.143 15.2577 9.444 15.9844 9.9798 16.5202M9.143 14.5H7M9.9798 16.5202L8.464 18.036M11.524 9.5H12.476M15.199 10.628L15.872 11.301M17 14.024V14.976M15.872 17.699L15.199 18.372M12.476 19.5H11.524M8.801 18.372L8.128 17.699M7 14.976V14.024M8.128 11.301L8.801 10.628" stroke="white" stroke-width="1.5" stroke-linecap="round" stroke-linejoin="round"/>
<path d="M21.167 6.5H2.833C1.821 6.5 1 7.32 1 8.333V21.167C1 22.179 1.82 23 2.833 23H21.167C22.179 23 23 22.18 23 21.167V8.333C23 7.321 22.18 6.5 21.167 6.5Z" stroke="white" stroke-width="1.5" stroke-linecap="round" stroke-linejoin="round"/>
<path d="M22.408 6.985L18.961 1.816C18.7937 1.56465 18.5668 1.35861 18.3006 1.21623C18.0343 1.07385 17.737 0.999571 17.435 1H6.56504C6.26311 0.999571 5.96575 1.07385 5.6995 1.21623C5.43324 1.35861 5.20634 1.56465 5.03904 1.816L1.59204 6.985M12 1V6.5" stroke="white" stroke-width="1.5" stroke-linecap="round" stroke-linejoin="round"/>
</g>
<defs>
<clipPath id="clip0_10349_35652">
<rect width="24" height="24" fill="white"/>
</clipPath>
</defs>
</svg>
