<svg width="24" height="24" viewBox="0 0 24 24" fill="none" xmlns="http://www.w3.org/2000/svg">
<g clip-path="url(#clip0_9932_17038)">
<path d="M0 22.5H5.7C7.38 22.5 8.22 22.5 8.865 22.173C9.429 21.885 9.888 21.426 10.176 20.862C10.503 20.22 10.503 19.38 10.503 17.697V6.29702C10.503 4.61702 10.503 3.77702 10.176 3.13202C9.88838 2.56756 9.42946 2.10863 8.865 1.82102C8.223 1.49402 7.383 1.49402 5.7 1.49402H0V2.99402H5.7C6.5655 2.99402 7.1235 2.99402 7.545 3.03002C7.953 3.06302 8.103 3.12002 8.178 3.15752C8.46 3.30152 8.6895 3.53252 8.8335 3.81302C8.871 3.88802 8.928 4.03802 8.961 4.44602C8.9955 4.87052 8.997 5.43002 8.997 6.29102V17.691C8.997 18.5565 8.997 19.116 8.961 19.536C8.928 19.944 8.871 20.094 8.8335 20.169C8.68969 20.4512 8.46023 20.6807 8.178 20.8245C8.103 20.862 7.953 20.919 7.545 20.952C7.1205 20.9865 6.561 20.988 5.7 20.988H0V22.488V22.5ZM24 1.50002H18.3C16.62 1.50002 15.78 1.50002 15.135 1.82702C14.5705 2.11463 14.1116 2.57356 13.824 3.13802C13.497 3.78002 13.497 4.62002 13.497 6.30302V17.703C13.497 19.383 13.497 20.223 13.824 20.868C14.112 21.432 14.571 21.891 15.135 22.179C15.777 22.506 16.617 22.506 18.3 22.506H24V21.006H18.3C17.4345 21.006 16.8765 21.006 16.455 20.97C16.047 20.937 15.897 20.88 15.822 20.8425C15.5398 20.6987 15.3103 20.4692 15.1665 20.187C15.129 20.112 15.072 19.962 15.039 19.554C15.0047 18.9397 14.9927 18.3243 15.003 17.709V6.30902C15.003 5.44352 15.003 4.88402 15.039 4.46402C15.072 4.05602 15.129 3.90602 15.1665 3.83102C15.3105 3.54902 15.54 3.31952 15.822 3.17552C15.897 3.13802 16.047 3.08102 16.455 3.04802C16.8795 3.01352 17.439 3.01202 18.3 3.01202H24V1.51202V1.50002Z" fill="white"/>
<path d="M6 6.75C6 6.55109 5.92098 6.36032 5.78033 6.21967C5.63968 6.07902 5.44891 6 5.25 6H0V7.5H5.25C5.44891 7.5 5.63968 7.42098 5.78033 7.28033C5.92098 7.13968 6 6.94891 6 6.75ZM5.25 10.5C5.44891 10.5 5.63968 10.579 5.78033 10.7197C5.92098 10.8603 6 11.0511 6 11.25C6 11.4489 5.92098 11.6397 5.78033 11.7803C5.63968 11.921 5.44891 12 5.25 12H0V10.5H5.25ZM6 15.75C6 15.5511 5.92098 15.3603 5.78033 15.2197C5.63968 15.079 5.44891 15 5.25 15H0V16.5H5.25C5.44891 16.5 5.63968 16.421 5.78033 16.2803C5.92098 16.1397 6 15.9489 6 15.75ZM18.75 6C18.5511 6 18.3603 6.07902 18.2197 6.21967C18.079 6.36032 18 6.55109 18 6.75C18 6.94891 18.079 7.13968 18.2197 7.28033C18.3603 7.42098 18.5511 7.5 18.75 7.5H24V6H18.75ZM18 11.25C18 11.0511 18.079 10.8603 18.2197 10.7197C18.3603 10.579 18.5511 10.5 18.75 10.5H24V12H18.75C18.5511 12 18.3603 11.921 18.2197 11.7803C18.079 11.6397 18 11.4489 18 11.25ZM18.75 15C18.5511 15 18.3603 15.079 18.2197 15.2197C18.079 15.3603 18 15.5511 18 15.75C18 15.9489 18.079 16.1397 18.2197 16.2803C18.3603 16.421 18.5511 16.5 18.75 16.5H24V15H18.75Z" fill="white"/>
</g>
<defs>
<clipPath id="clip0_9932_17038">
<rect width="24" height="24" fill="white"/>
</clipPath>
</defs>
</svg>
