<svg width="46" height="32" viewBox="0 0 46 32" fill="none" xmlns="http://www.w3.org/2000/svg">
<path d="M4 0.5H42C43.933 0.5 45.5 2.067 45.5 4V28C45.5 29.933 43.933 31.5 42 31.5H4C2.067 31.5 0.5 29.933 0.5 28V4C0.5 2.067 2.067 0.5 4 0.5Z" fill="white"/>
<path d="M4 0.5H42C43.933 0.5 45.5 2.067 45.5 4V28C45.5 29.933 43.933 31.5 42 31.5H4C2.067 31.5 0.5 29.933 0.5 28V4C0.5 2.067 2.067 0.5 4 0.5Z" stroke="#E9EAEB"/>
<path fill-rule="evenodd" clip-rule="evenodd" d="M19.488 24.5979L19.7823 22.6657L19.1267 22.6499H15.9961L18.1717 8.39176C18.1785 8.34858 18.2004 8.3085 18.2324 8.27999C18.2646 8.25148 18.3056 8.23584 18.3484 8.23584H23.6271C25.3796 8.23584 26.589 8.61269 27.2203 9.35661C27.5163 9.7056 27.7049 10.0704 27.7961 10.4717C27.8918 10.8928 27.8934 11.396 27.8001 12.0097L27.7933 12.0543V12.4476L28.0893 12.621C28.3386 12.7577 28.5367 12.9141 28.6887 13.0932C28.9418 13.3916 29.1056 13.7709 29.1748 14.2204C29.2464 14.6828 29.2227 15.2332 29.1056 15.8562C28.9705 16.5728 28.7522 17.1969 28.4573 17.7076C28.1861 18.1781 27.8406 18.5685 27.4303 18.8709C27.0386 19.1583 26.5732 19.3764 26.0471 19.516C25.5371 19.6532 24.9558 19.7225 24.3181 19.7225H23.9074C23.6137 19.7225 23.3284 19.8318 23.1044 20.0278C22.8797 20.2279 22.7313 20.5013 22.6857 20.8002L22.6546 20.9742L22.1346 24.3799L22.1111 24.5048C22.1048 24.5444 22.0941 24.5641 22.0783 24.5775C22.0643 24.5897 22.0441 24.5979 22.0244 24.5979H19.488Z" fill="#28356A"/>
<path fill-rule="evenodd" clip-rule="evenodd" d="M28.3707 12.0996C28.3551 12.2037 28.337 12.3101 28.3168 12.4194C27.6207 16.1136 25.239 17.3898 22.1973 17.3898H20.6486C20.2766 17.3898 19.9631 17.6689 19.9052 18.0482L18.8877 24.7192C18.85 24.9683 19.0357 25.1927 19.2788 25.1927H22.0257C22.3509 25.1927 22.6272 24.9485 22.6784 24.6169L22.7054 24.4727L23.2226 21.0804L23.2558 20.8944C23.3064 20.5617 23.5834 20.3173 23.9086 20.3173H24.3194C26.9807 20.3173 29.0641 19.2006 29.6731 15.9688C29.9273 14.6188 29.7957 13.4915 29.1226 12.6987C28.9189 12.4597 28.6663 12.2612 28.3707 12.0996Z" fill="#298FC2"/>
<path fill-rule="evenodd" clip-rule="evenodd" d="M27.6397 11.7997C27.5333 11.7676 27.4236 11.7386 27.3111 11.7124C27.1979 11.6868 27.082 11.6642 26.9627 11.6443C26.5451 11.5746 26.0875 11.5415 25.5974 11.5415H21.4601C21.3581 11.5415 21.2613 11.5653 21.1748 11.6083C20.9839 11.7031 20.8421 11.8898 20.8078 12.1184L19.9276 17.8805L19.9023 18.0484C19.9602 17.6692 20.2737 17.3901 20.6457 17.3901H22.1945C25.2362 17.3901 27.6178 16.1132 28.3139 12.4197C28.3347 12.3104 28.3522 12.204 28.3678 12.0999C28.1918 12.0032 28.001 11.9206 27.7956 11.8502C27.7449 11.8328 27.6925 11.816 27.6397 11.7997Z" fill="#22284F"/>
<path fill-rule="evenodd" clip-rule="evenodd" d="M20.8088 12.1183C20.8432 11.8897 20.9849 11.703 21.1758 11.6089C21.2629 11.5657 21.3591 11.5419 21.4611 11.5419H25.5985C26.0886 11.5419 26.5462 11.5751 26.9637 11.6449C27.0831 11.6646 27.1989 11.6874 27.3121 11.713C27.4246 11.739 27.5344 11.7682 27.6408 11.8001C27.6936 11.8164 27.7459 11.8334 27.7971 11.8502C28.0025 11.9205 28.1934 12.0038 28.3695 12.0998C28.5766 10.7346 28.3678 9.8051 27.6537 8.96342C26.8663 8.0367 25.4454 7.64014 23.6271 7.64014H18.3483C17.9769 7.64014 17.6601 7.91923 17.6027 8.29917L15.4041 22.704C15.3607 22.9889 15.5734 23.246 15.8514 23.246H19.1103L20.8088 12.1183Z" fill="#28356A"/>
</svg>
