<svg width="60" height="60" viewBox="0 0 60 60" fill="none" xmlns="http://www.w3.org/2000/svg">
<g clip-path="url(#clip0_10335_25072)">
<path d="M35.6248 28.125C35.6243 29.6173 35.031 31.0484 33.9754 32.1033C32.9199 33.1581 31.4884 33.7505 29.9961 33.75C28.5038 33.7495 27.0727 33.1562 26.0178 32.1006C24.9629 31.045 24.3706 29.6136 24.3711 28.1213C24.3716 26.6289 24.9649 25.1979 26.0205 24.143C27.0761 23.0881 28.5075 22.4958 29.9998 22.4963C31.4922 22.4967 32.9232 23.0901 33.9781 24.1456C35.033 25.2012 35.6253 26.6327 35.6248 28.125ZM53.5123 15H43.9873C42.2668 15 40.6166 15.6835 39.4 16.9001C38.1833 18.1168 37.4998 19.7669 37.4998 21.4875V33.75C37.4998 34.7446 37.8949 35.6984 38.5982 36.4016C39.3015 37.1049 40.2553 37.5 41.2498 37.5V60H56.2498V37.5C57.2444 37.5 58.1982 37.1049 58.9015 36.4016C59.6048 35.6984 59.9998 34.7446 59.9998 33.75V21.4875C59.9998 19.7669 59.3163 18.1168 58.0997 16.9001C56.8831 15.6835 55.2329 15 53.5123 15Z" fill="white"/>
<path d="M56.25 7.50012C56.2726 8.49889 56.0954 9.49211 55.7289 10.4215C55.3623 11.3508 54.8138 12.1976 54.1155 12.912C53.4172 13.6265 52.5832 14.1942 51.6625 14.5819C50.7417 14.9696 49.7528 15.1694 48.7538 15.1697C47.7548 15.1699 46.7658 14.9706 45.8448 14.5834C44.9239 14.1961 44.0896 13.6288 43.391 12.9147C42.6923 12.2006 42.1434 11.3541 41.7764 10.425C41.4093 9.49578 41.2317 8.50265 41.2537 7.50387C41.2971 5.54426 42.1058 3.67949 43.5069 2.30873C44.9079 0.937973 46.79 0.170168 48.75 0.169678C50.7101 0.169188 52.5925 0.936051 53.9943 2.30611C55.396 3.67617 56.2057 5.54054 56.25 7.50012ZM16.0125 18.7501H6.4875C5.6353 18.7504 4.7915 18.9185 4.00427 19.2448C3.21703 19.5712 2.50179 20.0494 1.89937 20.6521C1.29695 21.2549 0.819151 21.9704 0.493257 22.7579C0.167363 23.5453 -0.000245958 24.3892 2.709e-07 25.2414C0.000246499 26.0936 0.168343 26.9374 0.494692 27.7246C0.821041 28.5118 1.29925 29.2271 1.90202 29.8295C2.50479 30.4319 3.22031 30.9097 4.00773 31.2356C4.79515 31.5615 5.63905 31.7291 6.49125 31.7289C8.21234 31.7284 9.86274 31.0442 11.0794 29.8269C12.296 28.6095 12.9792 26.9587 12.9787 25.2376C12.9783 23.5165 12.2941 21.8661 11.0767 20.6495C9.85938 19.4328 8.20859 18.7496 6.4875 18.7501C4.76691 18.7501 3.11601 19.4355 1.89937 20.6521C0.682726 21.8688 2.709e-07 23.5208 2.709e-07 25.2414L4.07654e-07 33.7501C4.07654e-07 34.7447 0.395089 35.6985 1.09835 36.4018C1.80161 37.105 2.75544 37.5001 3.75 37.5001L4.07654e-07 48.7501H3.75V60.0001H18.75V48.7501H22.5L18.75 37.5001C19.7446 37.5001 20.6984 37.105 21.4016 36.4018C22.1049 35.6985 22.5 34.7447 22.5 33.7501V25.2376C22.5 24.3857 22.3322 23.5421 22.0062 22.755C21.6801 21.9679 21.2023 21.2527 20.5999 20.6503C19.9974 20.0478 19.2823 19.57 18.4952 19.244C17.7081 18.9179 16.8645 18.7501 16.0125 18.7501Z" fill="white"/>
<path d="M18.75 11.2501C18.7726 12.2489 18.5954 13.2421 18.2289 14.1715C17.8623 15.1008 17.3138 15.9476 16.6155 16.662C15.9172 17.3765 15.0832 17.9442 14.1625 18.3319C13.2418 18.7196 12.2529 18.9194 11.2538 18.9197C10.2548 18.9199 9.26579 18.7206 8.34487 18.3334C7.42394 17.9461 6.58966 17.3788 5.89101 16.6647C5.19235 15.9506 4.6434 15.1041 4.27639 14.175C3.90938 13.2458 3.7317 12.2527 3.75379 11.2539C3.79712 9.29426 4.60588 7.42949 6.00693 6.05873C7.40799 4.68797 9.28999 3.92017 11.2501 3.91968C13.2102 3.91919 15.0926 4.68605 16.4943 6.05611C17.896 7.42617 18.7057 9.29054 18.75 11.2501ZM26.25 48.7501V60.0001H33.75V48.7501C34.7446 48.7501 35.6984 48.355 36.4017 47.6518C37.1049 46.9485 37.5 45.9947 37.5 45.0001V39.2251C37.5 37.7731 36.9232 36.3805 35.8965 35.3537C34.8697 34.3269 33.4771 33.7501 32.025 33.7501H27.975C26.523 33.7501 25.1304 34.3269 24.1036 35.3537C23.0769 36.3805 22.5 37.7731 22.5 39.2251V45.0001C22.5 45.9947 22.8951 46.9485 23.5984 47.6518C24.3016 48.355 25.2555 48.7501 26.25 48.7501Z" fill="white"/>
</g>
<defs>
<clipPath id="clip0_10335_25072">
<rect width="60" height="60" fill="white"/>
</clipPath>
</defs>
</svg>
