<svg width="11" height="14" viewBox="0 0 11 14" fill="none" xmlns="http://www.w3.org/2000/svg">
<path d="M1.02739 3.84424C0.836394 2.58624 1.72339 1.45624 3.07839 1.04224C3.31885 0.969217 3.57809 0.990375 3.80352 1.10142C4.02896 1.21247 4.20373 1.40509 4.29239 1.64024L4.72739 2.80024C4.79742 2.98685 4.81008 3.19013 4.76376 3.38399C4.71743 3.57785 4.61423 3.75345 4.46739 3.88824L3.17339 5.07324C3.10953 5.13171 3.06195 5.20577 3.0353 5.28816C3.00866 5.37054 3.00386 5.45844 3.02139 5.54324L3.03339 5.59524L3.06439 5.72524C3.22572 6.35675 3.4709 6.96381 3.79339 7.53024C4.14552 8.13165 4.58195 8.67955 5.08939 9.15724L5.12939 9.19324C5.19399 9.25058 5.27235 9.29021 5.35682 9.30826C5.44129 9.32631 5.529 9.32217 5.61139 9.29624L7.28439 8.76924C7.47452 8.70954 7.67816 8.70801 7.86916 8.76485C8.06017 8.82169 8.22983 8.9343 8.35639 9.08824L9.14839 10.0492C9.47839 10.4492 9.43839 11.0372 9.05939 11.3902C8.0224 12.3572 6.59639 12.5552 5.60439 11.7582C4.38791 10.7779 3.36275 9.58156 2.58039 8.22924C1.79038 6.8787 1.26411 5.39086 1.02739 3.84424ZM4.06939 5.60924L5.14139 4.62524C5.43523 4.35577 5.64183 4.00464 5.73466 3.61691C5.82749 3.22918 5.80233 2.82256 5.66239 2.44924L5.22839 1.28924C5.05035 0.816009 4.69884 0.428299 4.24527 0.20486C3.79171 -0.0185797 3.2701 -0.060992 2.78639 0.0862377C1.10339 0.601238 -0.247606 2.11024 0.038394 3.99524C0.238394 5.31124 0.699394 6.98524 1.71639 8.73324C2.56051 10.1914 3.66634 11.4813 4.97839 12.5382C6.46639 13.7332 8.45239 13.3252 9.74239 12.1232C10.1115 11.7796 10.3356 11.308 10.3688 10.8047C10.4021 10.3015 10.2421 9.80451 9.92139 9.41524L9.12939 8.45324C8.87603 8.14572 8.53659 7.92089 8.15459 7.80757C7.7726 7.69425 7.36546 7.69762 6.98539 7.81724L5.59639 8.25424C5.23774 7.88449 4.9236 7.47403 4.66039 7.03124C4.40641 6.58346 4.20826 6.10623 4.07039 5.61024" fill="white"/>
</svg>
