<svg width="20" height="20" viewBox="0 0 20 20" fill="none" xmlns="http://www.w3.org/2000/svg">
<path d="M3.75 2.23438H16.25C16.652 2.23438 17.0371 2.39448 17.3213 2.67871C17.6055 2.96295 17.7656 3.34803 17.7656 3.75V16.25C17.7656 16.652 17.6055 17.0371 17.3213 17.3213C17.0371 17.6055 16.652 17.7656 16.25 17.7656H3.75C3.34803 17.7656 2.96295 17.6055 2.67871 17.3213C2.39448 17.0371 2.23438 16.652 2.23438 16.25V3.75C2.23438 3.34803 2.39448 2.96295 2.67871 2.67871C2.96295 2.39448 3.34803 2.23438 3.75 2.23438ZM4.01562 16.0283L4.0957 15.9492L12.3662 7.67871C12.6504 7.39458 13.0356 7.23438 13.4375 7.23438C13.8394 7.23438 14.2246 7.39458 14.5088 7.67871L15.9043 9.07422L15.9844 9.15332V4.01562H4.01562V16.0283ZM6.91992 6.09961C7.19687 5.9849 7.5019 5.95519 7.7959 6.01367C8.08981 6.07218 8.35938 6.2168 8.57129 6.42871C8.7832 6.64062 8.92782 6.91019 8.98633 7.2041C9.04481 7.4981 9.0151 7.80313 8.90039 8.08008C8.78568 8.357 8.59102 8.59323 8.3418 8.75977C8.09255 8.9263 7.79976 9.01562 7.5 9.01562C7.09803 9.01562 6.71295 8.85552 6.42871 8.57129C6.14448 8.28705 5.98438 7.90197 5.98438 7.5C5.98438 7.20024 6.0737 6.90745 6.24023 6.6582C6.40677 6.40898 6.643 6.21432 6.91992 6.09961ZM15.9844 11.6729L13.4375 9.12598L6.5791 15.9844H15.9844V11.6729Z" fill="black" stroke="black" stroke-width="0.09375"/>
</svg>
