<svg width="24" height="24" viewBox="0 0 24 24" fill="none" xmlns="http://www.w3.org/2000/svg">
<path d="M20 11.9696L12.4356 19.5497C11.5089 20.4783 10.252 21 8.94144 21C7.63089 21 6.37401 20.4783 5.44731 19.5497C4.52061 18.6211 4 17.3616 4 16.0483C4 14.7351 4.52061 13.4756 5.44731 12.547L13.0117 4.96687C13.6295 4.34779 14.4675 4 15.3412 4C16.2149 4 17.0528 4.34779 17.6706 4.96687C18.2884 5.58595 18.6355 6.4256 18.6355 7.30111C18.6355 8.17662 18.2884 9.01627 17.6706 9.63535L10.0979 17.2154C9.94497 17.3687 9.76339 17.4903 9.56355 17.5732C9.36371 17.6562 9.14952 17.6989 8.93321 17.6989C8.7169 17.6989 8.50272 17.6562 8.30287 17.5732C8.10303 17.4903 7.92145 17.3687 7.7685 17.2154C7.61555 17.0622 7.49422 16.8802 7.41144 16.68C7.32867 16.4797 7.28606 16.2651 7.28606 16.0483C7.28606 15.8316 7.32867 15.6169 7.41144 15.4167C7.49422 15.2164 7.61555 15.0345 7.7685 14.8812L14.7568 7.88674" stroke="#003366" stroke-width="1.5" stroke-linecap="round" stroke-linejoin="round"/>
</svg>
