<svg width="24" height="24" viewBox="0 0 24 24" fill="none" xmlns="http://www.w3.org/2000/svg">
<path d="M19.4617 5.57604C18.7737 4.82604 17.5327 4.78004 16.7057 5.60704L8.60572 13.707C8.39572 13.917 8.39572 14.183 8.60572 14.393C8.81572 14.603 9.08172 14.603 9.29172 14.393L15.9917 7.69304C16.1803 7.51089 16.4329 7.41009 16.6951 7.41237C16.9573 7.41465 17.2081 7.51982 17.3935 7.70523C17.5789 7.89063 17.6841 8.14145 17.6864 8.40364C17.6887 8.66584 17.5879 8.91844 17.4057 9.10704L10.7057 15.807C10.4774 16.042 10.2042 16.2288 9.90245 16.3563C9.60066 16.4839 9.27635 16.5496 8.94872 16.5496C8.62108 16.5496 8.29678 16.4839 7.99499 16.3563C7.6932 16.2288 7.42005 16.042 7.19172 15.807C6.95676 15.5787 6.76998 15.3056 6.64244 15.0038C6.5149 14.702 6.44919 14.3777 6.44919 14.05C6.44919 13.7224 6.5149 13.3981 6.64244 13.0963C6.76998 12.7945 6.95676 12.5214 7.19172 12.293L15.2917 4.19304C16.8587 2.62504 19.4067 2.57404 20.9217 4.20804C22.4737 5.77704 22.5187 8.31204 20.8917 9.82104L11.4057 19.307C9.21572 21.497 5.78172 21.497 3.59172 19.307C1.40172 17.117 1.40172 13.683 3.59172 11.493L11.6917 3.39304C11.8803 3.21089 12.1329 3.11009 12.3951 3.11237C12.6573 3.11465 12.9081 3.21982 13.0935 3.40523C13.2789 3.59063 13.3841 3.84145 13.3864 4.10364C13.3887 4.36584 13.2879 4.61844 13.1057 4.80704L5.00572 12.907C3.59572 14.317 3.59572 16.483 5.00572 17.893C6.41572 19.303 8.58172 19.303 9.99172 17.893L19.4917 8.39304L19.5227 8.36304C20.2727 7.67604 20.3187 6.43404 19.4917 5.60704L19.4617 5.57604Z" fill="#003366"/>
</svg>
