<svg width="20" height="20" viewBox="0 0 20 20" fill="none" xmlns="http://www.w3.org/2000/svg">
<g clip-path="url(#clip0_12292_6838)">
<path d="M9.99935 18.3327C14.6017 18.3327 18.3327 14.6017 18.3327 9.99935C18.3327 5.39698 14.6017 1.66602 9.99935 1.66602C5.39698 1.66602 1.66602 5.39698 1.66602 9.99935C1.66602 14.6017 5.39698 18.3327 9.99935 18.3327Z" stroke="#003366" stroke-width="1.66667" stroke-linecap="round" stroke-linejoin="round"/>
<path d="M7.91602 7.47046C7.91602 7.07272 7.91602 6.87385 7.99913 6.76283C8.07157 6.66608 8.18244 6.60555 8.303 6.59693C8.44134 6.58705 8.60862 6.69459 8.94319 6.90967L12.877 9.43856C13.1673 9.6252 13.3125 9.71852 13.3626 9.83717C13.4064 9.94085 13.4064 10.0578 13.3626 10.1615C13.3125 10.2802 13.1673 10.3735 12.877 10.5601L8.94319 13.089C8.60862 13.3041 8.44134 13.4116 8.303 13.4018C8.18244 13.3932 8.07157 13.3326 7.99913 13.2359C7.91602 13.1248 7.91602 12.926 7.91602 12.5282V7.47046Z" stroke="#003366" stroke-width="1.66667" stroke-linecap="round" stroke-linejoin="round"/>
</g>
<defs>
<clipPath id="clip0_12292_6838">
<rect width="20" height="20" fill="white"/>
</clipPath>
</defs>
</svg>
