<svg width="22" height="22" viewBox="0 0 22 22" fill="none" xmlns="http://www.w3.org/2000/svg">
<g clip-path="url(#clip0_10405_46355)">
<path d="M17.4167 10.0862V9.16683C17.4167 5.71008 17.4167 3.98125 16.3423 2.90783C15.268 1.83441 13.5401 1.8335 10.0833 1.8335H9.174L2.75 8.23733V12.839C2.75 16.2902 2.75 18.0163 3.82067 19.0897L3.82708 19.0962C4.9005 20.1668 6.62658 20.1668 10.0778 20.1668" stroke="#003366" stroke-width="1.5" stroke-linecap="round" stroke-linejoin="round"/>
<path d="M10.084 14.7783C10.36 14.7783 10.5838 15.0023 10.584 15.2783V17.9521C10.5837 18.2281 10.36 18.4521 10.084 18.4521C9.808 18.4521 9.58425 18.2281 9.58398 17.9521V15.2783C9.58416 15.0023 9.80795 14.7783 10.084 14.7783ZM6.875 13.6318C7.06423 13.632 7.23764 13.7389 7.32227 13.9082L8.51562 16.2959L9.23145 17.7275C9.35497 17.9745 9.25479 18.2749 9.00781 18.3984C8.76086 18.5219 8.46042 18.4217 8.33691 18.1748L7.75879 17.0186H5.99023L5.41211 18.1748C5.28859 18.4218 4.98819 18.522 4.74121 18.3984C4.49424 18.2749 4.39405 17.9745 4.51758 17.7275L5.23438 16.2949L6.42773 13.9082L6.46289 13.8477C6.55535 13.7137 6.70926 13.6318 6.875 13.6318ZM6.49023 16.0186H7.25977L6.875 15.25L6.49023 16.0186ZM10.084 13.6328C10.3601 13.6328 10.584 13.8567 10.584 14.1328V14.1377C10.5837 14.4136 10.36 14.6377 10.084 14.6377C9.808 14.6377 9.58425 14.4136 9.58398 14.1377V14.1328C9.58398 13.8567 9.80784 13.6328 10.084 13.6328Z" fill="#003366"/>
<path d="M2.75 8.25212H3.66667C6.259 8.25212 7.55608 8.25212 8.36092 7.44637C9.16667 6.64153 9.16667 5.34445 9.16667 2.75212V1.83545" stroke="#003366" stroke-width="1.5" stroke-linecap="round" stroke-linejoin="round"/>
<path d="M13.291 21.839C13.566 21.0177 13.8694 20.7221 14.666 20.4998C13.8694 20.2775 13.566 19.982 13.291 19.1606C13.016 19.982 12.7126 20.2775 11.916 20.4998C12.7126 20.7221 13.016 21.0177 13.291 21.839Z" stroke="#003366" stroke-width="0.5" stroke-linejoin="round"/>
<path d="M21.0831 15.7554C18.8352 16.3824 17.9772 17.2187 17.2007 19.5366C16.4242 17.2187 15.5662 16.3824 13.3184 15.7554C15.5662 15.1283 16.4242 14.292 17.2007 11.9741C17.9772 14.292 18.8352 15.1283 21.0831 15.7554Z" stroke="#003366" stroke-width="1.5" stroke-linejoin="round"/>
<path d="M14.8824 11.0571C13.7584 11.3703 13.3294 11.7882 12.9412 12.9478C12.5529 11.7882 12.1239 11.3703 11 11.0571C12.1239 10.7439 12.5529 10.3261 12.9412 9.1665C13.3294 10.3261 13.7584 10.7439 14.8824 11.0571Z" stroke="#003366" stroke-linejoin="round"/>
</g>
<defs>
<clipPath id="clip0_10405_46355">
<rect width="22" height="22" fill="white"/>
</clipPath>
</defs>
</svg>
