<svg width="24" height="24" viewBox="0 0 24 24" fill="none" xmlns="http://www.w3.org/2000/svg">
<path fill-rule="evenodd" clip-rule="evenodd" d="M10.941 4.05908H3V4.58808H3.323C3.842 4.58808 4.059 5.14408 4.059 5.66808V10.3851C4.059 11.6661 3.424 12.0051 3 12.0151C4.059 12.1431 4.08 13.0901 4.059 13.5511V18.2361C4.059 18.7661 3.842 19.4121 3.323 19.4121H3V19.9411H10.941V19.4111H10.771C10.126 19.4111 9.607 18.6541 9.607 17.9981V16.5901C9.607 15.1071 11.201 12.9261 12 12.0161C9.962 9.55908 9.554 7.96608 9.602 7.47308V5.90608C9.602 5.25008 10.132 4.58808 10.772 4.58808H10.942L10.941 4.05908ZM6.176 9.16708V5.11708C6.18044 5.04488 6.17006 4.97253 6.14548 4.90449C6.1209 4.83645 6.08266 4.77416 6.0331 4.72146C5.98354 4.66876 5.92372 4.62676 5.85732 4.59806C5.79092 4.56935 5.71934 4.55454 5.647 4.55454C5.57466 4.55454 5.50308 4.56935 5.43668 4.59806C5.37028 4.62676 5.31046 4.66876 5.2609 4.72146C5.21134 4.77416 5.1731 4.83645 5.14852 4.90449C5.12394 4.97253 5.11356 5.04488 5.118 5.11708V10.2531C5.118 11.5031 5.711 12.0161 6.124 12.0161C5.118 12.1371 5.102 13.5661 5.118 14.0381V18.8821C5.118 19.0224 5.17373 19.1569 5.27294 19.2561C5.37215 19.3553 5.5067 19.4111 5.647 19.4111C5.7873 19.4111 5.92185 19.3553 6.02106 19.2561C6.12027 19.1569 6.176 19.0224 6.176 18.8821V14.9641C6.17439 14.3124 6.37817 13.6769 6.75839 13.1477C7.1386 12.6184 7.67592 12.2225 8.294 12.0161C7.71899 11.7732 7.21939 11.381 6.84698 10.88C6.47458 10.3791 6.24291 9.78768 6.176 9.16708ZM13.06 4.06008H21V4.58908H20.677C20.153 4.58908 19.941 5.14508 19.941 5.66908V10.3861C19.941 11.6671 20.577 12.0061 21 12.0161C19.941 12.1441 19.92 13.0911 19.941 13.5521V18.2371C19.941 18.7671 20.158 19.4131 20.677 19.4131H21V19.9421H13.059V19.4121H13.229C13.874 19.4121 14.393 18.6551 14.393 17.9991V16.5901C14.393 15.1071 12.799 12.9261 12 12.0161C14.038 9.55908 14.446 7.96608 14.398 7.47308V5.90608C14.398 5.25008 13.868 4.58808 13.228 4.58808H13.058L13.06 4.06008ZM17.825 9.16808V5.11808C17.8333 4.98341 17.8926 4.85696 17.9909 4.76452C18.0892 4.67209 18.2191 4.62062 18.354 4.62062C18.4889 4.62062 18.6188 4.67209 18.7171 4.76452C18.8154 4.85696 18.8747 4.98341 18.883 5.11808V10.2541C18.883 11.5041 18.29 12.0171 17.877 12.0171C18.883 12.1381 18.899 13.5671 18.883 14.0391V18.8831C18.8861 18.9546 18.8747 19.0259 18.8495 19.0929C18.8243 19.1598 18.7858 19.221 18.7363 19.2726C18.6868 19.3243 18.6274 19.3654 18.5616 19.3935C18.4958 19.4216 18.425 19.4361 18.3535 19.4361C18.282 19.4361 18.2112 19.4216 18.1454 19.3935C18.0796 19.3654 18.0202 19.3243 17.9707 19.2726C17.9212 19.221 17.8827 19.1598 17.8575 19.0929C17.8323 19.0259 17.8209 18.9546 17.824 18.8831V14.9651C17.8257 14.3136 17.622 13.6781 17.242 13.1489C16.862 12.6197 16.3249 12.2237 15.707 12.0171C16.2818 11.7741 16.7812 11.3818 17.1534 10.8808C17.5257 10.3799 17.7572 9.78858 17.824 9.16808" fill="white"/>
</svg>
