<svg width="24" height="24" viewBox="0 0 24 24" fill="none" xmlns="http://www.w3.org/2000/svg">
<path fill-rule="evenodd" clip-rule="evenodd" d="M10.941 4.05896H3V4.58796H3.323C3.842 4.58796 4.059 5.14396 4.059 5.66796V10.385C4.059 11.666 3.424 12.005 3 12.015C4.059 12.143 4.08 13.09 4.059 13.551V18.236C4.059 18.766 3.842 19.412 3.323 19.412H3V19.941H10.941V19.411H10.771C10.126 19.411 9.607 18.654 9.607 17.998V16.59C9.607 15.107 11.201 12.926 12 12.016C9.962 9.55896 9.554 7.96596 9.602 7.47296V5.90596C9.602 5.24996 10.132 4.58796 10.772 4.58796H10.942L10.941 4.05896ZM6.176 9.16696V5.11696C6.18044 5.04475 6.17006 4.97241 6.14548 4.90437C6.1209 4.83633 6.08266 4.77404 6.0331 4.72134C5.98354 4.66864 5.92372 4.62664 5.85732 4.59793C5.79092 4.56923 5.71934 4.55442 5.647 4.55442C5.57466 4.55442 5.50308 4.56923 5.43668 4.59793C5.37028 4.62664 5.31046 4.66864 5.2609 4.72134C5.21134 4.77404 5.1731 4.83633 5.14852 4.90437C5.12394 4.97241 5.11356 5.04475 5.118 5.11696V10.253C5.118 11.503 5.711 12.016 6.124 12.016C5.118 12.137 5.102 13.566 5.118 14.038V18.882C5.118 19.0223 5.17373 19.1568 5.27294 19.256C5.37215 19.3552 5.5067 19.411 5.647 19.411C5.7873 19.411 5.92185 19.3552 6.02106 19.256C6.12027 19.1568 6.176 19.0223 6.176 18.882V14.964C6.17439 14.3123 6.37817 13.6768 6.75839 13.1475C7.1386 12.6183 7.67592 12.2224 8.294 12.016C7.71899 11.7731 7.21939 11.3809 6.84698 10.8799C6.47458 10.379 6.24291 9.78756 6.176 9.16696ZM13.06 4.05996H21V4.58896H20.677C20.153 4.58896 19.941 5.14496 19.941 5.66896V10.386C19.941 11.667 20.577 12.006 21 12.016C19.941 12.144 19.92 13.091 19.941 13.552V18.237C19.941 18.767 20.158 19.413 20.677 19.413H21V19.942H13.059V19.412H13.229C13.874 19.412 14.393 18.655 14.393 17.999V16.59C14.393 15.107 12.799 12.926 12 12.016C14.038 9.55896 14.446 7.96596 14.398 7.47296V5.90596C14.398 5.24996 13.868 4.58796 13.228 4.58796H13.058L13.06 4.05996ZM17.825 9.16796V5.11796C17.8333 4.98328 17.8926 4.85684 17.9909 4.7644C18.0892 4.67197 18.2191 4.6205 18.354 4.6205C18.4889 4.6205 18.6188 4.67197 18.7171 4.7644C18.8154 4.85684 18.8747 4.98328 18.883 5.11796V10.254C18.883 11.504 18.29 12.017 17.877 12.017C18.883 12.138 18.899 13.567 18.883 14.039V18.883C18.8861 18.9544 18.8747 19.0258 18.8495 19.0927C18.8243 19.1597 18.7858 19.2208 18.7363 19.2725C18.6868 19.3242 18.6274 19.3653 18.5616 19.3934C18.4958 19.4215 18.425 19.436 18.3535 19.436C18.282 19.436 18.2112 19.4215 18.1454 19.3934C18.0796 19.3653 18.0202 19.3242 17.9707 19.2725C17.9212 19.2208 17.8827 19.1597 17.8575 19.0927C17.8323 19.0258 17.8209 18.9544 17.824 18.883V14.965C17.8257 14.3134 17.622 13.678 17.242 13.1488C16.862 12.6196 16.3249 12.2236 15.707 12.017C16.2818 11.7739 16.7812 11.3817 17.1534 10.8807C17.5257 10.3798 17.7572 9.78846 17.824 9.16796" fill="white"/>
</svg>
