<svg width="24" height="24" viewBox="0 0 24 24" fill="none" xmlns="http://www.w3.org/2000/svg">
<path d="M10.5 12.4425L8.5575 10.5L7.5 11.5575L10.5 14.5575L16.5 8.5575L15.4425 7.5L10.5 12.4425Z" fill="white"/>
<path d="M12 22.5L7.36801 20.0303C6.0474 19.3279 4.94303 18.2791 4.17348 16.9964C3.40393 15.7138 2.99825 14.2458 3.00001 12.75V3C3.00001 2.60218 3.15804 2.22064 3.43935 1.93934C3.72065 1.65804 4.10218 1.5 4.50001 1.5H19.5C19.8978 1.5 20.2794 1.65804 20.5607 1.93934C20.842 2.22064 21 2.60218 21 3V12.75C21.0018 14.2458 20.5961 15.7138 19.8265 16.9964C19.057 18.2791 17.9526 19.3279 16.632 20.0303L12 22.5ZM4.50001 3V12.75C4.49917 13.9738 4.83141 15.1747 5.46111 16.224C6.09082 17.2733 6.99423 18.1315 8.07451 18.7065L12 20.7997L15.9255 18.7073C17.0059 18.1322 17.9094 17.2739 18.5391 16.2244C19.1688 15.175 19.501 13.9739 19.5 12.75V3H4.50001Z" fill="white"/>
</svg>
