<svg width="60" height="60" viewBox="0 0 60 60" fill="none" xmlns="http://www.w3.org/2000/svg">
<path d="M15.9624 48.9577V32.1152H21.1624C21.3907 32.1152 21.6266 32.1385 21.8699 32.1852C22.1132 32.2319 22.3491 32.2969 22.5774 32.3802L37.6299 37.9052C38.3732 38.1769 38.9866 38.6235 39.4699 39.2452C39.9516 39.8669 40.1924 40.566 40.1924 41.3427C40.1924 41.801 40.0424 42.1727 39.7424 42.4577C39.4424 42.7427 39.0732 42.8844 38.6349 42.8827H35.6299C34.7799 42.8827 33.9507 42.8327 33.1424 42.7327C32.3341 42.6327 31.5416 42.4444 30.7649 42.1677L26.2849 40.5577L25.5674 42.4177L30.4774 44.1052C31.2641 44.3719 32.0774 44.5552 32.9174 44.6552C33.7574 44.7569 34.6082 44.8077 35.4699 44.8077H48.3649C49.5066 44.8077 50.4816 45.1827 51.2899 45.9327C52.0982 46.6827 52.5016 47.6219 52.4999 48.7502L35.0149 54.5202L15.9624 48.9577ZM5.9624 52.5002V32.1152H13.4624V52.5002H5.9624ZM35.2399 21.1052H37.2599V19.0852H35.2399V21.1052ZM30.2399 21.1052H32.2599V19.0852H30.2399V21.1052ZM35.2399 26.1052H37.2599V24.0852H35.2399V26.1052ZM30.2399 26.1052H32.2599V24.0852H30.2399V26.1052ZM42.0349 36.9227C41.6432 35.9327 41.0182 35.0452 40.1599 34.2602C39.2999 33.4752 38.1582 32.8227 36.7349 32.3027L19.9999 26.1527H17.4999V18.2252L33.7499 6.6377L49.9999 18.2227V36.9227H42.0349Z" fill="white"/>
</svg>
