<svg width="16" height="16" viewBox="0 0 16 16" fill="none" xmlns="http://www.w3.org/2000/svg">
<path d="M13.3337 7.33334C13.1706 6.16015 12.6264 5.07311 11.7848 4.23967C10.9431 3.40623 9.85083 2.87262 8.67611 2.72104C7.50138 2.56947 6.30941 2.80833 5.28379 3.40084C4.25818 3.99335 3.45582 4.90663 3.00033 6.00001M2.66699 3.33334V6.00001H5.33366M2.66699 8.66667C2.83003 9.83986 3.37428 10.9269 4.2159 11.7603C5.05752 12.5938 6.14982 13.1274 7.32455 13.279C8.49927 13.4306 9.69124 13.1917 10.7169 12.5992C11.7425 12.0067 12.5448 11.0934 13.0003 10M13.3337 12.6667V10H10.667" stroke="black" stroke-linecap="round" stroke-linejoin="round"/>
</svg>
