<svg width="16" height="16" viewBox="0 0 16 16" fill="none" xmlns="http://www.w3.org/2000/svg">
<path d="M7.99917 3.99486C6.89695 3.99486 5.90139 4.33264 5.0125 5.00819C4.12362 5.68375 3.51917 6.55486 3.19917 7.62153C2.87917 8.68819 2.91473 9.73708 3.30584 10.7682C3.69695 11.7993 4.36362 12.6171 5.30584 13.2215C6.24806 13.826 7.27028 14.0837 8.3725 13.9949C9.47473 13.906 10.4436 13.4971 11.2792 12.7682C12.1147 12.0393 12.6481 11.1326 12.8792 10.0482C13.1103 8.96375 12.9947 7.92375 12.5325 6.92819C12.4969 6.78597 12.5058 6.65264 12.5592 6.52819C12.6125 6.40375 12.6925 6.31486 12.7992 6.26153C12.9058 6.20819 13.0303 6.20819 13.1725 6.26153C13.3147 6.31486 13.4036 6.39486 13.4392 6.50153C14.0081 7.71042 14.1503 8.96375 13.8658 10.2615C13.5814 11.5593 12.9414 12.6437 11.9458 13.5149C10.9503 14.386 9.78584 14.8749 8.4525 14.9815C7.11917 15.0882 5.8925 14.7771 4.7725 14.0482C3.6525 13.3193 2.86139 12.3326 2.39917 11.0882C1.93695 9.84375 1.8925 8.58153 2.26584 7.30153C2.63917 6.02153 3.35917 4.99042 4.42584 4.20819C5.4925 3.42597 6.68362 3.01708 7.99917 2.98153V3.99486ZM7.99917 5.48819V1.54153C7.99917 1.43486 8.04362 1.36375 8.1325 1.32819C8.22139 1.29264 8.31917 1.29264 8.42584 1.32819L10.7725 3.30153C10.8436 3.37264 10.8792 3.44375 10.8792 3.51486C10.8792 3.58597 10.8436 3.63931 10.7725 3.67486L8.42584 5.64819C8.31917 5.71931 8.22139 5.73708 8.1325 5.70153C8.04362 5.66597 7.99917 5.59486 7.99917 5.48819Z" fill="black"/>
</svg>
