<svg width="24" height="24" viewBox="0 0 24 24" fill="none" xmlns="http://www.w3.org/2000/svg">
<path d="M10 9H6M6 6H9M18 18L13.5 15L11 17L6 13M15.5 11C14.837 11 14.2011 10.7366 13.7322 10.2678C13.2634 9.79893 13 9.16304 13 8.5C13 7.83696 13.2634 7.20107 13.7322 6.73223C14.2011 6.26339 14.837 6 15.5 6C16.163 6 16.7989 6.26339 17.2678 6.73223C17.7366 7.20107 18 7.83696 18 8.5C18 9.16304 17.7366 9.79893 17.2678 10.2678C16.7989 10.7366 16.163 11 15.5 11Z" stroke="#003366" stroke-width="1.5" stroke-linecap="round" stroke-linejoin="round"/>
<path d="M3 20.4V3.6C3 3.44087 3.06321 3.28826 3.17574 3.17574C3.28826 3.06321 3.44087 3 3.6 3H20.4C20.5591 3 20.7117 3.06321 20.8243 3.17574C20.9368 3.28826 21 3.44087 21 3.6V20.4C21 20.5591 20.9368 20.7117 20.8243 20.8243C20.7117 20.9368 20.5591 21 20.4 21H3.6C3.44087 21 3.28826 20.9368 3.17574 20.8243C3.06321 20.7117 3 20.5591 3 20.4Z" stroke="#003366" stroke-width="1.5"/>
</svg>
