<svg width="24" height="24" viewBox="0 0 24 24" fill="none" xmlns="http://www.w3.org/2000/svg">
<path d="M15.75 11.6953L17.4727 9.97266L18.5273 11.0273L15.75 13.8047L13.7227 11.7773L14.7773 10.7227L15.75 11.6953ZM6 18H12V19.5H6V18ZM12 7.5H6V6H12V7.5ZM12 13.5H6V12H12V13.5ZM18.5273 5.02734L15.75 7.80469L13.7227 5.77734L14.7773 4.72266L15.75 5.69531L17.4727 3.97266L18.5273 5.02734ZM13.5352 22.5L15.0352 24H3V0H21V15.0352L19.5 16.5352V1.5H4.5V22.5H13.5352ZM23.7773 17.0273L17.25 23.5664L14.0977 20.4023L15.1523 19.3477L17.25 21.4336L22.7227 15.9727L23.7773 17.0273Z" fill="white"/>
</svg>
