<svg width="24" height="24" viewBox="0 0 24 24" fill="none" xmlns="http://www.w3.org/2000/svg">
<path d="M2.5 12C2.5 7.77 2.5 5.655 3.698 4.253C3.86867 4.053 4.05367 3.868 4.253 3.698C5.655 2.5 7.77 2.5 12 2.5C16.23 2.5 18.345 2.5 19.747 3.698C19.947 3.86867 20.132 4.05367 20.302 4.253C21.5 5.655 21.5 7.77 21.5 12C21.5 16.23 21.5 18.345 20.302 19.747C20.1313 19.947 19.9463 20.132 19.747 20.302C18.345 21.5 16.23 21.5 12 21.5C7.77 21.5 5.655 21.5 4.253 20.302C4.053 20.1313 3.868 19.9463 3.698 19.747C2.5 18.345 2.5 16.23 2.5 12Z" stroke="white" stroke-width="1.5" stroke-linecap="round" stroke-linejoin="round"/>
<path d="M15.0219 10.2339C14.9789 9.65393 14.6509 8.24893 13.3889 7.72993C11.8129 7.08093 9.73588 7.89793 9.54188 10.0009C9.45088 10.9879 9.96188 12.0229 10.7049 12.5339C11.3869 13.0039 12.4229 12.9799 13.3889 12.9799H8.02588M11.2659 12.9799C11.0839 13.6699 10.0859 15.6509 8.49588 16.4789H14.2819C14.5059 16.4789 15.1379 16.5329 16.0319 15.9329" stroke="white" stroke-width="1.5" stroke-linecap="round" stroke-linejoin="round"/>
</svg>
