<svg width="24" height="24" viewBox="0 0 24 24" fill="none" xmlns="http://www.w3.org/2000/svg">
<path d="M13.0008 22C12.3841 22 11.7798 21.9374 11.1878 21.812C10.5958 21.6867 10.0168 21.5077 9.45078 21.275C9.10078 21.125 8.90511 20.875 8.86378 20.525C8.82245 20.175 8.94311 19.8584 9.22578 19.5751C9.34245 19.4584 9.49245 19.3834 9.67578 19.35C9.85911 19.3167 10.0341 19.3417 10.2008 19.425C10.6341 19.625 11.0884 19.7711 11.5638 19.8631C12.0391 19.955 12.5181 20.0007 13.0008 20C14.9508 20 16.6051 19.3207 17.9638 17.962C19.3224 16.6034 20.0014 14.9494 20.0008 13C20.0008 11.05 19.3214 9.39571 17.9628 8.03705C16.6041 6.67838 14.9501 5.99938 13.0008 6.00005H12.8508L13.7258 6.87505C13.9091 7.05838 14.0008 7.29172 14.0008 7.57505C14.0008 7.85838 13.9091 8.09171 13.7258 8.27505C13.5258 8.47505 13.2841 8.57505 13.0008 8.57505C12.7174 8.57505 12.4841 8.47505 12.3008 8.27505L9.70078 5.70005C9.61745 5.60005 9.55078 5.49172 9.50078 5.37505C9.45078 5.25838 9.42578 5.13338 9.42578 5.00005C9.42578 4.86672 9.45078 4.73738 9.50078 4.61205C9.55078 4.48672 9.61745 4.38272 9.70078 4.30005L12.3008 1.70005C12.4841 1.51672 12.7174 1.42505 13.0008 1.42505C13.2841 1.42505 13.5258 1.51672 13.7258 1.70005C13.9091 1.90005 14.0008 2.14172 14.0008 2.42505C14.0008 2.70838 13.9091 2.94172 13.7258 3.12505L12.8508 4.00005H13.0008C14.2508 4.00005 15.4218 4.23772 16.5138 4.71305C17.6058 5.18838 18.5558 5.83005 19.3638 6.63805C20.1718 7.44605 20.8134 8.39605 21.2888 9.48805C21.7641 10.58 22.0014 11.7507 22.0008 13C22.0008 15.5 21.1258 17.625 19.3758 19.375C17.6258 21.125 15.5008 22 13.0008 22ZM7.00078 18.5751C6.86745 18.5751 6.74245 18.554 6.62578 18.512C6.50911 18.47 6.40078 18.3994 6.30078 18.3L1.70078 13.7C1.60078 13.6 1.53011 13.4917 1.48878 13.375C1.44745 13.2584 1.42645 13.1334 1.42578 13C1.42578 12.8667 1.44678 12.7417 1.48878 12.625C1.53078 12.5084 1.60145 12.4 1.70078 12.3L6.30078 7.70005C6.40078 7.60005 6.50911 7.52905 6.62578 7.48705C6.74245 7.44505 6.86745 7.42438 7.00078 7.42505C7.13411 7.42505 7.25911 7.44605 7.37578 7.48805C7.49245 7.53005 7.60078 7.60072 7.70078 7.70005L12.3008 12.3C12.4008 12.4 12.4718 12.5084 12.5138 12.625C12.5558 12.7417 12.5764 12.8667 12.5758 13C12.5758 13.1334 12.5551 13.2584 12.5138 13.375C12.4724 13.4917 12.4014 13.6 12.3008 13.7L7.70078 18.3C7.60078 18.4 7.49245 18.4711 7.37578 18.5131C7.25911 18.555 7.13411 18.5757 7.00078 18.5751ZM7.00078 16.15L10.1508 13L7.00078 9.85005L3.85078 13L7.00078 16.15Z" fill="black"/>
</svg>
