<svg width="24" height="24" viewBox="0 0 24 24" fill="none" xmlns="http://www.w3.org/2000/svg">
<path d="M11.0211 12.968C10.8491 12.7964 10.6442 12.6613 10.4186 12.571L3.28239 9.70931C3.19719 9.67512 3.12448 9.61569 3.07403 9.53898C3.02358 9.46228 2.9978 9.37198 3.00015 9.2802C3.0025 9.18842 3.03287 9.09956 3.08718 9.02554C3.14149 8.95152 3.21715 8.89589 3.30399 8.86611L20.402 3.01678C20.4818 2.98798 20.568 2.98248 20.6508 3.00093C20.7335 3.01938 20.8093 3.06102 20.8693 3.12097C20.9292 3.18091 20.9709 3.25669 20.9893 3.33944C21.0078 3.42219 21.0023 3.50848 20.9735 3.58821L15.1241 20.6862C15.0943 20.7731 15.0387 20.8487 14.9647 20.9031C14.8907 20.9574 14.8018 20.9877 14.71 20.9901C14.6183 20.9924 14.528 20.9667 14.4513 20.9162C14.3745 20.8658 14.3151 20.793 14.2809 20.7078L11.4193 13.5699C11.3285 13.3444 11.1931 13.1397 11.0211 12.968ZM11.0211 12.968L20.8664 3.12477" stroke="black" stroke-width="2" stroke-linecap="round" stroke-linejoin="round"/>
</svg>
