<svg width="24" height="24" viewBox="0 0 24 24" fill="none" xmlns="http://www.w3.org/2000/svg">
<path d="M21.7097 8.70993C22.9597 7.45993 22.3897 5.99993 21.7097 5.28993L18.7097 2.28993C17.4497 1.03993 15.9997 1.60993 15.2897 2.28993L13.5897 3.99993H10.9997C9.09969 3.99993 7.99968 4.99993 7.43968 6.14993L2.99968 10.5899V14.5899L2.28968 15.2899C1.03968 16.5499 1.60968 17.9999 2.28968 18.7099L5.28968 21.7099C5.82968 22.2499 6.40968 22.4499 6.95968 22.4499C7.66968 22.4499 8.31968 22.0999 8.70968 21.7099L11.4097 18.9999H14.9997C16.6997 18.9999 17.5597 17.9399 17.8697 16.8999C18.9997 16.5999 19.6197 15.7399 19.8697 14.8999C21.4197 14.4999 21.9997 13.0299 21.9997 11.9999V8.99993H21.4097L21.7097 8.70993ZM19.9997 11.9999C19.9997 12.4499 19.8097 12.9999 18.9997 12.9999H17.9997V13.9999C17.9997 14.4499 17.8097 14.9999 16.9997 14.9999H15.9997V15.9999C15.9997 16.4499 15.8097 16.9999 14.9997 16.9999H10.5897L7.30968 20.2799C6.99968 20.5699 6.81968 20.3999 6.70968 20.2899L3.71968 17.3099C3.42968 16.9999 3.59968 16.8199 3.70968 16.7099L4.99968 15.4099V11.4099L6.99968 9.40993V10.9999C6.99968 12.2099 7.79969 13.9999 9.99969 13.9999C12.1997 13.9999 12.9997 12.2099 12.9997 10.9999H19.9997V11.9999ZM20.2897 7.28993L18.5897 8.99993H10.9997V10.9999C10.9997 11.4499 10.8097 11.9999 9.99969 11.9999C9.18969 11.9999 8.99968 11.4499 8.99968 10.9999V7.99993C8.99968 7.53993 9.16969 5.99993 10.9997 5.99993H14.4097L16.6897 3.71993C16.9997 3.42993 17.1797 3.59993 17.2897 3.70993L20.2797 6.68993C20.5697 6.99993 20.3997 7.17993 20.2897 7.28993Z" fill="black"/>
</svg>
