<svg width="24" height="24" viewBox="0 0 24 24" fill="none" xmlns="http://www.w3.org/2000/svg">
<path fill-rule="evenodd" clip-rule="evenodd" d="M16.4996 2.25C16.0241 2.24984 15.5544 2.35402 15.1235 2.55519C14.6927 2.75636 14.3112 3.04962 14.0061 3.41428C13.7009 3.77894 13.4795 4.20611 13.3574 4.66567C13.2353 5.12523 13.2156 5.60598 13.2996 6.074L8.56958 9.386L8.50158 9.439C8.02172 9.06388 7.4461 8.83116 6.84037 8.76737C6.23463 8.70358 5.62316 8.8113 5.07568 9.07823C4.52821 9.34516 4.06676 9.76057 3.74396 10.2771C3.42116 10.7936 3.25 11.3904 3.25 11.9995C3.25 12.6086 3.42116 13.2054 3.74396 13.7219C4.06676 14.2384 4.52821 14.6538 5.07568 14.9208C5.62316 15.1877 6.23463 15.2954 6.84037 15.2316C7.4461 15.1678 8.02172 14.9351 8.50158 14.56L8.56958 14.614L13.2996 17.926C13.2663 18.1127 13.2496 18.304 13.2496 18.5C13.2497 19.2705 13.5236 20.0159 14.0223 20.6031C14.521 21.1904 15.2122 21.5815 15.9724 21.7064C16.7327 21.8314 17.5127 21.6822 18.1731 21.2854C18.8336 20.8887 19.3317 20.2702 19.5784 19.5403C19.8252 18.8104 19.8046 18.0166 19.5203 17.3004C19.2361 16.5843 18.7066 15.9925 18.0265 15.6305C17.3463 15.2685 16.5597 15.1599 15.8069 15.3241C15.0542 15.4883 14.3842 15.9146 13.9166 16.527L9.43758 13.39C9.63758 12.968 9.74958 12.497 9.74958 11.999C9.74958 11.501 9.63758 11.029 9.43758 10.608L13.9176 7.472C14.2531 7.91147 14.6951 8.25809 15.2019 8.47908C15.7087 8.70007 16.2634 8.78812 16.8137 8.73491C17.364 8.6817 17.8917 8.48898 18.3467 8.17498C18.8018 7.86098 19.1692 7.43609 19.4143 6.94049C19.6593 6.44489 19.7739 5.89496 19.7471 5.34274C19.7204 4.79051 19.5532 4.25424 19.2614 3.78465C18.9696 3.31506 18.5628 2.92767 18.0795 2.65913C17.5963 2.39059 17.0525 2.24977 16.4996 2.25ZM14.7496 5.5C14.7496 5.03587 14.934 4.59075 15.2621 4.26256C15.5903 3.93437 16.0355 3.75 16.4996 3.75C16.9637 3.75 17.4088 3.93437 17.737 4.26256C18.0652 4.59075 18.2496 5.03587 18.2496 5.5C18.2496 5.96413 18.0652 6.40925 17.737 6.73744C17.4088 7.06563 16.9637 7.25 16.4996 7.25C16.0355 7.25 15.5903 7.06563 15.2621 6.73744C14.934 6.40925 14.7496 5.96413 14.7496 5.5ZM6.49958 10.25C6.03546 10.25 5.59034 10.4344 5.26215 10.7626C4.93396 11.0908 4.74958 11.5359 4.74958 12C4.74958 12.4641 4.93396 12.9092 5.26215 13.2374C5.59034 13.5656 6.03546 13.75 6.49958 13.75C6.96371 13.75 7.40883 13.5656 7.73702 13.2374C8.06521 12.9092 8.24958 12.4641 8.24958 12C8.24958 11.5359 8.06521 11.0908 7.73702 10.7626C7.40883 10.4344 6.96371 10.25 6.49958 10.25ZM16.4996 16.75C16.0355 16.75 15.5903 16.9344 15.2621 17.2626C14.934 17.5908 14.7496 18.0359 14.7496 18.5C14.7496 18.9641 14.934 19.4092 15.2621 19.7374C15.5903 20.0656 16.0355 20.25 16.4996 20.25C16.9637 20.25 17.4088 20.0656 17.737 19.7374C18.0652 19.4092 18.2496 18.9641 18.2496 18.5C18.2496 18.0359 18.0652 17.5908 17.737 17.2626C17.4088 16.9344 16.9637 16.75 16.4996 16.75Z" fill="#003366"/>
</svg>
