<svg width="24" height="24" viewBox="0 0 24 24" fill="none" xmlns="http://www.w3.org/2000/svg">
<path d="M13.1202 17.0232L8.92121 14.7332C8.373 15.3193 7.66119 15.7269 6.87828 15.9031C6.09537 16.0793 5.27756 16.0159 4.53113 15.7212C3.7847 15.4266 3.14417 14.9142 2.69277 14.2507C2.24138 13.5871 2 12.8032 2 12.0007C2 11.1982 2.24138 10.4143 2.69277 9.75076C3.14417 9.08725 3.7847 8.57486 4.53113 8.28017C5.27756 7.98548 6.09537 7.92212 6.87828 8.09832C7.66119 8.27452 8.373 8.68214 8.92121 9.26821L13.1212 6.97821C12.8831 6.03417 12.9975 5.0357 13.4429 4.16997C13.8884 3.30424 14.6342 2.63069 15.5408 2.27557C16.4473 1.92046 17.4522 1.90816 18.3671 2.24098C19.2821 2.57381 20.0442 3.2289 20.5107 4.08347C20.9772 4.93804 21.116 5.93341 20.9011 6.88299C20.6862 7.83257 20.1323 8.67116 19.3433 9.24158C18.5543 9.81199 17.5843 10.0751 16.6152 9.98148C15.6462 9.88789 14.7445 9.44407 14.0792 8.73321L9.87921 11.0232C10.0407 11.6645 10.0407 12.3359 9.87921 12.9772L14.0792 15.2672C14.7448 14.5567 15.6467 14.1133 16.6158 14.0202C17.5849 13.9271 18.5547 14.1906 19.3434 14.7614C20.1322 15.3322 20.6856 16.171 20.9001 17.1207C21.1146 18.0703 20.9754 19.0656 20.5085 19.9199C20.0417 20.7743 19.2793 21.429 18.3642 21.7615C17.4491 22.0939 16.4442 22.0812 15.5379 21.7257C14.6315 21.3702 13.8859 20.6964 13.4408 19.8305C12.9958 18.9646 12.8818 17.9661 13.1202 17.0222M6.00021 14.0002C6.53064 14.0002 7.03935 13.7895 7.41442 13.4144C7.78949 13.0393 8.00021 12.5306 8.00021 12.0002C8.00021 11.4698 7.78949 10.9611 7.41442 10.586C7.03935 10.2109 6.53064 10.0002 6.00021 10.0002C5.46977 10.0002 4.96107 10.2109 4.58599 10.586C4.21092 10.9611 4.00021 11.4698 4.00021 12.0002C4.00021 12.5306 4.21092 13.0393 4.58599 13.4144C4.96107 13.7895 5.46977 14.0002 6.00021 14.0002ZM17.0002 8.00021C17.5306 8.00021 18.0393 7.78949 18.4144 7.41442C18.7895 7.03935 19.0002 6.53064 19.0002 6.00021C19.0002 5.46977 18.7895 4.96107 18.4144 4.58599C18.0393 4.21092 17.5306 4.00021 17.0002 4.00021C16.4698 4.00021 15.9611 4.21092 15.586 4.58599C15.2109 4.96107 15.0002 5.46977 15.0002 6.00021C15.0002 6.53064 15.2109 7.03935 15.586 7.41442C15.9611 7.78949 16.4698 8.00021 17.0002 8.00021ZM17.0002 20.0002C17.5306 20.0002 18.0393 19.7895 18.4144 19.4144C18.7895 19.0393 19.0002 18.5306 19.0002 18.0002C19.0002 17.4698 18.7895 16.9611 18.4144 16.586C18.0393 16.2109 17.5306 16.0002 17.0002 16.0002C16.4698 16.0002 15.9611 16.2109 15.586 16.586C15.2109 16.9611 15.0002 17.4698 15.0002 18.0002C15.0002 18.5306 15.2109 19.0393 15.586 19.4144C15.9611 19.7895 16.4698 20.0002 17.0002 20.0002Z" fill="black"/>
</svg>
