<svg width="24" height="24" viewBox="0 0 24 24" fill="none" xmlns="http://www.w3.org/2000/svg">
<path d="M13.0999 2.59799C13.4482 2.24977 13.8616 1.97356 14.3166 1.78512C14.7716 1.59669 15.2593 1.49972 15.7518 1.49976C16.2443 1.49979 16.7319 1.59683 17.1869 1.78533C17.6419 1.97383 18.0553 2.25009 18.4035 2.59836C18.7517 2.94663 19.028 3.36007 19.2164 3.81508C19.4048 4.27009 19.5018 4.75776 19.5018 5.25025C19.5017 5.74274 19.4047 6.2304 19.2162 6.68538C19.0277 7.14037 18.7514 7.55377 18.4032 7.90199L17.8077 8.49749L17.9547 8.64524C18.1984 8.88899 18.3918 9.17838 18.5237 9.49688C18.6557 9.81538 18.7236 10.1567 18.7236 10.5015C18.7236 10.8462 18.6557 11.1876 18.5237 11.5061C18.3918 11.8246 18.1984 12.114 17.9547 12.3577L15.5307 14.7802C15.4615 14.8519 15.3787 14.909 15.2872 14.9483C15.1957 14.9876 15.0973 15.0083 14.9977 15.0092C14.8981 15.01 14.7994 14.9911 14.7072 14.9534C14.615 14.9156 14.5313 14.86 14.4609 14.7895C14.3904 14.7191 14.3347 14.6354 14.297 14.5432C14.2593 14.451 14.2403 14.3523 14.2412 14.2527C14.2421 14.1531 14.2628 14.0547 14.3021 13.9632C14.3414 13.8717 14.3985 13.7889 14.4701 13.7197L16.8941 11.2972C16.9987 11.1928 17.0816 11.0687 17.1382 10.9322C17.1948 10.7956 17.2239 10.6493 17.2239 10.5015C17.2239 10.3537 17.1948 10.2073 17.1382 10.0708C17.0816 9.93426 16.9987 9.81021 16.8941 9.70574L16.7464 9.55799L8.5939 17.712C8.29495 18.011 7.91778 18.2197 7.50565 18.3142L2.4184 19.4812C2.29449 19.5098 2.16535 19.5064 2.04312 19.4713C1.92089 19.4362 1.80959 19.3706 1.71967 19.2807C1.62975 19.1908 1.56417 19.0795 1.5291 18.9573C1.49402 18.835 1.4906 18.7059 1.51915 18.582L2.68765 13.4955C2.78229 13.0836 2.99101 12.7067 3.2899 12.408L13.0999 2.59799ZM17.3426 3.65924C16.9207 3.23743 16.3485 3.00047 15.7519 3.00047C15.1553 3.00047 14.5831 3.23743 14.1612 3.65924L4.3504 13.4692C4.25072 13.5687 4.18106 13.6943 4.1494 13.8315L3.24865 17.751L7.1689 16.8517C7.30639 16.8202 7.43221 16.7505 7.5319 16.6507L17.3419 6.84074C17.7637 6.4188 18.0007 5.8466 18.0007 5.24999C18.0007 4.65337 17.7645 4.08117 17.3426 3.65924ZM6.4189 22.4227C4.8664 22.1595 3.6094 21.285 2.8879 20.5275L4.70065 20.1112C5.23315 20.4855 5.9119 20.8155 6.67015 20.9437C7.8214 21.1395 9.2374 20.886 10.7232 19.4175C11.5564 18.5947 12.2592 17.955 12.8569 17.4907C13.4419 17.0377 13.9857 16.7047 14.4979 16.5682C15.0649 16.4167 15.6154 16.5045 16.0617 16.8997C16.4442 17.238 16.6707 17.7397 16.8364 18.2295L16.8612 18.303C17.1702 19.2202 17.3277 19.6875 17.4859 19.9755C17.5231 20.0531 17.5748 20.1228 17.6382 20.181C17.705 20.2298 17.7802 20.2659 17.8601 20.2875C17.8631 20.289 17.9449 20.3152 18.1924 20.1892C18.4384 20.0632 18.7249 19.851 19.0789 19.5667C19.1464 19.5137 19.2157 19.458 19.2867 19.3995C19.5702 19.1707 19.8867 18.915 20.2024 18.6945C20.5999 18.4185 21.0634 18.147 21.5704 18.0217C21.7635 17.974 21.9677 18.0049 22.1381 18.1078C22.3084 18.2106 22.4309 18.3768 22.4787 18.57C22.5264 18.7631 22.4954 18.9673 22.3926 19.1377C22.2898 19.308 22.1235 19.4305 21.9304 19.4782C21.6874 19.5382 21.4017 19.6875 21.0604 19.9252C20.7919 20.1127 20.5309 20.3227 20.2519 20.5477L20.0157 20.7382C19.6669 21.0172 19.2732 21.321 18.8749 21.525C18.4797 21.7267 17.9509 21.897 17.3907 21.7125C17.1353 21.6328 16.8968 21.5067 16.6872 21.3405C16.4758 21.1611 16.3006 20.9429 16.1712 20.6977C15.9462 20.2875 15.7474 19.6972 15.4842 18.9135L15.4151 18.7087C15.2674 18.2722 15.1421 18.0885 15.0664 18.0217L15.0627 18.018C15.0514 18.0052 15.0289 17.979 14.8849 18.018C14.6689 18.075 14.3172 18.2565 13.7764 18.6765C13.2477 19.086 12.5944 19.6777 11.7777 20.4847C9.96265 22.2772 8.06665 22.7025 6.4189 22.4227Z" fill="white"/>
</svg>
