<svg width="16" height="16" viewBox="0 0 16 16" fill="none" xmlns="http://www.w3.org/2000/svg">
<path d="M1.33203 9.66663L7.76018 12.8807C7.84764 12.9244 7.89137 12.9463 7.93723 12.9549C7.97785 12.9625 8.01954 12.9625 8.06016 12.9549C8.10603 12.9463 8.14976 12.9244 8.23721 12.8807L14.6654 9.66663M1.33203 6.3333L7.76018 3.11922C7.84764 3.07549 7.89137 3.05363 7.93723 3.04502C7.97785 3.0374 8.01954 3.0374 8.06016 3.04502C8.10603 3.05363 8.14976 3.07549 8.23721 3.11922L14.6654 6.3333L8.23721 9.54737C8.14976 9.5911 8.10603 9.61296 8.06016 9.62157C8.01954 9.62919 7.97785 9.62919 7.93723 9.62157C7.89137 9.61296 7.84764 9.5911 7.76018 9.54737L1.33203 6.3333Z" stroke="#414651" stroke-width="1.33333" stroke-linecap="round" stroke-linejoin="round"/>
</svg>
