<svg width="24" height="24" viewBox="0 0 24 24" fill="none" xmlns="http://www.w3.org/2000/svg">
<path fill-rule="evenodd" clip-rule="evenodd" d="M8.75 9.5C8.97981 9.5 9.20738 9.45473 9.4197 9.36679C9.63202 9.27884 9.82493 9.14994 9.98744 8.98744C10.1499 8.82493 10.2788 8.63202 10.3668 8.4197C10.4547 8.20738 10.5 7.97981 10.5 7.75C10.5 7.52019 10.4547 7.29262 10.3668 7.0803C10.2788 6.86798 10.1499 6.67507 9.98744 6.51256C9.82493 6.35006 9.63202 6.22116 9.4197 6.13321C9.20738 6.04526 8.97981 6 8.75 6C8.28587 6 7.84075 6.18437 7.51256 6.51256C7.18437 6.84075 7 7.28587 7 7.75C7 8.21413 7.18437 8.65925 7.51256 8.98744C7.84075 9.31563 8.28587 9.5 8.75 9.5ZM8.75 11.5C9.24246 11.5 9.73009 11.403 10.1851 11.2145C10.64 11.0261 11.0534 10.7499 11.4017 10.4017C11.7499 10.0534 12.0261 9.64003 12.2145 9.18506C12.403 8.73009 12.5 8.24246 12.5 7.75C12.5 7.25754 12.403 6.76991 12.2145 6.31494C12.0261 5.85997 11.7499 5.44657 11.4017 5.09835C11.0534 4.75013 10.64 4.47391 10.1851 4.28545C9.73009 4.097 9.24246 4 8.75 4C7.75544 4 6.80161 4.39509 6.09835 5.09835C5.39509 5.80161 5 6.75544 5 7.75C5 8.74456 5.39509 9.69839 6.09835 10.4017C6.80161 11.1049 7.75544 11.5 8.75 11.5ZM3.266 14.527C4.165 13.278 5.535 12.5 7.286 12.5H10.714C12.466 12.5 13.835 13.278 14.734 14.527C15.607 15.74 16 17.339 16 19C16 19.2652 15.8946 19.5196 15.7071 19.7071C15.5196 19.8946 15.2652 20 15 20C14.7348 20 14.4804 19.8946 14.2929 19.7071C14.1054 19.5196 14 19.2652 14 19C14 17.623 13.67 16.473 13.11 15.695C12.577 14.953 11.803 14.5 10.714 14.5H7.286C6.196 14.5 5.423 14.953 4.889 15.695C4.33 16.472 4 17.623 4 19C4 19.2652 3.89464 19.5196 3.70711 19.7071C3.51957 19.8946 3.26522 20 3 20C2.73478 20 2.48043 19.8946 2.29289 19.7071C2.10536 19.5196 2 19.2652 2 19C2 17.339 2.393 15.74 3.266 14.527Z" fill="#003366"/>
<path fill-rule="evenodd" clip-rule="evenodd" d="M2 18.9999C2 18.7347 2.10536 18.4803 2.29289 18.2928C2.48043 18.1053 2.73478 17.9999 3 17.9999H14.971C15.2362 17.9999 15.4906 18.1053 15.6781 18.2928C15.8656 18.4803 15.971 18.7347 15.971 18.9999C15.971 19.2651 15.8656 19.5195 15.6781 19.707C15.4906 19.8946 15.2362 19.9999 14.971 19.9999H3C2.73478 19.9999 2.48043 19.8946 2.29289 19.707C2.10536 19.5195 2 19.2651 2 18.9999ZM14.892 5.86691L14.864 5.86491C14.7137 5.8562 14.5647 5.83275 14.419 5.79491C14.074 5.70291 13.764 5.51891 13.623 5.19991L13.61 5.17191C13.402 4.70191 13.616 4.13891 14.123 4.05191C14.6356 3.96571 15.1606 3.98704 15.6646 4.11454C16.1685 4.24205 16.6405 4.47293 17.0504 4.79255C17.4604 5.11217 17.7995 5.51353 18.0461 5.97116C18.2926 6.42879 18.4414 6.93269 18.4829 7.45088C18.5243 7.96906 18.4576 8.4902 18.2869 8.98122C18.1162 9.47224 17.8453 9.92242 17.4914 10.3032C17.1375 10.6839 16.7083 10.9869 16.231 11.1929C15.7537 11.3989 15.2388 11.5035 14.719 11.4999C14.205 11.4959 13.904 10.9739 14.035 10.4769L14.043 10.4469C14.131 10.1089 14.409 9.87791 14.733 9.73291C14.8795 9.66817 15.0323 9.6189 15.189 9.58591C15.6282 9.48259 16.0158 9.22535 16.2816 8.86081C16.5474 8.49627 16.6738 8.04857 16.6378 7.59885C16.6019 7.14913 16.4061 6.72716 16.0858 6.40943C15.7655 6.09169 15.342 5.89923 14.892 5.86691ZM15.5 13.4999C15.5 13.2347 15.6054 12.9803 15.7929 12.7928C15.9804 12.6053 16.2348 12.4999 16.5 12.4999H16.714C18.466 12.4999 19.835 13.2779 20.734 14.5269C21.607 15.7399 22 17.3389 22 18.9999C22 19.2651 21.8946 19.5195 21.7071 19.707C21.5196 19.8946 21.2652 19.9999 21 19.9999C20.7348 19.9999 20.4804 19.8946 20.2929 19.707C20.1054 19.5195 20 19.2651 20 18.9999C20 17.6229 19.67 16.4729 19.11 15.6949C18.577 14.9529 17.803 14.4999 16.714 14.4999H16.5C16.2348 14.4999 15.9804 14.3946 15.7929 14.207C15.6054 14.0195 15.5 13.7651 15.5 13.4999Z" fill="#003366"/>
<path fill-rule="evenodd" clip-rule="evenodd" d="M17 19C17 18.7348 17.1054 18.4804 17.2929 18.2929C17.4804 18.1054 17.7348 18 18 18H20.971C21.2362 18 21.4906 18.1054 21.6781 18.2929C21.8656 18.4804 21.971 18.7348 21.971 19C21.971 19.2652 21.8656 19.5196 21.6781 19.7071C21.4906 19.8946 21.2362 20 20.971 20H18C17.7348 20 17.4804 19.8946 17.2929 19.7071C17.1054 19.5196 17 19.2652 17 19Z" fill="#003366"/>
</svg>
