<svg width="24" height="24" viewBox="0 0 24 24" fill="none" xmlns="http://www.w3.org/2000/svg">
<path d="M13.5 19.5H19.5V21H13.5V19.5ZM13.5 16.5H22.5V18H13.5V16.5ZM13.5 13.5H22.5V15H13.5V13.5Z" fill="black"/>
<path d="M15.4127 8.41275L12.0009 1.5L8.58919 8.41275L0.960938 9.52125L6.48094 14.9025L5.17744 22.5L10.5009 19.7017V18.0068L7.17019 19.758L7.95919 15.156L8.09269 14.3783L7.52794 13.8285L4.18444 10.5682L8.80519 9.897L9.58519 9.78375L9.93469 9.0765L12.0009 4.88925L14.0672 9.0765L14.4167 9.78375L15.1967 9.897L20.7872 10.7108L21.0009 9.225L15.4127 8.41275Z" fill="black"/>
</svg>
