<svg width="20" height="20" viewBox="0 0 20 20" fill="none" xmlns="http://www.w3.org/2000/svg">
<path d="M8.24248 12.485H4.165C3.85602 12.485 3.5597 12.3622 3.34122 12.1437C3.12274 11.9253 3 11.6289 3 11.32V3.165C3 2.85602 3.12274 2.5597 3.34122 2.34122C3.5597 2.12274 3.85602 2 4.165 2H15.8149C16.1239 2 16.4202 2.12274 16.6387 2.34122C16.8572 2.5597 16.9799 2.85602 16.9799 3.165V8.40747" stroke="black" stroke-linecap="round" stroke-linejoin="round"/>
<path d="M3 3.46777L9.98997 8.40735L16.9799 3.46777M10.88 13.7663C10.4711 13.6964 10.4711 13.1081 10.88 13.037C11.6038 12.9104 12.2736 12.5715 12.8042 12.0632C13.3349 11.555 13.7024 10.9005 13.8601 10.1828L13.8845 10.071C13.9731 9.66671 14.5486 9.66322 14.6406 10.0675L14.6709 10.198C14.8334 10.913 15.2039 11.5641 15.7356 12.0691C16.2674 12.574 16.9366 12.9104 17.6591 13.0359C18.0704 13.1069 18.0704 13.6976 17.6591 13.7687C16.9368 13.894 16.2676 14.2302 15.7359 14.735C15.2042 15.2398 14.8336 15.8906 14.6709 16.6054L14.6406 16.7371C14.5486 17.1402 13.9731 17.1378 13.8845 16.7336L13.8601 16.6217C13.7024 15.9041 13.3349 15.2495 12.8042 14.7413C12.2736 14.2331 11.6038 13.8941 10.88 13.7675" stroke="black" stroke-linecap="round" stroke-linejoin="round"/>
</svg>
