<svg width="150" height="150" viewBox="0 0 150 150" fill="none" xmlns="http://www.w3.org/2000/svg">
<path opacity="0.07" d="M150 75C150 116.421 116.421 150 75 150C33.5786 150 0 116.421 0 75C0 33.5786 33.5786 0 75 0C116.421 0 150 33.5786 150 75Z" fill="#003366"/>
<path opacity="0.1" d="M136.555 74.9999C136.555 108.996 108.996 136.555 74.9999 136.555C41.0042 136.555 13.4453 108.996 13.4453 74.9999C13.4453 41.0042 41.0042 13.4453 74.9999 13.4453C108.996 13.4453 136.555 41.0042 136.555 74.9999Z" fill="#003366"/>
<path d="M126.978 74.9999C126.978 103.707 103.706 126.979 74.999 126.979C46.2915 126.979 23.0195 103.707 23.0195 74.9999C23.0195 46.2925 46.2915 23.0205 74.999 23.0205C103.706 23.0205 126.978 46.2925 126.978 74.9999Z" fill="#003366"/>
<path d="M75.374 52.3213C87.7002 52.3213 97.6932 62.3135 97.6934 74.6396C97.6934 86.9659 87.7003 96.959 75.374 96.959C63.0479 96.9588 53.0557 86.9658 53.0557 74.6396C53.0559 62.3137 63.048 52.3215 75.374 52.3213Z" stroke="white" stroke-width="3"/>
<g clip-path="url(#clip0_10405_31243)">
<path d="M61.9609 76.5861L68.2497 82.8748L69.8359 81.2773L63.5584 74.9998M86.5197 67.7773L74.6172 79.6911L69.9372 74.9998L68.3284 76.5861L74.6172 82.8748L88.1172 69.3748M81.7497 69.3748L80.1634 67.7773L73.0197 74.9211L74.6172 76.5073L81.7497 69.3748Z" fill="white"/>
</g>
<defs>
<clipPath id="clip0_10405_31243">
<rect width="27" height="27" fill="white" transform="translate(61.5 61.5)"/>
</clipPath>
</defs>
</svg>
