<svg width="20" height="20" viewBox="0 0 20 20" fill="none" xmlns="http://www.w3.org/2000/svg">
<path fill-rule="evenodd" clip-rule="evenodd" d="M12.1131 3.17315C13.0894 2.19684 14.6723 2.19684 15.6486 3.17315L16.8271 4.35166C17.8034 5.32797 17.8034 6.91089 16.8271 7.8872L8.16669 16.5476C8.05035 16.664 7.90219 16.7432 7.74086 16.7755L3.32145 17.6594C2.73834 17.776 2.22424 17.2619 2.34086 16.6788L3.22475 12.2594C3.25701 12.0981 3.33631 11.9499 3.45264 11.8336L12.1131 3.17315ZM14.4701 4.35166L15.6486 5.53017C15.974 5.85561 15.974 6.38325 15.6486 6.70868L14.4701 7.8872L12.1131 5.53018L13.2916 4.35166C13.617 4.02623 14.1447 4.02623 14.4701 4.35166ZM10.9346 6.70869L4.80957 12.8337L4.22031 15.78L7.16659 15.1907L13.2916 9.06571L10.9346 6.70869Z" fill="#003366"/>
</svg>
