<svg width="20" height="20" viewBox="0 0 20 20" fill="none" xmlns="http://www.w3.org/2000/svg">
<path d="M17.9537 9.20449C18.207 9.55949 18.3337 9.73783 18.3337 10.0003C18.3337 10.2637 18.207 10.4412 17.9537 10.7962C16.8153 12.3928 13.9078 15.8337 10.0003 15.8337C6.09199 15.8337 3.18533 12.392 2.04699 10.7962C1.79366 10.4412 1.66699 10.2628 1.66699 10.0003C1.66699 9.73699 1.79366 9.55949 2.04699 9.20449C3.18533 7.60783 6.09283 4.16699 10.0003 4.16699C13.9087 4.16699 16.8153 7.60866 17.9537 9.20449Z" stroke="black" stroke-width="1.5" stroke-linecap="round" stroke-linejoin="round"/>
<path d="M12.5 10C12.5 9.33696 12.2366 8.70107 11.7678 8.23223C11.2989 7.76339 10.663 7.5 10 7.5C9.33696 7.5 8.70107 7.76339 8.23223 8.23223C7.76339 8.70107 7.5 9.33696 7.5 10C7.5 10.663 7.76339 11.2989 8.23223 11.7678C8.70107 12.2366 9.33696 12.5 10 12.5C10.663 12.5 11.2989 12.2366 11.7678 11.7678C12.2366 11.2989 12.5 10.663 12.5 10Z" stroke="black" stroke-width="1.5" stroke-linecap="round" stroke-linejoin="round"/>
</svg>
