<svg width="12" height="12" viewBox="0 0 12 12" fill="none" xmlns="http://www.w3.org/2000/svg">
<path d="M6 3.375C5.79289 3.375 5.625 3.20711 5.625 3C5.625 2.79289 5.79289 2.625 6 2.625C6.20711 2.625 6.375 2.79289 6.375 3C6.375 3.20711 6.20711 3.375 6 3.375Z" fill="#858585"/>
<path d="M6 6.375C5.79289 6.375 5.625 6.20711 5.625 6C5.625 5.79289 5.79289 5.625 6 5.625C6.20711 5.625 6.375 5.79289 6.375 6C6.375 6.20711 6.20711 6.375 6 6.375Z" fill="#858585"/>
<path d="M6 9.375C5.79289 9.375 5.625 9.20711 5.625 9C5.625 8.79289 5.79289 8.625 6 8.625C6.20711 8.625 6.375 8.79289 6.375 9C6.375 9.20711 6.20711 9.375 6 9.375Z" fill="#858585"/>
<path d="M6 3.375C5.79289 3.375 5.625 3.20711 5.625 3C5.625 2.79289 5.79289 2.625 6 2.625C6.20711 2.625 6.375 2.79289 6.375 3C6.375 3.20711 6.20711 3.375 6 3.375Z" stroke="#858585" stroke-width="1.5" stroke-linecap="round" stroke-linejoin="round"/>
<path d="M6 6.375C5.79289 6.375 5.625 6.20711 5.625 6C5.625 5.79289 5.79289 5.625 6 5.625C6.20711 5.625 6.375 5.79289 6.375 6C6.375 6.20711 6.20711 6.375 6 6.375Z" stroke="#858585" stroke-width="1.5" stroke-linecap="round" stroke-linejoin="round"/>
<path d="M6 9.375C5.79289 9.375 5.625 9.20711 5.625 9C5.625 8.79289 5.79289 8.625 6 8.625C6.20711 8.625 6.375 8.79289 6.375 9C6.375 9.20711 6.20711 9.375 6 9.375Z" stroke="#858585" stroke-width="1.5" stroke-linecap="round" stroke-linejoin="round"/>
</svg>
