<svg width="20" height="20" viewBox="0 0 20 20" fill="none" xmlns="http://www.w3.org/2000/svg">
<path d="M9.25 9.3H7M11.5 6.5H7M4 14.6522V7.2378C4 5.24 4 4.2418 4.65925 3.6209C5.31775 3 6.379 3 8.5 3H11.5C13.621 3 14.6823 3 15.3408 3.6209C16 4.2411 16 5.24 16 7.2378V14.6522C16 15.7099 16 16.2391 15.6535 16.4477C15.0872 16.7879 14.212 16.0739 13.7717 15.8149C13.408 15.6007 13.2265 15.4943 13.024 15.488C12.8065 15.481 12.6213 15.5839 12.2283 15.8149L10.795 16.6584C10.408 16.8859 10.2153 17 10 17C9.78475 17 9.592 16.8859 9.205 16.6584L7.7725 15.8149C7.408 15.6007 7.2265 15.4943 7.02475 15.488C6.8065 15.481 6.62125 15.5839 6.22825 15.8149C5.788 16.0739 4.91275 16.7879 4.34575 16.4477C4 16.2391 4 15.7106 4 14.6522Z" stroke="black" stroke-width="1.5" stroke-linecap="round" stroke-linejoin="round"/>
</svg>
