<svg width="20" height="20" viewBox="0 0 20 20" fill="none" xmlns="http://www.w3.org/2000/svg">
<path d="M13.5294 3V4.4M10 3V4.4M6.47059 3V4.4M7.17647 12.1H10M7.17647 8.6H12.8235M4 8.6C4 6.29 4 5.135 4.72353 4.4175C5.44706 3.7 6.61176 3.7 8.94118 3.7H11.0588C13.3882 3.7 14.5529 3.7 15.2765 4.4175C16 5.135 16 6.29 16 8.6V12.1C16 14.41 16 15.565 15.2765 16.2825C14.5529 17 13.3882 17 11.0588 17H8.94118C6.61176 17 5.44706 17 4.72353 16.2825C4 15.565 4 14.41 4 12.1V8.6Z" stroke="black" stroke-width="1.5" stroke-linecap="round" stroke-linejoin="round"/>
</svg>
