<svg width="20" height="20" viewBox="0 0 20 20" fill="none" xmlns="http://www.w3.org/2000/svg">
<path d="M3.72667 3.9585C3.22917 3.9585 2.64917 4.09683 2.175 4.391C1.69167 4.68933 1.25 5.20266 1.25 5.93766V14.0627C1.25 14.7977 1.69167 15.3102 2.175 15.6093C2.65 15.9035 3.22917 16.0418 3.72667 16.0418H12.3083C12.9061 16.0419 13.4803 15.8083 13.9083 15.391L18.3667 11.0443C18.506 10.9085 18.6168 10.7461 18.6924 10.5668C18.768 10.3874 18.8069 10.1948 18.8069 10.0002C18.8069 9.80554 18.768 9.6129 18.6924 9.43357C18.6168 9.25424 18.506 9.09186 18.3667 8.956L13.9083 4.60933C13.4803 4.192 12.9061 3.95845 12.3083 3.9585H3.72667Z" fill="#FFA629"/>
</svg>
