<svg width="24" height="24" viewBox="0 0 24 24" fill="none" xmlns="http://www.w3.org/2000/svg">
<path d="M17.5 19.005V4.99499C17.5001 4.85012 17.4608 4.70794 17.3865 4.58364C17.3121 4.45933 17.2053 4.35756 17.0776 4.28918C16.9499 4.22081 16.806 4.18839 16.6613 4.19541C16.5166 4.20242 16.3765 4.24859 16.256 4.32899L14.986 5.17599C14.8448 5.27004 14.6773 5.31675 14.5078 5.30938C14.3383 5.30201 14.1755 5.24094 14.043 5.13499L12.5 3.89999C12.3581 3.78638 12.1818 3.72449 12 3.72449C11.8182 3.72449 11.6419 3.78638 11.5 3.89999L9.957 5.13499C9.82428 5.24102 9.66126 5.30205 9.49154 5.30924C9.32182 5.31643 9.15421 5.26941 9.013 5.17499L7.743 4.32899C7.6225 4.24885 7.48253 4.20291 7.33798 4.19604C7.19343 4.18917 7.04973 4.22163 6.92218 4.28998C6.79462 4.35832 6.68799 4.45998 6.61365 4.58413C6.5393 4.70829 6.50003 4.85028 6.5 4.99499V19.005C6.49991 19.1499 6.53915 19.292 6.61355 19.4163C6.68794 19.5406 6.79469 19.6424 6.92241 19.7108C7.05013 19.7792 7.19402 19.8116 7.33871 19.8046C7.48341 19.7976 7.62349 19.7514 7.744 19.671L9.014 18.825C9.15511 18.7308 9.32252 18.6839 9.49203 18.6911C9.66154 18.6983 9.82437 18.7592 9.957 18.865L11.5 20.1C11.6419 20.2136 11.8182 20.2755 12 20.2755C12.1818 20.2755 12.3581 20.2136 12.5 20.1L14.043 18.865C14.1757 18.759 14.3387 18.6979 14.5085 18.6907C14.6782 18.6835 14.8458 18.7306 14.987 18.825L16.257 19.671C16.3775 19.7511 16.5175 19.7971 16.662 19.8039C16.8066 19.8108 16.9503 19.7783 17.0778 19.71C17.2054 19.6417 17.312 19.54 17.3864 19.4158C17.4607 19.2917 17.5 19.1497 17.5 19.005Z" stroke="white"/>
<path d="M9.5 9.5H14.5M9.5 12H14.5M9.5 14.5H14.5" stroke="white" stroke-linecap="round"/>
</svg>
