<svg width="24" height="24" viewBox="0 0 24 24" fill="none" xmlns="http://www.w3.org/2000/svg">
<path d="M17.5 19.0051V4.99511C17.5001 4.85024 17.4608 4.70807 17.3865 4.58376C17.3121 4.45945 17.2053 4.35768 17.0776 4.2893C16.9499 4.22093 16.806 4.18852 16.6613 4.19553C16.5166 4.20254 16.3765 4.24871 16.256 4.32911L14.986 5.17611C14.8448 5.27016 14.6773 5.31687 14.5078 5.3095C14.3383 5.30213 14.1755 5.24106 14.043 5.13511L12.5 3.90011C12.3581 3.78651 12.1818 3.72461 12 3.72461C11.8182 3.72461 11.6419 3.78651 11.5 3.90011L9.957 5.13511C9.82428 5.24114 9.66126 5.30217 9.49154 5.30936C9.32182 5.31655 9.15421 5.26953 9.013 5.17511L7.743 4.32911C7.6225 4.24898 7.48253 4.20303 7.33798 4.19616C7.19343 4.18929 7.04973 4.22175 6.92218 4.2901C6.79462 4.35844 6.68799 4.4601 6.61365 4.58426C6.5393 4.70841 6.50003 4.8504 6.5 4.99511V19.0051C6.49991 19.15 6.53915 19.2922 6.61355 19.4165C6.68794 19.5408 6.79469 19.6425 6.92241 19.7109C7.05013 19.7793 7.19402 19.8117 7.33871 19.8047C7.48341 19.7977 7.62349 19.7515 7.744 19.6711L9.014 18.8251C9.15511 18.7309 9.32252 18.684 9.49203 18.6912C9.66154 18.6984 9.82437 18.7593 9.957 18.8651L11.5 20.1001C11.6419 20.2137 11.8182 20.2756 12 20.2756C12.1818 20.2756 12.3581 20.2137 12.5 20.1001L14.043 18.8651C14.1757 18.7591 14.3387 18.6981 14.5085 18.6909C14.6782 18.6837 14.8458 18.7307 14.987 18.8251L16.257 19.6711C16.3775 19.7512 16.5175 19.7972 16.662 19.8041C16.8066 19.8109 16.9503 19.7785 17.0778 19.7101C17.2054 19.6418 17.312 19.5401 17.3864 19.416C17.4607 19.2918 17.5 19.1498 17.5 19.0051Z" stroke="white"/>
<path d="M9.5 9.5H14.5M9.5 12H14.5M9.5 14.5H14.5" stroke="white" stroke-linecap="round"/>
</svg>
