<svg width="20" height="20" viewBox="0 0 20 20" fill="none" xmlns="http://www.w3.org/2000/svg">
<path d="M16.5625 4.375V6.875C16.5625 7.12364 16.4637 7.3621 16.2879 7.53791C16.1121 7.71373 15.8736 7.8125 15.625 7.8125C15.3764 7.8125 15.1379 7.71373 14.9621 7.53791C14.7863 7.3621 14.6875 7.12364 14.6875 6.875V5.3125H10.9375V14.6875H12.5C12.7486 14.6875 12.9871 14.7863 13.1629 14.9621C13.3387 15.1379 13.4375 15.3764 13.4375 15.625C13.4375 15.8736 13.3387 16.1121 13.1629 16.2879C12.9871 16.4637 12.7486 16.5625 12.5 16.5625H7.5C7.25136 16.5625 7.0129 16.4637 6.83709 16.2879C6.66127 16.1121 6.5625 15.8736 6.5625 15.625C6.5625 15.3764 6.66127 15.1379 6.83709 14.9621C7.0129 14.7863 7.25136 14.6875 7.5 14.6875H9.0625V5.3125H5.3125V6.875C5.3125 7.12364 5.21373 7.3621 5.03791 7.53791C4.8621 7.71373 4.62364 7.8125 4.375 7.8125C4.12636 7.8125 3.8879 7.71373 3.71209 7.53791C3.53627 7.3621 3.4375 7.12364 3.4375 6.875V4.375C3.4375 4.12636 3.53627 3.8879 3.71209 3.71209C3.8879 3.53627 4.12636 3.4375 4.375 3.4375H15.625C15.8736 3.4375 16.1121 3.53627 16.2879 3.71209C16.4637 3.8879 16.5625 4.12636 16.5625 4.375Z" fill="black"/>
</svg>
