<svg width="16" height="16" viewBox="0 0 16 16" fill="none" xmlns="http://www.w3.org/2000/svg">
<g clip-path="url(#clip0_9987_20249)">
<path d="M12.3538 2.83357C12.5058 3.20109 12.7975 3.49321 13.1648 3.64573L14.4527 4.17919C14.8202 4.33143 15.1122 4.62344 15.2644 4.99098C15.4167 5.35852 15.4167 5.77149 15.2644 6.13903L14.7314 7.42599C14.5791 7.7937 14.5789 8.20708 14.7319 8.57461L15.264 9.86119C15.3395 10.0432 15.3783 10.2384 15.3784 10.4354C15.3784 10.6325 15.3396 10.8276 15.2642 11.0097C15.1888 11.1918 15.0782 11.3572 14.9389 11.4965C14.7995 11.6358 14.634 11.7463 14.452 11.8217L13.165 12.3547C12.7975 12.5067 12.5053 12.7984 12.3528 13.1657L11.8194 14.4536C11.6671 14.8211 11.3751 15.1131 11.0076 15.2654C10.64 15.4176 10.2271 15.4176 9.85953 15.2654L8.57256 14.7323C8.20501 14.5804 7.7922 14.5807 7.42487 14.7331L6.13698 15.2658C5.76965 15.4177 5.35704 15.4176 4.9898 15.2655C4.62255 15.1134 4.33071 14.8217 4.17836 14.4545L3.64474 13.1663C3.49278 12.7988 3.20109 12.5066 2.83381 12.3541L1.54592 11.8207C1.17854 11.6685 0.886615 11.3767 0.734317 11.0093C0.58202 10.642 0.581813 10.2292 0.733743 9.86175L1.26682 8.57478C1.41869 8.20723 1.41838 7.79441 1.26596 7.42709L0.733646 6.13828C0.658174 5.95624 0.619313 5.76111 0.619281 5.56405C0.61925 5.36698 0.658049 5.17184 0.733462 4.98978C0.808875 4.80772 0.919423 4.6423 1.05879 4.50298C1.19816 4.36365 1.36361 4.25316 1.5457 4.1778L2.83266 3.64472C3.19986 3.4929 3.49181 3.20158 3.64443 2.83472L4.17789 1.54683C4.33014 1.17929 4.62215 0.887276 4.98969 0.735035C5.35723 0.582794 5.7702 0.582794 6.13774 0.735035L7.4247 1.26811C7.79226 1.41998 8.20507 1.41967 8.5724 1.26725L9.86083 0.735862C10.2283 0.583706 10.6412 0.583738 11.0087 0.735948C11.3761 0.888159 11.6681 1.18009 11.8204 1.54753L12.354 2.8358L12.3538 2.83357Z" fill="#1570EF"/>
<path fill-rule="evenodd" clip-rule="evenodd" d="M11.1333 5.90291C11.2401 5.73503 11.276 5.53157 11.2328 5.33728C11.1897 5.14299 11.0711 4.9738 10.9033 4.86691C10.7354 4.76003 10.5319 4.72422 10.3376 4.76735C10.1433 4.81048 9.97414 4.92903 9.86726 5.09691L6.93026 9.71191L5.58626 8.03191C5.46201 7.8765 5.2811 7.7768 5.08335 7.75477C4.88559 7.73273 4.68718 7.79016 4.53176 7.91441C4.37634 8.03867 4.27665 8.21957 4.25462 8.41733C4.23258 8.61508 4.29001 8.8135 4.41426 8.96891L6.41426 11.4689C6.4888 11.5622 6.58453 11.6363 6.6935 11.6852C6.80246 11.734 6.92152 11.7561 7.04075 11.7497C7.15998 11.7432 7.27595 11.7084 7.37901 11.6481C7.48207 11.5877 7.56923 11.5037 7.63326 11.4029L11.1333 5.90291Z" fill="white"/>
</g>
<defs>
<clipPath id="clip0_9987_20249">
<rect width="16" height="16" fill="white"/>
</clipPath>
</defs>
</svg>
