<svg width="20" height="20" viewBox="0 0 20 20" fill="none" xmlns="http://www.w3.org/2000/svg">
<g clip-path="url(#clip0_10405_46756)">
<path d="M19.61 7.30207C19.6941 7.47951 19.7287 7.67327 19.7701 7.86363C19.8298 8.13829 19.8651 8.41771 19.9045 8.69645C19.9642 9.12476 20.0043 9.55307 19.9988 9.98478C19.9934 10.3907 19.9608 10.7958 19.9045 11.199C19.8502 11.5865 19.7885 11.9727 19.6887 12.3493C19.5435 12.8952 19.3901 13.4384 19.1573 13.9585C18.9409 14.4426 18.7135 14.9185 18.4251 15.3631C18.1781 15.7432 17.8897 16.0919 17.606 16.4454C17.2091 16.9404 16.7557 17.3755 16.2726 17.7793C15.7148 18.2464 15.1088 18.6455 14.4498 18.9602C14.0006 19.1751 13.5344 19.3437 13.0661 19.5068C12.6868 19.6394 12.2993 19.7482 11.9057 19.823C11.0133 19.9923 10.1101 20.0351 9.2062 19.9725C8.78547 19.9433 8.36541 19.8808 7.9501 19.7842C7.38346 19.6523 6.82971 19.4844 6.28615 19.277C5.49149 18.9732 4.76809 18.5455 4.0827 18.0472C3.39527 17.5475 2.80012 16.9533 2.26674 16.2932C1.8046 15.7214 1.38862 15.1157 1.06628 14.4562C0.81519 13.9422 0.612964 13.4051 0.452133 12.8524C0.365271 12.5553 0.27773 12.2582 0.218691 11.9557C0.148794 11.5974 0.0904339 11.2364 0.044967 10.8734C-0.0127149 10.4158 -0.000499914 9.95894 0.00492897 9.5014C0.00967924 9.09689 0.0680397 8.69577 0.137937 8.29602C0.188154 8.0064 0.250586 7.72018 0.311661 7.43328C0.365271 7.18037 0.45349 6.93427 0.53153 6.6868C0.651644 6.30336 0.817225 5.93692 0.972627 5.56776C1.10767 5.24754 1.29022 4.95113 1.46462 4.65063C2.01497 3.70155 2.75126 2.91292 3.56288 2.18615C3.93951 1.84894 4.36296 1.5804 4.77963 1.29894C5.0504 1.11606 5.34084 0.966491 5.63604 0.83256C6.03845 0.650358 6.4429 0.471556 6.86975 0.344423C7.12559 0.268279 7.37939 0.181938 7.63862 0.117351C7.86799 0.0602434 8.09668 -0.0145408 8.33962 0.00245561C8.05935 0.0697613 7.7852 0.157463 7.51036 0.244484C7.04347 0.393373 6.59627 0.589171 6.17282 0.833919C5.8688 1.00932 5.56207 1.18133 5.27569 1.388C4.61201 1.86662 4.02094 2.42206 3.48959 3.04345C2.9406 3.68456 2.50629 4.39772 2.15544 5.16392C1.96408 5.58203 1.789 6.0083 1.6682 6.45157C1.57795 6.78198 1.50941 7.11919 1.44223 7.45572C1.35197 7.91122 1.35604 8.37148 1.3065 8.82767C1.27664 9.09961 1.33636 9.36951 1.33772 9.64145C1.33908 10.0018 1.39472 10.3567 1.45512 10.7088C1.49923 10.9679 1.56234 11.2242 1.63291 11.4784C1.71503 11.7714 1.80257 12.0631 1.91182 12.3466C2.11676 12.8769 2.36989 13.3834 2.66508 13.8695C2.9976 14.4168 3.37219 14.9307 3.80922 15.3985C4.33514 15.9614 4.91807 16.4597 5.56343 16.8772C6.01199 17.1668 6.49516 17.3993 6.98647 17.61C7.3441 17.7637 7.70851 17.9017 8.08446 18.001C8.54999 18.124 9.01959 18.2226 9.50072 18.279C10.047 18.3436 10.5912 18.3259 11.1362 18.3205C11.4097 18.3178 11.6804 18.2756 11.9512 18.2321C12.1459 18.2008 12.338 18.1641 12.53 18.1199C12.8564 18.0458 13.1795 17.9595 13.495 17.85C13.9999 17.6753 14.4865 17.4584 14.9581 17.2055C15.8681 16.716 16.6546 16.0729 17.3495 15.3115C17.9141 14.6928 18.3783 14.0054 18.7699 13.2671C18.9565 12.915 19.1065 12.5451 19.232 12.1678C19.3426 11.8353 19.4491 11.4995 19.5285 11.1589C19.6045 10.8326 19.6636 10.5015 19.7023 10.1663C19.7606 9.65981 19.7932 9.154 19.7688 8.64614C19.7525 8.30146 19.724 7.95609 19.6554 7.6148C19.6351 7.5135 19.6181 7.40949 19.6086 7.30139L19.61 7.30207Z" fill="#003366"/>
<path d="M2.8687 10.2335C2.90467 10.3878 2.93656 10.5428 2.97796 10.6958C3.02546 10.8733 3.07093 11.0521 3.13472 11.2241C3.28808 11.6354 3.46724 12.0358 3.68507 12.4172C4.1472 13.2276 4.74031 13.9272 5.45896 14.522C6.03849 15.002 6.6791 15.3827 7.36382 15.6873C7.74791 15.8586 8.14897 15.9905 8.55681 16.0973C8.88119 16.1822 9.21235 16.2353 9.54419 16.2835C9.59441 16.291 9.63105 16.2856 9.6453 16.2203C9.70163 15.9627 9.7627 15.7063 9.8231 15.4494C9.86246 15.2821 9.90725 15.1162 9.94321 14.9483C10.0158 14.6084 10.0749 14.2657 10.1332 13.9231C10.1997 13.5308 10.2343 13.1358 10.2601 12.7408C10.2954 12.2078 10.2974 11.6748 10.2384 11.1404C10.2113 10.8936 10.1882 10.6455 10.1556 10.3994C10.1047 10.0126 10.0246 9.6298 9.91811 9.25588C9.76135 8.70723 9.56862 8.17015 9.32975 7.65006C9.1282 7.21087 8.92191 6.77372 8.66403 6.36717C8.3797 5.91982 8.06007 5.49627 7.70719 5.09584C7.34821 4.68793 6.95529 4.32692 6.49248 4.04546C6.13893 3.83063 5.76637 3.65658 5.36938 3.53285C5.17394 3.47166 4.97782 3.41456 4.78374 3.34997C4.72131 3.32957 4.66091 3.33705 4.58287 3.31938C4.7281 3.6559 4.86585 3.9768 5.00497 4.29633C5.2703 4.90888 5.52818 5.52551 5.80505 6.13262C6.08124 6.73701 6.3364 7.35092 6.62549 7.95055C6.84061 8.39654 6.80396 8.72423 6.41444 9.08591C6.1396 9.34086 5.80844 9.47343 5.45828 9.58221C5.0199 9.71818 4.5693 9.71886 4.12685 9.67195C3.54799 9.61008 3.01257 9.40613 2.59929 8.9649C2.31156 8.65828 2.2756 8.34079 2.44729 7.95735C2.69973 7.39239 2.93928 6.82131 3.1829 6.25227C3.45842 5.60981 3.73461 4.96803 4.00605 4.3242C4.13431 4.01963 4.25103 3.71029 4.37929 3.40572C4.41254 3.32617 4.39286 3.29694 4.31618 3.2915C4.22049 3.28402 4.12413 3.27994 4.0108 3.27383C4.06306 3.21264 4.1221 3.19156 4.1791 3.18544C4.62902 3.13446 5.07962 3.07803 5.53293 3.10794C6.05817 3.14261 6.57052 3.24119 7.0693 3.42339C7.58437 3.61171 8.07568 3.84083 8.5222 4.159C9.44783 4.81914 10.2289 5.61525 10.805 6.60444C11.0738 7.06538 11.2679 7.55556 11.4328 8.06137C11.5278 8.35235 11.6045 8.64741 11.6676 8.94518C11.7273 9.228 11.7748 9.51626 11.7829 9.80792C11.789 10.0282 11.8169 10.2478 11.808 10.4687C11.7924 10.8692 11.7612 11.2669 11.69 11.6639C11.5888 12.2241 11.4172 12.7599 11.236 13.2976C11.0303 13.9075 10.7657 14.4901 10.5065 15.0768C10.3524 15.4242 10.2072 15.775 10.0314 16.1115C10.0009 16.17 9.96289 16.2251 9.90861 16.3141C11.9628 16.4508 13.7957 15.9049 15.3972 14.6587C17.0014 13.4105 17.9752 11.7659 18.267 9.7345C18.2623 10.0323 18.2677 10.3287 18.208 10.6237C18.1639 10.842 18.1401 11.0643 18.0981 11.2839C18.0655 11.4532 18.0214 11.6191 17.9793 11.7849C17.8558 12.2778 17.6488 12.7401 17.4269 13.1936C17.1528 13.7545 16.7938 14.2603 16.3812 14.728C15.8118 15.3739 15.142 15.8994 14.4085 16.3393C13.9579 16.6092 13.4801 16.8302 12.9814 17.0056C12.6359 17.1266 12.2837 17.2163 11.9295 17.2952C11.314 17.4311 10.6856 17.4311 10.0606 17.3992C9.77288 17.3842 9.4838 17.3339 9.19742 17.2911C8.90698 17.2469 8.62332 17.151 8.34102 17.0586C7.80966 16.8852 7.29935 16.6663 6.80736 16.4032C6.06089 16.0041 5.40263 15.4915 4.83803 14.8599C4.36775 14.3337 3.9633 13.7592 3.64503 13.1297C3.40481 12.6552 3.21479 12.1589 3.07432 11.6415C2.95828 11.2125 2.90467 10.776 2.8497 10.3382C2.84563 10.3056 2.8497 10.2716 2.8497 10.2383C2.85649 10.2369 2.8626 10.2362 2.86938 10.2349L2.8687 10.2335ZM4.50008 3.60763C4.39829 3.84151 4.31211 4.04002 4.22524 4.23854C4.00063 4.75047 3.77533 5.26172 3.55071 5.77366C3.4082 6.09863 3.2684 6.42428 3.12725 6.74993C2.91485 7.24078 2.70584 7.733 2.488 8.22114C2.43914 8.33059 2.46154 8.38022 2.56333 8.43597C3.018 8.68344 3.51203 8.78882 4.01895 8.83913C4.4614 8.88332 4.90318 8.87788 5.34767 8.81873C5.75823 8.76366 6.14843 8.65828 6.51963 8.47608C6.60581 8.43393 6.6221 8.37818 6.58409 8.29388C6.27872 7.61199 5.97877 6.92873 5.67001 6.2482C5.3877 5.62545 5.09454 5.00746 4.83057 4.37655C4.7281 4.13112 4.62087 3.88842 4.4994 3.60695L4.50008 3.60763Z" fill="black"/>
<path d="M17.0847 3.17903C16.8947 3.1736 16.7427 3.24294 16.5907 3.29121C16.0831 3.45098 15.6013 3.67261 15.1615 3.97583C14.6309 4.34295 14.1742 4.78621 13.7724 5.29407C13.4867 5.65507 13.237 6.03647 13.0341 6.4471C12.7715 6.97943 12.5068 7.51108 12.2849 8.06244C12.213 8.24056 12.1349 8.41529 12.0806 8.60021C12.0732 8.62536 12.0447 8.65867 12.023 8.66139C11.9816 8.66683 11.9945 8.62128 11.985 8.59613C11.8268 8.16442 11.668 7.73271 11.5093 7.30168C11.4156 7.04674 11.3131 6.79451 11.2303 6.53616C11.193 6.41855 11.2263 6.29821 11.2962 6.1874C11.7284 5.50074 12.2327 4.87528 12.8563 4.35315C13.3822 3.9126 13.9611 3.56247 14.6091 3.32656C14.9518 3.20215 15.3 3.09677 15.6562 3.03423C16.081 2.96012 16.514 2.94992 16.9463 2.96488C17.1309 2.97168 17.3168 2.9744 17.4966 3.02675C17.5333 3.03762 17.5801 3.04102 17.5787 3.08861C17.5774 3.13688 17.5299 3.12193 17.4987 3.12805C17.215 3.18175 17.2232 3.17835 17.3433 3.44554C17.5319 3.86705 17.7063 4.29536 17.8882 4.71959C18.0999 5.21316 18.3144 5.70538 18.524 6.19896C18.6625 6.52393 18.7941 6.8523 18.9305 7.17795C18.9977 7.33839 19.0656 7.49816 19.1395 7.65521C19.2759 7.94415 19.1823 8.19093 19.012 8.42752C18.8097 8.7083 18.5274 8.85991 18.2058 8.97209C17.7688 9.12369 17.3236 9.19032 16.8662 9.16653C16.2921 9.13661 15.7587 8.97481 15.3291 8.57505C15.0299 8.29699 14.9267 7.9829 15.1642 7.50088C15.38 7.06305 15.5775 6.61571 15.7757 6.16972C16.0763 5.49326 16.3708 4.81409 16.6674 4.13559C16.8044 3.8215 16.9415 3.50741 17.0847 3.17768V3.17903ZM17.1689 3.49313C17.1248 3.60055 17.0623 3.68281 17.0223 3.77391C16.7671 4.35179 16.5079 4.9283 16.2507 5.5055C16.0566 5.94061 15.8646 6.3764 15.6691 6.81083C15.5097 7.16571 15.3549 7.52195 15.2016 7.87888C15.1588 7.97746 15.1425 8.02029 15.2464 8.05496C15.4242 8.11479 15.6013 8.17938 15.7831 8.22629C16.1089 8.30991 16.4366 8.36973 16.7753 8.39285C17.2008 8.4214 17.6215 8.39897 18.0348 8.32079C18.3619 8.2596 18.6808 8.14742 18.9903 8.01689C19.0954 7.9727 19.1117 7.89995 19.0724 7.80681C18.997 7.62937 18.9217 7.45193 18.8477 7.27381C18.6523 6.80267 18.4379 6.33901 18.2295 5.87262C17.9818 5.3199 17.7321 4.76786 17.4844 4.21514C17.3772 3.97515 17.2734 3.7338 17.1682 3.49313H17.1689Z" fill="#003366"/>
<path d="M12.5977 2.68799C12.6371 3.55548 11.8377 4.24962 11.0532 4.2469C10.2572 4.2435 9.50187 3.54868 9.50391 2.71042C9.50595 1.80621 10.2226 1.1182 11.1149 1.12704C11.8193 1.13384 12.6445 1.83613 12.5977 2.68799Z" fill="#003366"/>
</g>
<defs>
<clipPath id="clip0_10405_46756">
<rect width="20" height="20" fill="white"/>
</clipPath>
</defs>
</svg>
